%
M48
M72
T01C0.0118
T02C0.0197
T03C0.0236
T04C0.0315
T05C0.0354
T06C0.0374
T07C0.0394
T08C0.0400
T09C0.0433
T10C0.0866
T11C0.0906
T12C0.1181
T13C0.1252
T14C0.1300
%
T01
X29402Y11752
X30845Y12890
X30276Y14173
X30195Y15506
X30678Y15520
X29981Y16065
X29556Y17291
X29556Y17803
X29575Y18335
X29575Y18906
X29575Y19398
X28237Y21858
X26977Y22114
X26977Y22921
X26646Y24500
X26396Y25000
X27896Y25000
X28396Y24500
X33945Y24614
X36721Y23846
X38040Y23197
X37396Y22750
X36721Y21583
X36544Y20953
X34733Y22685
X33926Y22685
X37981Y17232
X36150Y16898
X33847Y15461
X33355Y15461
X32666Y15480
X31859Y15441
X34615Y13650
X34496Y7508
X30737Y7528
X34811Y3177
X52396Y20750
X52396Y21250
X21646Y25750
X20896Y26250
X18896Y25250
X18896Y24750
X19896Y24250
X8374Y27691
X8355Y28846
X8532Y29634
T02
X9083Y32547
X7351Y32547
X5559Y32547
X15028Y31031
X15933Y31268
X16367Y31740
X18099Y31740
X19280Y31504
X20304Y31661
X21426Y32528
X22658Y31504
X22396Y29750
X22896Y27000
X24396Y27000
X27896Y27000
X28646Y27000
X28945Y25776
X30396Y27000
X31146Y27000
X31229Y24594
X30646Y24000
X31890Y24039
X32489Y24594
X35028Y24004
X35896Y22250
X35658Y21524
X35658Y20402
X36741Y19358
X37979Y20059
X38146Y18750
X36760Y17213
X35363Y16642
X34516Y16642
X34811Y15632
X36146Y15750
X37146Y15000
X33646Y12750
X33099Y11740
X33646Y11230
X31896Y9750
X31229Y8315
X31977Y7547
X30008Y7547
X26646Y8500
X25126Y9181
X25933Y10047
X26642Y11150
X26662Y12331
X24890Y12350
X23040Y12390
X24890Y11110
X24396Y10750
X29461Y14205
X31544Y16858
X33146Y17500
X31646Y19000
X33146Y20500
X34646Y19000
X30737Y21465
X24416Y19461
X23646Y20000
X22876Y19461
X21396Y19750
X23646Y18362
X23650Y16839
X23646Y15998
X22896Y15461
X24396Y15461
X21396Y17250
X16896Y20750
X14896Y20750
X13396Y18750
X18896Y21250
X16896Y23250
X14896Y24250
X10874Y25874
X8827Y26110
X8178Y25283
X7134Y25224
X5343Y23094
X6146Y21000
X5337Y18000
X7646Y16000
X4646Y12250
X4646Y9500
X4646Y6000
X3396Y6000
X5896Y4500
X5896Y3250
X10396Y2250
X13646Y4500
X10396Y5750
X16146Y14500
X23646Y21500
X23630Y22921
X22896Y23500
X24396Y23500
X18146Y29750
X23646Y33750
X23646Y34250
X23646Y34750
X25638Y35185
X28896Y34250
X29396Y33750
X31741Y34004
X34146Y35500
X34146Y36000
X34896Y36000
X34896Y37250
X34896Y37750
X38146Y35750
X38146Y35250
X34896Y34000
X34896Y33500
X31741Y32370
X30422Y31524
X29634Y30874
X28886Y31504
X25087Y32961
X35396Y29250
X36896Y29250
X39083Y31051
X40896Y30750
X41130Y32528
X40894Y32921
X40896Y34500
X40896Y35000
X40896Y35500
X43646Y35250
X43646Y35750
X46396Y34000
X46890Y33508
X47823Y32685
X44870Y32862
X44870Y31543
X47146Y29500
X49146Y29500
X49146Y27500
X49146Y26250
X48040Y26327
X47146Y27500
X53473Y27350
X54646Y27500
X53646Y25500
X54646Y30000
X55396Y30000
X52666Y32697
X51896Y32250
X51896Y31750
X51896Y34500
X51896Y35250
X51896Y36000
X56646Y34000
X57146Y34500
X36146Y27000
X59646Y16500
X61146Y16500
X52146Y11500
X51396Y10750
X51396Y12250
X49146Y11500
X48396Y10750
X46896Y10750
X46146Y11500
X46896Y12250
X48396Y12250
X43896Y12250
X43146Y11500
X43896Y10750
X45396Y8750
X47146Y8500
X50146Y6250
X47469Y5795
X43896Y6250
X40894Y5067
X40894Y3965
X40646Y2500
X41646Y2500
X38896Y2250
X34396Y1500
X31977Y1951
X30725Y2000
X27896Y1750
X27896Y3000
X36760Y7606
X53896Y7500
X54896Y6500
T03
X29556Y36130
X29516Y36701
X19646Y37000
X19146Y37500
T04
X9638Y37500
X8654Y37500
X5646Y36681
X3756Y35500
T05
X44307Y4831
X44307Y3846
X45134Y3846
X46158Y3846
X46985Y3846
X46985Y4831
X51307Y4831
X51307Y3846
X52134Y3846
X53158Y3846
X53985Y3846
X53985Y4831
X57646Y8104
X57646Y9004
X57646Y9904
X58646Y9454
X59646Y9004
X58646Y8554
X59646Y8104
X59646Y9904
X58646Y10354
X57646Y10804
X57646Y11704
X58646Y11254
X59646Y10804
X59646Y11704
X58646Y12154
X58815Y31661
X59800Y31661
X59800Y32488
X59800Y33512
X59800Y34339
X58815Y34339
T06
X6000Y29992
X5213Y29992
X5213Y29008
X6000Y29008
T07
X5646Y34319
T08
X2646Y22500
X1646Y22500
X1646Y21500
X1646Y20500
X2646Y20500
X2646Y21500
X2646Y19500
X1646Y19500
X1646Y18500
X2646Y18500
X2646Y13500
X1646Y13500
X1646Y12500
X2646Y12500
X2646Y11500
X1646Y11500
X1646Y10500
X2646Y10500
X2646Y9500
X1646Y9500
X58146Y20840
X59146Y21380
X58146Y21920
X59146Y22460
X58146Y23000
X59146Y23540
X58146Y24080
X59146Y24620
X58146Y25160
T09
X56615Y35531
X55630Y35531
X53662Y35531
X52678Y35531
X51115Y35531
X50130Y35531
X48162Y35531
X47178Y35531
X45615Y35531
X44630Y35531
X42662Y35531
X41678Y35531
X40115Y35531
X39130Y35531
X37162Y35531
X36178Y35531
X38146Y37500
X43646Y37500
X49146Y37500
X54646Y37500
T10
X60981Y35657
X61296Y33000
X60981Y30343
X55304Y2665
X52646Y2350
X49989Y2665
X48304Y2665
X45646Y2350
X42989Y2665
T11
X4146Y27130
X4146Y31870
T12
X2146Y2500
X2146Y38000
X61146Y38000
X61146Y2500
T13
X58646Y5079
X58646Y14921
T14
X58646Y18070
X58646Y27930
M30
