G75*
%MOIN*%
%OFA0B0*%
%FSLAX24Y24*%
%IPPOS*%
%LPD*%
%AMOC8*
5,1,8,0,0,1.08239X$1,22.5*
%
%ADD10C,0.0040*%
%ADD11C,0.0080*%
%ADD12C,0.0100*%
%ADD13C,0.0020*%
%ADD14C,0.0010*%
%ADD15C,0.0039*%
%ADD16C,0.0060*%
%ADD17C,0.0070*%
%ADD18C,0.0050*%
%ADD19R,0.2402X0.0157*%
%ADD20R,0.1417X0.0157*%
%ADD21R,0.1220X0.0157*%
%ADD22R,0.0300X0.7300*%
%ADD23R,0.0200X1.2200*%
%ADD24R,0.2850X0.0320*%
%ADD25R,0.1850X0.0320*%
%ADD26C,0.0120*%
%ADD27R,0.0560X0.0980*%
%ADD28C,0.0030*%
%ADD29R,0.0295X0.0197*%
%ADD30R,0.0340X0.0300*%
%ADD31R,0.0240X0.0620*%
%ADD32C,0.0079*%
%ADD33R,0.0059X0.0118*%
%ADD34R,0.0118X0.0118*%
%ADD35R,0.0118X0.0059*%
D10*
X007166Y001966D02*
X007242Y001889D01*
X007549Y001889D01*
X007626Y001966D01*
X007626Y002119D01*
X007549Y002196D01*
X007549Y002349D02*
X007626Y002426D01*
X007626Y002579D01*
X007549Y002656D01*
X007396Y002656D01*
X007319Y002579D01*
X007319Y002503D01*
X007396Y002349D01*
X007166Y002349D01*
X007166Y002656D01*
X007166Y002810D02*
X007166Y003117D01*
X007242Y003117D01*
X007549Y002810D01*
X007626Y002810D01*
X008416Y003268D02*
X008492Y003191D01*
X008569Y003191D01*
X008646Y003268D01*
X008646Y003422D01*
X008723Y003498D01*
X008799Y003498D01*
X008876Y003422D01*
X008876Y003268D01*
X008799Y003191D01*
X008416Y003268D02*
X008416Y003422D01*
X008492Y003498D01*
X008569Y003652D02*
X008416Y003805D01*
X008876Y003805D01*
X008876Y003652D02*
X008876Y003959D01*
X007242Y002196D02*
X007166Y002119D01*
X007166Y001966D01*
X011666Y003889D02*
X011666Y004119D01*
X011742Y004196D01*
X011896Y004196D01*
X011973Y004119D01*
X011973Y003889D01*
X012126Y003889D02*
X011666Y003889D01*
X011973Y004042D02*
X012126Y004196D01*
X011896Y004349D02*
X011896Y004656D01*
X011896Y004810D02*
X011666Y005040D01*
X012126Y005040D01*
X011896Y005117D02*
X011896Y004810D01*
X012126Y004579D02*
X011666Y004579D01*
X011896Y004349D01*
X012666Y004119D02*
X012666Y003889D01*
X013126Y003889D01*
X012973Y003889D02*
X012973Y004119D01*
X012896Y004196D01*
X012742Y004196D01*
X012666Y004119D01*
X012973Y004042D02*
X013126Y004196D01*
X012896Y004349D02*
X012896Y004656D01*
X012973Y004810D02*
X012896Y004886D01*
X012896Y005040D01*
X012973Y005117D01*
X013049Y005117D01*
X013126Y005040D01*
X013126Y004886D01*
X013049Y004810D01*
X012973Y004810D01*
X012896Y004886D02*
X012819Y004810D01*
X012742Y004810D01*
X012666Y004886D01*
X012666Y005040D01*
X012742Y005117D01*
X012819Y005117D01*
X012896Y005040D01*
X013126Y004579D02*
X012666Y004579D01*
X012896Y004349D01*
X013916Y004419D02*
X014376Y004419D01*
X013916Y004112D01*
X014376Y004112D01*
X014299Y003959D02*
X013992Y003959D01*
X013916Y003882D01*
X013916Y003729D01*
X013992Y003652D01*
X014299Y003652D01*
X014376Y003729D01*
X014376Y003882D01*
X014299Y003959D01*
X013916Y003498D02*
X013916Y003191D01*
X013916Y003038D02*
X013916Y002731D01*
X013916Y002578D02*
X014299Y002578D01*
X014376Y002501D01*
X014376Y002347D01*
X014299Y002271D01*
X013916Y002271D01*
X013992Y002117D02*
X014069Y002117D01*
X014146Y002041D01*
X014146Y001810D01*
X014376Y001810D02*
X014376Y002041D01*
X014299Y002117D01*
X014223Y002117D01*
X014146Y002041D01*
X013992Y002117D02*
X013916Y002041D01*
X013916Y001810D01*
X014376Y001810D01*
X014376Y002885D02*
X013916Y002885D01*
X013916Y003345D02*
X014376Y003345D01*
X014453Y004573D02*
X014453Y004880D01*
X014299Y005033D02*
X014376Y005110D01*
X014376Y005263D01*
X014299Y005340D01*
X014223Y005340D01*
X014146Y005263D01*
X014146Y005187D01*
X014146Y005263D02*
X014069Y005340D01*
X013992Y005340D01*
X013916Y005263D01*
X013916Y005110D01*
X013992Y005033D01*
X016666Y005040D02*
X016666Y004886D01*
X016742Y004810D01*
X016819Y004810D01*
X016896Y004886D01*
X016896Y005117D01*
X017049Y005117D02*
X016742Y005117D01*
X016666Y005040D01*
X017049Y005117D02*
X017126Y005040D01*
X017126Y004886D01*
X017049Y004810D01*
X016896Y004656D02*
X016896Y004349D01*
X016666Y004579D01*
X017126Y004579D01*
X017126Y004196D02*
X016973Y004042D01*
X016973Y004119D02*
X016973Y003889D01*
X017126Y003889D02*
X016666Y003889D01*
X016666Y004119D01*
X016742Y004196D01*
X016896Y004196D01*
X016973Y004119D01*
X017916Y004112D02*
X018376Y004419D01*
X017916Y004419D01*
X017916Y004112D02*
X018376Y004112D01*
X018299Y003959D02*
X017992Y003959D01*
X017916Y003882D01*
X017916Y003729D01*
X017992Y003652D01*
X018299Y003652D01*
X018376Y003729D01*
X018376Y003882D01*
X018299Y003959D01*
X017916Y003498D02*
X017916Y003191D01*
X017916Y003038D02*
X017916Y002731D01*
X017916Y002578D02*
X018299Y002578D01*
X018376Y002501D01*
X018376Y002347D01*
X018299Y002271D01*
X017916Y002271D01*
X017992Y002117D02*
X018069Y002117D01*
X018146Y002041D01*
X018146Y001810D01*
X018376Y001810D02*
X018376Y002041D01*
X018299Y002117D01*
X018223Y002117D01*
X018146Y002041D01*
X017992Y002117D02*
X017916Y002041D01*
X017916Y001810D01*
X018376Y001810D01*
X018376Y002885D02*
X017916Y002885D01*
X017916Y003345D02*
X018376Y003345D01*
X018453Y004573D02*
X018453Y004880D01*
X018376Y005033D02*
X018069Y005340D01*
X017992Y005340D01*
X017916Y005263D01*
X017916Y005110D01*
X017992Y005033D01*
X018376Y005033D02*
X018376Y005340D01*
X020666Y005040D02*
X020742Y005117D01*
X021049Y004810D01*
X021126Y004886D01*
X021126Y005040D01*
X021049Y005117D01*
X020742Y005117D01*
X020666Y005040D02*
X020666Y004886D01*
X020742Y004810D01*
X021049Y004810D01*
X021049Y004656D02*
X021126Y004579D01*
X021126Y004426D01*
X021049Y004349D01*
X020896Y004349D02*
X020819Y004503D01*
X020819Y004579D01*
X020896Y004656D01*
X021049Y004656D01*
X020896Y004349D02*
X020666Y004349D01*
X020666Y004656D01*
X020742Y004196D02*
X020896Y004196D01*
X020973Y004119D01*
X020973Y003889D01*
X021126Y003889D02*
X020666Y003889D01*
X020666Y004119D01*
X020742Y004196D01*
X020973Y004042D02*
X021126Y004196D01*
X021916Y004112D02*
X022376Y004419D01*
X021916Y004419D01*
X021916Y004112D02*
X022376Y004112D01*
X022299Y003959D02*
X021992Y003959D01*
X021916Y003882D01*
X021916Y003729D01*
X021992Y003652D01*
X022299Y003652D01*
X022376Y003729D01*
X022376Y003882D01*
X022299Y003959D01*
X021916Y003498D02*
X021916Y003191D01*
X021916Y003038D02*
X021916Y002731D01*
X021916Y002578D02*
X022299Y002578D01*
X022376Y002501D01*
X022376Y002347D01*
X022299Y002271D01*
X021916Y002271D01*
X021992Y002117D02*
X022069Y002117D01*
X022146Y002041D01*
X022146Y001810D01*
X022376Y001810D02*
X022376Y002041D01*
X022299Y002117D01*
X022223Y002117D01*
X022146Y002041D01*
X021992Y002117D02*
X021916Y002041D01*
X021916Y001810D01*
X022376Y001810D01*
X022376Y002885D02*
X021916Y002885D01*
X021916Y003345D02*
X022376Y003345D01*
X022453Y004573D02*
X022453Y004880D01*
X022376Y005033D02*
X022376Y005340D01*
X022376Y005187D02*
X021916Y005187D01*
X022069Y005033D01*
X024666Y004963D02*
X025126Y004963D01*
X025126Y004810D02*
X025126Y005117D01*
X024819Y004810D02*
X024666Y004963D01*
X024666Y004656D02*
X024666Y004349D01*
X024896Y004349D01*
X024819Y004503D01*
X024819Y004579D01*
X024896Y004656D01*
X025049Y004656D01*
X025126Y004579D01*
X025126Y004426D01*
X025049Y004349D01*
X025126Y004196D02*
X024973Y004042D01*
X024973Y004119D02*
X024973Y003889D01*
X025126Y003889D02*
X024666Y003889D01*
X024666Y004119D01*
X024742Y004196D01*
X024896Y004196D01*
X024973Y004119D01*
X025916Y004112D02*
X026376Y004419D01*
X025916Y004419D01*
X025916Y004112D02*
X026376Y004112D01*
X026299Y003959D02*
X025992Y003959D01*
X025916Y003882D01*
X025916Y003729D01*
X025992Y003652D01*
X026299Y003652D01*
X026376Y003729D01*
X026376Y003882D01*
X026299Y003959D01*
X025916Y003498D02*
X025916Y003191D01*
X025916Y003038D02*
X025916Y002731D01*
X025916Y002578D02*
X026299Y002578D01*
X026376Y002501D01*
X026376Y002347D01*
X026299Y002271D01*
X025916Y002271D01*
X025992Y002117D02*
X026069Y002117D01*
X026146Y002041D01*
X026146Y001810D01*
X026376Y001810D02*
X025916Y001810D01*
X025916Y002041D01*
X025992Y002117D01*
X026146Y002041D02*
X026223Y002117D01*
X026299Y002117D01*
X026376Y002041D01*
X026376Y001810D01*
X028035Y002097D02*
X028035Y002404D01*
X028112Y002480D01*
X028265Y002480D01*
X028342Y002404D01*
X028495Y002480D02*
X028495Y002250D01*
X028649Y002327D01*
X028725Y002327D01*
X028802Y002250D01*
X028802Y002097D01*
X028725Y002020D01*
X028572Y002020D01*
X028495Y002097D01*
X028342Y002097D02*
X028265Y002020D01*
X028112Y002020D01*
X028035Y002097D01*
X028495Y002480D02*
X028802Y002480D01*
X028956Y002404D02*
X029032Y002480D01*
X029186Y002480D01*
X029263Y002404D01*
X029263Y002327D01*
X029186Y002250D01*
X029263Y002173D01*
X029263Y002097D01*
X029186Y002020D01*
X029032Y002020D01*
X028956Y002097D01*
X029109Y002250D02*
X029186Y002250D01*
X029109Y001230D02*
X029109Y000770D01*
X028956Y000770D02*
X029263Y000770D01*
X028956Y001077D02*
X029109Y001230D01*
X028802Y001230D02*
X028495Y001230D01*
X028495Y001000D01*
X028649Y001077D01*
X028725Y001077D01*
X028802Y001000D01*
X028802Y000847D01*
X028725Y000770D01*
X028572Y000770D01*
X028495Y000847D01*
X028342Y000847D02*
X028265Y000770D01*
X028112Y000770D01*
X028035Y000847D01*
X028035Y001154D01*
X028112Y001230D01*
X028265Y001230D01*
X028342Y001154D01*
X026376Y002885D02*
X025916Y002885D01*
X025916Y003345D02*
X026376Y003345D01*
X026453Y004573D02*
X026453Y004880D01*
X026299Y005033D02*
X026376Y005110D01*
X026376Y005263D01*
X026299Y005340D01*
X025992Y005340D01*
X026299Y005033D01*
X025992Y005033D01*
X025916Y005110D01*
X025916Y005263D01*
X025992Y005340D01*
X030666Y005347D02*
X030743Y005270D01*
X030896Y005270D01*
X030973Y005347D01*
X030973Y005730D01*
X031126Y005654D02*
X031203Y005730D01*
X031357Y005730D01*
X031433Y005654D01*
X031587Y005654D02*
X031664Y005730D01*
X031817Y005730D01*
X031894Y005654D01*
X031894Y005577D01*
X031587Y005270D01*
X031894Y005270D01*
X031433Y005347D02*
X031433Y005423D01*
X031357Y005500D01*
X031203Y005500D01*
X031126Y005577D01*
X031126Y005654D01*
X031280Y005807D02*
X031280Y005193D01*
X031357Y005270D02*
X031433Y005347D01*
X031357Y005270D02*
X031203Y005270D01*
X031126Y005347D01*
X030666Y005347D02*
X030666Y005730D01*
X030757Y007490D02*
X030911Y007490D01*
X030987Y007567D01*
X031141Y007567D02*
X031218Y007490D01*
X031371Y007490D01*
X031448Y007567D01*
X031448Y007721D01*
X031371Y007797D01*
X031294Y007797D01*
X031141Y007721D01*
X031141Y007951D01*
X031448Y007951D01*
X031601Y007951D02*
X031601Y007721D01*
X031755Y007797D01*
X031832Y007797D01*
X031908Y007721D01*
X031908Y007567D01*
X031832Y007490D01*
X031678Y007490D01*
X031601Y007567D01*
X031601Y007951D02*
X031908Y007951D01*
X030987Y007874D02*
X030911Y007951D01*
X030757Y007951D01*
X030681Y007874D01*
X030681Y007567D01*
X030757Y007490D01*
X037416Y003154D02*
X037493Y003230D01*
X037646Y003230D01*
X037723Y003154D01*
X037876Y003230D02*
X037876Y003000D01*
X038030Y003077D01*
X038107Y003077D01*
X038183Y003000D01*
X038183Y002847D01*
X038107Y002770D01*
X037953Y002770D01*
X037876Y002847D01*
X037723Y002847D02*
X037646Y002770D01*
X037493Y002770D01*
X037416Y002847D01*
X037416Y003154D01*
X037876Y003230D02*
X038183Y003230D01*
X038337Y003154D02*
X038414Y003230D01*
X038567Y003230D01*
X038644Y003154D01*
X038644Y003077D01*
X038337Y002770D01*
X038644Y002770D01*
X039166Y003270D02*
X039166Y003500D01*
X039242Y003577D01*
X039396Y003577D01*
X039473Y003500D01*
X039473Y003270D01*
X039626Y003270D02*
X039166Y003270D01*
X039473Y003423D02*
X039626Y003577D01*
X039396Y003730D02*
X039396Y004037D01*
X039549Y004191D02*
X039626Y004268D01*
X039626Y004421D01*
X039549Y004498D01*
X039473Y004498D01*
X039396Y004421D01*
X039396Y004344D01*
X039396Y004421D02*
X039319Y004498D01*
X039242Y004498D01*
X039166Y004421D01*
X039166Y004268D01*
X039242Y004191D01*
X039166Y003961D02*
X039396Y003730D01*
X039626Y003961D02*
X039166Y003961D01*
X040666Y003961D02*
X040896Y003730D01*
X040896Y004037D01*
X040819Y004191D02*
X040666Y004344D01*
X041126Y004344D01*
X041126Y004191D02*
X041126Y004498D01*
X041126Y003961D02*
X040666Y003961D01*
X040742Y003577D02*
X040896Y003577D01*
X040973Y003500D01*
X040973Y003270D01*
X041126Y003270D02*
X040666Y003270D01*
X040666Y003500D01*
X040742Y003577D01*
X040973Y003423D02*
X041126Y003577D01*
X041126Y005520D02*
X040666Y005520D01*
X040666Y005750D01*
X040742Y005827D01*
X040896Y005827D01*
X040973Y005750D01*
X040973Y005520D01*
X040973Y005673D02*
X041126Y005827D01*
X040896Y005980D02*
X040896Y006287D01*
X041049Y006441D02*
X040742Y006748D01*
X041049Y006748D01*
X041126Y006671D01*
X041126Y006518D01*
X041049Y006441D01*
X040742Y006441D01*
X040666Y006518D01*
X040666Y006671D01*
X040742Y006748D01*
X040666Y006211D02*
X040896Y005980D01*
X041126Y006211D02*
X040666Y006211D01*
X039626Y006211D02*
X039166Y006211D01*
X039396Y005980D01*
X039396Y006287D01*
X039242Y006441D02*
X039166Y006518D01*
X039166Y006671D01*
X039242Y006748D01*
X039319Y006748D01*
X039626Y006441D01*
X039626Y006748D01*
X039626Y005827D02*
X039473Y005673D01*
X039473Y005750D02*
X039473Y005520D01*
X039626Y005520D02*
X039166Y005520D01*
X039166Y005750D01*
X039242Y005827D01*
X039396Y005827D01*
X039473Y005750D01*
X042666Y008347D02*
X042743Y008270D01*
X042896Y008270D01*
X042973Y008347D01*
X042973Y008730D01*
X043126Y008654D02*
X043203Y008730D01*
X043357Y008730D01*
X043433Y008654D01*
X043357Y008500D02*
X043203Y008500D01*
X043126Y008577D01*
X043126Y008654D01*
X043280Y008807D02*
X043280Y008193D01*
X043357Y008270D02*
X043433Y008347D01*
X043433Y008423D01*
X043357Y008500D01*
X043357Y008270D02*
X043203Y008270D01*
X043126Y008347D01*
X042666Y008347D02*
X042666Y008730D01*
X042626Y008639D02*
X042166Y008639D01*
X042166Y008869D01*
X042242Y008946D01*
X042396Y008946D01*
X042473Y008869D01*
X042473Y008639D01*
X042473Y008792D02*
X042626Y008946D01*
X042549Y009099D02*
X042626Y009176D01*
X042626Y009329D01*
X042549Y009406D01*
X042473Y009406D01*
X042396Y009329D01*
X042396Y009253D01*
X042396Y009329D02*
X042319Y009406D01*
X042242Y009406D01*
X042166Y009329D01*
X042166Y009176D01*
X042242Y009099D01*
X042242Y009560D02*
X042319Y009560D01*
X042396Y009636D01*
X042396Y009790D01*
X042473Y009867D01*
X042549Y009867D01*
X042626Y009790D01*
X042626Y009636D01*
X042549Y009560D01*
X042473Y009560D01*
X042396Y009636D01*
X042396Y009790D02*
X042319Y009867D01*
X042242Y009867D01*
X042166Y009790D01*
X042166Y009636D01*
X042242Y009560D01*
X043666Y009790D02*
X043896Y009560D01*
X043896Y009867D01*
X044126Y009790D02*
X043666Y009790D01*
X043742Y009406D02*
X043819Y009406D01*
X043896Y009329D01*
X043973Y009406D01*
X044049Y009406D01*
X044126Y009329D01*
X044126Y009176D01*
X044049Y009099D01*
X044126Y008946D02*
X043973Y008792D01*
X043973Y008869D02*
X043973Y008639D01*
X044047Y008654D02*
X044047Y008577D01*
X044124Y008500D01*
X044354Y008500D01*
X044354Y008347D02*
X044354Y008654D01*
X044277Y008730D01*
X044124Y008730D01*
X044047Y008654D01*
X044126Y008639D02*
X043666Y008639D01*
X043666Y008869D01*
X043742Y008946D01*
X043896Y008946D01*
X043973Y008869D01*
X043740Y008730D02*
X043740Y008270D01*
X043587Y008270D02*
X043894Y008270D01*
X044047Y008347D02*
X044124Y008270D01*
X044277Y008270D01*
X044354Y008347D01*
X043740Y008730D02*
X043587Y008577D01*
X043742Y009099D02*
X043666Y009176D01*
X043666Y009329D01*
X043742Y009406D01*
X043896Y009329D02*
X043896Y009253D01*
X045166Y009176D02*
X045166Y009329D01*
X045242Y009406D01*
X045319Y009406D01*
X045396Y009329D01*
X045473Y009406D01*
X045549Y009406D01*
X045626Y009329D01*
X045626Y009176D01*
X045549Y009099D01*
X045626Y008946D02*
X045473Y008792D01*
X045473Y008730D02*
X045473Y008347D01*
X045396Y008270D01*
X045243Y008270D01*
X045166Y008347D01*
X045166Y008730D01*
X045166Y008639D02*
X045166Y008869D01*
X045242Y008946D01*
X045396Y008946D01*
X045473Y008869D01*
X045473Y008639D01*
X045626Y008639D02*
X045166Y008639D01*
X045626Y008654D02*
X045703Y008730D01*
X045857Y008730D01*
X045933Y008654D01*
X045857Y008500D02*
X045703Y008500D01*
X045626Y008577D01*
X045626Y008654D01*
X045780Y008807D02*
X045780Y008193D01*
X045857Y008270D02*
X045933Y008347D01*
X045933Y008423D01*
X045857Y008500D01*
X045857Y008270D02*
X045703Y008270D01*
X045626Y008347D01*
X046087Y008270D02*
X046394Y008270D01*
X046483Y008206D02*
X046559Y008283D01*
X046866Y007976D01*
X046943Y008053D01*
X046943Y008206D01*
X046866Y008283D01*
X046559Y008283D01*
X046547Y008347D02*
X046547Y008423D01*
X046624Y008500D01*
X046777Y008500D01*
X046854Y008423D01*
X046854Y008347D01*
X046777Y008270D01*
X046624Y008270D01*
X046547Y008347D01*
X046483Y008206D02*
X046483Y008053D01*
X046559Y007976D01*
X046866Y007976D01*
X046866Y007823D02*
X046943Y007746D01*
X046943Y007593D01*
X046866Y007516D01*
X046866Y007362D02*
X046943Y007286D01*
X046943Y007132D01*
X046866Y007055D01*
X046559Y007055D01*
X046483Y007132D01*
X046483Y007286D01*
X046559Y007362D01*
X046559Y007516D02*
X046483Y007593D01*
X046483Y007746D01*
X046559Y007823D01*
X046636Y007823D01*
X046713Y007746D01*
X046790Y007823D01*
X046866Y007823D01*
X046713Y007746D02*
X046713Y007669D01*
X046240Y008270D02*
X046240Y008730D01*
X046087Y008577D01*
X046547Y008577D02*
X046547Y008654D01*
X046624Y008730D01*
X046777Y008730D01*
X046854Y008654D01*
X046854Y008577D01*
X046777Y008500D01*
X046624Y008500D02*
X046547Y008577D01*
X046666Y008639D02*
X046666Y008869D01*
X046742Y008946D01*
X046896Y008946D01*
X046973Y008869D01*
X046973Y008639D01*
X047126Y008639D02*
X046666Y008639D01*
X046973Y008792D02*
X047126Y008946D01*
X047049Y009099D02*
X047126Y009176D01*
X047126Y009329D01*
X047049Y009406D01*
X046973Y009406D01*
X046896Y009329D01*
X046896Y009253D01*
X046896Y009329D02*
X046819Y009406D01*
X046742Y009406D01*
X046666Y009329D01*
X046666Y009176D01*
X046742Y009099D01*
X046666Y009560D02*
X046896Y009560D01*
X046819Y009713D01*
X046819Y009790D01*
X046896Y009867D01*
X047049Y009867D01*
X047126Y009790D01*
X047126Y009636D01*
X047049Y009560D01*
X046666Y009560D02*
X046666Y009867D01*
X045626Y009790D02*
X045549Y009867D01*
X045242Y009867D01*
X045166Y009790D01*
X045166Y009636D01*
X045242Y009560D01*
X045319Y009560D01*
X045396Y009636D01*
X045396Y009867D01*
X045626Y009790D02*
X045626Y009636D01*
X045549Y009560D01*
X045396Y009329D02*
X045396Y009253D01*
X045242Y009099D02*
X045166Y009176D01*
X048166Y009176D02*
X048166Y009329D01*
X048242Y009406D01*
X048319Y009406D01*
X048396Y009329D01*
X048473Y009406D01*
X048549Y009406D01*
X048626Y009329D01*
X048626Y009176D01*
X048549Y009099D01*
X048626Y008946D02*
X048473Y008792D01*
X048473Y008869D02*
X048473Y008639D01*
X048626Y008639D02*
X048166Y008639D01*
X048166Y008869D01*
X048242Y008946D01*
X048396Y008946D01*
X048473Y008869D01*
X048242Y009099D02*
X048166Y009176D01*
X048396Y009253D02*
X048396Y009329D01*
X048396Y009560D02*
X048396Y009790D01*
X048473Y009867D01*
X048549Y009867D01*
X048626Y009790D01*
X048626Y009636D01*
X048549Y009560D01*
X048396Y009560D01*
X048242Y009713D01*
X048166Y009867D01*
X049666Y009790D02*
X049666Y009636D01*
X049742Y009560D01*
X049742Y009406D02*
X049819Y009406D01*
X049896Y009329D01*
X049973Y009406D01*
X050049Y009406D01*
X050126Y009329D01*
X050126Y009176D01*
X050049Y009099D01*
X050126Y008946D02*
X049973Y008792D01*
X049973Y008869D02*
X049973Y008639D01*
X049914Y008730D02*
X049837Y008654D01*
X049914Y008730D02*
X050067Y008730D01*
X050144Y008654D01*
X050144Y008577D01*
X049837Y008270D01*
X050144Y008270D01*
X050297Y008270D02*
X050604Y008270D01*
X050451Y008270D02*
X050451Y008730D01*
X050297Y008577D01*
X050126Y008639D02*
X049666Y008639D01*
X049666Y008869D01*
X049742Y008946D01*
X049896Y008946D01*
X049973Y008869D01*
X049742Y009099D02*
X049666Y009176D01*
X049666Y009329D01*
X049742Y009406D01*
X049896Y009329D02*
X049896Y009253D01*
X050126Y009560D02*
X049819Y009867D01*
X049742Y009867D01*
X049666Y009790D01*
X050126Y009867D02*
X050126Y009560D01*
X049530Y008807D02*
X049530Y008193D01*
X049607Y008270D02*
X049683Y008347D01*
X049683Y008423D01*
X049607Y008500D01*
X049453Y008500D01*
X049376Y008577D01*
X049376Y008654D01*
X049453Y008730D01*
X049607Y008730D01*
X049683Y008654D01*
X049607Y008270D02*
X049453Y008270D01*
X049376Y008347D01*
X049223Y008347D02*
X049223Y008730D01*
X048916Y008730D02*
X048916Y008347D01*
X048993Y008270D01*
X049146Y008270D01*
X049223Y008347D01*
X051166Y008639D02*
X051166Y008869D01*
X051242Y008946D01*
X051396Y008946D01*
X051473Y008869D01*
X051473Y008639D01*
X051416Y008730D02*
X051416Y008347D01*
X051493Y008270D01*
X051646Y008270D01*
X051723Y008347D01*
X051723Y008730D01*
X051626Y008639D02*
X051166Y008639D01*
X051473Y008792D02*
X051626Y008946D01*
X051549Y009099D02*
X051626Y009176D01*
X051626Y009329D01*
X051549Y009406D01*
X051473Y009406D01*
X051396Y009329D01*
X051396Y009253D01*
X051396Y009329D02*
X051319Y009406D01*
X051242Y009406D01*
X051166Y009329D01*
X051166Y009176D01*
X051242Y009099D01*
X051166Y009560D02*
X051166Y009867D01*
X051242Y009867D01*
X051549Y009560D01*
X051626Y009560D01*
X052030Y008807D02*
X052030Y008193D01*
X052107Y008270D02*
X052183Y008347D01*
X052183Y008423D01*
X052107Y008500D01*
X051953Y008500D01*
X051876Y008577D01*
X051876Y008654D01*
X051953Y008730D01*
X052107Y008730D01*
X052183Y008654D01*
X052337Y008654D02*
X052414Y008730D01*
X052567Y008730D01*
X052644Y008654D01*
X052644Y008577D01*
X052337Y008270D01*
X052644Y008270D01*
X052797Y008347D02*
X053104Y008654D01*
X053104Y008347D01*
X053027Y008270D01*
X052874Y008270D01*
X052797Y008347D01*
X052797Y008654D01*
X052874Y008730D01*
X053027Y008730D01*
X053104Y008654D01*
X053126Y008639D02*
X052666Y008639D01*
X052666Y008869D01*
X052742Y008946D01*
X052896Y008946D01*
X052973Y008869D01*
X052973Y008639D01*
X052973Y008792D02*
X053126Y008946D01*
X053049Y009099D02*
X053126Y009176D01*
X053126Y009329D01*
X053049Y009406D01*
X052973Y009406D01*
X052896Y009329D01*
X052896Y009253D01*
X052896Y009329D02*
X052819Y009406D01*
X052742Y009406D01*
X052666Y009329D01*
X052666Y009176D01*
X052742Y009099D01*
X052742Y009560D02*
X052666Y009636D01*
X052666Y009790D01*
X052742Y009867D01*
X052819Y009867D01*
X052896Y009790D01*
X052973Y009867D01*
X053049Y009867D01*
X053126Y009790D01*
X053126Y009636D01*
X053049Y009560D01*
X052896Y009713D02*
X052896Y009790D01*
X053535Y009230D02*
X053765Y009230D01*
X053842Y009154D01*
X053842Y009000D01*
X053765Y008923D01*
X053535Y008923D01*
X053535Y008770D02*
X053535Y009230D01*
X053688Y008923D02*
X053842Y008770D01*
X053995Y008770D02*
X054302Y008770D01*
X054149Y008770D02*
X054149Y009230D01*
X053995Y009077D01*
X054456Y009077D02*
X054532Y009000D01*
X054763Y009000D01*
X054763Y008847D02*
X054763Y009154D01*
X054686Y009230D01*
X054532Y009230D01*
X054456Y009154D01*
X054456Y009077D01*
X054456Y008847D02*
X054532Y008770D01*
X054686Y008770D01*
X054763Y008847D01*
X054686Y007980D02*
X054532Y007980D01*
X054456Y007904D01*
X054456Y007827D01*
X054532Y007750D01*
X054686Y007750D01*
X054763Y007673D01*
X054763Y007597D01*
X054686Y007520D01*
X054532Y007520D01*
X054456Y007597D01*
X054456Y007673D01*
X054532Y007750D01*
X054686Y007750D02*
X054763Y007827D01*
X054763Y007904D01*
X054686Y007980D01*
X054149Y007980D02*
X054149Y007520D01*
X054302Y007520D02*
X053995Y007520D01*
X053842Y007520D02*
X053688Y007673D01*
X053765Y007673D02*
X053535Y007673D01*
X053535Y007520D02*
X053535Y007980D01*
X053765Y007980D01*
X053842Y007904D01*
X053842Y007750D01*
X053765Y007673D01*
X053995Y007827D02*
X054149Y007980D01*
X052107Y008270D02*
X051953Y008270D01*
X051876Y008347D01*
X051894Y006138D02*
X051894Y006061D01*
X051740Y005908D01*
X051740Y005677D01*
X051740Y005908D02*
X051587Y006061D01*
X051587Y006138D01*
X051433Y006061D02*
X051357Y006138D01*
X051203Y006138D01*
X051126Y006061D01*
X051126Y005754D01*
X051203Y005677D01*
X051357Y005677D01*
X051433Y005754D01*
X051433Y006061D01*
X050973Y006138D02*
X050820Y006138D01*
X050896Y006138D02*
X050896Y005754D01*
X050820Y005677D01*
X050743Y005677D01*
X050666Y005754D01*
X052047Y005677D02*
X052047Y006138D01*
X052277Y006138D01*
X052354Y006061D01*
X052354Y005908D01*
X052277Y005831D01*
X052047Y005831D01*
X052508Y005908D02*
X052815Y005908D01*
X052815Y005984D02*
X052815Y005677D01*
X052968Y005677D02*
X053198Y005677D01*
X053275Y005754D01*
X053275Y006061D01*
X053198Y006138D01*
X052968Y006138D01*
X052968Y005677D01*
X052815Y005984D02*
X052661Y006138D01*
X052508Y005984D01*
X052508Y005677D01*
X053428Y005677D02*
X053735Y005984D01*
X053735Y006061D01*
X053659Y006138D01*
X053505Y006138D01*
X053428Y006061D01*
X053428Y005677D02*
X053735Y005677D01*
X046735Y005677D02*
X046428Y005677D01*
X046582Y005677D02*
X046582Y006138D01*
X046428Y005984D01*
X046275Y006061D02*
X046275Y005754D01*
X046198Y005677D01*
X045968Y005677D01*
X045968Y006138D01*
X046198Y006138D01*
X046275Y006061D01*
X045815Y005984D02*
X045815Y005677D01*
X045815Y005908D02*
X045508Y005908D01*
X045508Y005984D02*
X045661Y006138D01*
X045815Y005984D01*
X045508Y005984D02*
X045508Y005677D01*
X045277Y005831D02*
X045047Y005831D01*
X045047Y005677D02*
X045047Y006138D01*
X045277Y006138D01*
X045354Y006061D01*
X045354Y005908D01*
X045277Y005831D01*
X044894Y006061D02*
X044894Y006138D01*
X044894Y006061D02*
X044740Y005908D01*
X044740Y005677D01*
X044740Y005908D02*
X044587Y006061D01*
X044587Y006138D01*
X044433Y006061D02*
X044357Y006138D01*
X044203Y006138D01*
X044126Y006061D01*
X044126Y005754D01*
X044203Y005677D01*
X044357Y005677D01*
X044433Y005754D01*
X044433Y006061D01*
X043973Y006138D02*
X043820Y006138D01*
X043896Y006138D02*
X043896Y005754D01*
X043820Y005677D01*
X043743Y005677D01*
X043666Y005754D01*
X034067Y002480D02*
X033837Y002250D01*
X034144Y002250D01*
X034067Y002020D02*
X034067Y002480D01*
X033683Y002480D02*
X033376Y002480D01*
X033376Y002250D01*
X033530Y002327D01*
X033607Y002327D01*
X033683Y002250D01*
X033683Y002097D01*
X033607Y002020D01*
X033453Y002020D01*
X033376Y002097D01*
X033223Y002097D02*
X033146Y002020D01*
X032993Y002020D01*
X032916Y002097D01*
X032916Y002404D01*
X032993Y002480D01*
X033146Y002480D01*
X033223Y002404D01*
X054416Y011520D02*
X054416Y011980D01*
X054646Y011980D01*
X054723Y011904D01*
X054723Y011750D01*
X054646Y011673D01*
X054416Y011673D01*
X054570Y011673D02*
X054723Y011520D01*
X054876Y011520D02*
X055183Y011827D01*
X055183Y011904D01*
X055107Y011980D01*
X054953Y011980D01*
X054876Y011904D01*
X054876Y011520D02*
X055183Y011520D01*
X055337Y011597D02*
X055414Y011520D01*
X055567Y011520D01*
X055644Y011597D01*
X055644Y011673D01*
X055567Y011750D01*
X055490Y011750D01*
X055567Y011750D02*
X055644Y011827D01*
X055644Y011904D01*
X055567Y011980D01*
X055414Y011980D01*
X055337Y011904D01*
X055337Y012770D02*
X055644Y013077D01*
X055644Y013154D01*
X055567Y013230D01*
X055414Y013230D01*
X055337Y013154D01*
X055183Y013154D02*
X055107Y013230D01*
X054953Y013230D01*
X054876Y013154D01*
X054723Y013154D02*
X054723Y013000D01*
X054646Y012923D01*
X054416Y012923D01*
X054416Y012770D02*
X054416Y013230D01*
X054646Y013230D01*
X054723Y013154D01*
X054570Y012923D02*
X054723Y012770D01*
X054876Y012770D02*
X055183Y013077D01*
X055183Y013154D01*
X055183Y012770D02*
X054876Y012770D01*
X055337Y012770D02*
X055644Y012770D01*
X055644Y014020D02*
X055337Y014020D01*
X055490Y014020D02*
X055490Y014480D01*
X055337Y014327D01*
X055183Y014327D02*
X055183Y014404D01*
X055107Y014480D01*
X054953Y014480D01*
X054876Y014404D01*
X054723Y014404D02*
X054723Y014250D01*
X054646Y014173D01*
X054416Y014173D01*
X054416Y014020D02*
X054416Y014480D01*
X054646Y014480D01*
X054723Y014404D01*
X054570Y014173D02*
X054723Y014020D01*
X054876Y014020D02*
X055183Y014327D01*
X055183Y014020D02*
X054876Y014020D01*
X054876Y015270D02*
X055183Y015577D01*
X055183Y015654D01*
X055107Y015730D01*
X054953Y015730D01*
X054876Y015654D01*
X054723Y015654D02*
X054723Y015500D01*
X054646Y015423D01*
X054416Y015423D01*
X054416Y015270D02*
X054416Y015730D01*
X054646Y015730D01*
X054723Y015654D01*
X054570Y015423D02*
X054723Y015270D01*
X054876Y015270D02*
X055183Y015270D01*
X055337Y015347D02*
X055644Y015654D01*
X055644Y015347D01*
X055567Y015270D01*
X055414Y015270D01*
X055337Y015347D01*
X055337Y015654D01*
X055414Y015730D01*
X055567Y015730D01*
X055644Y015654D01*
X055567Y016520D02*
X055567Y016980D01*
X055337Y016750D01*
X055644Y016750D01*
X055183Y016827D02*
X055183Y016904D01*
X055107Y016980D01*
X054953Y016980D01*
X054876Y016904D01*
X054723Y016904D02*
X054723Y016750D01*
X054646Y016673D01*
X054416Y016673D01*
X054416Y016520D02*
X054416Y016980D01*
X054646Y016980D01*
X054723Y016904D01*
X054570Y016673D02*
X054723Y016520D01*
X054876Y016520D02*
X055183Y016827D01*
X055183Y016520D02*
X054876Y016520D01*
X054876Y017770D02*
X055183Y018077D01*
X055183Y018154D01*
X055107Y018230D01*
X054953Y018230D01*
X054876Y018154D01*
X054723Y018154D02*
X054723Y018000D01*
X054646Y017923D01*
X054416Y017923D01*
X054416Y017770D02*
X054416Y018230D01*
X054646Y018230D01*
X054723Y018154D01*
X054570Y017923D02*
X054723Y017770D01*
X054876Y017770D02*
X055183Y017770D01*
X055337Y017847D02*
X055414Y017770D01*
X055567Y017770D01*
X055644Y017847D01*
X055644Y018000D01*
X055567Y018077D01*
X055490Y018077D01*
X055337Y018000D01*
X055337Y018230D01*
X055644Y018230D01*
X050626Y021716D02*
X050626Y021869D01*
X050549Y021946D01*
X050626Y022099D02*
X050319Y022406D01*
X050242Y022406D01*
X050166Y022329D01*
X050166Y022176D01*
X050242Y022099D01*
X050242Y021946D02*
X050166Y021869D01*
X050166Y021716D01*
X050242Y021639D01*
X050549Y021639D01*
X050626Y021716D01*
X050626Y022099D02*
X050626Y022406D01*
X050549Y022560D02*
X050626Y022636D01*
X050626Y022790D01*
X050549Y022867D01*
X050473Y022867D01*
X050396Y022790D01*
X050396Y022560D01*
X050549Y022560D01*
X050396Y022560D02*
X050242Y022713D01*
X050166Y022867D01*
X050242Y023639D02*
X050549Y023639D01*
X050626Y023716D01*
X050626Y023869D01*
X050549Y023946D01*
X050626Y024099D02*
X050319Y024406D01*
X050242Y024406D01*
X050166Y024329D01*
X050166Y024176D01*
X050242Y024099D01*
X050242Y023946D02*
X050166Y023869D01*
X050166Y023716D01*
X050242Y023639D01*
X050626Y024099D02*
X050626Y024406D01*
X050549Y024560D02*
X050626Y024636D01*
X050626Y024790D01*
X050549Y024867D01*
X050396Y024867D01*
X050319Y024790D01*
X050319Y024713D01*
X050396Y024560D01*
X050166Y024560D01*
X050166Y024867D01*
X051666Y024327D02*
X051820Y024480D01*
X051820Y024020D01*
X051973Y024020D02*
X051666Y024020D01*
X051963Y023934D02*
X052193Y023703D01*
X052193Y024010D01*
X052423Y023934D02*
X051963Y023934D01*
X052040Y023550D02*
X051963Y023473D01*
X051963Y023320D01*
X052040Y023243D01*
X052116Y023243D01*
X052193Y023320D01*
X052193Y023473D01*
X052270Y023550D01*
X052347Y023550D01*
X052423Y023473D01*
X052423Y023320D01*
X052347Y023243D01*
X052347Y023089D02*
X051963Y023089D01*
X051963Y022783D02*
X052347Y022783D01*
X052423Y022859D01*
X052423Y023013D01*
X052347Y023089D01*
X052500Y023396D02*
X051886Y023396D01*
X051862Y025520D02*
X052015Y025520D01*
X052092Y025597D01*
X052245Y025520D02*
X052552Y025827D01*
X052552Y025904D01*
X052475Y025980D01*
X052322Y025980D01*
X052245Y025904D01*
X052243Y026020D02*
X052396Y026020D01*
X052473Y026097D01*
X052626Y026020D02*
X052933Y026327D01*
X052933Y026404D01*
X052857Y026480D01*
X052703Y026480D01*
X052626Y026404D01*
X052473Y026404D02*
X052396Y026480D01*
X052243Y026480D01*
X052166Y026404D01*
X052166Y026097D01*
X052243Y026020D01*
X052092Y025904D02*
X052015Y025980D01*
X051862Y025980D01*
X051785Y025904D01*
X051785Y025597D01*
X051862Y025520D01*
X052245Y025520D02*
X052552Y025520D01*
X052706Y025750D02*
X053013Y025750D01*
X052936Y025520D02*
X052936Y025980D01*
X052706Y025750D01*
X052626Y026020D02*
X052933Y026020D01*
X053087Y026097D02*
X053164Y026020D01*
X053317Y026020D01*
X053394Y026097D01*
X053394Y026173D01*
X053317Y026250D01*
X053240Y026250D01*
X053317Y026250D02*
X053394Y026327D01*
X053394Y026404D01*
X053317Y026480D01*
X053164Y026480D01*
X053087Y026404D01*
X051144Y028020D02*
X050837Y028020D01*
X051144Y028327D01*
X051144Y028404D01*
X051067Y028480D01*
X050914Y028480D01*
X050837Y028404D01*
X050530Y028480D02*
X050530Y028020D01*
X050683Y028020D02*
X050376Y028020D01*
X050223Y028020D02*
X050070Y028173D01*
X050146Y028173D02*
X049916Y028173D01*
X049916Y028020D02*
X049916Y028480D01*
X050146Y028480D01*
X050223Y028404D01*
X050223Y028250D01*
X050146Y028173D01*
X050376Y028327D02*
X050530Y028480D01*
X049144Y028250D02*
X048837Y028250D01*
X049067Y028480D01*
X049067Y028020D01*
X048683Y028020D02*
X048376Y028020D01*
X048223Y028020D02*
X048070Y028173D01*
X048146Y028173D02*
X047916Y028173D01*
X047916Y028020D02*
X047916Y028480D01*
X048146Y028480D01*
X048223Y028404D01*
X048223Y028250D01*
X048146Y028173D01*
X048376Y028327D02*
X048530Y028480D01*
X048530Y028020D01*
X046433Y028020D02*
X046126Y028020D01*
X046433Y028327D01*
X046433Y028404D01*
X046357Y028480D01*
X046203Y028480D01*
X046126Y028404D01*
X045973Y028404D02*
X045973Y028250D01*
X045896Y028173D01*
X045666Y028173D01*
X045666Y028020D02*
X045666Y028480D01*
X045896Y028480D01*
X045973Y028404D01*
X045820Y028173D02*
X045973Y028020D01*
X044126Y026540D02*
X044049Y026617D01*
X043742Y026617D01*
X044049Y026310D01*
X044126Y026386D01*
X044126Y026540D01*
X044049Y026310D02*
X043742Y026310D01*
X043666Y026386D01*
X043666Y026540D01*
X043742Y026617D01*
X043126Y026540D02*
X043126Y026386D01*
X043049Y026310D01*
X042896Y026310D02*
X042819Y026463D01*
X042819Y026540D01*
X042896Y026617D01*
X043049Y026617D01*
X043126Y026540D01*
X042896Y026310D02*
X042666Y026310D01*
X042666Y026617D01*
X042666Y026156D02*
X042666Y025849D01*
X042896Y025849D01*
X042819Y026003D01*
X042819Y026079D01*
X042896Y026156D01*
X043049Y026156D01*
X043126Y026079D01*
X043126Y025926D01*
X043049Y025849D01*
X043126Y025696D02*
X042973Y025542D01*
X042973Y025619D02*
X042973Y025389D01*
X043126Y025389D02*
X042666Y025389D01*
X042666Y025619D01*
X042742Y025696D01*
X042896Y025696D01*
X042973Y025619D01*
X043666Y025619D02*
X043666Y025389D01*
X044126Y025389D01*
X044126Y025619D01*
X044049Y025696D01*
X043742Y025696D01*
X043666Y025619D01*
X043666Y025235D02*
X043666Y024928D01*
X044126Y024928D01*
X044126Y025235D01*
X043896Y025082D02*
X043896Y024928D01*
X044126Y024775D02*
X044126Y024468D01*
X043666Y024468D01*
X044203Y025849D02*
X044203Y026156D01*
X042203Y026156D02*
X042203Y025849D01*
X042049Y025696D02*
X041742Y025696D01*
X041666Y025619D01*
X041666Y025389D01*
X042126Y025389D01*
X042126Y025619D01*
X042049Y025696D01*
X042126Y025235D02*
X042126Y024928D01*
X041666Y024928D01*
X041666Y025235D01*
X041896Y025082D02*
X041896Y024928D01*
X042126Y024775D02*
X042126Y024468D01*
X041666Y024468D01*
X041126Y025389D02*
X040666Y025389D01*
X040666Y025619D01*
X040742Y025696D01*
X040896Y025696D01*
X040973Y025619D01*
X040973Y025389D01*
X040973Y025542D02*
X041126Y025696D01*
X041049Y025849D02*
X041126Y025926D01*
X041126Y026079D01*
X041049Y026156D01*
X040896Y026156D01*
X040819Y026079D01*
X040819Y026003D01*
X040896Y025849D01*
X040666Y025849D01*
X040666Y026156D01*
X040896Y026310D02*
X040666Y026540D01*
X041126Y026540D01*
X040896Y026617D02*
X040896Y026310D01*
X040203Y026156D02*
X040203Y025849D01*
X040049Y025696D02*
X039742Y025696D01*
X039666Y025619D01*
X039666Y025389D01*
X040126Y025389D01*
X040126Y025619D01*
X040049Y025696D01*
X040126Y025235D02*
X040126Y024928D01*
X039666Y024928D01*
X039666Y025235D01*
X039896Y025082D02*
X039896Y024928D01*
X040126Y024775D02*
X040126Y024468D01*
X039666Y024468D01*
X039126Y025389D02*
X038666Y025389D01*
X038666Y025619D01*
X038742Y025696D01*
X038896Y025696D01*
X038973Y025619D01*
X038973Y025389D01*
X038973Y025542D02*
X039126Y025696D01*
X039049Y025849D02*
X039126Y025926D01*
X039126Y026079D01*
X039049Y026156D01*
X038896Y026156D01*
X038819Y026079D01*
X038819Y026003D01*
X038896Y025849D01*
X038666Y025849D01*
X038666Y026156D01*
X038742Y026310D02*
X038666Y026386D01*
X038666Y026540D01*
X038742Y026617D01*
X038819Y026617D01*
X038896Y026540D01*
X038973Y026617D01*
X039049Y026617D01*
X039126Y026540D01*
X039126Y026386D01*
X039049Y026310D01*
X038896Y026463D02*
X038896Y026540D01*
X039666Y026540D02*
X039666Y026386D01*
X039742Y026310D01*
X039666Y026540D02*
X039742Y026617D01*
X039819Y026617D01*
X040126Y026310D01*
X040126Y026617D01*
X038203Y026156D02*
X038203Y025849D01*
X038049Y025696D02*
X037742Y025696D01*
X037666Y025619D01*
X037666Y025389D01*
X038126Y025389D01*
X038126Y025619D01*
X038049Y025696D01*
X038126Y025235D02*
X038126Y024928D01*
X037666Y024928D01*
X037666Y025235D01*
X037896Y025082D02*
X037896Y024928D01*
X038126Y024775D02*
X038126Y024468D01*
X037666Y024468D01*
X037126Y025389D02*
X036666Y025389D01*
X036666Y025619D01*
X036742Y025696D01*
X036896Y025696D01*
X036973Y025619D01*
X036973Y025389D01*
X036973Y025542D02*
X037126Y025696D01*
X037049Y025849D02*
X037126Y025926D01*
X037126Y026079D01*
X037049Y026156D01*
X036896Y026156D01*
X036819Y026079D01*
X036819Y026003D01*
X036896Y025849D01*
X036666Y025849D01*
X036666Y026156D01*
X036742Y026310D02*
X036666Y026386D01*
X036666Y026540D01*
X036742Y026617D01*
X036819Y026617D01*
X037126Y026310D01*
X037126Y026617D01*
X037666Y026540D02*
X037742Y026617D01*
X037819Y026617D01*
X037896Y026540D01*
X037973Y026617D01*
X038049Y026617D01*
X038126Y026540D01*
X038126Y026386D01*
X038049Y026310D01*
X037896Y026463D02*
X037896Y026540D01*
X037666Y026540D02*
X037666Y026386D01*
X037742Y026310D01*
X041666Y026463D02*
X041819Y026310D01*
X041666Y026463D02*
X042126Y026463D01*
X042126Y026310D02*
X042126Y026617D01*
X040799Y029139D02*
X040876Y029216D01*
X040876Y029369D01*
X040799Y029446D01*
X040876Y029599D02*
X040569Y029906D01*
X040492Y029906D01*
X040416Y029829D01*
X040416Y029676D01*
X040492Y029599D01*
X040492Y029446D02*
X040416Y029369D01*
X040416Y029216D01*
X040492Y029139D01*
X040799Y029139D01*
X040876Y029599D02*
X040876Y029906D01*
X040799Y030060D02*
X040723Y030060D01*
X040646Y030136D01*
X040646Y030290D01*
X040723Y030367D01*
X040799Y030367D01*
X040876Y030290D01*
X040876Y030136D01*
X040799Y030060D01*
X040646Y030136D02*
X040569Y030060D01*
X040492Y030060D01*
X040416Y030136D01*
X040416Y030290D01*
X040492Y030367D01*
X040569Y030367D01*
X040646Y030290D01*
X039340Y030270D02*
X038726Y030270D01*
X038802Y030194D02*
X038802Y030347D01*
X038879Y030424D01*
X038956Y030577D02*
X038802Y030731D01*
X039263Y030731D01*
X039263Y030884D02*
X039263Y030577D01*
X039186Y030424D02*
X039109Y030424D01*
X039033Y030347D01*
X039033Y030194D01*
X038956Y030117D01*
X038879Y030117D01*
X038802Y030194D01*
X038802Y029963D02*
X039186Y029963D01*
X039263Y029887D01*
X039263Y029733D01*
X039186Y029657D01*
X038802Y029657D01*
X039186Y030117D02*
X039263Y030194D01*
X039263Y030347D01*
X039186Y030424D01*
X037263Y031097D02*
X037263Y031404D01*
X037186Y031480D01*
X037032Y031480D01*
X036956Y031404D01*
X036956Y031327D01*
X037032Y031250D01*
X037263Y031250D01*
X037263Y031097D02*
X037186Y031020D01*
X037032Y031020D01*
X036956Y031097D01*
X036802Y031020D02*
X036495Y031020D01*
X036649Y031020D02*
X036649Y031480D01*
X036495Y031327D01*
X036342Y031404D02*
X036265Y031480D01*
X036112Y031480D01*
X036035Y031404D01*
X036035Y031097D01*
X036112Y031020D01*
X036265Y031020D01*
X036342Y031097D01*
X036399Y032520D02*
X036399Y032980D01*
X036245Y032827D01*
X036092Y032904D02*
X036092Y032750D01*
X036015Y032673D01*
X035785Y032673D01*
X035785Y032520D02*
X035785Y032980D01*
X036015Y032980D01*
X036092Y032904D01*
X035938Y032673D02*
X036092Y032520D01*
X036245Y032520D02*
X036552Y032520D01*
X036706Y032597D02*
X036782Y032520D01*
X036936Y032520D01*
X037013Y032597D01*
X037013Y032673D01*
X036936Y032750D01*
X036706Y032750D01*
X036706Y032597D01*
X036706Y032750D02*
X036859Y032904D01*
X037013Y032980D01*
X038285Y032980D02*
X038285Y032520D01*
X038285Y032673D02*
X038515Y032673D01*
X038592Y032750D01*
X038592Y032904D01*
X038515Y032980D01*
X038285Y032980D01*
X038438Y032673D02*
X038592Y032520D01*
X038745Y032520D02*
X039052Y032520D01*
X039046Y032470D02*
X039123Y032547D01*
X039123Y032930D01*
X039206Y032980D02*
X039513Y032980D01*
X039513Y032904D01*
X039206Y032597D01*
X039206Y032520D01*
X039276Y032547D02*
X039353Y032470D01*
X039507Y032470D01*
X039583Y032547D01*
X039583Y032623D01*
X039507Y032700D01*
X039353Y032700D01*
X039276Y032777D01*
X039276Y032854D01*
X039353Y032930D01*
X039507Y032930D01*
X039583Y032854D01*
X039737Y032854D02*
X039814Y032930D01*
X039967Y032930D01*
X040044Y032854D01*
X040044Y032777D01*
X039967Y032700D01*
X040044Y032623D01*
X040044Y032547D01*
X039967Y032470D01*
X039814Y032470D01*
X039737Y032547D01*
X039890Y032700D02*
X039967Y032700D01*
X039430Y033007D02*
X039430Y032393D01*
X039046Y032470D02*
X038893Y032470D01*
X038816Y032547D01*
X038816Y032930D01*
X038899Y032980D02*
X038745Y032827D01*
X038899Y032980D02*
X038899Y032520D01*
X042995Y032770D02*
X042995Y033230D01*
X043225Y033230D01*
X043302Y033154D01*
X043302Y033000D01*
X043225Y032923D01*
X042995Y032923D01*
X043149Y032923D02*
X043302Y032770D01*
X043243Y032770D02*
X043396Y032770D01*
X043473Y032847D01*
X043456Y032847D02*
X043456Y032923D01*
X043532Y033000D01*
X043686Y033000D01*
X043763Y032923D01*
X043763Y032847D01*
X043686Y032770D01*
X043532Y032770D01*
X043456Y032847D01*
X043532Y033000D02*
X043456Y033077D01*
X043456Y033154D01*
X043532Y033230D01*
X043686Y033230D01*
X043763Y033154D01*
X043763Y033077D01*
X043686Y033000D01*
X043626Y033154D02*
X043703Y033230D01*
X043857Y033230D01*
X043933Y033154D01*
X043933Y033077D01*
X043626Y032770D01*
X043933Y032770D01*
X044087Y032770D02*
X044394Y033077D01*
X044394Y033154D01*
X044317Y033230D01*
X044164Y033230D01*
X044087Y033154D01*
X044087Y032770D02*
X044394Y032770D01*
X043473Y033154D02*
X043396Y033230D01*
X043243Y033230D01*
X043166Y033154D01*
X043166Y032847D01*
X043243Y032770D01*
X045245Y031730D02*
X045245Y031270D01*
X045245Y031423D02*
X045475Y031423D01*
X045552Y031500D01*
X045552Y031654D01*
X045475Y031730D01*
X045245Y031730D01*
X045399Y031423D02*
X045552Y031270D01*
X045706Y031347D02*
X045782Y031270D01*
X045936Y031270D01*
X046013Y031347D01*
X046013Y031654D01*
X045936Y031730D01*
X045782Y031730D01*
X045706Y031654D01*
X045706Y031577D01*
X045782Y031500D01*
X046013Y031500D01*
X045896Y030480D02*
X045973Y030404D01*
X045973Y030250D01*
X045896Y030173D01*
X045666Y030173D01*
X045666Y030020D02*
X045666Y030480D01*
X045896Y030480D01*
X046126Y030404D02*
X046203Y030480D01*
X046357Y030480D01*
X046433Y030404D01*
X046433Y030327D01*
X046357Y030250D01*
X046433Y030173D01*
X046433Y030097D01*
X046357Y030020D01*
X046203Y030020D01*
X046126Y030097D01*
X045973Y030020D02*
X045820Y030173D01*
X046280Y030250D02*
X046357Y030250D01*
X047916Y030173D02*
X048146Y030173D01*
X048223Y030250D01*
X048223Y030404D01*
X048146Y030480D01*
X047916Y030480D01*
X047916Y030020D01*
X048070Y030173D02*
X048223Y030020D01*
X048376Y030020D02*
X048683Y030020D01*
X048530Y030020D02*
X048530Y030480D01*
X048376Y030327D01*
X048837Y030250D02*
X048837Y030480D01*
X049144Y030480D01*
X049067Y030327D02*
X049144Y030250D01*
X049144Y030097D01*
X049067Y030020D01*
X048914Y030020D01*
X048837Y030097D01*
X048837Y030250D02*
X048990Y030327D01*
X049067Y030327D01*
X049916Y030480D02*
X050146Y030480D01*
X050223Y030404D01*
X050223Y030250D01*
X050146Y030173D01*
X049916Y030173D01*
X049916Y030020D02*
X049916Y030480D01*
X050070Y030173D02*
X050223Y030020D01*
X050376Y030020D02*
X050683Y030020D01*
X050530Y030020D02*
X050530Y030480D01*
X050376Y030327D01*
X050837Y030404D02*
X050914Y030480D01*
X051067Y030480D01*
X051144Y030404D01*
X051144Y030327D01*
X051067Y030250D01*
X051144Y030173D01*
X051144Y030097D01*
X051067Y030020D01*
X050914Y030020D01*
X050837Y030097D01*
X050990Y030250D02*
X051067Y030250D01*
X053666Y029980D02*
X053666Y029597D01*
X053743Y029520D01*
X053896Y029520D01*
X053973Y029597D01*
X053973Y029980D01*
X054126Y029904D02*
X054203Y029980D01*
X054357Y029980D01*
X054433Y029904D01*
X054357Y029750D02*
X054203Y029750D01*
X054126Y029827D01*
X054126Y029904D01*
X054280Y030057D02*
X054280Y029443D01*
X054357Y029520D02*
X054433Y029597D01*
X054433Y029673D01*
X054357Y029750D01*
X054357Y029520D02*
X054203Y029520D01*
X054126Y029597D01*
X054587Y029520D02*
X054894Y029520D01*
X054740Y029520D02*
X054740Y029980D01*
X054587Y029827D01*
X055047Y029904D02*
X055124Y029980D01*
X055277Y029980D01*
X055354Y029904D01*
X055354Y029827D01*
X055277Y029750D01*
X055354Y029673D01*
X055354Y029597D01*
X055277Y029520D01*
X055124Y029520D01*
X055047Y029597D01*
X055201Y029750D02*
X055277Y029750D01*
X055259Y029906D02*
X055336Y029983D01*
X055259Y029906D02*
X055106Y029906D01*
X055029Y029983D01*
X055029Y030289D01*
X055106Y030366D01*
X055259Y030366D01*
X055336Y030289D01*
X055489Y030289D02*
X055566Y030366D01*
X055720Y030366D01*
X055796Y030289D01*
X055796Y030213D01*
X055489Y029906D01*
X055796Y029906D01*
X055950Y029983D02*
X056026Y029906D01*
X056180Y029906D01*
X056257Y029983D01*
X056257Y030289D01*
X056180Y030366D01*
X056026Y030366D01*
X055950Y030289D01*
X055950Y030213D01*
X056026Y030136D01*
X056257Y030136D01*
X057666Y030003D02*
X057819Y029849D01*
X057742Y029696D02*
X057896Y029696D01*
X057973Y029619D01*
X057973Y029389D01*
X058126Y029389D02*
X057666Y029389D01*
X057666Y029619D01*
X057742Y029696D01*
X057973Y029542D02*
X058126Y029696D01*
X058126Y029849D02*
X058126Y030156D01*
X058126Y030003D02*
X057666Y030003D01*
X057742Y030310D02*
X057666Y030386D01*
X057666Y030540D01*
X057742Y030617D01*
X058049Y030310D01*
X058126Y030386D01*
X058126Y030540D01*
X058049Y030617D01*
X057742Y030617D01*
X057742Y030310D02*
X058049Y030310D01*
X057969Y031020D02*
X057508Y031020D01*
X057508Y031250D01*
X057585Y031327D01*
X057738Y031327D01*
X057815Y031250D01*
X057815Y031020D01*
X057892Y031480D02*
X057969Y031557D01*
X057969Y031711D01*
X057892Y031787D01*
X057815Y031787D01*
X057738Y031711D01*
X057738Y031557D01*
X057662Y031480D01*
X057585Y031480D01*
X057508Y031557D01*
X057508Y031711D01*
X057585Y031787D01*
X057585Y031941D02*
X057508Y032018D01*
X057508Y032171D01*
X057585Y032248D01*
X057662Y032248D01*
X057969Y031941D01*
X057969Y032248D01*
X056626Y032270D02*
X056166Y032270D01*
X056166Y032500D01*
X056242Y032577D01*
X056396Y032577D01*
X056473Y032500D01*
X056473Y032270D01*
X056473Y032423D02*
X056626Y032577D01*
X056626Y032730D02*
X056626Y033037D01*
X056626Y032884D02*
X056166Y032884D01*
X056319Y032730D01*
X055513Y032520D02*
X055206Y032520D01*
X055277Y032480D02*
X055047Y032250D01*
X055354Y032250D01*
X055277Y032020D02*
X055277Y032480D01*
X055359Y032520D02*
X055359Y032980D01*
X055206Y032827D01*
X055052Y032827D02*
X055052Y032904D01*
X054975Y032980D01*
X054822Y032980D01*
X054745Y032904D01*
X054592Y032904D02*
X054515Y032980D01*
X054362Y032980D01*
X054285Y032904D01*
X054285Y032597D01*
X054362Y032520D01*
X054515Y032520D01*
X054592Y032597D01*
X054745Y032520D02*
X055052Y032827D01*
X055052Y032520D02*
X054745Y032520D01*
X054740Y032480D02*
X054740Y032020D01*
X054587Y032020D02*
X054894Y032020D01*
X054587Y032327D02*
X054740Y032480D01*
X054433Y032404D02*
X054357Y032480D01*
X054203Y032480D01*
X054126Y032404D01*
X054126Y032327D01*
X054203Y032250D01*
X054357Y032250D01*
X054433Y032173D01*
X054433Y032097D01*
X054357Y032020D01*
X054203Y032020D01*
X054126Y032097D01*
X053973Y032097D02*
X053973Y032480D01*
X053666Y032480D02*
X053666Y032097D01*
X053743Y032020D01*
X053896Y032020D01*
X053973Y032097D01*
X054280Y031943D02*
X054280Y032557D01*
X056166Y033344D02*
X056626Y033344D01*
X056626Y033191D02*
X056626Y033498D01*
X056319Y033191D02*
X056166Y033344D01*
X053683Y034097D02*
X053683Y034173D01*
X053607Y034250D01*
X053376Y034250D01*
X053376Y034097D01*
X053453Y034020D01*
X053607Y034020D01*
X053683Y034097D01*
X053530Y034404D02*
X053376Y034250D01*
X053223Y034250D02*
X053223Y034404D01*
X053146Y034480D01*
X052916Y034480D01*
X052916Y034020D01*
X052916Y034173D02*
X053146Y034173D01*
X053223Y034250D01*
X053070Y034173D02*
X053223Y034020D01*
X053530Y034404D02*
X053683Y034480D01*
X051354Y032980D02*
X051047Y032980D01*
X051047Y032750D01*
X051201Y032827D01*
X051277Y032827D01*
X051354Y032750D01*
X051354Y032597D01*
X051277Y032520D01*
X051124Y032520D01*
X051047Y032597D01*
X050894Y032520D02*
X050587Y032520D01*
X050532Y032520D02*
X050456Y032597D01*
X050763Y032904D01*
X050763Y032597D01*
X050686Y032520D01*
X050532Y032520D01*
X050456Y032597D02*
X050456Y032904D01*
X050532Y032980D01*
X050686Y032980D01*
X050763Y032904D01*
X050740Y032980D02*
X050740Y032520D01*
X050433Y032597D02*
X050433Y032673D01*
X050357Y032750D01*
X050203Y032750D01*
X050126Y032827D01*
X050126Y032904D01*
X050203Y032980D01*
X050357Y032980D01*
X050433Y032904D01*
X050302Y032904D02*
X050225Y032980D01*
X050072Y032980D01*
X049995Y032904D01*
X049973Y032980D02*
X049973Y032597D01*
X049896Y032520D01*
X049743Y032520D01*
X049666Y032597D01*
X049666Y032980D01*
X049612Y032980D02*
X049535Y032904D01*
X049535Y032597D01*
X049612Y032520D01*
X049765Y032520D01*
X049842Y032597D01*
X049995Y032520D02*
X050302Y032827D01*
X050302Y032904D01*
X050280Y033057D02*
X050280Y032443D01*
X050302Y032520D02*
X049995Y032520D01*
X050126Y032597D02*
X050203Y032520D01*
X050357Y032520D01*
X050433Y032597D01*
X050587Y032827D02*
X050740Y032980D01*
X049842Y032904D02*
X049765Y032980D01*
X049612Y032980D01*
X048857Y032480D02*
X048626Y032250D01*
X048933Y032250D01*
X048857Y032020D02*
X048857Y032480D01*
X048473Y032404D02*
X048473Y032250D01*
X048396Y032173D01*
X048166Y032173D01*
X048166Y032020D02*
X048166Y032480D01*
X048396Y032480D01*
X048473Y032404D01*
X048320Y032173D02*
X048473Y032020D01*
X048473Y034020D02*
X048320Y034173D01*
X048396Y034173D02*
X048166Y034173D01*
X048166Y034020D02*
X048166Y034480D01*
X048396Y034480D01*
X048473Y034404D01*
X048473Y034250D01*
X048396Y034173D01*
X048626Y034097D02*
X048626Y034020D01*
X048626Y034097D02*
X048933Y034404D01*
X048933Y034480D01*
X048626Y034480D01*
X048587Y038520D02*
X048587Y038980D01*
X048817Y038980D01*
X048894Y038904D01*
X048894Y038750D01*
X048817Y038673D01*
X048587Y038673D01*
X048433Y038750D02*
X048126Y038750D01*
X048126Y038827D02*
X048126Y038520D01*
X047820Y038520D02*
X047820Y038980D01*
X047973Y038980D02*
X047666Y038980D01*
X048126Y038827D02*
X048280Y038980D01*
X048433Y038827D01*
X048433Y038520D01*
X049047Y038520D02*
X049047Y038980D01*
X049354Y038980D01*
X049201Y038750D02*
X049047Y038750D01*
X049047Y038520D02*
X049354Y038520D01*
X049508Y038443D02*
X049815Y038443D01*
X049968Y038597D02*
X050045Y038520D01*
X050198Y038520D01*
X050275Y038597D01*
X050275Y038904D01*
X050198Y038980D01*
X050045Y038980D01*
X049968Y038904D01*
X049968Y038597D01*
X050428Y038597D02*
X050428Y038980D01*
X050735Y038980D02*
X050735Y038597D01*
X050659Y038520D01*
X050505Y038520D01*
X050428Y038597D01*
X050889Y038980D02*
X051196Y038980D01*
X051042Y038980D02*
X051042Y038520D01*
X053166Y038520D02*
X053166Y038827D01*
X053320Y038980D01*
X053473Y038827D01*
X053473Y038520D01*
X053626Y038597D02*
X053703Y038520D01*
X053857Y038520D01*
X053933Y038597D01*
X053933Y038980D01*
X054087Y038980D02*
X054087Y038520D01*
X054317Y038520D01*
X054394Y038597D01*
X054394Y038904D01*
X054317Y038980D01*
X054087Y038980D01*
X054547Y038980D02*
X054701Y038980D01*
X054624Y038980D02*
X054624Y038520D01*
X054547Y038520D02*
X054701Y038520D01*
X054854Y038597D02*
X054931Y038520D01*
X055084Y038520D01*
X055161Y038597D01*
X055161Y038904D01*
X055084Y038980D01*
X054931Y038980D01*
X054854Y038904D01*
X054854Y038597D01*
X055315Y038443D02*
X055621Y038443D01*
X055775Y038597D02*
X055852Y038520D01*
X056005Y038520D01*
X056082Y038597D01*
X056082Y038904D01*
X056005Y038980D01*
X055852Y038980D01*
X055775Y038904D01*
X055775Y038597D01*
X056235Y038597D02*
X056235Y038980D01*
X056542Y038980D02*
X056542Y038597D01*
X056466Y038520D01*
X056312Y038520D01*
X056235Y038597D01*
X056696Y038980D02*
X057003Y038980D01*
X056849Y038980D02*
X056849Y038520D01*
X058166Y037117D02*
X058166Y036810D01*
X058396Y036810D01*
X058319Y036963D01*
X058319Y037040D01*
X058396Y037117D01*
X058549Y037117D01*
X058626Y037040D01*
X058626Y036886D01*
X058549Y036810D01*
X058626Y036656D02*
X058473Y036503D01*
X058473Y036579D02*
X058473Y036349D01*
X058626Y036349D02*
X058166Y036349D01*
X058166Y036579D01*
X058242Y036656D01*
X058396Y036656D01*
X058473Y036579D01*
X053626Y038597D02*
X053626Y038980D01*
X053473Y038750D02*
X053166Y038750D01*
X045082Y038980D02*
X044775Y038980D01*
X044928Y038980D02*
X044928Y038520D01*
X044621Y038597D02*
X044621Y038980D01*
X044315Y038980D02*
X044315Y038597D01*
X044391Y038520D01*
X044545Y038520D01*
X044621Y038597D01*
X044161Y038597D02*
X044161Y038904D01*
X044084Y038980D01*
X043931Y038980D01*
X043854Y038904D01*
X043854Y038597D01*
X043931Y038520D01*
X044084Y038520D01*
X044161Y038597D01*
X043701Y038443D02*
X043394Y038443D01*
X043240Y038597D02*
X043164Y038520D01*
X043010Y038520D01*
X042933Y038597D01*
X042933Y038904D01*
X043010Y038980D01*
X043164Y038980D01*
X043240Y038904D01*
X042780Y038980D02*
X042626Y038980D01*
X042703Y038980D02*
X042703Y038520D01*
X042626Y038520D02*
X042780Y038520D01*
X042473Y038520D02*
X042473Y038980D01*
X042320Y038827D01*
X042166Y038980D01*
X042166Y038520D01*
X039582Y038520D02*
X039582Y038980D01*
X039275Y038980D02*
X039275Y038520D01*
X039121Y038520D02*
X038968Y038520D01*
X039045Y038520D02*
X039045Y038980D01*
X039121Y038980D02*
X038968Y038980D01*
X039275Y038980D02*
X039582Y038520D01*
X038815Y038443D02*
X038508Y038443D01*
X038354Y038520D02*
X038047Y038520D01*
X038047Y038980D01*
X038354Y038980D01*
X038201Y038750D02*
X038047Y038750D01*
X037894Y038750D02*
X037817Y038673D01*
X037587Y038673D01*
X037587Y038520D02*
X037587Y038980D01*
X037817Y038980D01*
X037894Y038904D01*
X037894Y038750D01*
X037433Y038750D02*
X037126Y038750D01*
X037126Y038827D02*
X037126Y038520D01*
X036820Y038520D02*
X036820Y038980D01*
X036973Y038980D02*
X036666Y038980D01*
X037126Y038827D02*
X037280Y038980D01*
X037433Y038827D01*
X037433Y038520D01*
X033603Y037660D02*
X033416Y037660D01*
X033556Y037800D01*
X033556Y037520D01*
X032894Y036924D02*
X032817Y037000D01*
X032664Y037000D01*
X032587Y036924D01*
X032587Y036847D01*
X032664Y036770D01*
X032894Y036770D01*
X032894Y036617D02*
X032894Y036924D01*
X032894Y036617D02*
X032817Y036540D01*
X032664Y036540D01*
X032587Y036617D01*
X032433Y036617D02*
X032433Y036693D01*
X032357Y036770D01*
X032203Y036770D01*
X032126Y036847D01*
X032126Y036924D01*
X032203Y037000D01*
X032357Y037000D01*
X032433Y036924D01*
X032280Y037077D02*
X032280Y036463D01*
X032357Y036540D02*
X032433Y036617D01*
X032357Y036540D02*
X032203Y036540D01*
X032126Y036617D01*
X031973Y036617D02*
X031973Y037000D01*
X031666Y037000D02*
X031666Y036617D01*
X031743Y036540D01*
X031896Y036540D01*
X031973Y036617D01*
X032205Y035097D02*
X032158Y035050D01*
X032205Y035097D02*
X032298Y035097D01*
X032345Y035050D01*
X032345Y035003D01*
X032158Y034816D01*
X032345Y034816D01*
X031626Y034790D02*
X031626Y034636D01*
X031549Y034560D01*
X031473Y034560D01*
X031396Y034636D01*
X031396Y034790D01*
X031473Y034867D01*
X031549Y034867D01*
X031626Y034790D01*
X031494Y034820D02*
X031307Y034820D01*
X031319Y034867D02*
X031396Y034790D01*
X031400Y034820D02*
X031400Y035100D01*
X031307Y035007D01*
X031319Y034867D02*
X031242Y034867D01*
X031166Y034790D01*
X031166Y034636D01*
X031242Y034560D01*
X031319Y034560D01*
X031396Y034636D01*
X031549Y034406D02*
X031626Y034329D01*
X031626Y034176D01*
X031549Y034099D01*
X031242Y034099D01*
X031166Y034176D01*
X031166Y034329D01*
X031242Y034406D01*
X031367Y034280D02*
X033611Y034280D01*
X033926Y033965D01*
X033817Y033335D02*
X033796Y033401D01*
X033771Y033465D01*
X033743Y033528D01*
X033712Y033590D01*
X033677Y033650D01*
X033638Y033707D01*
X033596Y033762D01*
X033552Y033815D01*
X033504Y033865D01*
X033454Y033913D01*
X033401Y033957D01*
X033345Y033999D01*
X033287Y034037D01*
X033228Y034072D01*
X033166Y034103D01*
X033103Y034131D01*
X033038Y034155D01*
X032972Y034175D01*
X032905Y034192D01*
X032837Y034205D01*
X032768Y034214D01*
X032699Y034219D01*
X032630Y034220D01*
X032561Y034217D01*
X032492Y034210D01*
X032423Y034200D01*
X032356Y034185D01*
X032289Y034167D01*
X032223Y034145D01*
X032159Y034119D01*
X032097Y034090D01*
X032036Y034057D01*
X031977Y034020D01*
X031920Y033981D01*
X031866Y033938D01*
X031814Y033892D01*
X031764Y033844D01*
X031718Y033792D01*
X031675Y033738D01*
X031634Y033682D01*
X031598Y033624D01*
X031564Y033563D01*
X031534Y033501D01*
X031507Y033437D01*
X031484Y033371D01*
X031465Y033305D01*
X031367Y033315D02*
X031367Y034280D01*
X029926Y033965D02*
X029611Y034280D01*
X027367Y034280D01*
X027367Y033315D01*
X027367Y032724D02*
X027367Y031720D01*
X029611Y031720D01*
X029926Y032035D01*
X031367Y031720D02*
X031367Y032724D01*
X031367Y031720D02*
X033611Y031720D01*
X033926Y032035D01*
X033827Y032695D02*
X033808Y032629D01*
X033785Y032563D01*
X033758Y032499D01*
X033728Y032437D01*
X033694Y032376D01*
X033658Y032318D01*
X033617Y032262D01*
X033574Y032208D01*
X033528Y032156D01*
X033478Y032108D01*
X033426Y032062D01*
X033372Y032019D01*
X033315Y031980D01*
X033256Y031943D01*
X033195Y031910D01*
X033133Y031881D01*
X033069Y031855D01*
X033003Y031833D01*
X032936Y031815D01*
X032869Y031800D01*
X032800Y031790D01*
X032731Y031783D01*
X032662Y031780D01*
X032593Y031781D01*
X032524Y031786D01*
X032455Y031795D01*
X032387Y031808D01*
X032320Y031825D01*
X032254Y031845D01*
X032189Y031869D01*
X032126Y031897D01*
X032064Y031928D01*
X032005Y031963D01*
X031947Y032001D01*
X031891Y032043D01*
X031838Y032087D01*
X031788Y032135D01*
X031740Y032185D01*
X031696Y032238D01*
X031654Y032293D01*
X031615Y032350D01*
X031580Y032410D01*
X031549Y032472D01*
X031521Y032535D01*
X031496Y032599D01*
X031475Y032665D01*
X029827Y032695D02*
X029808Y032629D01*
X029785Y032563D01*
X029758Y032499D01*
X029728Y032437D01*
X029694Y032376D01*
X029658Y032318D01*
X029617Y032262D01*
X029574Y032208D01*
X029528Y032156D01*
X029478Y032108D01*
X029426Y032062D01*
X029372Y032019D01*
X029315Y031980D01*
X029256Y031943D01*
X029195Y031910D01*
X029133Y031881D01*
X029069Y031855D01*
X029003Y031833D01*
X028936Y031815D01*
X028869Y031800D01*
X028800Y031790D01*
X028731Y031783D01*
X028662Y031780D01*
X028593Y031781D01*
X028524Y031786D01*
X028455Y031795D01*
X028387Y031808D01*
X028320Y031825D01*
X028254Y031845D01*
X028189Y031869D01*
X028126Y031897D01*
X028064Y031928D01*
X028005Y031963D01*
X027947Y032001D01*
X027891Y032043D01*
X027838Y032087D01*
X027788Y032135D01*
X027740Y032185D01*
X027696Y032238D01*
X027654Y032293D01*
X027615Y032350D01*
X027580Y032410D01*
X027549Y032472D01*
X027521Y032535D01*
X027496Y032599D01*
X027475Y032665D01*
X027465Y033305D02*
X027484Y033371D01*
X027507Y033437D01*
X027534Y033501D01*
X027564Y033563D01*
X027598Y033624D01*
X027634Y033682D01*
X027675Y033738D01*
X027718Y033792D01*
X027764Y033844D01*
X027814Y033892D01*
X027866Y033938D01*
X027920Y033981D01*
X027977Y034020D01*
X028036Y034057D01*
X028097Y034090D01*
X028159Y034119D01*
X028223Y034145D01*
X028289Y034167D01*
X028356Y034185D01*
X028423Y034200D01*
X028492Y034210D01*
X028561Y034217D01*
X028630Y034220D01*
X028699Y034219D01*
X028768Y034214D01*
X028837Y034205D01*
X028905Y034192D01*
X028972Y034175D01*
X029038Y034155D01*
X029103Y034131D01*
X029166Y034103D01*
X029228Y034072D01*
X029287Y034037D01*
X029345Y033999D01*
X029401Y033957D01*
X029454Y033913D01*
X029504Y033865D01*
X029552Y033815D01*
X029596Y033762D01*
X029638Y033707D01*
X029677Y033650D01*
X029712Y033590D01*
X029743Y033528D01*
X029771Y033465D01*
X029796Y033401D01*
X029817Y033335D01*
X029208Y034820D02*
X029115Y034820D01*
X029068Y034867D01*
X029161Y034960D02*
X029208Y034960D01*
X029255Y034913D01*
X029255Y034867D01*
X029208Y034820D01*
X029208Y034960D02*
X029255Y035007D01*
X029255Y035054D01*
X029208Y035100D01*
X029115Y035100D01*
X029068Y035054D01*
X028345Y035050D02*
X028298Y035097D01*
X028205Y035097D01*
X028158Y035050D01*
X028345Y035050D02*
X028345Y035003D01*
X028158Y034816D01*
X028345Y034816D01*
X027626Y034790D02*
X027626Y034636D01*
X027549Y034560D01*
X027549Y034406D02*
X027626Y034329D01*
X027626Y034176D01*
X027549Y034099D01*
X027242Y034099D01*
X027166Y034176D01*
X027166Y034329D01*
X027242Y034406D01*
X027242Y034560D02*
X027319Y034560D01*
X027396Y034636D01*
X027396Y034867D01*
X027400Y034820D02*
X027400Y035100D01*
X027307Y035007D01*
X027242Y034867D02*
X027166Y034790D01*
X027166Y034636D01*
X027242Y034560D01*
X027307Y034820D02*
X027494Y034820D01*
X027549Y034867D02*
X027242Y034867D01*
X027549Y034867D02*
X027626Y034790D01*
X026926Y035720D02*
X025922Y035720D01*
X025331Y035720D02*
X024367Y035720D01*
X024367Y037965D01*
X024681Y038280D01*
X025311Y038171D02*
X025245Y038150D01*
X025181Y038125D01*
X025118Y038097D01*
X025056Y038066D01*
X024996Y038031D01*
X024939Y037992D01*
X024884Y037950D01*
X024831Y037906D01*
X024781Y037858D01*
X024733Y037808D01*
X024689Y037755D01*
X024647Y037699D01*
X024609Y037641D01*
X024574Y037582D01*
X024543Y037520D01*
X024515Y037457D01*
X024491Y037392D01*
X024471Y037326D01*
X024454Y037259D01*
X024441Y037191D01*
X024432Y037122D01*
X024427Y037053D01*
X024426Y036984D01*
X024429Y036915D01*
X024436Y036846D01*
X024446Y036777D01*
X024461Y036710D01*
X024479Y036643D01*
X024501Y036577D01*
X024527Y036513D01*
X024556Y036451D01*
X024589Y036390D01*
X024626Y036331D01*
X024665Y036274D01*
X024708Y036220D01*
X024754Y036168D01*
X024802Y036118D01*
X024854Y036072D01*
X024908Y036029D01*
X024964Y035988D01*
X025022Y035952D01*
X025083Y035918D01*
X025145Y035888D01*
X025209Y035861D01*
X025275Y035838D01*
X025341Y035819D01*
X026926Y035720D02*
X026926Y037965D01*
X026611Y038280D01*
X025951Y038181D02*
X026017Y038162D01*
X026083Y038139D01*
X026147Y038112D01*
X026209Y038082D01*
X026270Y038048D01*
X026328Y038012D01*
X026384Y037971D01*
X026438Y037928D01*
X026490Y037882D01*
X026538Y037832D01*
X026584Y037780D01*
X026627Y037726D01*
X026666Y037669D01*
X026703Y037610D01*
X026736Y037549D01*
X026765Y037487D01*
X026791Y037423D01*
X026813Y037357D01*
X026831Y037290D01*
X026846Y037223D01*
X026856Y037154D01*
X026863Y037085D01*
X026866Y037016D01*
X026865Y036947D01*
X026860Y036878D01*
X026851Y036809D01*
X026838Y036741D01*
X026821Y036674D01*
X026801Y036608D01*
X026777Y036543D01*
X026749Y036480D01*
X026718Y036418D01*
X026683Y036359D01*
X026645Y036301D01*
X026603Y036245D01*
X026559Y036192D01*
X026511Y036142D01*
X026461Y036094D01*
X026408Y036050D01*
X026353Y036008D01*
X026296Y035969D01*
X026236Y035934D01*
X026174Y035903D01*
X026111Y035875D01*
X026047Y035850D01*
X025981Y035829D01*
X027666Y036617D02*
X027666Y037000D01*
X027973Y037000D02*
X027973Y036617D01*
X027896Y036540D01*
X027743Y036540D01*
X027666Y036617D01*
X028126Y036617D02*
X028203Y036540D01*
X028357Y036540D01*
X028433Y036617D01*
X028433Y036693D01*
X028357Y036770D01*
X028203Y036770D01*
X028126Y036847D01*
X028126Y036924D01*
X028203Y037000D01*
X028357Y037000D01*
X028433Y036924D01*
X028587Y036924D02*
X028587Y036847D01*
X028664Y036770D01*
X028817Y036770D01*
X028894Y036693D01*
X028894Y036617D01*
X028817Y036540D01*
X028664Y036540D01*
X028587Y036617D01*
X028587Y036693D01*
X028664Y036770D01*
X028817Y036770D02*
X028894Y036847D01*
X028894Y036924D01*
X028817Y037000D01*
X028664Y037000D01*
X028587Y036924D01*
X028280Y037077D02*
X028280Y036463D01*
X029556Y037520D02*
X029556Y037800D01*
X029416Y037660D01*
X029603Y037660D01*
X033068Y035054D02*
X033115Y035100D01*
X033208Y035100D01*
X033255Y035054D01*
X033255Y035007D01*
X033208Y034960D01*
X033255Y034913D01*
X033255Y034867D01*
X033208Y034820D01*
X033115Y034820D01*
X033068Y034867D01*
X033161Y034960D02*
X033208Y034960D01*
X023065Y030654D02*
X023065Y030500D01*
X022988Y030423D01*
X022758Y030423D01*
X022758Y030270D02*
X022758Y030730D01*
X022988Y030730D01*
X023065Y030654D01*
X022911Y030423D02*
X023065Y030270D01*
X022604Y030270D02*
X022297Y030270D01*
X022297Y030730D01*
X022604Y030730D01*
X022451Y030500D02*
X022297Y030500D01*
X022144Y030270D02*
X022144Y030730D01*
X021837Y030730D02*
X021837Y030270D01*
X021990Y030423D01*
X022144Y030270D01*
X021683Y030347D02*
X021683Y030654D01*
X021607Y030730D01*
X021453Y030730D01*
X021376Y030654D01*
X021376Y030347D01*
X021453Y030270D01*
X021607Y030270D01*
X021683Y030347D01*
X021223Y030500D02*
X021146Y030423D01*
X020916Y030423D01*
X020916Y030270D02*
X020916Y030730D01*
X021146Y030730D01*
X021223Y030654D01*
X021223Y030500D01*
X020394Y030423D02*
X020394Y030347D01*
X020317Y030270D01*
X020164Y030270D01*
X020087Y030347D01*
X020087Y030500D01*
X020317Y030500D01*
X020394Y030423D01*
X020240Y030654D02*
X020087Y030500D01*
X019933Y030500D02*
X019933Y030347D01*
X019857Y030270D01*
X019703Y030270D01*
X019626Y030347D01*
X019626Y030500D02*
X019780Y030577D01*
X019857Y030577D01*
X019933Y030500D01*
X019933Y030730D02*
X019626Y030730D01*
X019626Y030500D01*
X019473Y030500D02*
X019396Y030423D01*
X019166Y030423D01*
X019166Y030270D02*
X019166Y030730D01*
X019396Y030730D01*
X019473Y030654D01*
X019473Y030500D01*
X019320Y030423D02*
X019473Y030270D01*
X020240Y030654D02*
X020394Y030730D01*
X022245Y031597D02*
X022322Y031520D01*
X022475Y031520D01*
X022552Y031597D01*
X022706Y031597D02*
X022782Y031520D01*
X022936Y031520D01*
X023013Y031597D01*
X023013Y031673D01*
X022936Y031750D01*
X022706Y031750D01*
X022706Y031597D01*
X022706Y031750D02*
X022859Y031904D01*
X023013Y031980D01*
X022552Y031904D02*
X022475Y031980D01*
X022322Y031980D01*
X022245Y031904D01*
X022245Y031597D01*
X020126Y033020D02*
X020126Y033097D01*
X020433Y033404D01*
X020433Y033480D01*
X020126Y033480D01*
X019973Y033404D02*
X019896Y033480D01*
X019743Y033480D01*
X019666Y033404D01*
X019666Y033097D01*
X019743Y033020D01*
X019896Y033020D01*
X019973Y033097D01*
X018926Y032220D02*
X017922Y032220D01*
X017331Y032220D02*
X016367Y032220D01*
X016367Y034465D01*
X016681Y034780D01*
X016367Y035720D02*
X016367Y037965D01*
X016681Y038280D01*
X017311Y038171D02*
X017245Y038150D01*
X017181Y038125D01*
X017118Y038097D01*
X017056Y038066D01*
X016996Y038031D01*
X016939Y037992D01*
X016884Y037950D01*
X016831Y037906D01*
X016781Y037858D01*
X016733Y037808D01*
X016689Y037755D01*
X016647Y037699D01*
X016609Y037641D01*
X016574Y037582D01*
X016543Y037520D01*
X016515Y037457D01*
X016491Y037392D01*
X016471Y037326D01*
X016454Y037259D01*
X016441Y037191D01*
X016432Y037122D01*
X016427Y037053D01*
X016426Y036984D01*
X016429Y036915D01*
X016436Y036846D01*
X016446Y036777D01*
X016461Y036710D01*
X016479Y036643D01*
X016501Y036577D01*
X016527Y036513D01*
X016556Y036451D01*
X016589Y036390D01*
X016626Y036331D01*
X016665Y036274D01*
X016708Y036220D01*
X016754Y036168D01*
X016802Y036118D01*
X016854Y036072D01*
X016908Y036029D01*
X016964Y035988D01*
X017022Y035952D01*
X017083Y035918D01*
X017145Y035888D01*
X017209Y035861D01*
X017275Y035838D01*
X017341Y035819D01*
X017331Y035720D02*
X016367Y035720D01*
X017922Y035720D02*
X018926Y035720D01*
X018926Y037965D01*
X018611Y038280D01*
X017951Y038181D02*
X018017Y038162D01*
X018083Y038139D01*
X018147Y038112D01*
X018209Y038082D01*
X018270Y038048D01*
X018328Y038012D01*
X018384Y037971D01*
X018438Y037928D01*
X018490Y037882D01*
X018538Y037832D01*
X018584Y037780D01*
X018627Y037726D01*
X018666Y037669D01*
X018703Y037610D01*
X018736Y037549D01*
X018765Y037487D01*
X018791Y037423D01*
X018813Y037357D01*
X018831Y037290D01*
X018846Y037223D01*
X018856Y037154D01*
X018863Y037085D01*
X018866Y037016D01*
X018865Y036947D01*
X018860Y036878D01*
X018851Y036809D01*
X018838Y036741D01*
X018821Y036674D01*
X018801Y036608D01*
X018777Y036543D01*
X018749Y036480D01*
X018718Y036418D01*
X018683Y036359D01*
X018645Y036301D01*
X018603Y036245D01*
X018559Y036192D01*
X018511Y036142D01*
X018461Y036094D01*
X018408Y036050D01*
X018353Y036008D01*
X018296Y035969D01*
X018236Y035934D01*
X018174Y035903D01*
X018111Y035875D01*
X018047Y035850D01*
X017981Y035829D01*
X018611Y034780D02*
X018926Y034465D01*
X018926Y032220D01*
X017981Y032329D02*
X018047Y032350D01*
X018111Y032375D01*
X018174Y032403D01*
X018236Y032434D01*
X018296Y032469D01*
X018353Y032508D01*
X018408Y032550D01*
X018461Y032594D01*
X018511Y032642D01*
X018559Y032692D01*
X018603Y032745D01*
X018645Y032801D01*
X018683Y032859D01*
X018718Y032918D01*
X018749Y032980D01*
X018777Y033043D01*
X018801Y033108D01*
X018821Y033174D01*
X018838Y033241D01*
X018851Y033309D01*
X018860Y033378D01*
X018865Y033447D01*
X018866Y033516D01*
X018863Y033585D01*
X018856Y033654D01*
X018846Y033723D01*
X018831Y033790D01*
X018813Y033857D01*
X018791Y033923D01*
X018765Y033987D01*
X018736Y034049D01*
X018703Y034110D01*
X018666Y034169D01*
X018627Y034226D01*
X018584Y034280D01*
X018538Y034332D01*
X018490Y034382D01*
X018438Y034428D01*
X018384Y034471D01*
X018328Y034512D01*
X018270Y034548D01*
X018209Y034582D01*
X018147Y034612D01*
X018083Y034639D01*
X018017Y034662D01*
X017951Y034681D01*
X019666Y035020D02*
X020049Y035020D01*
X020126Y035097D01*
X020126Y035250D01*
X020049Y035327D01*
X019666Y035327D01*
X019742Y035480D02*
X019666Y035557D01*
X019666Y035711D01*
X019742Y035787D01*
X019666Y035941D02*
X019666Y036248D01*
X019742Y036248D01*
X020049Y035941D01*
X020126Y035941D01*
X020049Y035787D02*
X019973Y035787D01*
X019896Y035711D01*
X019896Y035557D01*
X019819Y035480D01*
X019742Y035480D01*
X019589Y035634D02*
X020203Y035634D01*
X020126Y035711D02*
X020049Y035787D01*
X020126Y035711D02*
X020126Y035557D01*
X020049Y035480D01*
X017311Y034671D02*
X017245Y034650D01*
X017181Y034625D01*
X017118Y034597D01*
X017056Y034566D01*
X016996Y034531D01*
X016939Y034492D01*
X016884Y034450D01*
X016831Y034406D01*
X016781Y034358D01*
X016733Y034308D01*
X016689Y034255D01*
X016647Y034199D01*
X016609Y034141D01*
X016574Y034082D01*
X016543Y034020D01*
X016515Y033957D01*
X016491Y033892D01*
X016471Y033826D01*
X016454Y033759D01*
X016441Y033691D01*
X016432Y033622D01*
X016427Y033553D01*
X016426Y033484D01*
X016429Y033415D01*
X016436Y033346D01*
X016446Y033277D01*
X016461Y033210D01*
X016479Y033143D01*
X016501Y033077D01*
X016527Y033013D01*
X016556Y032951D01*
X016589Y032890D01*
X016626Y032831D01*
X016665Y032774D01*
X016708Y032720D01*
X016754Y032668D01*
X016802Y032618D01*
X016854Y032572D01*
X016908Y032529D01*
X016964Y032488D01*
X017022Y032452D01*
X017083Y032418D01*
X017145Y032388D01*
X017209Y032361D01*
X017275Y032338D01*
X017341Y032319D01*
X016626Y032676D02*
X016626Y032829D01*
X016549Y032906D01*
X016549Y033060D02*
X016626Y033136D01*
X016626Y033290D01*
X016549Y033367D01*
X016396Y033367D01*
X016319Y033290D01*
X016319Y033213D01*
X016396Y033060D01*
X016166Y033060D01*
X016166Y033367D01*
X016242Y032906D02*
X016166Y032829D01*
X016166Y032676D01*
X016242Y032599D01*
X016549Y032599D01*
X016626Y032676D01*
X011626Y032676D02*
X011626Y032829D01*
X011549Y032906D01*
X011396Y033060D02*
X011396Y033367D01*
X011626Y033290D02*
X011166Y033290D01*
X011396Y033060D01*
X011242Y032906D02*
X011166Y032829D01*
X011166Y032676D01*
X011242Y032599D01*
X011549Y032599D01*
X011626Y032676D01*
X009664Y030230D02*
X009510Y030230D01*
X009433Y030154D01*
X009280Y030154D02*
X009203Y030230D01*
X009050Y030230D01*
X008973Y030154D01*
X008973Y029847D01*
X009050Y029770D01*
X009203Y029770D01*
X009280Y029847D01*
X009433Y029770D02*
X009740Y030077D01*
X009740Y030154D01*
X009664Y030230D01*
X009740Y029770D02*
X009433Y029770D01*
X008820Y029770D02*
X008666Y029770D01*
X008743Y029770D02*
X008743Y030230D01*
X008666Y030230D02*
X008820Y030230D01*
X007126Y031099D02*
X006666Y031406D01*
X006819Y031560D02*
X006666Y031713D01*
X007126Y031713D01*
X007126Y031560D02*
X007126Y031867D01*
X007126Y031406D02*
X006666Y031099D01*
X009166Y027730D02*
X009396Y027730D01*
X009473Y027654D01*
X009473Y027500D01*
X009396Y027423D01*
X009166Y027423D01*
X009166Y027270D02*
X009166Y027730D01*
X009320Y027423D02*
X009473Y027270D01*
X009626Y027270D02*
X009933Y027270D01*
X009780Y027270D02*
X009780Y027730D01*
X009626Y027577D01*
X009646Y026868D02*
X009493Y026868D01*
X009416Y026791D01*
X009416Y026485D01*
X009493Y026408D01*
X009646Y026408D01*
X009723Y026485D01*
X009876Y026408D02*
X010183Y026408D01*
X010030Y026408D02*
X010030Y026868D01*
X009876Y026715D01*
X009723Y026791D02*
X009646Y026868D01*
X009126Y026790D02*
X008666Y026790D01*
X008896Y026560D01*
X008896Y026867D01*
X009126Y026406D02*
X009126Y026099D01*
X009126Y026253D02*
X008666Y026253D01*
X008819Y026099D01*
X008742Y025946D02*
X008666Y025869D01*
X008666Y025716D01*
X008742Y025639D01*
X009049Y025639D01*
X009126Y025716D01*
X009126Y025869D01*
X009049Y025946D01*
X008126Y026003D02*
X007666Y026003D01*
X007819Y025849D01*
X007742Y025696D02*
X007666Y025619D01*
X007666Y025466D01*
X007742Y025389D01*
X008049Y025389D01*
X008126Y025466D01*
X008126Y025619D01*
X008049Y025696D01*
X008126Y025849D02*
X008126Y026156D01*
X008126Y026310D02*
X007819Y026617D01*
X007742Y026617D01*
X007666Y026540D01*
X007666Y026386D01*
X007742Y026310D01*
X008126Y026310D02*
X008126Y026617D01*
X010337Y026485D02*
X010414Y026408D01*
X010567Y026408D01*
X010644Y026485D01*
X010644Y026561D01*
X010567Y026638D01*
X010490Y026638D01*
X010567Y026638D02*
X010644Y026715D01*
X010644Y026791D01*
X010567Y026868D01*
X010414Y026868D01*
X010337Y026791D01*
X016166Y026530D02*
X016166Y026147D01*
X016243Y026070D01*
X016396Y026070D01*
X016473Y026147D01*
X016473Y026530D01*
X016626Y026454D02*
X016703Y026530D01*
X016857Y026530D01*
X016933Y026454D01*
X016857Y026300D02*
X016703Y026300D01*
X016626Y026377D01*
X016626Y026454D01*
X016780Y026607D02*
X016780Y025993D01*
X016857Y026070D02*
X016933Y026147D01*
X016933Y026223D01*
X016857Y026300D01*
X016857Y026070D02*
X016703Y026070D01*
X016626Y026147D01*
X017087Y026070D02*
X017394Y026070D01*
X017547Y026070D02*
X017547Y026147D01*
X017854Y026454D01*
X017854Y026530D01*
X017547Y026530D01*
X017240Y026530D02*
X017240Y026070D01*
X017087Y026377D02*
X017240Y026530D01*
X016780Y023107D02*
X016780Y022493D01*
X016857Y022570D02*
X016933Y022647D01*
X016933Y022723D01*
X016857Y022800D01*
X016703Y022800D01*
X016626Y022877D01*
X016626Y022954D01*
X016703Y023030D01*
X016857Y023030D01*
X016933Y022954D01*
X017087Y022877D02*
X017240Y023030D01*
X017240Y022570D01*
X017087Y022570D02*
X017394Y022570D01*
X017547Y022647D02*
X017624Y022570D01*
X017777Y022570D01*
X017854Y022647D01*
X017854Y022723D01*
X017777Y022800D01*
X017547Y022800D01*
X017547Y022647D01*
X017547Y022800D02*
X017701Y022954D01*
X017854Y023030D01*
X016857Y022570D02*
X016703Y022570D01*
X016626Y022647D01*
X016473Y022647D02*
X016473Y023030D01*
X016166Y023030D02*
X016166Y022647D01*
X016243Y022570D01*
X016396Y022570D01*
X016473Y022647D01*
X015144Y022730D02*
X014990Y022654D01*
X014837Y022500D01*
X015067Y022500D01*
X015144Y022423D01*
X015144Y022347D01*
X015067Y022270D01*
X014914Y022270D01*
X014837Y022347D01*
X014837Y022500D01*
X014683Y022577D02*
X014683Y022654D01*
X014607Y022730D01*
X014453Y022730D01*
X014376Y022654D01*
X014223Y022654D02*
X014223Y022500D01*
X014146Y022423D01*
X013916Y022423D01*
X013916Y022270D02*
X013916Y022730D01*
X014146Y022730D01*
X014223Y022654D01*
X014070Y022423D02*
X014223Y022270D01*
X014376Y022270D02*
X014683Y022577D01*
X014683Y022270D02*
X014376Y022270D01*
X020562Y018969D02*
X020562Y018508D01*
X020562Y018662D02*
X020793Y018662D01*
X020869Y018738D01*
X020869Y018892D01*
X020793Y018969D01*
X020562Y018969D01*
X020716Y018662D02*
X020869Y018508D01*
X021023Y018738D02*
X021330Y018738D01*
X021483Y018738D02*
X021713Y018738D01*
X021790Y018662D01*
X021790Y018585D01*
X021713Y018508D01*
X021560Y018508D01*
X021483Y018585D01*
X021483Y018738D01*
X021637Y018892D01*
X021790Y018969D01*
X021253Y018969D02*
X021253Y018508D01*
X021023Y018738D02*
X021253Y018969D01*
X020394Y016480D02*
X020394Y016404D01*
X020087Y016097D01*
X020087Y016020D01*
X019933Y016020D02*
X019626Y016020D01*
X019933Y016327D01*
X019933Y016404D01*
X019857Y016480D01*
X019703Y016480D01*
X019626Y016404D01*
X019473Y016404D02*
X019473Y016250D01*
X019396Y016173D01*
X019166Y016173D01*
X019166Y016020D02*
X019166Y016480D01*
X019396Y016480D01*
X019473Y016404D01*
X019320Y016173D02*
X019473Y016020D01*
X020087Y016480D02*
X020394Y016480D01*
X017144Y016213D02*
X016530Y016213D01*
X016607Y016136D02*
X016607Y016290D01*
X016683Y016367D01*
X016760Y016520D02*
X016607Y016673D01*
X017067Y016673D01*
X017067Y016520D02*
X017067Y016827D01*
X017067Y016980D02*
X016760Y017287D01*
X016683Y017287D01*
X016607Y017211D01*
X016607Y017057D01*
X016683Y016980D01*
X017067Y016980D02*
X017067Y017287D01*
X015626Y016790D02*
X015626Y016636D01*
X015549Y016560D01*
X015396Y016560D01*
X015396Y016790D01*
X015473Y016867D01*
X015549Y016867D01*
X015626Y016790D01*
X015396Y016560D02*
X015242Y016713D01*
X015166Y016867D01*
X015166Y016406D02*
X015166Y016099D01*
X015396Y016099D01*
X015319Y016253D01*
X015319Y016329D01*
X015396Y016406D01*
X015549Y016406D01*
X015626Y016329D01*
X015626Y016176D01*
X015549Y016099D01*
X015549Y015946D02*
X015626Y015869D01*
X015626Y015716D01*
X015549Y015639D01*
X015242Y015639D01*
X015166Y015716D01*
X015166Y015869D01*
X015242Y015946D01*
X016607Y015906D02*
X016990Y015906D01*
X017067Y015829D01*
X017067Y015676D01*
X016990Y015599D01*
X016607Y015599D01*
X016683Y016060D02*
X016607Y016136D01*
X016683Y016060D02*
X016760Y016060D01*
X016837Y016136D01*
X016837Y016290D01*
X016914Y016367D01*
X016990Y016367D01*
X017067Y016290D01*
X017067Y016136D01*
X016990Y016060D01*
X007394Y016597D02*
X007317Y016520D01*
X007164Y016520D01*
X007087Y016597D01*
X007087Y016673D01*
X007164Y016750D01*
X007317Y016750D01*
X007394Y016673D01*
X007394Y016597D01*
X007317Y016750D02*
X007394Y016827D01*
X007394Y016904D01*
X007317Y016980D01*
X007164Y016980D01*
X007087Y016904D01*
X007087Y016827D01*
X007164Y016750D01*
X006933Y016750D02*
X006933Y016597D01*
X006857Y016520D01*
X006703Y016520D01*
X006626Y016597D01*
X006473Y016597D02*
X006396Y016520D01*
X006243Y016520D01*
X006166Y016597D01*
X006166Y016904D01*
X006243Y016980D01*
X006396Y016980D01*
X006473Y016904D01*
X006626Y016980D02*
X006626Y016750D01*
X006780Y016827D01*
X006857Y016827D01*
X006933Y016750D01*
X006933Y016980D02*
X006626Y016980D01*
X005686Y012980D02*
X005763Y012904D01*
X005456Y012597D01*
X005532Y012520D01*
X005686Y012520D01*
X005763Y012597D01*
X005763Y012904D01*
X005686Y012980D02*
X005532Y012980D01*
X005456Y012904D01*
X005456Y012597D01*
X005302Y012597D02*
X005225Y012520D01*
X005072Y012520D01*
X004995Y012597D01*
X004842Y012520D02*
X004688Y012673D01*
X004765Y012673D02*
X004535Y012673D01*
X004535Y012520D02*
X004535Y012980D01*
X004765Y012980D01*
X004842Y012904D01*
X004842Y012750D01*
X004765Y012673D01*
X004995Y012904D02*
X005072Y012980D01*
X005225Y012980D01*
X005302Y012904D01*
X005302Y012827D01*
X005225Y012750D01*
X005302Y012673D01*
X005302Y012597D01*
X005225Y012750D02*
X005149Y012750D01*
X005225Y010980D02*
X005072Y010980D01*
X004995Y010904D01*
X004842Y010904D02*
X004842Y010750D01*
X004765Y010673D01*
X004535Y010673D01*
X004535Y010520D02*
X004535Y010980D01*
X004765Y010980D01*
X004842Y010904D01*
X004688Y010673D02*
X004842Y010520D01*
X004995Y010520D02*
X005302Y010827D01*
X005302Y010904D01*
X005225Y010980D01*
X005456Y010904D02*
X005456Y010827D01*
X005532Y010750D01*
X005763Y010750D01*
X005763Y010597D02*
X005763Y010904D01*
X005686Y010980D01*
X005532Y010980D01*
X005456Y010904D01*
X005456Y010597D02*
X005532Y010520D01*
X005686Y010520D01*
X005763Y010597D01*
X005302Y010520D02*
X004995Y010520D01*
X005072Y008980D02*
X004995Y008904D01*
X005072Y008980D02*
X005225Y008980D01*
X005302Y008904D01*
X005302Y008827D01*
X004995Y008520D01*
X005302Y008520D01*
X005456Y008597D02*
X005456Y008673D01*
X005532Y008750D01*
X005686Y008750D01*
X005763Y008673D01*
X005763Y008597D01*
X005686Y008520D01*
X005532Y008520D01*
X005456Y008597D01*
X005532Y008750D02*
X005456Y008827D01*
X005456Y008904D01*
X005532Y008980D01*
X005686Y008980D01*
X005763Y008904D01*
X005763Y008827D01*
X005686Y008750D01*
X004842Y008750D02*
X004842Y008904D01*
X004765Y008980D01*
X004535Y008980D01*
X004535Y008520D01*
X004535Y008673D02*
X004765Y008673D01*
X004842Y008750D01*
X004688Y008673D02*
X004842Y008520D01*
X005843Y021154D02*
X005843Y021614D01*
X006073Y021614D01*
X006150Y021538D01*
X006150Y021384D01*
X006073Y021307D01*
X005843Y021307D01*
X005997Y021307D02*
X006150Y021154D01*
X006304Y021231D02*
X006380Y021154D01*
X006534Y021154D01*
X006611Y021231D01*
X006611Y021307D01*
X006534Y021384D01*
X006457Y021384D01*
X006534Y021384D02*
X006611Y021461D01*
X006611Y021538D01*
X006534Y021614D01*
X006380Y021614D01*
X006304Y021538D01*
X006764Y021461D02*
X006917Y021614D01*
X006917Y021154D01*
X006764Y021154D02*
X007071Y021154D01*
X024694Y022514D02*
X024694Y022974D01*
X024924Y022974D01*
X025001Y022898D01*
X025001Y022744D01*
X024924Y022668D01*
X024694Y022668D01*
X024847Y022668D02*
X025001Y022514D01*
X025154Y022744D02*
X025384Y022974D01*
X025384Y022514D01*
X025461Y022744D02*
X025154Y022744D01*
X025614Y022744D02*
X025768Y022821D01*
X025845Y022821D01*
X025921Y022744D01*
X025921Y022591D01*
X025845Y022514D01*
X025691Y022514D01*
X025614Y022591D01*
X025614Y022744D02*
X025614Y022974D01*
X025921Y022974D01*
X029149Y023705D02*
X029226Y023628D01*
X029379Y023628D01*
X029456Y023705D01*
X029456Y024089D01*
X029609Y023935D02*
X029763Y024089D01*
X029763Y023628D01*
X029916Y023628D02*
X029609Y023628D01*
X029149Y023705D02*
X029149Y024089D01*
X028620Y026296D02*
X028467Y026296D01*
X028390Y026372D01*
X028543Y026526D02*
X028620Y026526D01*
X028697Y026449D01*
X028697Y026372D01*
X028620Y026296D01*
X028620Y026526D02*
X028697Y026603D01*
X028697Y026679D01*
X028620Y026756D01*
X028467Y026756D01*
X028390Y026679D01*
X028237Y026526D02*
X027930Y026526D01*
X028160Y026756D01*
X028160Y026296D01*
X027776Y026372D02*
X027699Y026296D01*
X027546Y026296D01*
X027469Y026372D01*
X027469Y026679D01*
X027546Y026756D01*
X027699Y026756D01*
X027776Y026679D01*
X038896Y020894D02*
X038896Y020433D01*
X038896Y020587D02*
X039127Y020587D01*
X039203Y020664D01*
X039203Y020817D01*
X039127Y020894D01*
X038896Y020894D01*
X039050Y020587D02*
X039203Y020433D01*
X039357Y020664D02*
X039664Y020664D01*
X039817Y020510D02*
X039817Y020433D01*
X039817Y020510D02*
X040124Y020817D01*
X040124Y020894D01*
X039817Y020894D01*
X039587Y020894D02*
X039357Y020664D01*
X039587Y020433D02*
X039587Y020894D01*
X056166Y023716D02*
X056242Y023639D01*
X056549Y023639D01*
X056626Y023716D01*
X056626Y023869D01*
X056549Y023946D01*
X056626Y024099D02*
X056319Y024406D01*
X056242Y024406D01*
X056166Y024329D01*
X056166Y024176D01*
X056242Y024099D01*
X056242Y023946D02*
X056166Y023869D01*
X056166Y023716D01*
X056626Y024099D02*
X056626Y024406D01*
X056626Y024560D02*
X056549Y024560D01*
X056242Y024867D01*
X056166Y024867D01*
X056166Y024560D01*
X062196Y013425D02*
X062273Y013425D01*
X062273Y013118D01*
X062349Y013118D02*
X062196Y013118D01*
X062119Y013195D01*
X062119Y013349D01*
X062196Y013425D01*
X062426Y013349D02*
X062426Y013195D01*
X062349Y013118D01*
X062426Y012965D02*
X062426Y012812D01*
X062426Y012888D02*
X061966Y012888D01*
X061966Y012812D01*
X062196Y012658D02*
X062426Y012658D01*
X062426Y012428D01*
X062349Y012351D01*
X062273Y012428D01*
X062273Y012658D01*
X062196Y012658D02*
X062119Y012581D01*
X062119Y012428D01*
X062196Y012198D02*
X062426Y012198D01*
X062426Y012044D02*
X062196Y012044D01*
X062119Y012121D01*
X062196Y012198D01*
X062196Y012044D02*
X062119Y011968D01*
X062119Y011891D01*
X062426Y011891D01*
X062273Y011737D02*
X062273Y011430D01*
X062349Y011430D02*
X062196Y011430D01*
X062119Y011507D01*
X062119Y011661D01*
X062196Y011737D01*
X062273Y011737D01*
X062426Y011661D02*
X062426Y011507D01*
X062349Y011430D01*
X062196Y011123D02*
X062196Y010970D01*
X062426Y010970D02*
X061966Y010970D01*
X061966Y011277D01*
X012194Y038947D02*
X012117Y038870D01*
X011964Y038870D01*
X011887Y038947D01*
X011887Y039100D02*
X012040Y039177D01*
X012117Y039177D01*
X012194Y039100D01*
X012194Y038947D01*
X011887Y039100D02*
X011887Y039330D01*
X012194Y039330D01*
X011733Y039254D02*
X011657Y039330D01*
X011503Y039330D01*
X011426Y039254D01*
X011426Y039177D01*
X011503Y039100D01*
X011657Y039100D01*
X011733Y039023D01*
X011733Y038947D01*
X011657Y038870D01*
X011503Y038870D01*
X011426Y038947D01*
X011273Y038947D02*
X011273Y039330D01*
X010966Y039330D02*
X010966Y038947D01*
X011043Y038870D01*
X011196Y038870D01*
X011273Y038947D01*
X011580Y038793D02*
X011580Y039407D01*
X009965Y038242D02*
X009658Y038242D01*
X009812Y038396D02*
X009812Y038089D01*
X008126Y038676D02*
X008126Y038753D01*
X008049Y038829D01*
X007666Y038829D01*
X007666Y038753D02*
X007666Y038906D01*
X007819Y039060D02*
X007666Y039213D01*
X008126Y039213D01*
X008126Y039060D02*
X008126Y039367D01*
X008126Y038676D02*
X008049Y038599D01*
X009812Y036919D02*
X009812Y036612D01*
X009658Y036766D02*
X009965Y036766D01*
D11*
X001516Y002500D02*
X001518Y002550D01*
X001524Y002600D01*
X001534Y002649D01*
X001548Y002697D01*
X001565Y002744D01*
X001586Y002789D01*
X001611Y002833D01*
X001639Y002874D01*
X001671Y002913D01*
X001705Y002950D01*
X001742Y002984D01*
X001782Y003014D01*
X001824Y003041D01*
X001868Y003065D01*
X001914Y003086D01*
X001961Y003102D01*
X002009Y003115D01*
X002059Y003124D01*
X002108Y003129D01*
X002159Y003130D01*
X002209Y003127D01*
X002258Y003120D01*
X002307Y003109D01*
X002355Y003094D01*
X002401Y003076D01*
X002446Y003054D01*
X002489Y003028D01*
X002530Y002999D01*
X002569Y002967D01*
X002605Y002932D01*
X002637Y002894D01*
X002667Y002854D01*
X002694Y002811D01*
X002717Y002767D01*
X002736Y002721D01*
X002752Y002673D01*
X002764Y002624D01*
X002772Y002575D01*
X002776Y002525D01*
X002776Y002475D01*
X002772Y002425D01*
X002764Y002376D01*
X002752Y002327D01*
X002736Y002279D01*
X002717Y002233D01*
X002694Y002189D01*
X002667Y002146D01*
X002637Y002106D01*
X002605Y002068D01*
X002569Y002033D01*
X002530Y002001D01*
X002489Y001972D01*
X002446Y001946D01*
X002401Y001924D01*
X002355Y001906D01*
X002307Y001891D01*
X002258Y001880D01*
X002209Y001873D01*
X002159Y001870D01*
X002108Y001871D01*
X002059Y001876D01*
X002009Y001885D01*
X001961Y001898D01*
X001914Y001914D01*
X001868Y001935D01*
X001824Y001959D01*
X001782Y001986D01*
X001742Y002016D01*
X001705Y002050D01*
X001671Y002087D01*
X001639Y002126D01*
X001611Y002167D01*
X001586Y002211D01*
X001565Y002256D01*
X001548Y002303D01*
X001534Y002351D01*
X001524Y002400D01*
X001518Y002450D01*
X001516Y002500D01*
X029813Y002791D02*
X029813Y002949D01*
X036979Y002949D01*
X036979Y002791D02*
X036979Y006709D01*
X029813Y006709D01*
X029813Y002949D01*
X029813Y002791D02*
X036979Y002791D01*
X042693Y000539D02*
X042693Y005579D01*
X048599Y005579D01*
X048599Y000539D01*
X042693Y000539D01*
X049693Y000539D02*
X049693Y005579D01*
X055599Y005579D01*
X055599Y000539D01*
X049693Y000539D01*
X060516Y002500D02*
X060518Y002550D01*
X060524Y002600D01*
X060534Y002649D01*
X060548Y002697D01*
X060565Y002744D01*
X060586Y002789D01*
X060611Y002833D01*
X060639Y002874D01*
X060671Y002913D01*
X060705Y002950D01*
X060742Y002984D01*
X060782Y003014D01*
X060824Y003041D01*
X060868Y003065D01*
X060914Y003086D01*
X060961Y003102D01*
X061009Y003115D01*
X061059Y003124D01*
X061108Y003129D01*
X061159Y003130D01*
X061209Y003127D01*
X061258Y003120D01*
X061307Y003109D01*
X061355Y003094D01*
X061401Y003076D01*
X061446Y003054D01*
X061489Y003028D01*
X061530Y002999D01*
X061569Y002967D01*
X061605Y002932D01*
X061637Y002894D01*
X061667Y002854D01*
X061694Y002811D01*
X061717Y002767D01*
X061736Y002721D01*
X061752Y002673D01*
X061764Y002624D01*
X061772Y002575D01*
X061776Y002525D01*
X061776Y002475D01*
X061772Y002425D01*
X061764Y002376D01*
X061752Y002327D01*
X061736Y002279D01*
X061717Y002233D01*
X061694Y002189D01*
X061667Y002146D01*
X061637Y002106D01*
X061605Y002068D01*
X061569Y002033D01*
X061530Y002001D01*
X061489Y001972D01*
X061446Y001946D01*
X061401Y001924D01*
X061355Y001906D01*
X061307Y001891D01*
X061258Y001880D01*
X061209Y001873D01*
X061159Y001870D01*
X061108Y001871D01*
X061059Y001876D01*
X061009Y001885D01*
X060961Y001898D01*
X060914Y001914D01*
X060868Y001935D01*
X060824Y001959D01*
X060782Y001986D01*
X060742Y002016D01*
X060705Y002050D01*
X060671Y002087D01*
X060639Y002126D01*
X060611Y002167D01*
X060586Y002211D01*
X060565Y002256D01*
X060548Y002303D01*
X060534Y002351D01*
X060524Y002400D01*
X060518Y002450D01*
X060516Y002500D01*
X030001Y003293D02*
X030003Y003318D01*
X030009Y003343D01*
X030018Y003367D01*
X030031Y003389D01*
X030048Y003409D01*
X030067Y003426D01*
X030088Y003440D01*
X030112Y003450D01*
X030136Y003457D01*
X030162Y003460D01*
X030187Y003459D01*
X030212Y003454D01*
X030236Y003445D01*
X030259Y003433D01*
X030279Y003418D01*
X030297Y003399D01*
X030312Y003378D01*
X030323Y003355D01*
X030331Y003331D01*
X030335Y003306D01*
X030335Y003280D01*
X030331Y003255D01*
X030323Y003231D01*
X030312Y003208D01*
X030297Y003187D01*
X030279Y003168D01*
X030259Y003153D01*
X030236Y003141D01*
X030212Y003132D01*
X030187Y003127D01*
X030162Y003126D01*
X030136Y003129D01*
X030112Y003136D01*
X030088Y003146D01*
X030067Y003160D01*
X030048Y003177D01*
X030031Y003197D01*
X030018Y003219D01*
X030009Y003243D01*
X030003Y003268D01*
X030001Y003293D01*
X017644Y020555D02*
X016345Y020555D01*
X016345Y022445D01*
X017644Y022445D01*
X017644Y020555D01*
X016345Y020555D02*
X016148Y020555D01*
X016148Y022445D01*
X016148Y024055D02*
X016148Y025945D01*
X016345Y025945D02*
X016345Y024055D01*
X016148Y024055D01*
X016345Y024055D02*
X017644Y024055D01*
X017644Y025945D01*
X016345Y025945D01*
X020356Y035150D02*
X020356Y037510D01*
X022936Y037510D02*
X022936Y035150D01*
X020356Y035150D01*
X027356Y035800D02*
X027356Y037200D01*
X029936Y037200D01*
X029936Y035800D01*
X027356Y035800D01*
X031356Y035800D02*
X031356Y037200D01*
X033936Y037200D01*
X033936Y035800D01*
X031356Y035800D01*
X039249Y032000D02*
X039643Y031764D01*
X039643Y032236D01*
X039249Y032000D01*
X038189Y030644D02*
X038103Y030644D01*
X038363Y030333D02*
X038363Y030167D01*
X038189Y029856D02*
X038103Y029856D01*
X058067Y030047D02*
X063107Y030047D01*
X063107Y035953D01*
X058067Y035953D01*
X058067Y030047D01*
X060516Y038000D02*
X060518Y038050D01*
X060524Y038100D01*
X060534Y038149D01*
X060548Y038197D01*
X060565Y038244D01*
X060586Y038289D01*
X060611Y038333D01*
X060639Y038374D01*
X060671Y038413D01*
X060705Y038450D01*
X060742Y038484D01*
X060782Y038514D01*
X060824Y038541D01*
X060868Y038565D01*
X060914Y038586D01*
X060961Y038602D01*
X061009Y038615D01*
X061059Y038624D01*
X061108Y038629D01*
X061159Y038630D01*
X061209Y038627D01*
X061258Y038620D01*
X061307Y038609D01*
X061355Y038594D01*
X061401Y038576D01*
X061446Y038554D01*
X061489Y038528D01*
X061530Y038499D01*
X061569Y038467D01*
X061605Y038432D01*
X061637Y038394D01*
X061667Y038354D01*
X061694Y038311D01*
X061717Y038267D01*
X061736Y038221D01*
X061752Y038173D01*
X061764Y038124D01*
X061772Y038075D01*
X061776Y038025D01*
X061776Y037975D01*
X061772Y037925D01*
X061764Y037876D01*
X061752Y037827D01*
X061736Y037779D01*
X061717Y037733D01*
X061694Y037689D01*
X061667Y037646D01*
X061637Y037606D01*
X061605Y037568D01*
X061569Y037533D01*
X061530Y037501D01*
X061489Y037472D01*
X061446Y037446D01*
X061401Y037424D01*
X061355Y037406D01*
X061307Y037391D01*
X061258Y037380D01*
X061209Y037373D01*
X061159Y037370D01*
X061108Y037371D01*
X061059Y037376D01*
X061009Y037385D01*
X060961Y037398D01*
X060914Y037414D01*
X060868Y037435D01*
X060824Y037459D01*
X060782Y037486D01*
X060742Y037516D01*
X060705Y037550D01*
X060671Y037587D01*
X060639Y037626D01*
X060611Y037667D01*
X060586Y037711D01*
X060565Y037756D01*
X060548Y037803D01*
X060534Y037851D01*
X060524Y037900D01*
X060518Y037950D01*
X060516Y038000D01*
X001516Y038000D02*
X001518Y038050D01*
X001524Y038100D01*
X001534Y038149D01*
X001548Y038197D01*
X001565Y038244D01*
X001586Y038289D01*
X001611Y038333D01*
X001639Y038374D01*
X001671Y038413D01*
X001705Y038450D01*
X001742Y038484D01*
X001782Y038514D01*
X001824Y038541D01*
X001868Y038565D01*
X001914Y038586D01*
X001961Y038602D01*
X002009Y038615D01*
X002059Y038624D01*
X002108Y038629D01*
X002159Y038630D01*
X002209Y038627D01*
X002258Y038620D01*
X002307Y038609D01*
X002355Y038594D01*
X002401Y038576D01*
X002446Y038554D01*
X002489Y038528D01*
X002530Y038499D01*
X002569Y038467D01*
X002605Y038432D01*
X002637Y038394D01*
X002667Y038354D01*
X002694Y038311D01*
X002717Y038267D01*
X002736Y038221D01*
X002752Y038173D01*
X002764Y038124D01*
X002772Y038075D01*
X002776Y038025D01*
X002776Y037975D01*
X002772Y037925D01*
X002764Y037876D01*
X002752Y037827D01*
X002736Y037779D01*
X002717Y037733D01*
X002694Y037689D01*
X002667Y037646D01*
X002637Y037606D01*
X002605Y037568D01*
X002569Y037533D01*
X002530Y037501D01*
X002489Y037472D01*
X002446Y037446D01*
X002401Y037424D01*
X002355Y037406D01*
X002307Y037391D01*
X002258Y037380D01*
X002209Y037373D01*
X002159Y037370D01*
X002108Y037371D01*
X002059Y037376D01*
X002009Y037385D01*
X001961Y037398D01*
X001914Y037414D01*
X001868Y037435D01*
X001824Y037459D01*
X001782Y037486D01*
X001742Y037516D01*
X001705Y037550D01*
X001671Y037587D01*
X001639Y037626D01*
X001611Y037667D01*
X001586Y037711D01*
X001565Y037756D01*
X001548Y037803D01*
X001534Y037851D01*
X001524Y037900D01*
X001518Y037950D01*
X001516Y038000D01*
D12*
X008260Y035218D02*
X008261Y035105D01*
X008260Y034992D01*
X008260Y035219D02*
X010032Y035219D01*
X010032Y034992D01*
X011126Y035090D02*
X011126Y034390D01*
X015166Y034390D01*
X015166Y035090D01*
X010032Y034008D02*
X010032Y033781D01*
X008260Y033781D01*
X008260Y034008D01*
X006351Y031823D02*
X004900Y031823D01*
X006351Y031823D02*
X006351Y027177D01*
X004900Y027177D01*
X003351Y027177D02*
X000150Y027177D01*
X000150Y031823D01*
X003351Y031823D01*
X014536Y029968D02*
X014537Y029855D01*
X014536Y029742D01*
X014536Y029969D02*
X016307Y029969D01*
X016307Y029742D01*
X016307Y028758D02*
X016307Y028531D01*
X014536Y028531D01*
X014536Y028758D01*
D13*
X003695Y027861D02*
X003678Y027918D01*
X003664Y027977D01*
X003654Y028036D01*
X003648Y028096D01*
X003646Y028156D01*
X003843Y028057D02*
X004040Y028057D01*
X004237Y028057D02*
X004235Y028084D01*
X004230Y028110D01*
X004221Y028135D01*
X004208Y028159D01*
X004193Y028181D01*
X004174Y028201D01*
X004154Y028218D01*
X004131Y028232D01*
X004106Y028243D01*
X004080Y028250D01*
X004053Y028254D01*
X004027Y028254D01*
X004000Y028250D01*
X003974Y028243D01*
X003949Y028232D01*
X003926Y028218D01*
X003906Y028201D01*
X003887Y028181D01*
X003872Y028159D01*
X003859Y028135D01*
X003850Y028110D01*
X003845Y028084D01*
X003843Y028057D01*
X004040Y028057D02*
X004040Y027860D01*
X003695Y027860D01*
X004236Y027861D02*
X004241Y027910D01*
X004243Y027959D01*
X004241Y028008D01*
X004236Y028057D01*
X004237Y027862D02*
X004412Y027862D01*
X004434Y028156D02*
X004432Y028195D01*
X004426Y028233D01*
X004417Y028270D01*
X004404Y028307D01*
X004387Y028342D01*
X004368Y028375D01*
X004345Y028406D01*
X004319Y028435D01*
X004290Y028461D01*
X004259Y028484D01*
X004226Y028503D01*
X004191Y028520D01*
X004154Y028533D01*
X004117Y028542D01*
X004079Y028548D01*
X004040Y028550D01*
X004001Y028548D01*
X003963Y028542D01*
X003926Y028533D01*
X003889Y028520D01*
X003854Y028503D01*
X003821Y028484D01*
X003790Y028461D01*
X003761Y028435D01*
X003735Y028406D01*
X003712Y028375D01*
X003693Y028342D01*
X003676Y028307D01*
X003663Y028270D01*
X003654Y028233D01*
X003648Y028195D01*
X003646Y028156D01*
X003646Y028648D02*
X003941Y028844D01*
X004089Y028992D02*
X004089Y029140D01*
X004237Y029140D01*
X004237Y028992D01*
X004235Y028977D01*
X004231Y028962D01*
X004223Y028949D01*
X004213Y028937D01*
X004200Y028928D01*
X004186Y028922D01*
X004171Y028918D01*
X004155Y028918D01*
X004140Y028922D01*
X004126Y028928D01*
X004113Y028937D01*
X004103Y028949D01*
X004095Y028962D01*
X004091Y028977D01*
X004089Y028992D01*
X003941Y028844D02*
X003943Y028814D01*
X003948Y028785D01*
X003957Y028757D01*
X003969Y028730D01*
X003985Y028704D01*
X004003Y028681D01*
X004024Y028660D01*
X004047Y028642D01*
X004073Y028626D01*
X004100Y028614D01*
X004128Y028605D01*
X004157Y028600D01*
X004187Y028598D01*
X004217Y028600D01*
X004246Y028605D01*
X004274Y028614D01*
X004301Y028626D01*
X004327Y028642D01*
X004350Y028660D01*
X004371Y028681D01*
X004389Y028704D01*
X004405Y028730D01*
X004417Y028757D01*
X004426Y028785D01*
X004431Y028814D01*
X004433Y028844D01*
X004433Y029386D01*
X003646Y029386D01*
X003646Y029140D01*
X003941Y029140D01*
X003646Y028943D01*
X003646Y028648D01*
X004433Y028155D02*
X004434Y028080D01*
X004430Y028005D01*
X004423Y027930D01*
X004412Y027856D01*
X004433Y029484D02*
X004433Y030173D01*
X003646Y030173D01*
X003646Y029484D01*
X003843Y029484D01*
X003843Y029927D01*
X003941Y029927D01*
X003941Y029484D01*
X004138Y029484D01*
X004138Y029927D01*
X004237Y029927D01*
X004237Y029484D01*
X004433Y029484D01*
X004433Y030469D02*
X004433Y030764D01*
X004237Y030469D01*
X004040Y030469D02*
X004042Y030442D01*
X004047Y030416D01*
X004056Y030391D01*
X004069Y030367D01*
X004084Y030345D01*
X004103Y030325D01*
X004123Y030308D01*
X004146Y030294D01*
X004171Y030283D01*
X004197Y030276D01*
X004224Y030272D01*
X004250Y030272D01*
X004277Y030276D01*
X004303Y030283D01*
X004328Y030294D01*
X004351Y030308D01*
X004371Y030325D01*
X004390Y030345D01*
X004405Y030367D01*
X004418Y030391D01*
X004427Y030416D01*
X004432Y030442D01*
X004434Y030469D01*
X004237Y030469D02*
X004040Y030764D01*
X003843Y030469D01*
X003646Y030469D02*
X003648Y030442D01*
X003653Y030416D01*
X003662Y030391D01*
X003675Y030367D01*
X003690Y030345D01*
X003709Y030325D01*
X003729Y030308D01*
X003752Y030294D01*
X003777Y030283D01*
X003803Y030276D01*
X003830Y030272D01*
X003856Y030272D01*
X003883Y030276D01*
X003909Y030283D01*
X003934Y030294D01*
X003957Y030308D01*
X003977Y030325D01*
X003996Y030345D01*
X004011Y030367D01*
X004024Y030391D01*
X004033Y030416D01*
X004038Y030442D01*
X004040Y030469D01*
X003843Y030469D02*
X003646Y030764D01*
X003646Y030469D01*
X003646Y030764D02*
X004040Y030764D01*
X004433Y030764D01*
X004433Y031010D01*
X003646Y031010D01*
X003646Y030764D01*
D14*
X003498Y030883D02*
X003473Y030858D01*
X003498Y030883D02*
X003498Y030933D01*
X003473Y030958D01*
X003448Y030958D01*
X003423Y030933D01*
X003423Y030883D01*
X003398Y030858D01*
X003373Y030858D01*
X003348Y030883D01*
X003348Y030933D01*
X003373Y030958D01*
X003373Y030663D02*
X003348Y030638D01*
X003348Y030588D01*
X003373Y030563D01*
X003473Y030563D01*
X003498Y030588D01*
X003498Y030638D01*
X003473Y030663D01*
X003498Y030368D02*
X003498Y030317D01*
X003498Y030342D02*
X003348Y030342D01*
X003348Y030317D02*
X003348Y030368D01*
X003348Y030123D02*
X003498Y030123D01*
X003348Y030023D01*
X003498Y030023D01*
X003473Y029828D02*
X003373Y029828D01*
X003348Y029803D01*
X003348Y029753D01*
X003373Y029728D01*
X003473Y029728D01*
X003498Y029753D01*
X003498Y029803D01*
X003473Y029828D01*
X003498Y029534D02*
X003448Y029484D01*
X003448Y029509D02*
X003448Y029434D01*
X003498Y029434D02*
X003348Y029434D01*
X003348Y029509D01*
X003373Y029534D01*
X003423Y029534D01*
X003448Y029509D01*
X003348Y029239D02*
X003348Y029139D01*
X003348Y029189D02*
X003498Y029189D01*
X003473Y028944D02*
X003498Y028919D01*
X003498Y028869D01*
X003473Y028844D01*
X003373Y028844D01*
X003348Y028869D01*
X003348Y028919D01*
X003373Y028944D01*
X003348Y028650D02*
X003348Y028550D01*
X003498Y028550D01*
X003498Y028650D01*
X003423Y028600D02*
X003423Y028550D01*
X003498Y028355D02*
X003498Y028255D01*
X003348Y028255D01*
X003348Y028060D02*
X003348Y027960D01*
X003498Y027960D01*
X003498Y028060D01*
X003423Y028010D02*
X003423Y027960D01*
D15*
X004071Y034220D02*
X004071Y034417D01*
X004721Y034417D01*
X004721Y034220D02*
X004071Y034220D01*
X004571Y035008D02*
X007221Y035008D01*
X007221Y034417D01*
X006571Y034417D01*
X006571Y034220D02*
X007221Y034220D01*
X007221Y034417D01*
X007221Y035008D02*
X007418Y035008D01*
X007418Y039732D01*
X006906Y039732D01*
X006906Y039339D01*
X006906Y039732D02*
X004386Y039732D01*
X004386Y039339D01*
X004386Y039732D02*
X003874Y039732D01*
X003874Y036508D01*
X004386Y036583D02*
X004386Y036189D01*
X005154Y036189D01*
X005449Y036189D01*
X005843Y036189D02*
X006138Y036189D01*
X006906Y036189D01*
X006906Y036583D01*
X006906Y036976D02*
X006906Y037370D01*
X006906Y037764D02*
X006906Y038157D01*
X007221Y038354D02*
X007221Y035008D01*
X004386Y036976D02*
X004386Y037370D01*
X004386Y037764D02*
X004386Y038157D01*
X004386Y038551D02*
X004386Y038945D01*
X003874Y038354D02*
X007221Y038354D01*
X007418Y038354D01*
X006906Y038551D02*
X006906Y038945D01*
X006138Y038945D02*
X006136Y038988D01*
X006131Y039030D01*
X006121Y039072D01*
X006108Y039113D01*
X006092Y039153D01*
X006072Y039191D01*
X006049Y039227D01*
X006023Y039261D01*
X005994Y039293D01*
X005962Y039322D01*
X005928Y039348D01*
X005892Y039371D01*
X005854Y039391D01*
X005814Y039407D01*
X005773Y039420D01*
X005731Y039430D01*
X005689Y039435D01*
X005646Y039437D01*
X005603Y039435D01*
X005561Y039430D01*
X005519Y039420D01*
X005478Y039407D01*
X005438Y039391D01*
X005400Y039371D01*
X005364Y039348D01*
X005330Y039322D01*
X005298Y039293D01*
X005269Y039261D01*
X005243Y039227D01*
X005220Y039191D01*
X005200Y039153D01*
X005184Y039113D01*
X005171Y039072D01*
X005161Y039030D01*
X005156Y038988D01*
X005154Y038945D01*
X016699Y017878D02*
X017093Y017878D01*
X017896Y016894D02*
X017896Y016106D01*
X017093Y015122D02*
X016699Y015122D01*
X015896Y016106D02*
X015896Y016894D01*
X015637Y017484D02*
X015635Y017492D01*
X015631Y017498D01*
X015625Y017502D01*
X015617Y017504D01*
X015609Y017502D01*
X015603Y017498D01*
X015599Y017492D01*
X015597Y017484D01*
X015599Y017476D01*
X015603Y017470D01*
X015609Y017466D01*
X015617Y017464D01*
X015625Y017466D01*
X015631Y017470D01*
X015635Y017476D01*
X015637Y017484D01*
X015327Y004931D02*
X012965Y004931D01*
X012965Y002569D01*
X015327Y002569D01*
X015327Y004931D01*
X016965Y004931D02*
X019327Y004931D01*
X019327Y002569D01*
X016965Y002569D01*
X016965Y004931D01*
X020965Y004931D02*
X020965Y002569D01*
X023327Y002569D01*
X023327Y004931D01*
X020965Y004931D01*
X024965Y004931D02*
X024965Y002569D01*
X027327Y002569D01*
X027327Y004931D01*
X024965Y004931D01*
X009827Y004931D02*
X009827Y002569D01*
X007465Y002569D01*
X007465Y004931D01*
X009827Y004931D01*
D16*
X003146Y009250D02*
X002896Y009000D01*
X001396Y009000D01*
X001146Y009250D01*
X001146Y009750D01*
X001396Y010000D01*
X002896Y010000D01*
X003146Y010250D01*
X003146Y010750D01*
X002896Y011000D01*
X001396Y011000D01*
X001146Y011250D01*
X001146Y011750D01*
X001396Y012000D01*
X002896Y012000D01*
X003146Y012250D01*
X003146Y012750D01*
X002896Y013000D01*
X003146Y013250D01*
X003146Y013750D01*
X002896Y014000D01*
X001396Y014000D01*
X001146Y013750D01*
X001146Y013250D01*
X001396Y013000D01*
X002896Y013000D01*
X002896Y012000D02*
X003146Y011750D01*
X003146Y011250D01*
X002896Y011000D01*
X002896Y010000D02*
X003146Y009750D01*
X003146Y009250D01*
X001396Y010000D02*
X001146Y010250D01*
X001146Y010750D01*
X001396Y011000D01*
X001396Y012000D02*
X001146Y012250D01*
X001146Y012750D01*
X001396Y013000D01*
X001396Y018000D02*
X001146Y018250D01*
X001146Y018750D01*
X001396Y019000D01*
X002896Y019000D01*
X003146Y019250D01*
X003146Y019750D01*
X002896Y020000D01*
X001396Y020000D01*
X001146Y020250D01*
X001146Y020750D01*
X001396Y021000D01*
X002896Y021000D01*
X003146Y021250D01*
X003146Y021750D01*
X002896Y022000D01*
X003146Y022250D01*
X003146Y022750D01*
X002896Y023000D01*
X001396Y023000D01*
X001146Y022750D01*
X001146Y022250D01*
X001396Y022000D01*
X002896Y022000D01*
X001396Y022000D02*
X001146Y021750D01*
X001146Y021250D01*
X001396Y021000D01*
X001396Y020000D02*
X001146Y019750D01*
X001146Y019250D01*
X001396Y019000D01*
X001396Y018000D02*
X002896Y018000D01*
X003146Y018250D01*
X003146Y018750D01*
X002896Y019000D01*
X002896Y020000D02*
X003146Y020250D01*
X003146Y020750D01*
X002896Y021000D01*
X000796Y038000D02*
X000798Y038073D01*
X000804Y038146D01*
X000814Y038218D01*
X000828Y038290D01*
X000845Y038361D01*
X000867Y038431D01*
X000892Y038500D01*
X000921Y038567D01*
X000953Y038632D01*
X000989Y038696D01*
X001029Y038758D01*
X001071Y038817D01*
X001117Y038874D01*
X001166Y038928D01*
X001218Y038980D01*
X001272Y039029D01*
X001329Y039075D01*
X001388Y039117D01*
X001450Y039157D01*
X001514Y039193D01*
X001579Y039225D01*
X001646Y039254D01*
X001715Y039279D01*
X001785Y039301D01*
X001856Y039318D01*
X001928Y039332D01*
X002000Y039342D01*
X002073Y039348D01*
X002146Y039350D01*
X002219Y039348D01*
X002292Y039342D01*
X002364Y039332D01*
X002436Y039318D01*
X002507Y039301D01*
X002577Y039279D01*
X002646Y039254D01*
X002713Y039225D01*
X002778Y039193D01*
X002842Y039157D01*
X002904Y039117D01*
X002963Y039075D01*
X003020Y039029D01*
X003074Y038980D01*
X003126Y038928D01*
X003175Y038874D01*
X003221Y038817D01*
X003263Y038758D01*
X003303Y038696D01*
X003339Y038632D01*
X003371Y038567D01*
X003400Y038500D01*
X003425Y038431D01*
X003447Y038361D01*
X003464Y038290D01*
X003478Y038218D01*
X003488Y038146D01*
X003494Y038073D01*
X003496Y038000D01*
X003494Y037927D01*
X003488Y037854D01*
X003478Y037782D01*
X003464Y037710D01*
X003447Y037639D01*
X003425Y037569D01*
X003400Y037500D01*
X003371Y037433D01*
X003339Y037368D01*
X003303Y037304D01*
X003263Y037242D01*
X003221Y037183D01*
X003175Y037126D01*
X003126Y037072D01*
X003074Y037020D01*
X003020Y036971D01*
X002963Y036925D01*
X002904Y036883D01*
X002842Y036843D01*
X002778Y036807D01*
X002713Y036775D01*
X002646Y036746D01*
X002577Y036721D01*
X002507Y036699D01*
X002436Y036682D01*
X002364Y036668D01*
X002292Y036658D01*
X002219Y036652D01*
X002146Y036650D01*
X002073Y036652D01*
X002000Y036658D01*
X001928Y036668D01*
X001856Y036682D01*
X001785Y036699D01*
X001715Y036721D01*
X001646Y036746D01*
X001579Y036775D01*
X001514Y036807D01*
X001450Y036843D01*
X001388Y036883D01*
X001329Y036925D01*
X001272Y036971D01*
X001218Y037020D01*
X001166Y037072D01*
X001117Y037126D01*
X001071Y037183D01*
X001029Y037242D01*
X000989Y037304D01*
X000953Y037368D01*
X000921Y037433D01*
X000892Y037500D01*
X000867Y037569D01*
X000845Y037639D01*
X000828Y037710D01*
X000814Y037782D01*
X000804Y037854D01*
X000798Y037927D01*
X000796Y038000D01*
X056896Y015850D02*
X056896Y013950D01*
X057096Y013750D01*
X061646Y013750D01*
X061896Y013735D02*
X062728Y013735D01*
X062728Y006265D01*
X062728Y006215D01*
X063085Y006215D01*
X062728Y006265D02*
X061896Y006265D01*
X061866Y006267D01*
X061836Y006272D01*
X061807Y006281D01*
X061780Y006294D01*
X061754Y006309D01*
X061730Y006328D01*
X061709Y006349D01*
X061690Y006373D01*
X061675Y006399D01*
X061662Y006426D01*
X061653Y006455D01*
X061648Y006485D01*
X061646Y006515D01*
X061646Y006250D02*
X057096Y006250D01*
X056896Y006050D01*
X056896Y004100D01*
X057096Y003900D01*
X061646Y003900D01*
X061646Y016093D01*
X061646Y016900D02*
X061646Y018900D01*
X061646Y019250D01*
X057596Y019250D01*
X057396Y019050D01*
X057396Y017100D01*
X057596Y016900D01*
X061596Y016900D01*
X061646Y016900D01*
X062846Y016900D01*
X063046Y016900D01*
X063046Y017900D01*
X063046Y018900D01*
X062846Y018900D01*
X062846Y018950D01*
X061896Y018950D01*
X061866Y018952D01*
X061836Y018957D01*
X061807Y018966D01*
X061780Y018979D01*
X061754Y018994D01*
X061730Y019013D01*
X061709Y019034D01*
X061690Y019058D01*
X061675Y019084D01*
X061662Y019111D01*
X061653Y019140D01*
X061648Y019170D01*
X061646Y019200D01*
X061646Y019250D02*
X061646Y019350D01*
X061346Y019350D01*
X061346Y026650D01*
X061646Y026650D01*
X061646Y019350D01*
X063046Y018900D02*
X063046Y027100D01*
X062846Y027100D01*
X062846Y027050D01*
X061896Y027050D01*
X061866Y027048D01*
X061836Y027043D01*
X061807Y027034D01*
X061780Y027021D01*
X061754Y027006D01*
X061730Y026987D01*
X061709Y026966D01*
X061690Y026942D01*
X061675Y026916D01*
X061662Y026889D01*
X061653Y026860D01*
X061648Y026830D01*
X061646Y026800D01*
X061646Y026750D02*
X061646Y027100D01*
X061646Y029100D01*
X061596Y029100D01*
X057646Y029100D01*
X057396Y028850D01*
X057396Y026950D01*
X057596Y026750D01*
X061646Y026750D01*
X061646Y026650D01*
X063046Y027100D02*
X063046Y028100D01*
X063046Y029100D01*
X063246Y029100D01*
X063246Y026050D01*
X063246Y019950D01*
X063246Y016900D01*
X063046Y016900D01*
X063085Y016100D02*
X057146Y016100D01*
X056896Y015850D01*
X057996Y018070D02*
X057998Y018120D01*
X058004Y018170D01*
X058014Y018220D01*
X058027Y018268D01*
X058044Y018316D01*
X058065Y018362D01*
X058089Y018406D01*
X058117Y018448D01*
X058148Y018488D01*
X058182Y018525D01*
X058219Y018560D01*
X058258Y018591D01*
X058299Y018620D01*
X058343Y018645D01*
X058389Y018667D01*
X058436Y018685D01*
X058484Y018699D01*
X058533Y018710D01*
X058583Y018717D01*
X058633Y018720D01*
X058684Y018719D01*
X058734Y018714D01*
X058784Y018705D01*
X058832Y018693D01*
X058880Y018676D01*
X058926Y018656D01*
X058971Y018633D01*
X059014Y018606D01*
X059054Y018576D01*
X059092Y018543D01*
X059127Y018507D01*
X059160Y018468D01*
X059189Y018427D01*
X059215Y018384D01*
X059238Y018339D01*
X059257Y018292D01*
X059272Y018244D01*
X059284Y018195D01*
X059292Y018145D01*
X059296Y018095D01*
X059296Y018045D01*
X059292Y017995D01*
X059284Y017945D01*
X059272Y017896D01*
X059257Y017848D01*
X059238Y017801D01*
X059215Y017756D01*
X059189Y017713D01*
X059160Y017672D01*
X059127Y017633D01*
X059092Y017597D01*
X059054Y017564D01*
X059014Y017534D01*
X058971Y017507D01*
X058926Y017484D01*
X058880Y017464D01*
X058832Y017447D01*
X058784Y017435D01*
X058734Y017426D01*
X058684Y017421D01*
X058633Y017420D01*
X058583Y017423D01*
X058533Y017430D01*
X058484Y017441D01*
X058436Y017455D01*
X058389Y017473D01*
X058343Y017495D01*
X058299Y017520D01*
X058258Y017549D01*
X058219Y017580D01*
X058182Y017615D01*
X058148Y017652D01*
X058117Y017692D01*
X058089Y017734D01*
X058065Y017778D01*
X058044Y017824D01*
X058027Y017872D01*
X058014Y017920D01*
X058004Y017970D01*
X057998Y018020D01*
X057996Y018070D01*
X063093Y016093D02*
X063093Y003945D01*
X063085Y003900D02*
X061646Y003900D01*
X059796Y002500D02*
X059798Y002573D01*
X059804Y002646D01*
X059814Y002718D01*
X059828Y002790D01*
X059845Y002861D01*
X059867Y002931D01*
X059892Y003000D01*
X059921Y003067D01*
X059953Y003132D01*
X059989Y003196D01*
X060029Y003258D01*
X060071Y003317D01*
X060117Y003374D01*
X060166Y003428D01*
X060218Y003480D01*
X060272Y003529D01*
X060329Y003575D01*
X060388Y003617D01*
X060450Y003657D01*
X060514Y003693D01*
X060579Y003725D01*
X060646Y003754D01*
X060715Y003779D01*
X060785Y003801D01*
X060856Y003818D01*
X060928Y003832D01*
X061000Y003842D01*
X061073Y003848D01*
X061146Y003850D01*
X061219Y003848D01*
X061292Y003842D01*
X061364Y003832D01*
X061436Y003818D01*
X061507Y003801D01*
X061577Y003779D01*
X061646Y003754D01*
X061713Y003725D01*
X061778Y003693D01*
X061842Y003657D01*
X061904Y003617D01*
X061963Y003575D01*
X062020Y003529D01*
X062074Y003480D01*
X062126Y003428D01*
X062175Y003374D01*
X062221Y003317D01*
X062263Y003258D01*
X062303Y003196D01*
X062339Y003132D01*
X062371Y003067D01*
X062400Y003000D01*
X062425Y002931D01*
X062447Y002861D01*
X062464Y002790D01*
X062478Y002718D01*
X062488Y002646D01*
X062494Y002573D01*
X062496Y002500D01*
X062494Y002427D01*
X062488Y002354D01*
X062478Y002282D01*
X062464Y002210D01*
X062447Y002139D01*
X062425Y002069D01*
X062400Y002000D01*
X062371Y001933D01*
X062339Y001868D01*
X062303Y001804D01*
X062263Y001742D01*
X062221Y001683D01*
X062175Y001626D01*
X062126Y001572D01*
X062074Y001520D01*
X062020Y001471D01*
X061963Y001425D01*
X061904Y001383D01*
X061842Y001343D01*
X061778Y001307D01*
X061713Y001275D01*
X061646Y001246D01*
X061577Y001221D01*
X061507Y001199D01*
X061436Y001182D01*
X061364Y001168D01*
X061292Y001158D01*
X061219Y001152D01*
X061146Y001150D01*
X061073Y001152D01*
X061000Y001158D01*
X060928Y001168D01*
X060856Y001182D01*
X060785Y001199D01*
X060715Y001221D01*
X060646Y001246D01*
X060579Y001275D01*
X060514Y001307D01*
X060450Y001343D01*
X060388Y001383D01*
X060329Y001425D01*
X060272Y001471D01*
X060218Y001520D01*
X060166Y001572D01*
X060117Y001626D01*
X060071Y001683D01*
X060029Y001742D01*
X059989Y001804D01*
X059953Y001868D01*
X059921Y001933D01*
X059892Y002000D01*
X059867Y002069D01*
X059845Y002139D01*
X059828Y002210D01*
X059814Y002282D01*
X059804Y002354D01*
X059798Y002427D01*
X059796Y002500D01*
X061646Y013485D02*
X061648Y013515D01*
X061653Y013545D01*
X061662Y013574D01*
X061675Y013601D01*
X061690Y013627D01*
X061709Y013651D01*
X061730Y013672D01*
X061754Y013691D01*
X061780Y013706D01*
X061807Y013719D01*
X061836Y013728D01*
X061866Y013733D01*
X061896Y013735D01*
X062728Y013735D02*
X062728Y013785D01*
X063085Y013785D01*
X057996Y027930D02*
X057998Y027980D01*
X058004Y028030D01*
X058014Y028080D01*
X058027Y028128D01*
X058044Y028176D01*
X058065Y028222D01*
X058089Y028266D01*
X058117Y028308D01*
X058148Y028348D01*
X058182Y028385D01*
X058219Y028420D01*
X058258Y028451D01*
X058299Y028480D01*
X058343Y028505D01*
X058389Y028527D01*
X058436Y028545D01*
X058484Y028559D01*
X058533Y028570D01*
X058583Y028577D01*
X058633Y028580D01*
X058684Y028579D01*
X058734Y028574D01*
X058784Y028565D01*
X058832Y028553D01*
X058880Y028536D01*
X058926Y028516D01*
X058971Y028493D01*
X059014Y028466D01*
X059054Y028436D01*
X059092Y028403D01*
X059127Y028367D01*
X059160Y028328D01*
X059189Y028287D01*
X059215Y028244D01*
X059238Y028199D01*
X059257Y028152D01*
X059272Y028104D01*
X059284Y028055D01*
X059292Y028005D01*
X059296Y027955D01*
X059296Y027905D01*
X059292Y027855D01*
X059284Y027805D01*
X059272Y027756D01*
X059257Y027708D01*
X059238Y027661D01*
X059215Y027616D01*
X059189Y027573D01*
X059160Y027532D01*
X059127Y027493D01*
X059092Y027457D01*
X059054Y027424D01*
X059014Y027394D01*
X058971Y027367D01*
X058926Y027344D01*
X058880Y027324D01*
X058832Y027307D01*
X058784Y027295D01*
X058734Y027286D01*
X058684Y027281D01*
X058633Y027280D01*
X058583Y027283D01*
X058533Y027290D01*
X058484Y027301D01*
X058436Y027315D01*
X058389Y027333D01*
X058343Y027355D01*
X058299Y027380D01*
X058258Y027409D01*
X058219Y027440D01*
X058182Y027475D01*
X058148Y027512D01*
X058117Y027552D01*
X058089Y027594D01*
X058065Y027638D01*
X058044Y027684D01*
X058027Y027732D01*
X058014Y027780D01*
X058004Y027830D01*
X057998Y027880D01*
X057996Y027930D01*
X061646Y029100D02*
X062846Y029100D01*
X063046Y029100D01*
X059796Y038000D02*
X059798Y038073D01*
X059804Y038146D01*
X059814Y038218D01*
X059828Y038290D01*
X059845Y038361D01*
X059867Y038431D01*
X059892Y038500D01*
X059921Y038567D01*
X059953Y038632D01*
X059989Y038696D01*
X060029Y038758D01*
X060071Y038817D01*
X060117Y038874D01*
X060166Y038928D01*
X060218Y038980D01*
X060272Y039029D01*
X060329Y039075D01*
X060388Y039117D01*
X060450Y039157D01*
X060514Y039193D01*
X060579Y039225D01*
X060646Y039254D01*
X060715Y039279D01*
X060785Y039301D01*
X060856Y039318D01*
X060928Y039332D01*
X061000Y039342D01*
X061073Y039348D01*
X061146Y039350D01*
X061219Y039348D01*
X061292Y039342D01*
X061364Y039332D01*
X061436Y039318D01*
X061507Y039301D01*
X061577Y039279D01*
X061646Y039254D01*
X061713Y039225D01*
X061778Y039193D01*
X061842Y039157D01*
X061904Y039117D01*
X061963Y039075D01*
X062020Y039029D01*
X062074Y038980D01*
X062126Y038928D01*
X062175Y038874D01*
X062221Y038817D01*
X062263Y038758D01*
X062303Y038696D01*
X062339Y038632D01*
X062371Y038567D01*
X062400Y038500D01*
X062425Y038431D01*
X062447Y038361D01*
X062464Y038290D01*
X062478Y038218D01*
X062488Y038146D01*
X062494Y038073D01*
X062496Y038000D01*
X062494Y037927D01*
X062488Y037854D01*
X062478Y037782D01*
X062464Y037710D01*
X062447Y037639D01*
X062425Y037569D01*
X062400Y037500D01*
X062371Y037433D01*
X062339Y037368D01*
X062303Y037304D01*
X062263Y037242D01*
X062221Y037183D01*
X062175Y037126D01*
X062126Y037072D01*
X062074Y037020D01*
X062020Y036971D01*
X061963Y036925D01*
X061904Y036883D01*
X061842Y036843D01*
X061778Y036807D01*
X061713Y036775D01*
X061646Y036746D01*
X061577Y036721D01*
X061507Y036699D01*
X061436Y036682D01*
X061364Y036668D01*
X061292Y036658D01*
X061219Y036652D01*
X061146Y036650D01*
X061073Y036652D01*
X061000Y036658D01*
X060928Y036668D01*
X060856Y036682D01*
X060785Y036699D01*
X060715Y036721D01*
X060646Y036746D01*
X060579Y036775D01*
X060514Y036807D01*
X060450Y036843D01*
X060388Y036883D01*
X060329Y036925D01*
X060272Y036971D01*
X060218Y037020D01*
X060166Y037072D01*
X060117Y037126D01*
X060071Y037183D01*
X060029Y037242D01*
X059989Y037304D01*
X059953Y037368D01*
X059921Y037433D01*
X059892Y037500D01*
X059867Y037569D01*
X059845Y037639D01*
X059828Y037710D01*
X059814Y037782D01*
X059804Y037854D01*
X059798Y037927D01*
X059796Y038000D01*
X000796Y002500D02*
X000798Y002573D01*
X000804Y002646D01*
X000814Y002718D01*
X000828Y002790D01*
X000845Y002861D01*
X000867Y002931D01*
X000892Y003000D01*
X000921Y003067D01*
X000953Y003132D01*
X000989Y003196D01*
X001029Y003258D01*
X001071Y003317D01*
X001117Y003374D01*
X001166Y003428D01*
X001218Y003480D01*
X001272Y003529D01*
X001329Y003575D01*
X001388Y003617D01*
X001450Y003657D01*
X001514Y003693D01*
X001579Y003725D01*
X001646Y003754D01*
X001715Y003779D01*
X001785Y003801D01*
X001856Y003818D01*
X001928Y003832D01*
X002000Y003842D01*
X002073Y003848D01*
X002146Y003850D01*
X002219Y003848D01*
X002292Y003842D01*
X002364Y003832D01*
X002436Y003818D01*
X002507Y003801D01*
X002577Y003779D01*
X002646Y003754D01*
X002713Y003725D01*
X002778Y003693D01*
X002842Y003657D01*
X002904Y003617D01*
X002963Y003575D01*
X003020Y003529D01*
X003074Y003480D01*
X003126Y003428D01*
X003175Y003374D01*
X003221Y003317D01*
X003263Y003258D01*
X003303Y003196D01*
X003339Y003132D01*
X003371Y003067D01*
X003400Y003000D01*
X003425Y002931D01*
X003447Y002861D01*
X003464Y002790D01*
X003478Y002718D01*
X003488Y002646D01*
X003494Y002573D01*
X003496Y002500D01*
X003494Y002427D01*
X003488Y002354D01*
X003478Y002282D01*
X003464Y002210D01*
X003447Y002139D01*
X003425Y002069D01*
X003400Y002000D01*
X003371Y001933D01*
X003339Y001868D01*
X003303Y001804D01*
X003263Y001742D01*
X003221Y001683D01*
X003175Y001626D01*
X003126Y001572D01*
X003074Y001520D01*
X003020Y001471D01*
X002963Y001425D01*
X002904Y001383D01*
X002842Y001343D01*
X002778Y001307D01*
X002713Y001275D01*
X002646Y001246D01*
X002577Y001221D01*
X002507Y001199D01*
X002436Y001182D01*
X002364Y001168D01*
X002292Y001158D01*
X002219Y001152D01*
X002146Y001150D01*
X002073Y001152D01*
X002000Y001158D01*
X001928Y001168D01*
X001856Y001182D01*
X001785Y001199D01*
X001715Y001221D01*
X001646Y001246D01*
X001579Y001275D01*
X001514Y001307D01*
X001450Y001343D01*
X001388Y001383D01*
X001329Y001425D01*
X001272Y001471D01*
X001218Y001520D01*
X001166Y001572D01*
X001117Y001626D01*
X001071Y001683D01*
X001029Y001742D01*
X000989Y001804D01*
X000953Y001868D01*
X000921Y001933D01*
X000892Y002000D01*
X000867Y002069D01*
X000845Y002139D01*
X000828Y002210D01*
X000814Y002282D01*
X000804Y002354D01*
X000798Y002427D01*
X000796Y002500D01*
D17*
X055981Y006535D02*
X056401Y006535D01*
X056611Y006745D01*
X056401Y006955D01*
X055981Y006955D01*
X056086Y007180D02*
X056506Y007180D01*
X056611Y007285D01*
X056611Y007495D01*
X056506Y007600D01*
X056296Y007600D01*
X056296Y007390D01*
X056086Y007600D02*
X055981Y007495D01*
X055981Y007285D01*
X056086Y007180D01*
X056191Y007824D02*
X055981Y008034D01*
X056191Y008244D01*
X056611Y008244D01*
X056296Y008244D02*
X056296Y007824D01*
X056191Y007824D02*
X056611Y007824D01*
X056706Y025383D02*
X056811Y025488D01*
X056811Y025698D01*
X056706Y025803D01*
X056601Y025803D01*
X056496Y025698D01*
X056496Y025488D01*
X056391Y025383D01*
X056286Y025383D01*
X056181Y025488D01*
X056181Y025698D01*
X056286Y025803D01*
X056181Y026027D02*
X056811Y026027D01*
X056811Y026447D01*
X056811Y026672D02*
X056181Y026672D01*
X056181Y026987D01*
X056286Y027092D01*
X056496Y027092D01*
X056601Y026987D01*
X056601Y026672D01*
X056601Y026882D02*
X056811Y027092D01*
X056811Y027316D02*
X056811Y027526D01*
X056811Y027421D02*
X056181Y027421D01*
X056181Y027316D02*
X056181Y027526D01*
X056391Y027746D02*
X056181Y027956D01*
X056391Y028166D01*
X056811Y028166D01*
X056811Y028390D02*
X056181Y028390D01*
X056496Y028166D02*
X056496Y027746D01*
X056391Y027746D02*
X056811Y027746D01*
X056811Y028390D02*
X056811Y028811D01*
X056181Y026447D02*
X056181Y026027D01*
X056496Y026027D02*
X056496Y026237D01*
D18*
X057921Y025715D02*
X058371Y025715D01*
X058371Y025565D02*
X058371Y025865D01*
X058071Y025565D02*
X057921Y025715D01*
X058921Y025865D02*
X058996Y025715D01*
X059146Y025565D01*
X059146Y025790D01*
X059221Y025865D01*
X059296Y025865D01*
X059371Y025790D01*
X059371Y025640D01*
X059296Y025565D01*
X059146Y025565D01*
X062021Y025640D02*
X062096Y025565D01*
X062171Y025565D01*
X062246Y025640D01*
X062246Y025865D01*
X062396Y025865D02*
X062096Y025865D01*
X062021Y025790D01*
X062021Y025640D01*
X062096Y025404D02*
X062396Y025104D01*
X062471Y025179D01*
X062471Y025329D01*
X062396Y025404D01*
X062096Y025404D01*
X062021Y025329D01*
X062021Y025179D01*
X062096Y025104D01*
X062396Y025104D01*
X062246Y024794D02*
X062246Y024644D01*
X062471Y024644D02*
X062021Y024644D01*
X062021Y024944D01*
X062396Y025565D02*
X062471Y025640D01*
X062471Y025790D01*
X062396Y025865D01*
X059296Y020115D02*
X058996Y020115D01*
X058921Y020040D01*
X058921Y019890D01*
X058996Y019815D01*
X059071Y019815D01*
X059146Y019890D01*
X059146Y020115D01*
X059296Y020115D02*
X059371Y020040D01*
X059371Y019890D01*
X059296Y019815D01*
X058371Y019890D02*
X058296Y019815D01*
X058371Y019890D02*
X058371Y020040D01*
X058296Y020115D01*
X058146Y020115D01*
X058071Y020040D01*
X058071Y019965D01*
X058146Y019815D01*
X057921Y019815D01*
X057921Y020115D01*
X059746Y017575D02*
X059671Y017500D01*
X059746Y017575D02*
X059896Y017575D01*
X059971Y017500D01*
X059971Y017425D01*
X059671Y017125D01*
X059971Y017125D01*
X060131Y016975D02*
X060282Y017125D01*
X060207Y017125D01*
X060207Y017200D01*
X060282Y017200D01*
X060282Y017125D01*
X060438Y017200D02*
X060513Y017125D01*
X060664Y017125D01*
X060739Y017200D01*
X060739Y017350D01*
X060664Y017425D01*
X060589Y017425D01*
X060438Y017350D01*
X060438Y017575D01*
X060739Y017575D01*
X060899Y017350D02*
X061199Y017350D01*
X061124Y017125D02*
X061124Y017575D01*
X060899Y017350D01*
X059906Y013140D02*
X059906Y012840D01*
X059906Y012990D02*
X059456Y012990D01*
X059606Y012840D01*
X059906Y012680D02*
X059906Y012379D01*
X059906Y012529D02*
X059456Y012529D01*
X059606Y012379D01*
X058844Y012691D02*
X058844Y012841D01*
X058768Y012916D01*
X058693Y012916D01*
X058618Y012841D01*
X058618Y012616D01*
X058768Y012616D01*
X058844Y012691D01*
X058618Y012616D02*
X058468Y012766D01*
X058393Y012916D01*
X057796Y012483D02*
X057796Y012182D01*
X057796Y012333D02*
X057346Y012333D01*
X057496Y012182D01*
X058508Y007984D02*
X058808Y007684D01*
X058883Y007759D01*
X058883Y007909D01*
X058808Y007984D01*
X058508Y007984D01*
X058432Y007909D01*
X058432Y007759D01*
X058508Y007684D01*
X058808Y007684D01*
X058883Y007524D02*
X058883Y007224D01*
X058883Y007374D02*
X058432Y007374D01*
X058583Y007224D01*
X057836Y007378D02*
X057761Y007303D01*
X057836Y007378D02*
X057836Y007528D01*
X057761Y007603D01*
X057610Y007603D01*
X057535Y007528D01*
X057535Y007453D01*
X057610Y007303D01*
X057385Y007303D01*
X057385Y007603D01*
X059574Y007707D02*
X059574Y007407D01*
X059799Y007407D01*
X059724Y007557D01*
X059724Y007632D01*
X059799Y007707D01*
X059950Y007707D01*
X060025Y007632D01*
X060025Y007482D01*
X059950Y007407D01*
X060025Y007247D02*
X060025Y006946D01*
X060025Y007096D02*
X059574Y007096D01*
X059724Y006946D01*
X036926Y015220D02*
X029367Y015220D01*
X029367Y022780D01*
X036926Y022780D01*
X036926Y015220D01*
X029672Y022307D02*
X029674Y022325D01*
X029680Y022343D01*
X029689Y022359D01*
X029701Y022372D01*
X029716Y022383D01*
X029733Y022391D01*
X029751Y022395D01*
X029769Y022395D01*
X029787Y022391D01*
X029804Y022383D01*
X029819Y022372D01*
X029831Y022359D01*
X029840Y022343D01*
X029846Y022325D01*
X029848Y022307D01*
X029846Y022289D01*
X029840Y022271D01*
X029831Y022255D01*
X029819Y022242D01*
X029804Y022231D01*
X029787Y022223D01*
X029769Y022219D01*
X029751Y022219D01*
X029733Y022223D01*
X029716Y022231D01*
X029701Y022242D01*
X029689Y022255D01*
X029680Y022271D01*
X029674Y022289D01*
X029672Y022307D01*
X029636Y022307D02*
X029638Y022329D01*
X029643Y022349D01*
X029653Y022369D01*
X029665Y022387D01*
X029680Y022402D01*
X029698Y022414D01*
X029718Y022424D01*
X029738Y022429D01*
X029760Y022431D01*
X029782Y022429D01*
X029802Y022424D01*
X029822Y022414D01*
X029840Y022402D01*
X029855Y022387D01*
X029867Y022369D01*
X029877Y022349D01*
X029882Y022329D01*
X029884Y022307D01*
X029882Y022285D01*
X029877Y022265D01*
X029867Y022245D01*
X029855Y022227D01*
X029840Y022212D01*
X029822Y022200D01*
X029802Y022190D01*
X029782Y022185D01*
X029760Y022183D01*
X029738Y022185D01*
X029718Y022190D01*
X029698Y022200D01*
X029680Y022212D01*
X029665Y022227D01*
X029653Y022245D01*
X029643Y022265D01*
X029638Y022285D01*
X029636Y022307D01*
X016369Y027988D02*
X016069Y027988D01*
X016369Y028288D01*
X016369Y028363D01*
X016294Y028438D01*
X016144Y028438D01*
X016069Y028363D01*
X015909Y028363D02*
X015834Y028438D01*
X015609Y028438D01*
X015609Y027988D01*
X015834Y027988D01*
X015909Y028063D01*
X015909Y028363D01*
X010094Y033238D02*
X009793Y033238D01*
X009943Y033238D02*
X009943Y033688D01*
X009793Y033538D01*
X009633Y033613D02*
X009633Y033313D01*
X009558Y033238D01*
X009333Y033238D01*
X009333Y033688D01*
X009558Y033688D01*
X009633Y033613D01*
X007906Y037500D02*
X007908Y037570D01*
X007914Y037640D01*
X007924Y037710D01*
X007938Y037778D01*
X007955Y037846D01*
X007977Y037913D01*
X008002Y037979D01*
X008031Y038043D01*
X008063Y038105D01*
X008099Y038165D01*
X008139Y038223D01*
X008181Y038279D01*
X008227Y038332D01*
X008275Y038383D01*
X008327Y038431D01*
X008381Y038476D01*
X008437Y038517D01*
X008496Y038556D01*
X008557Y038591D01*
X008619Y038623D01*
X008684Y038651D01*
X008749Y038675D01*
X008817Y038695D01*
X008885Y038712D01*
X008954Y038725D01*
X009023Y038734D01*
X009093Y038739D01*
X009164Y038740D01*
X009234Y038737D01*
X009304Y038730D01*
X009373Y038719D01*
X009441Y038704D01*
X009509Y038686D01*
X009576Y038663D01*
X009641Y038637D01*
X009704Y038607D01*
X009766Y038574D01*
X009826Y038537D01*
X009883Y038497D01*
X009939Y038454D01*
X009991Y038407D01*
X010041Y038358D01*
X010088Y038306D01*
X010132Y038251D01*
X010173Y038194D01*
X010211Y038135D01*
X010245Y038074D01*
X010276Y038011D01*
X010303Y037946D01*
X010326Y037880D01*
X010346Y037812D01*
X010362Y037744D01*
X010374Y037675D01*
X010382Y037605D01*
X010386Y037535D01*
X010386Y037465D01*
X010382Y037395D01*
X010374Y037325D01*
X010362Y037256D01*
X010346Y037188D01*
X010326Y037120D01*
X010303Y037054D01*
X010276Y036989D01*
X010245Y036926D01*
X010211Y036865D01*
X010173Y036806D01*
X010132Y036749D01*
X010088Y036694D01*
X010041Y036642D01*
X009991Y036593D01*
X009939Y036546D01*
X009883Y036503D01*
X009826Y036463D01*
X009766Y036426D01*
X009704Y036393D01*
X009641Y036363D01*
X009576Y036337D01*
X009509Y036314D01*
X009441Y036296D01*
X009373Y036281D01*
X009304Y036270D01*
X009234Y036263D01*
X009164Y036260D01*
X009093Y036261D01*
X009023Y036266D01*
X008954Y036275D01*
X008885Y036288D01*
X008817Y036305D01*
X008749Y036325D01*
X008684Y036349D01*
X008619Y036377D01*
X008557Y036409D01*
X008496Y036444D01*
X008437Y036483D01*
X008381Y036524D01*
X008327Y036569D01*
X008275Y036617D01*
X008227Y036668D01*
X008181Y036721D01*
X008139Y036777D01*
X008099Y036835D01*
X008063Y036895D01*
X008031Y036957D01*
X008002Y037021D01*
X007977Y037087D01*
X007955Y037154D01*
X007938Y037222D01*
X007924Y037290D01*
X007914Y037360D01*
X007908Y037430D01*
X007906Y037500D01*
X003839Y024476D02*
X001674Y024476D01*
X001654Y024476D02*
X000532Y024476D01*
X000512Y024476D02*
X000453Y024476D01*
X000453Y023197D01*
X000433Y023197D01*
X000453Y023197D02*
X000453Y016524D01*
X003622Y016524D01*
X003642Y016524D02*
X003839Y016524D01*
X003839Y019988D01*
X003622Y019988D01*
X003622Y021012D01*
X003839Y021012D01*
X003839Y024457D01*
X000796Y018786D02*
X000871Y018711D01*
X000871Y018560D01*
X000796Y018485D01*
X000646Y018560D02*
X000646Y018711D01*
X000721Y018786D01*
X000796Y018786D01*
X000646Y018560D02*
X000571Y018485D01*
X000496Y018485D01*
X000421Y018560D01*
X000421Y018711D01*
X000496Y018786D01*
X000571Y018325D02*
X000871Y018325D01*
X000646Y018325D02*
X000646Y018025D01*
X000571Y018025D02*
X000421Y018175D01*
X000571Y018325D01*
X000571Y018025D02*
X000871Y018025D01*
X003957Y016583D02*
X003959Y016606D01*
X003965Y016629D01*
X003975Y016650D01*
X003988Y016670D01*
X004004Y016687D01*
X004023Y016701D01*
X004044Y016711D01*
X004066Y016718D01*
X004089Y016721D01*
X004113Y016720D01*
X004135Y016715D01*
X004157Y016706D01*
X004177Y016694D01*
X004195Y016678D01*
X004209Y016660D01*
X004221Y016640D01*
X004229Y016618D01*
X004233Y016595D01*
X004233Y016571D01*
X004229Y016548D01*
X004221Y016526D01*
X004209Y016506D01*
X004195Y016488D01*
X004177Y016472D01*
X004157Y016460D01*
X004135Y016451D01*
X004113Y016446D01*
X004089Y016445D01*
X004066Y016448D01*
X004044Y016455D01*
X004023Y016465D01*
X004004Y016479D01*
X003988Y016496D01*
X003975Y016516D01*
X003965Y016537D01*
X003959Y016560D01*
X003957Y016583D01*
X003839Y015476D02*
X001674Y015476D01*
X001654Y015476D02*
X000532Y015476D01*
X000512Y015476D02*
X000453Y015476D01*
X000453Y014197D01*
X000433Y014197D01*
X000453Y014197D02*
X000453Y007524D01*
X003622Y007524D01*
X003642Y007524D02*
X003839Y007524D01*
X003839Y010988D01*
X003622Y010988D01*
X003622Y012012D01*
X003839Y012012D01*
X003839Y015457D01*
X000796Y010706D02*
X000646Y010706D01*
X000646Y010556D01*
X000496Y010406D02*
X000796Y010406D01*
X000871Y010481D01*
X000871Y010631D01*
X000796Y010706D01*
X000496Y010706D02*
X000421Y010631D01*
X000421Y010481D01*
X000496Y010406D01*
X000571Y010246D02*
X000871Y010246D01*
X000646Y010246D02*
X000646Y009946D01*
X000571Y009946D02*
X000421Y010096D01*
X000571Y010246D01*
X000571Y009946D02*
X000871Y009946D01*
X000871Y009636D02*
X000421Y009636D01*
X000421Y009786D02*
X000421Y009485D01*
X000421Y009325D02*
X000421Y009175D01*
X000421Y009250D02*
X000796Y009250D01*
X000871Y009175D01*
X000871Y009100D01*
X000796Y009025D01*
X003957Y007583D02*
X003959Y007606D01*
X003965Y007629D01*
X003975Y007650D01*
X003988Y007670D01*
X004004Y007687D01*
X004023Y007701D01*
X004044Y007711D01*
X004066Y007718D01*
X004089Y007721D01*
X004113Y007720D01*
X004135Y007715D01*
X004157Y007706D01*
X004177Y007694D01*
X004195Y007678D01*
X004209Y007660D01*
X004221Y007640D01*
X004229Y007618D01*
X004233Y007595D01*
X004233Y007571D01*
X004229Y007548D01*
X004221Y007526D01*
X004209Y007506D01*
X004195Y007488D01*
X004177Y007472D01*
X004157Y007460D01*
X004135Y007451D01*
X004113Y007446D01*
X004089Y007445D01*
X004066Y007448D01*
X004044Y007455D01*
X004023Y007465D01*
X004004Y007479D01*
X003988Y007496D01*
X003975Y007516D01*
X003965Y007537D01*
X003959Y007560D01*
X003957Y007583D01*
X051146Y024750D02*
X051148Y024781D01*
X051154Y024812D01*
X051164Y024842D01*
X051177Y024870D01*
X051194Y024897D01*
X051214Y024921D01*
X051237Y024943D01*
X051262Y024961D01*
X051290Y024976D01*
X051319Y024988D01*
X051349Y024996D01*
X051380Y025000D01*
X051412Y025000D01*
X051443Y024996D01*
X051473Y024988D01*
X051502Y024976D01*
X051530Y024961D01*
X051555Y024943D01*
X051578Y024921D01*
X051598Y024897D01*
X051615Y024870D01*
X051628Y024842D01*
X051638Y024812D01*
X051644Y024781D01*
X051646Y024750D01*
X051644Y024719D01*
X051638Y024688D01*
X051628Y024658D01*
X051615Y024630D01*
X051598Y024603D01*
X051578Y024579D01*
X051555Y024557D01*
X051530Y024539D01*
X051502Y024524D01*
X051473Y024512D01*
X051443Y024504D01*
X051412Y024500D01*
X051380Y024500D01*
X051349Y024504D01*
X051319Y024512D01*
X051290Y024524D01*
X051262Y024539D01*
X051237Y024557D01*
X051214Y024579D01*
X051194Y024603D01*
X051177Y024630D01*
X051164Y024658D01*
X051154Y024688D01*
X051148Y024719D01*
X051146Y024750D01*
D19*
X060437Y012154D03*
X060437Y011254D03*
X060437Y010354D03*
X060437Y009454D03*
X060437Y008554D03*
D20*
X060930Y008104D03*
X060930Y009004D03*
X060930Y009904D03*
X060930Y010804D03*
X060930Y011704D03*
D21*
X058666Y011704D03*
X058666Y010804D03*
X058666Y009904D03*
X058666Y009004D03*
X058666Y008104D03*
D22*
X061496Y023000D03*
D23*
X063146Y023000D03*
D24*
X059921Y023010D03*
X059921Y024080D03*
X059921Y025160D03*
X059921Y021920D03*
X059921Y020840D03*
D25*
X060421Y021380D03*
X060421Y022470D03*
X060421Y023540D03*
X060421Y024620D03*
D26*
X029721Y022307D02*
X029723Y022319D01*
X029728Y022330D01*
X029737Y022339D01*
X029748Y022344D01*
X029760Y022346D01*
X029772Y022344D01*
X029783Y022339D01*
X029792Y022330D01*
X029797Y022319D01*
X029799Y022307D01*
X029797Y022295D01*
X029792Y022284D01*
X029783Y022275D01*
X029772Y022270D01*
X029760Y022268D01*
X029748Y022270D01*
X029737Y022275D01*
X029728Y022284D01*
X029723Y022295D01*
X029721Y022307D01*
X028894Y022701D02*
X028896Y022713D01*
X028901Y022724D01*
X028910Y022733D01*
X028921Y022738D01*
X028933Y022740D01*
X028945Y022738D01*
X028956Y022733D01*
X028965Y022724D01*
X028970Y022713D01*
X028972Y022701D01*
X028970Y022689D01*
X028965Y022678D01*
X028956Y022669D01*
X028945Y022664D01*
X028933Y022662D01*
X028921Y022664D01*
X028910Y022669D01*
X028901Y022678D01*
X028896Y022689D01*
X028894Y022701D01*
D27*
X014146Y033840D03*
X013146Y033840D03*
X012146Y033840D03*
D28*
X015761Y032757D02*
X016131Y032757D01*
X016131Y032880D02*
X016131Y032633D01*
X016069Y032512D02*
X016131Y032450D01*
X016131Y032327D01*
X016069Y032265D01*
X015822Y032265D01*
X015761Y032327D01*
X015761Y032450D01*
X015822Y032512D01*
X015884Y032633D02*
X015761Y032757D01*
X015822Y035765D02*
X015761Y035827D01*
X015761Y035950D01*
X015822Y036012D01*
X015822Y036133D02*
X015761Y036195D01*
X015761Y036318D01*
X015822Y036380D01*
X015884Y036380D01*
X015946Y036318D01*
X016008Y036380D01*
X016069Y036380D01*
X016131Y036318D01*
X016131Y036195D01*
X016069Y036133D01*
X016069Y036012D02*
X016131Y035950D01*
X016131Y035827D01*
X016069Y035765D01*
X015822Y035765D01*
X015946Y036257D02*
X015946Y036318D01*
X023761Y036318D02*
X023761Y036195D01*
X023822Y036133D01*
X023822Y036012D02*
X023761Y035950D01*
X023761Y035827D01*
X023822Y035765D01*
X024069Y035765D01*
X024131Y035827D01*
X024131Y035950D01*
X024069Y036012D01*
X024131Y036133D02*
X023884Y036380D01*
X023822Y036380D01*
X023761Y036318D01*
X024131Y036380D02*
X024131Y036133D01*
X027411Y034824D02*
X027411Y034577D01*
X027473Y034515D01*
X027596Y034515D01*
X027658Y034577D01*
X027779Y034515D02*
X028026Y034515D01*
X027903Y034515D02*
X027903Y034885D01*
X027779Y034762D01*
X027658Y034824D02*
X027596Y034885D01*
X027473Y034885D01*
X027411Y034824D01*
X028148Y034824D02*
X028148Y034577D01*
X028395Y034824D01*
X028395Y034577D01*
X028333Y034515D01*
X028209Y034515D01*
X028148Y034577D01*
X028148Y034824D02*
X028209Y034885D01*
X028333Y034885D01*
X028395Y034824D01*
X031411Y034824D02*
X031411Y034577D01*
X031473Y034515D01*
X031596Y034515D01*
X031658Y034577D01*
X031779Y034515D02*
X032026Y034515D01*
X032148Y034515D02*
X032395Y034515D01*
X032271Y034515D02*
X032271Y034885D01*
X032148Y034762D01*
X031903Y034885D02*
X031903Y034515D01*
X031779Y034762D02*
X031903Y034885D01*
X031658Y034824D02*
X031596Y034885D01*
X031473Y034885D01*
X031411Y034824D01*
D29*
X015865Y029841D03*
X015865Y028659D03*
X009589Y033909D03*
X009589Y035091D03*
D30*
X021646Y034960D03*
D31*
X039176Y032000D03*
D32*
X025319Y001348D02*
X025319Y001348D01*
X025317Y001337D01*
X025313Y001327D01*
X025306Y001319D01*
X025296Y001313D01*
X025286Y001309D01*
X025274Y001309D01*
X025264Y001313D01*
X025254Y001319D01*
X025247Y001327D01*
X025243Y001337D01*
X025241Y001348D01*
X025241Y001348D01*
X025243Y001359D01*
X025247Y001369D01*
X025254Y001377D01*
X025264Y001383D01*
X025274Y001387D01*
X025286Y001387D01*
X025296Y001383D01*
X025306Y001377D01*
X025313Y001369D01*
X025317Y001359D01*
X025319Y001348D01*
X021319Y001348D02*
X021319Y001348D01*
X021317Y001337D01*
X021313Y001327D01*
X021306Y001319D01*
X021296Y001313D01*
X021286Y001309D01*
X021274Y001309D01*
X021264Y001313D01*
X021254Y001319D01*
X021247Y001327D01*
X021243Y001337D01*
X021241Y001348D01*
X021241Y001348D01*
X021243Y001359D01*
X021247Y001369D01*
X021254Y001377D01*
X021264Y001383D01*
X021274Y001387D01*
X021286Y001387D01*
X021296Y001383D01*
X021306Y001377D01*
X021313Y001369D01*
X021317Y001359D01*
X021319Y001348D01*
X017319Y001348D02*
X017319Y001348D01*
X017317Y001337D01*
X017313Y001327D01*
X017306Y001319D01*
X017296Y001313D01*
X017286Y001309D01*
X017274Y001309D01*
X017264Y001313D01*
X017254Y001319D01*
X017247Y001327D01*
X017243Y001337D01*
X017241Y001348D01*
X017241Y001348D01*
X017243Y001359D01*
X017247Y001369D01*
X017254Y001377D01*
X017264Y001383D01*
X017274Y001387D01*
X017286Y001387D01*
X017296Y001383D01*
X017306Y001377D01*
X017313Y001369D01*
X017317Y001359D01*
X017319Y001348D01*
X013319Y001348D02*
X013319Y001348D01*
X013317Y001337D01*
X013313Y001327D01*
X013306Y001319D01*
X013296Y001313D01*
X013286Y001309D01*
X013274Y001309D01*
X013264Y001313D01*
X013254Y001319D01*
X013247Y001327D01*
X013243Y001337D01*
X013241Y001348D01*
X013241Y001348D01*
X013243Y001359D01*
X013247Y001369D01*
X013254Y001377D01*
X013264Y001383D01*
X013274Y001387D01*
X013286Y001387D01*
X013296Y001383D01*
X013306Y001377D01*
X013313Y001369D01*
X013317Y001359D01*
X013319Y001348D01*
X007819Y001348D02*
X007819Y001348D01*
X007817Y001337D01*
X007813Y001327D01*
X007806Y001319D01*
X007796Y001313D01*
X007786Y001309D01*
X007774Y001309D01*
X007764Y001313D01*
X007754Y001319D01*
X007747Y001327D01*
X007743Y001337D01*
X007741Y001348D01*
X007741Y001348D01*
X007743Y001359D01*
X007747Y001369D01*
X007754Y001377D01*
X007764Y001383D01*
X007774Y001387D01*
X007786Y001387D01*
X007796Y001383D01*
X007806Y001377D01*
X007813Y001369D01*
X007817Y001359D01*
X007819Y001348D01*
D33*
X036910Y026191D03*
X037382Y026191D03*
X038910Y026191D03*
X039382Y026191D03*
X040910Y026191D03*
X041382Y026191D03*
X042910Y026191D03*
X043382Y026191D03*
D34*
X043146Y026191D03*
X041146Y026191D03*
X039146Y026191D03*
X037146Y026191D03*
X021455Y029750D03*
D35*
X021455Y029514D03*
X021455Y029986D03*
M02*
