%
M48
M72
T01C0.0118
T02C0.0197
T03C0.0236
T04C0.0315
T05C0.0354
T06C0.0374
T07C0.0394
T08C0.0400
T09C0.0433
T10C0.0866
T11C0.0906
T12C0.1181
T13C0.1252
T14C0.1300
%
T01
X28902Y11752
X30845Y12890
X30394Y14193
X30195Y15506
X30678Y15520
X29981Y16065
X29556Y17291
X29556Y17803
X29575Y18335
X29575Y18906
X29575Y19398
X28237Y21858
X28396Y24500
X27896Y25000
X26646Y24500
X26396Y25000
X21646Y25750
X20896Y26250
X18896Y25250
X18896Y24750
X19896Y24250
X19227Y23671
X19227Y22864
X8374Y27691
X8355Y28846
X8532Y29634
X31859Y15441
X32666Y15480
X33355Y15461
X33847Y15461
X34811Y13650
X36150Y16898
X37981Y17232
X36544Y20953
X36721Y21583
X37396Y22750
X38040Y23197
X36721Y23846
X34733Y22685
X33926Y22685
X33945Y24614
X52396Y21250
X52396Y20750
X34496Y7508
X34811Y3177
T02
X34396Y1500
X31977Y1951
X30725Y2000
X27896Y1750
X27896Y3000
X30008Y7547
X31050Y7742
X31977Y7547
X36760Y7606
X33646Y10837
X32075Y11740
X31912Y12331
X31162Y10900
X33646Y12750
X34201Y12488
X37146Y15000
X36146Y15750
X35363Y16642
X34516Y16642
X34811Y15632
X33146Y17500
X31544Y16858
X31646Y19000
X33146Y20500
X34646Y19000
X36741Y19358
X37979Y20059
X35658Y20402
X35658Y21524
X35896Y22250
X35028Y24004
X32489Y24594
X31890Y24039
X31229Y24594
X30646Y24000
X28945Y25776
X28646Y27000
X30396Y27000
X30396Y29000
X28646Y29000
X29634Y30874
X30422Y31524
X31741Y32370
X29396Y33750
X28896Y34250
X31741Y34004
X34146Y35500
X34146Y36000
X34896Y36000
X34896Y37250
X34896Y37750
X38146Y35750
X38146Y35250
X34896Y34000
X34896Y33500
X39083Y31051
X40896Y30750
X41130Y32528
X40894Y32921
X40896Y34500
X40896Y35000
X40896Y35500
X43646Y35250
X43646Y35750
X46396Y34000
X46890Y33508
X47823Y32685
X44870Y32862
X44870Y31543
X47146Y29500
X49146Y29500
X49146Y27500
X49146Y26250
X48040Y26327
X47146Y27500
X53473Y27350
X54646Y27500
X53646Y25500
X54646Y30000
X55396Y30000
X52666Y32697
X51896Y32250
X51896Y31750
X51896Y34500
X51896Y35250
X51896Y36000
X56646Y34000
X57146Y34500
X36508Y29441
X35613Y30329
X28886Y31504
X25087Y32961
X23646Y33750
X23646Y34250
X23646Y34750
X25638Y35185
X21426Y32528
X20304Y31661
X19280Y31504
X18099Y31740
X16367Y31740
X15933Y31268
X15028Y31031
X13896Y29250
X13396Y29250
X17646Y29750
X18146Y29750
X22896Y29750
X24396Y29750
X22658Y31504
X22896Y27000
X24396Y27000
X23630Y24093
X24376Y23494
X22876Y23494
X23646Y22000
X23646Y20000
X22876Y19461
X23646Y18362
X24416Y19461
X20166Y19634
X18926Y19398
X16896Y20750
X14896Y20750
X18906Y21248
X16896Y23250
X14896Y24250
X10874Y25874
X8827Y26110
X8178Y25283
X7134Y25224
X5343Y23094
X7073Y20634
X5337Y19250
X6491Y19177
X6496Y18020
X7707Y17132
X7646Y16000
X8707Y16132
X9707Y15132
X10809Y16226
X9809Y17226
X8809Y18220
X12309Y14726
X12311Y13846
X11207Y13632
X12433Y12429
X13526Y13533
X15085Y12343
X15091Y10907
X18091Y10888
X18085Y12343
X20335Y12343
X20361Y10907
X23040Y12390
X24890Y12350
X26146Y11750
X27412Y12331
X27412Y10900
X24890Y10860
X24306Y13484
X23020Y13492
X22896Y15461
X23646Y15998
X24396Y15461
X20166Y17821
X16146Y14500
X4646Y12250
X4646Y9500
X10396Y5750
X5896Y4500
X5896Y3250
X10396Y2250
X29461Y14205
X36760Y17213
X38146Y18750
X39075Y15886
X39878Y15898
X39898Y14711
X39075Y14715
X39075Y13465
X39878Y13457
X38075Y12215
X38717Y11587
X43146Y11500
X43896Y10750
X43896Y12250
X46146Y11500
X46896Y10750
X48396Y10750
X49146Y11500
X48396Y12250
X46896Y12250
X51396Y12250
X52146Y11500
X51396Y10750
X47146Y8500
X50146Y6250
X47469Y5795
X43896Y6250
X41646Y2500
X40646Y2500
X38896Y2250
X53896Y7500
X54896Y6500
X59646Y16500
X61146Y16500
X30737Y21465
X9083Y32547
X7351Y32547
X5559Y32547
T03
X19146Y37500
X19646Y37000
X29516Y36701
X29556Y36130
X39477Y18728
T04
X9638Y37500
X8654Y37500
X5646Y36681
X3756Y35500
T05
X44307Y4831
X44307Y3846
X45134Y3846
X46158Y3846
X46985Y3846
X46985Y4831
X51307Y4831
X51307Y3846
X52134Y3846
X53158Y3846
X53985Y3846
X53985Y4831
X57646Y8104
X57646Y9004
X57646Y9904
X58646Y9454
X59646Y9004
X58646Y8554
X59646Y8104
X59646Y9904
X58646Y10354
X57646Y10804
X57646Y11704
X58646Y11254
X59646Y10804
X59646Y11704
X58646Y12154
X58815Y31661
X59800Y31661
X59800Y32488
X59800Y33512
X59800Y34339
X58815Y34339
T06
X6000Y29992
X5213Y29992
X5213Y29008
X6000Y29008
T07
X5646Y34319
T08
X2646Y22500
X1646Y22500
X1646Y21500
X1646Y20500
X2646Y20500
X2646Y21500
X2646Y19500
X1646Y19500
X1646Y18500
X2646Y18500
X2646Y13500
X1646Y13500
X1646Y12500
X2646Y12500
X2646Y11500
X1646Y11500
X1646Y10500
X2646Y10500
X2646Y9500
X1646Y9500
X58146Y20840
X59146Y21380
X58146Y21920
X59146Y22460
X58146Y23000
X59146Y23540
X58146Y24080
X59146Y24620
X58146Y25160
T09
X56615Y35531
X55630Y35531
X53662Y35531
X52678Y35531
X51115Y35531
X50130Y35531
X48162Y35531
X47178Y35531
X45615Y35531
X44630Y35531
X42662Y35531
X41678Y35531
X40115Y35531
X39130Y35531
X37162Y35531
X36178Y35531
X38146Y37500
X43646Y37500
X49146Y37500
X54646Y37500
T10
X60981Y35657
X61296Y33000
X60981Y30343
X55304Y2665
X52646Y2350
X49989Y2665
X48304Y2665
X45646Y2350
X42989Y2665
T11
X4146Y27130
X4146Y31870
T12
X2146Y2500
X2146Y38000
X61146Y38000
X61146Y2500
T13
X58646Y5079
X58646Y14921
T14
X58646Y18070
X58646Y27930
M30
