G75*
%MOIN*%
%OFA0B0*%
%FSLAX24Y24*%
%IPPOS*%
%LPD*%
%AMOC8*
5,1,8,0,0,1.08239X$1,22.5*
%
%ADD10R,0.0591X0.0512*%
%ADD11R,0.0512X0.0591*%
D10*
X028949Y014843D03*
X028949Y015591D03*
X028896Y017876D03*
X028896Y018624D03*
X028896Y019626D03*
X028896Y020374D03*
X030926Y020049D03*
X030926Y020797D03*
X033398Y021506D03*
X033398Y022254D03*
X033313Y023254D03*
X032475Y023256D03*
X032475Y024004D03*
X033313Y024002D03*
X034357Y024002D03*
X034357Y023254D03*
X031237Y023244D03*
X031237Y023992D03*
X037369Y020831D03*
X037369Y020083D03*
X035595Y019760D03*
X035595Y019012D03*
X035548Y018006D03*
X035548Y017258D03*
X034711Y017254D03*
X034711Y018002D03*
X033473Y016819D03*
X032666Y016819D03*
X031705Y017561D03*
X031705Y018309D03*
X032666Y016071D03*
X033473Y016071D03*
X034577Y015000D03*
X034577Y014252D03*
D11*
X035981Y016346D03*
X036729Y016346D03*
X030973Y014793D03*
X030225Y014793D03*
X029904Y013500D03*
X030652Y013500D03*
X030874Y017738D03*
X030126Y017738D03*
X031768Y021470D03*
X032516Y021470D03*
X034272Y021500D03*
X035020Y021500D03*
X035522Y023000D03*
X036270Y023000D03*
X037333Y023766D03*
X038081Y023766D03*
M02*
