G75*
%MOIN*%
%OFA0B0*%
%FSLAX24Y24*%
%IPPOS*%
%LPD*%
%AMOC8*
5,1,8,0,0,1.08239X$1,22.5*
%
%ADD10C,0.0040*%
%ADD11C,0.0080*%
D10*
X029469Y014813D02*
X029546Y014737D01*
X029853Y014737D01*
X029930Y014813D01*
X029930Y014967D01*
X029853Y015043D01*
X029776Y015197D02*
X029930Y015350D01*
X029469Y015350D01*
X029469Y015197D02*
X029469Y015504D01*
X029469Y015657D02*
X029546Y015657D01*
X029853Y015964D01*
X029930Y015964D01*
X029930Y015657D01*
X029546Y015043D02*
X029469Y014967D01*
X029469Y014813D01*
X030232Y014274D02*
X030232Y014197D01*
X030539Y013890D01*
X030539Y013813D01*
X030693Y013890D02*
X030769Y013813D01*
X030923Y013813D01*
X031000Y013890D01*
X031153Y013890D02*
X031230Y013813D01*
X031383Y013813D01*
X031460Y013890D01*
X031460Y014197D01*
X031383Y014274D01*
X031230Y014274D01*
X031153Y014197D01*
X031000Y014197D02*
X030923Y014274D01*
X030769Y014274D01*
X030693Y014197D01*
X030693Y014120D01*
X030769Y014044D01*
X030693Y013967D01*
X030693Y013890D01*
X030769Y014044D02*
X030846Y014044D01*
X030539Y014274D02*
X030232Y014274D01*
X030142Y012980D02*
X029988Y012980D01*
X029911Y012904D01*
X030218Y012597D01*
X030142Y012520D01*
X029988Y012520D01*
X029911Y012597D01*
X029911Y012904D01*
X030142Y012980D02*
X030218Y012904D01*
X030218Y012597D01*
X030372Y012520D02*
X030679Y012520D01*
X030525Y012520D02*
X030525Y012980D01*
X030679Y012827D01*
X030832Y012904D02*
X030909Y012980D01*
X031062Y012980D01*
X031139Y012904D01*
X031139Y012827D01*
X031062Y012750D01*
X030909Y012750D01*
X030832Y012673D01*
X030832Y012597D01*
X030909Y012520D01*
X031062Y012520D01*
X031139Y012597D01*
X031293Y012597D02*
X031293Y012980D01*
X031600Y012980D02*
X031600Y012597D01*
X031523Y012520D01*
X031369Y012520D01*
X031293Y012597D01*
X030986Y012443D02*
X030986Y013057D01*
X035097Y014223D02*
X035097Y014376D01*
X035174Y014453D01*
X035327Y014606D02*
X035327Y014913D01*
X035174Y015067D02*
X035481Y015374D01*
X035174Y015374D01*
X035097Y015297D01*
X035097Y015144D01*
X035174Y015067D01*
X035481Y015067D01*
X035558Y015144D01*
X035558Y015297D01*
X035481Y015374D01*
X035558Y014837D02*
X035097Y014837D01*
X035327Y014606D02*
X035558Y014837D01*
X035481Y014453D02*
X035558Y014376D01*
X035558Y014223D01*
X035481Y014146D01*
X035174Y014146D01*
X035097Y014223D01*
X034376Y015965D02*
X034070Y015965D01*
X033993Y016042D01*
X033993Y016195D01*
X034070Y016272D01*
X034070Y016425D02*
X033993Y016502D01*
X033993Y016655D01*
X034070Y016732D01*
X034146Y016732D01*
X034223Y016655D01*
X034223Y016579D01*
X034223Y016655D02*
X034300Y016732D01*
X034376Y016732D01*
X034453Y016655D01*
X034453Y016502D01*
X034376Y016425D01*
X034376Y016272D02*
X034453Y016195D01*
X034453Y016042D01*
X034376Y015965D01*
X033646Y016042D02*
X033569Y015965D01*
X033262Y015965D01*
X033186Y016042D01*
X033186Y016195D01*
X033262Y016272D01*
X033262Y016425D02*
X033186Y016502D01*
X033186Y016655D01*
X033262Y016732D01*
X033339Y016732D01*
X033416Y016655D01*
X033416Y016579D01*
X033416Y016655D02*
X033493Y016732D01*
X033569Y016732D01*
X033646Y016655D01*
X033646Y016502D01*
X033569Y016425D01*
X033569Y016272D02*
X033646Y016195D01*
X033646Y016042D01*
X033569Y016886D02*
X033493Y016886D01*
X033416Y016962D01*
X033416Y017116D01*
X033339Y017193D01*
X033262Y017193D01*
X033186Y017116D01*
X033186Y016962D01*
X033262Y016886D01*
X033339Y016886D01*
X033416Y016962D01*
X033416Y017116D02*
X033493Y017193D01*
X033569Y017193D01*
X033646Y017116D01*
X033646Y016962D01*
X033569Y016886D01*
X033993Y016962D02*
X033993Y017116D01*
X034070Y017193D01*
X034376Y017193D01*
X034453Y017116D01*
X034453Y016962D01*
X034376Y016886D01*
X034300Y016886D01*
X034223Y016962D01*
X034223Y017193D01*
X033993Y016962D02*
X034070Y016886D01*
X035231Y017225D02*
X035308Y017148D01*
X035615Y017148D01*
X035691Y017225D01*
X035691Y017378D01*
X035615Y017455D01*
X035684Y017327D02*
X035837Y017327D01*
X035914Y017250D01*
X036068Y017229D02*
X036068Y017382D01*
X036144Y017459D01*
X036144Y017327D02*
X036374Y017097D01*
X036067Y017097D01*
X036144Y017152D02*
X036068Y017229D01*
X036144Y017152D02*
X036451Y017152D01*
X036528Y017229D01*
X036528Y017382D01*
X036451Y017459D01*
X036528Y017612D02*
X036298Y017612D01*
X036375Y017766D01*
X036375Y017842D01*
X036298Y017919D01*
X036144Y017919D01*
X036068Y017842D01*
X036068Y017689D01*
X036144Y017612D01*
X036144Y017327D02*
X036144Y016866D01*
X035914Y016866D02*
X035607Y017173D01*
X035607Y017250D01*
X035684Y017327D01*
X035461Y017608D02*
X035461Y017915D01*
X035308Y018069D02*
X035231Y018069D01*
X035308Y018069D02*
X035615Y018376D01*
X035691Y018376D01*
X035691Y018069D01*
X035691Y017839D02*
X035461Y017608D01*
X035308Y017455D02*
X035231Y017378D01*
X035231Y017225D01*
X035607Y016866D02*
X035914Y016866D01*
X036528Y016943D02*
X036605Y016866D01*
X036758Y016866D01*
X036835Y016943D01*
X036835Y017250D01*
X036758Y017327D01*
X036605Y017327D01*
X036528Y017250D01*
X036528Y017612D02*
X036528Y017919D01*
X036451Y018073D02*
X036144Y018073D01*
X036451Y018380D01*
X036144Y018380D01*
X036068Y018303D01*
X036068Y018149D01*
X036144Y018073D01*
X036451Y018073D02*
X036528Y018149D01*
X036528Y018303D01*
X036451Y018380D01*
X035691Y017839D02*
X035231Y017839D01*
X034999Y018525D02*
X034692Y018525D01*
X034615Y018601D01*
X034615Y018755D01*
X034692Y018832D01*
X034845Y018985D02*
X034845Y019292D01*
X034768Y019445D02*
X034845Y019522D01*
X034845Y019676D01*
X034768Y019752D01*
X034692Y019752D01*
X034615Y019676D01*
X034615Y019522D01*
X034692Y019445D01*
X034768Y019445D01*
X034845Y019522D02*
X034922Y019445D01*
X034999Y019445D01*
X035075Y019522D01*
X035075Y019676D01*
X034999Y019752D01*
X034922Y019752D01*
X034845Y019676D01*
X034615Y019215D02*
X035075Y019215D01*
X034845Y018985D01*
X034999Y018832D02*
X035075Y018755D01*
X035075Y018601D01*
X034999Y018525D01*
X032686Y018453D02*
X032609Y018376D01*
X032532Y018376D01*
X032455Y018453D01*
X032455Y018683D01*
X032302Y018683D02*
X032609Y018683D01*
X032686Y018606D01*
X032686Y018453D01*
X032686Y018146D02*
X032225Y018146D01*
X032302Y018376D02*
X032225Y018453D01*
X032225Y018606D01*
X032302Y018683D01*
X032455Y018222D02*
X032455Y017915D01*
X032686Y018146D01*
X032609Y017762D02*
X032686Y017685D01*
X032686Y017532D01*
X032609Y017455D01*
X032302Y017455D01*
X032225Y017532D01*
X032225Y017685D01*
X032302Y017762D01*
X031362Y017142D02*
X031362Y016835D01*
X031285Y016758D01*
X031131Y016758D01*
X031055Y016835D01*
X030901Y016758D02*
X030594Y016758D01*
X030748Y016758D02*
X030748Y017219D01*
X030901Y017065D01*
X031055Y017142D02*
X031131Y017219D01*
X031285Y017219D01*
X031362Y017142D01*
X030441Y016988D02*
X030211Y016988D01*
X030134Y016912D01*
X030134Y016835D01*
X030211Y016758D01*
X030364Y016758D01*
X030441Y016835D01*
X030441Y016988D01*
X030287Y017142D01*
X030134Y017219D01*
X029800Y017770D02*
X029493Y017770D01*
X029416Y017847D01*
X029416Y018000D01*
X029493Y018077D01*
X029493Y018230D02*
X029416Y018307D01*
X029416Y018461D01*
X029493Y018537D01*
X029570Y018537D01*
X029646Y018461D01*
X029646Y018384D01*
X029646Y018461D02*
X029723Y018537D01*
X029800Y018537D01*
X029876Y018461D01*
X029876Y018307D01*
X029800Y018230D01*
X029800Y018077D02*
X029876Y018000D01*
X029876Y017847D01*
X029800Y017770D01*
X029646Y018691D02*
X029493Y018691D01*
X029416Y018768D01*
X029416Y018921D01*
X029493Y018998D01*
X029570Y018998D01*
X029646Y018921D01*
X029646Y018691D01*
X029800Y018844D01*
X029876Y018998D01*
X029800Y019520D02*
X029493Y019520D01*
X029416Y019597D01*
X029416Y019750D01*
X029493Y019827D01*
X029493Y019980D02*
X029416Y020057D01*
X029416Y020211D01*
X029493Y020287D01*
X029570Y020287D01*
X029646Y020211D01*
X029646Y020134D01*
X029646Y020211D02*
X029723Y020287D01*
X029800Y020287D01*
X029876Y020211D01*
X029876Y020057D01*
X029800Y019980D01*
X029800Y019827D02*
X029876Y019750D01*
X029876Y019597D01*
X029800Y019520D01*
X029946Y019639D02*
X030022Y019562D01*
X030329Y019562D01*
X030406Y019639D01*
X030406Y019792D01*
X030329Y019869D01*
X030176Y020022D02*
X030176Y020329D01*
X030176Y020483D02*
X030176Y020713D01*
X030099Y020790D01*
X030022Y020790D01*
X029946Y020713D01*
X029946Y020560D01*
X030022Y020483D01*
X030176Y020483D01*
X030329Y020636D01*
X030406Y020790D01*
X029876Y020748D02*
X029876Y020441D01*
X029646Y020441D01*
X029723Y020594D01*
X029723Y020671D01*
X029646Y020748D01*
X029493Y020748D01*
X029416Y020671D01*
X029416Y020518D01*
X029493Y020441D01*
X029946Y020253D02*
X030406Y020253D01*
X030176Y020022D01*
X030022Y019869D02*
X029946Y019792D01*
X029946Y019639D01*
X031852Y020490D02*
X031852Y020951D01*
X032083Y020721D01*
X031776Y020721D01*
X032236Y020721D02*
X032543Y020721D01*
X032313Y020951D01*
X032313Y020490D01*
X032696Y020567D02*
X032773Y020490D01*
X032927Y020490D01*
X033003Y020567D01*
X033003Y020874D01*
X032927Y020951D01*
X032773Y020951D01*
X032696Y020874D01*
X032802Y021019D02*
X032495Y021019D01*
X032418Y021095D01*
X032418Y021249D01*
X032495Y021326D01*
X032418Y021479D02*
X032418Y021786D01*
X032418Y021633D02*
X032878Y021633D01*
X032725Y021479D01*
X032802Y021326D02*
X032878Y021249D01*
X032878Y021095D01*
X032802Y021019D01*
X032878Y021940D02*
X032648Y021940D01*
X032725Y022093D01*
X032725Y022170D01*
X032648Y022246D01*
X032495Y022246D01*
X032418Y022170D01*
X032418Y022016D01*
X032495Y021940D01*
X032878Y021940D02*
X032878Y022246D01*
X032717Y022767D02*
X032410Y022767D01*
X032333Y022844D01*
X032333Y022997D01*
X032410Y023074D01*
X032410Y023227D02*
X032333Y023304D01*
X032333Y023457D01*
X032410Y023534D01*
X032487Y023534D01*
X032564Y023457D01*
X032564Y023381D01*
X032564Y023457D02*
X032640Y023534D01*
X032717Y023534D01*
X032794Y023457D01*
X032794Y023304D01*
X032717Y023227D01*
X032717Y023074D02*
X032794Y022997D01*
X032794Y022844D01*
X032717Y022767D01*
X033377Y022844D02*
X033377Y022997D01*
X033453Y023074D01*
X033453Y023227D02*
X033377Y023304D01*
X033377Y023457D01*
X033453Y023534D01*
X033530Y023534D01*
X033607Y023457D01*
X033607Y023381D01*
X033607Y023457D02*
X033684Y023534D01*
X033760Y023534D01*
X033837Y023457D01*
X033837Y023304D01*
X033760Y023227D01*
X033760Y023074D02*
X033837Y022997D01*
X033837Y022844D01*
X033760Y022767D01*
X033453Y022767D01*
X033377Y022844D01*
X033898Y022480D02*
X034205Y022480D01*
X034205Y022250D01*
X034052Y022327D01*
X033975Y022327D01*
X033898Y022250D01*
X033898Y022097D01*
X033975Y022020D01*
X034129Y022020D01*
X034205Y022097D01*
X034359Y022250D02*
X034666Y022250D01*
X034435Y022480D01*
X034435Y022020D01*
X034819Y022097D02*
X034896Y022020D01*
X035049Y022020D01*
X035126Y022097D01*
X035126Y022404D01*
X035049Y022480D01*
X034896Y022480D01*
X034819Y022404D01*
X035225Y023520D02*
X035379Y023520D01*
X035455Y023597D01*
X035455Y023673D01*
X035379Y023750D01*
X035225Y023750D01*
X035148Y023673D01*
X035148Y023597D01*
X035225Y023520D01*
X035225Y023750D02*
X035148Y023827D01*
X035148Y023904D01*
X035225Y023980D01*
X035379Y023980D01*
X035455Y023904D01*
X035455Y023827D01*
X035379Y023750D01*
X035609Y023520D02*
X035916Y023520D01*
X035762Y023520D02*
X035762Y023980D01*
X035916Y023827D01*
X036069Y023904D02*
X036146Y023980D01*
X036299Y023980D01*
X036376Y023904D01*
X036376Y023597D01*
X036299Y023520D01*
X036146Y023520D01*
X036069Y023597D01*
X037494Y023246D02*
X037494Y022786D01*
X037647Y022786D02*
X037341Y022786D01*
X037647Y023093D02*
X037494Y023246D01*
X037954Y023246D02*
X037954Y022786D01*
X037801Y022786D02*
X038108Y022786D01*
X038261Y022862D02*
X038261Y022939D01*
X038338Y023016D01*
X038492Y023016D01*
X038568Y023093D01*
X038568Y023169D01*
X038492Y023246D01*
X038338Y023246D01*
X038261Y023169D01*
X038108Y023093D02*
X037954Y023246D01*
X038415Y023323D02*
X038415Y022709D01*
X038492Y022786D02*
X038338Y022786D01*
X038261Y022862D01*
X038492Y022786D02*
X038568Y022862D01*
X038722Y022862D02*
X038722Y023246D01*
X039029Y023246D02*
X039029Y022862D01*
X038952Y022786D01*
X038798Y022786D01*
X038722Y022862D01*
X037889Y021204D02*
X037889Y020897D01*
X037889Y021051D02*
X038349Y021051D01*
X038195Y020897D01*
X038119Y020744D02*
X038119Y020437D01*
X038349Y020667D01*
X037889Y020667D01*
X037965Y020284D02*
X037889Y020207D01*
X037889Y020053D01*
X037965Y019977D01*
X038272Y019977D01*
X038349Y020053D01*
X038349Y020207D01*
X038272Y020284D01*
X033837Y023918D02*
X033377Y023918D01*
X033607Y023994D02*
X033607Y023688D01*
X033837Y023918D01*
X032794Y023918D02*
X032717Y023994D01*
X032640Y023994D01*
X032564Y023918D01*
X032487Y023994D01*
X032410Y023994D01*
X032333Y023918D01*
X032333Y023764D01*
X032410Y023688D01*
X032564Y023841D02*
X032564Y023918D01*
X032794Y023918D02*
X032794Y023764D01*
X032717Y023688D01*
X031955Y023843D02*
X031495Y023843D01*
X031495Y023690D02*
X031495Y023996D01*
X031802Y023690D02*
X031955Y023843D01*
X031878Y023536D02*
X031802Y023536D01*
X031725Y023459D01*
X031648Y023536D01*
X031572Y023536D01*
X031495Y023459D01*
X031495Y023306D01*
X031572Y023229D01*
X031572Y023076D02*
X031495Y022999D01*
X031495Y022845D01*
X031572Y022769D01*
X031878Y022769D01*
X031955Y022845D01*
X031955Y022999D01*
X031878Y023076D01*
X031878Y023229D02*
X031955Y023306D01*
X031955Y023459D01*
X031878Y023536D01*
X031725Y023459D02*
X031725Y023383D01*
X030717Y023448D02*
X030640Y023524D01*
X030564Y023524D01*
X030487Y023448D01*
X030410Y023524D01*
X030333Y023524D01*
X030257Y023448D01*
X030257Y023294D01*
X030333Y023217D01*
X030333Y023064D02*
X030257Y022987D01*
X030257Y022834D01*
X030333Y022757D01*
X030640Y022757D01*
X030717Y022834D01*
X030717Y022987D01*
X030640Y023064D01*
X030640Y023217D02*
X030717Y023294D01*
X030717Y023448D01*
X030487Y023448D02*
X030487Y023371D01*
X030640Y023678D02*
X030717Y023754D01*
X030717Y023908D01*
X030640Y023985D01*
X030564Y023985D01*
X030257Y023678D01*
X030257Y023985D01*
D11*
X016345Y022445D02*
X016148Y022445D01*
X016148Y025945D02*
X016345Y025945D01*
M02*
