G75*
%MOIN*%
%OFA0B0*%
%FSLAX24Y24*%
%IPPOS*%
%LPD*%
%AMOC8*
5,1,8,0,0,1.08239X$1,22.5*
%
%ADD10R,0.0157X0.0354*%
%ADD11R,0.0694X0.0693*%
%ADD12R,0.0693X0.0693*%
%ADD13R,0.0694X0.0694*%
%ADD14R,0.0693X0.0694*%
%ADD15C,0.0118*%
%ADD16R,0.0220X0.0102*%
%ADD17R,0.0102X0.0220*%
%ADD18R,0.0157X0.0157*%
%ADD19R,0.0820X0.1500*%
%ADD20R,0.4500X0.3500*%
%ADD21R,0.0394X0.1102*%
%ADD22R,0.0787X0.0787*%
%ADD23R,0.2126X0.2441*%
%ADD24R,0.0394X0.0630*%
%ADD25R,0.0591X0.0512*%
%ADD26R,0.0512X0.0591*%
%ADD27R,0.0480X0.0880*%
%ADD28R,0.1417X0.0866*%
%ADD29R,0.1102X0.0394*%
%ADD30R,0.0709X0.0630*%
%ADD31R,0.0394X0.0551*%
%ADD32R,0.0354X0.0157*%
%ADD33R,0.0551X0.0709*%
%ADD34R,0.0630X0.0709*%
%ADD35R,0.0866X0.0236*%
%ADD36R,0.0787X0.0701*%
%ADD37R,0.0551X0.0827*%
%ADD38R,0.0472X0.0472*%
D10*
X030089Y002545D03*
X030404Y002545D03*
X030719Y002545D03*
X031034Y002545D03*
X031349Y002545D03*
X031664Y002545D03*
X031979Y002545D03*
X032294Y002545D03*
X032609Y002545D03*
X032924Y002545D03*
X033239Y002545D03*
X033554Y002545D03*
X033869Y002545D03*
X034183Y002545D03*
X034498Y002545D03*
X034813Y002545D03*
X035128Y002545D03*
X035443Y002545D03*
X035758Y002545D03*
X036073Y002545D03*
X036388Y002545D03*
X036703Y002545D03*
X036703Y006955D03*
X036388Y006955D03*
X036073Y006955D03*
X035758Y006955D03*
X035443Y006955D03*
X035128Y006955D03*
X034813Y006955D03*
X034498Y006955D03*
X034183Y006955D03*
X033869Y006955D03*
X033554Y006955D03*
X033239Y006955D03*
X032924Y006955D03*
X032609Y006955D03*
X032294Y006955D03*
X031979Y006955D03*
X031664Y006955D03*
X031349Y006955D03*
X031034Y006955D03*
X030719Y006955D03*
X030404Y006955D03*
X030089Y006955D03*
D11*
X032681Y019465D03*
D12*
X033611Y019465D03*
D13*
X032681Y018535D03*
D14*
X033611Y018535D03*
D15*
X037123Y018508D02*
X037595Y018508D01*
X037595Y018705D02*
X037123Y018705D01*
X037123Y018902D02*
X037595Y018902D01*
X037595Y019098D02*
X037123Y019098D01*
X037123Y019295D02*
X037595Y019295D01*
X037595Y019492D02*
X037123Y019492D01*
X037123Y019689D02*
X037595Y019689D01*
X037595Y019886D02*
X037123Y019886D01*
X037123Y020083D02*
X037595Y020083D01*
X037595Y020280D02*
X037123Y020280D01*
X037123Y020476D02*
X037595Y020476D01*
X037595Y020673D02*
X037123Y020673D01*
X037123Y020870D02*
X037595Y020870D01*
X037595Y021067D02*
X037123Y021067D01*
X037123Y021264D02*
X037595Y021264D01*
X037595Y021461D02*
X037123Y021461D01*
X037123Y021657D02*
X037595Y021657D01*
X037595Y021854D02*
X037123Y021854D01*
X037123Y022051D02*
X037595Y022051D01*
X037595Y022248D02*
X037123Y022248D01*
X037123Y022445D02*
X037595Y022445D01*
X036591Y022977D02*
X036591Y023449D01*
X036394Y023449D02*
X036394Y022977D01*
X036197Y022977D02*
X036197Y023449D01*
X036000Y023449D02*
X036000Y022977D01*
X035804Y022977D02*
X035804Y023449D01*
X035607Y023449D02*
X035607Y022977D01*
X035410Y022977D02*
X035410Y023449D01*
X035213Y023449D02*
X035213Y022977D01*
X035016Y022977D02*
X035016Y023449D01*
X034819Y023449D02*
X034819Y022977D01*
X034622Y022977D02*
X034622Y023449D01*
X034426Y023449D02*
X034426Y022977D01*
X034229Y022977D02*
X034229Y023449D01*
X034032Y023449D02*
X034032Y022977D01*
X033835Y022977D02*
X033835Y023449D01*
X033638Y023449D02*
X033638Y022977D01*
X033441Y022977D02*
X033441Y023449D01*
X033244Y023449D02*
X033244Y022977D01*
X033048Y022977D02*
X033048Y023449D01*
X032851Y023449D02*
X032851Y022977D01*
X032654Y022977D02*
X032654Y023449D01*
X032457Y023449D02*
X032457Y022977D01*
X032260Y022977D02*
X032260Y023449D01*
X032063Y023449D02*
X032063Y022977D01*
X031867Y022977D02*
X031867Y023449D01*
X031670Y023449D02*
X031670Y022977D01*
X031473Y022977D02*
X031473Y023449D01*
X031276Y023449D02*
X031276Y022977D01*
X031079Y022977D02*
X031079Y023449D01*
X030882Y023449D02*
X030882Y022977D01*
X030685Y022977D02*
X030685Y023449D01*
X030489Y023449D02*
X030489Y022977D01*
X030292Y022977D02*
X030292Y023449D01*
X030095Y023449D02*
X030095Y022977D01*
X029898Y022977D02*
X029898Y023449D01*
X029701Y023449D02*
X029701Y022977D01*
X029169Y022445D02*
X028697Y022445D01*
X028697Y022248D02*
X029169Y022248D01*
X029169Y022051D02*
X028697Y022051D01*
X028697Y021854D02*
X029169Y021854D01*
X029169Y021657D02*
X028697Y021657D01*
X028697Y021461D02*
X029169Y021461D01*
X029169Y021264D02*
X028697Y021264D01*
X028697Y021067D02*
X029169Y021067D01*
X029169Y020870D02*
X028697Y020870D01*
X028697Y020673D02*
X029169Y020673D01*
X029169Y020476D02*
X028697Y020476D01*
X028697Y020280D02*
X029169Y020280D01*
X029169Y020083D02*
X028697Y020083D01*
X028697Y019886D02*
X029169Y019886D01*
X029169Y019689D02*
X028697Y019689D01*
X028697Y019492D02*
X029169Y019492D01*
X029169Y019295D02*
X028697Y019295D01*
X028697Y019098D02*
X029169Y019098D01*
X029169Y018902D02*
X028697Y018902D01*
X028697Y018705D02*
X029169Y018705D01*
X029169Y018508D02*
X028697Y018508D01*
X028697Y018311D02*
X029169Y018311D01*
X029169Y018114D02*
X028697Y018114D01*
X028697Y017917D02*
X029169Y017917D01*
X029169Y017720D02*
X028697Y017720D01*
X028697Y017524D02*
X029169Y017524D01*
X029169Y017327D02*
X028697Y017327D01*
X028697Y017130D02*
X029169Y017130D01*
X029169Y016933D02*
X028697Y016933D01*
X028697Y016736D02*
X029169Y016736D01*
X029169Y016539D02*
X028697Y016539D01*
X028697Y016343D02*
X029169Y016343D01*
X029169Y016146D02*
X028697Y016146D01*
X028697Y015949D02*
X029169Y015949D01*
X029169Y015752D02*
X028697Y015752D01*
X028697Y015555D02*
X029169Y015555D01*
X029701Y015023D02*
X029701Y014551D01*
X029898Y014551D02*
X029898Y015023D01*
X030095Y015023D02*
X030095Y014551D01*
X030292Y014551D02*
X030292Y015023D01*
X030489Y015023D02*
X030489Y014551D01*
X030685Y014551D02*
X030685Y015023D01*
X030882Y015023D02*
X030882Y014551D01*
X031079Y014551D02*
X031079Y015023D01*
X031276Y015023D02*
X031276Y014551D01*
X031473Y014551D02*
X031473Y015023D01*
X031670Y015023D02*
X031670Y014551D01*
X031867Y014551D02*
X031867Y015023D01*
X032063Y015023D02*
X032063Y014551D01*
X032260Y014551D02*
X032260Y015023D01*
X032457Y015023D02*
X032457Y014551D01*
X032654Y014551D02*
X032654Y015023D01*
X032851Y015023D02*
X032851Y014551D01*
X033048Y014551D02*
X033048Y015023D01*
X033244Y015023D02*
X033244Y014551D01*
X033441Y014551D02*
X033441Y015023D01*
X033638Y015023D02*
X033638Y014551D01*
X033835Y014551D02*
X033835Y015023D01*
X034032Y015023D02*
X034032Y014551D01*
X034229Y014551D02*
X034229Y015023D01*
X034426Y015023D02*
X034426Y014551D01*
X034622Y014551D02*
X034622Y015023D01*
X034819Y015023D02*
X034819Y014551D01*
X035016Y014551D02*
X035016Y015023D01*
X035213Y015023D02*
X035213Y014551D01*
X035410Y014551D02*
X035410Y015023D01*
X035607Y015023D02*
X035607Y014551D01*
X035804Y014551D02*
X035804Y015023D01*
X036000Y015023D02*
X036000Y014551D01*
X036197Y014551D02*
X036197Y015023D01*
X036394Y015023D02*
X036394Y014551D01*
X036591Y014551D02*
X036591Y015023D01*
X037123Y015555D02*
X037595Y015555D01*
X037595Y015752D02*
X037123Y015752D01*
X037123Y015949D02*
X037595Y015949D01*
X037595Y016146D02*
X037123Y016146D01*
X037123Y016343D02*
X037595Y016343D01*
X037595Y016539D02*
X037123Y016539D01*
X037123Y016736D02*
X037595Y016736D01*
X037595Y016933D02*
X037123Y016933D01*
X037123Y017130D02*
X037595Y017130D01*
X037595Y017327D02*
X037123Y017327D01*
X037123Y017524D02*
X037595Y017524D01*
X037595Y017720D02*
X037123Y017720D01*
X037123Y017917D02*
X037595Y017917D01*
X037595Y018114D02*
X037123Y018114D01*
X037123Y018311D02*
X037595Y018311D01*
D16*
X010552Y027909D03*
X010552Y028106D03*
X010552Y028303D03*
X010552Y028500D03*
X010552Y028697D03*
X010552Y028894D03*
X010552Y029091D03*
X010040Y028992D03*
X010040Y028795D03*
X010040Y028598D03*
X010040Y028402D03*
X010040Y028205D03*
X010040Y028008D03*
X009646Y028008D03*
X009646Y028205D03*
X009646Y028402D03*
X009646Y028598D03*
X009646Y028795D03*
X009646Y028992D03*
X009252Y028992D03*
X009252Y028795D03*
X009252Y028598D03*
X009252Y028402D03*
X009252Y028205D03*
X009252Y028008D03*
X008741Y028106D03*
X008741Y027909D03*
X008741Y028303D03*
X008741Y028500D03*
X008741Y028697D03*
X008741Y028894D03*
X008741Y029091D03*
D17*
X009056Y029406D03*
X009252Y029406D03*
X009449Y029406D03*
X009646Y029406D03*
X009843Y029406D03*
X010040Y029406D03*
X010237Y029406D03*
X010237Y027594D03*
X010040Y027594D03*
X009843Y027594D03*
X009646Y027594D03*
X009449Y027594D03*
X009252Y027594D03*
X009056Y027594D03*
D18*
X008819Y029327D03*
D19*
X012146Y032500D03*
X014146Y032500D03*
D20*
X013146Y037000D03*
D21*
X017646Y036075D03*
X017646Y034425D03*
X017646Y032575D03*
X025646Y036075D03*
X025646Y037925D03*
X017646Y037925D03*
D22*
X009933Y034500D03*
X008359Y034500D03*
X014634Y029250D03*
X016209Y029250D03*
D23*
X021646Y036984D03*
D24*
X020748Y034110D03*
X022544Y034110D03*
D25*
X006646Y002376D03*
X006646Y003124D03*
X011146Y004626D03*
X011146Y005374D03*
X012146Y005374D03*
X012146Y004626D03*
X016146Y004626D03*
X016146Y005374D03*
X020146Y005374D03*
X020146Y004626D03*
X024146Y004626D03*
X024146Y005374D03*
X040146Y005376D03*
X040146Y006124D03*
X041646Y006124D03*
X041646Y005376D03*
X041646Y003874D03*
X041646Y003126D03*
X040146Y003126D03*
X040146Y003874D03*
X047463Y007161D03*
X047463Y007909D03*
X047646Y009376D03*
X047646Y010124D03*
X046146Y010124D03*
X046146Y009376D03*
X044646Y009376D03*
X044646Y010124D03*
X043146Y010124D03*
X043146Y009376D03*
X041646Y009376D03*
X041646Y010124D03*
X049146Y010124D03*
X049146Y009376D03*
X050646Y009376D03*
X050646Y010124D03*
X052146Y010124D03*
X052146Y009376D03*
X049646Y022126D03*
X049646Y022874D03*
X049646Y024126D03*
X049646Y024874D03*
X055646Y024874D03*
X055646Y024126D03*
X057146Y030126D03*
X057146Y030874D03*
X057146Y032126D03*
X057146Y032874D03*
X057646Y036626D03*
X057646Y037374D03*
X042146Y026874D03*
X042146Y026126D03*
X040146Y026126D03*
X040146Y026874D03*
X038146Y026874D03*
X038146Y026126D03*
X036146Y026126D03*
X036146Y026874D03*
X039896Y029626D03*
X039896Y030374D03*
X030646Y034126D03*
X030646Y034874D03*
X026646Y034874D03*
X026646Y034126D03*
X015646Y033374D03*
X015646Y032626D03*
X010646Y032626D03*
X010646Y033374D03*
X007146Y026624D03*
X007146Y025876D03*
X014646Y016874D03*
X014646Y016126D03*
D26*
X019022Y015500D03*
X019770Y015500D03*
X021300Y019488D03*
X022048Y019488D03*
X024550Y021994D03*
X025298Y021994D03*
X027575Y025776D03*
X028323Y025776D03*
X019770Y029750D03*
X019022Y029750D03*
X019772Y032500D03*
X020520Y032500D03*
X022272Y032500D03*
X023020Y032500D03*
X010270Y025888D03*
X009522Y025888D03*
X009770Y026750D03*
X009022Y026750D03*
X013772Y021750D03*
X014520Y021750D03*
X006447Y020634D03*
X005699Y020634D03*
X006272Y016000D03*
X007020Y016000D03*
X006020Y013500D03*
X005272Y013500D03*
X005272Y011500D03*
X006020Y011500D03*
X006020Y009500D03*
X005272Y009500D03*
X028522Y003000D03*
X029270Y003000D03*
X029270Y001750D03*
X028522Y001750D03*
X033022Y001500D03*
X033770Y001500D03*
X037522Y002250D03*
X038270Y002250D03*
X031916Y008470D03*
X031168Y008470D03*
X038752Y019913D03*
X039500Y019913D03*
X045522Y027500D03*
X046270Y027500D03*
X047772Y027500D03*
X048520Y027500D03*
X049772Y027500D03*
X050520Y027500D03*
X052272Y026500D03*
X053020Y026500D03*
X053020Y025500D03*
X052272Y025500D03*
X050520Y029500D03*
X049772Y029500D03*
X048520Y029500D03*
X047772Y029500D03*
X046270Y029500D03*
X045522Y029500D03*
X048022Y031500D03*
X048770Y031500D03*
X046270Y032250D03*
X045522Y032250D03*
X048022Y033500D03*
X048770Y033500D03*
X052772Y033500D03*
X053520Y033500D03*
X055516Y030886D03*
X056264Y030886D03*
X044020Y033750D03*
X043272Y033750D03*
X039770Y033500D03*
X039022Y033500D03*
X037270Y033500D03*
X036522Y033500D03*
X054272Y017250D03*
X055020Y017250D03*
X055020Y016000D03*
X054272Y016000D03*
X054272Y014750D03*
X055020Y014750D03*
X055020Y013500D03*
X054272Y013500D03*
X054272Y012250D03*
X055020Y012250D03*
X055020Y011000D03*
X054272Y011000D03*
X054272Y009750D03*
X055020Y009750D03*
X055020Y008500D03*
X054272Y008500D03*
D27*
X033556Y035280D03*
X032646Y035280D03*
X031736Y035280D03*
X029556Y035280D03*
X028646Y035280D03*
X027736Y035280D03*
D28*
X028646Y037720D03*
X032646Y037720D03*
D29*
X031721Y033000D03*
X033571Y033000D03*
X029571Y033000D03*
X027721Y033000D03*
D30*
X008146Y027051D03*
X008146Y025949D03*
D31*
X043396Y007933D03*
X043022Y007067D03*
X043770Y007067D03*
X045522Y007067D03*
X046270Y007067D03*
X045896Y007933D03*
X049272Y007067D03*
X050020Y007067D03*
X049646Y007933D03*
X051772Y007067D03*
X052520Y007067D03*
X052146Y007933D03*
X054022Y028317D03*
X054770Y028317D03*
X054396Y029183D03*
X054022Y030817D03*
X054770Y030817D03*
X054396Y031683D03*
X050770Y031317D03*
X050022Y031317D03*
X050396Y032183D03*
D32*
X038461Y030506D03*
X038461Y029994D03*
X037831Y029994D03*
X037831Y030250D03*
X037831Y030506D03*
D33*
X038727Y032000D03*
X040065Y032000D03*
D34*
X037447Y032000D03*
X036345Y032000D03*
X043095Y032250D03*
X044197Y032250D03*
X049845Y033500D03*
X050947Y033500D03*
X054595Y033500D03*
X055697Y033500D03*
D35*
X054063Y024250D03*
X054063Y023750D03*
X054063Y023250D03*
X054063Y022750D03*
X054063Y022250D03*
X054063Y021750D03*
X054063Y021250D03*
X054063Y020750D03*
X051229Y020750D03*
X051229Y021250D03*
X051229Y021750D03*
X051229Y022250D03*
X051229Y022750D03*
X051229Y023250D03*
X051229Y023750D03*
X051229Y024250D03*
X017979Y024250D03*
X017979Y024750D03*
X017979Y025250D03*
X017979Y025750D03*
X015813Y025750D03*
X015813Y025250D03*
X015813Y024750D03*
X015813Y024250D03*
X015813Y022250D03*
X015813Y021750D03*
X015813Y021250D03*
X015813Y020750D03*
X017979Y020750D03*
X017979Y021250D03*
X017979Y021750D03*
X017979Y022250D03*
D36*
X017683Y017500D03*
X016109Y017500D03*
X016109Y015500D03*
X017683Y015500D03*
D37*
X017260Y005541D03*
X019032Y005541D03*
X021260Y005541D03*
X023032Y005541D03*
X025260Y005541D03*
X027032Y005541D03*
X027032Y001959D03*
X025260Y001959D03*
X023032Y001959D03*
X021260Y001959D03*
X019032Y001959D03*
X017260Y001959D03*
X015032Y001959D03*
X013260Y001959D03*
X009532Y001959D03*
X007760Y001959D03*
X007760Y005541D03*
X009532Y005541D03*
X013260Y005541D03*
X015032Y005541D03*
D38*
X037146Y025837D03*
X037146Y026663D03*
X039146Y026663D03*
X039146Y025837D03*
X041146Y025837D03*
X041146Y026663D03*
X043146Y026663D03*
X043146Y025837D03*
X021809Y029750D03*
X020983Y029750D03*
M02*
