G75*
%MOIN*%
%OFA0B0*%
%FSLAX24Y24*%
%IPPOS*%
%LPD*%
%AMOC8*
5,1,8,0,0,1.08239X$1,22.5*
%
%ADD10OC8,0.0690*%
%ADD11C,0.1386*%
%ADD12C,0.0940*%
%ADD13OC8,0.0671*%
%ADD14C,0.1346*%
%ADD15R,0.0631X0.0631*%
%ADD16R,0.0749X0.0749*%
%ADD17R,0.0671X0.0592*%
%ADD18R,0.0592X0.0671*%
%ADD19R,0.0716X0.0716*%
%ADD20OC8,0.0716*%
%ADD21C,0.2380*%
%ADD22C,0.1651*%
%ADD23C,0.1214*%
%ADD24C,0.0434*%
%ADD25C,0.0356*%
D10*
X005213Y026388D03*
X006000Y026388D03*
X006000Y027372D03*
X005213Y027372D03*
D11*
X004146Y029250D03*
X004146Y024510D03*
D12*
X005716Y034028D02*
X006576Y034028D01*
X004256Y034779D02*
X004256Y035639D01*
X005716Y036390D02*
X006576Y036390D01*
D13*
X046065Y025969D03*
X047050Y025969D03*
X047050Y025142D03*
X047050Y024118D03*
X047050Y023291D03*
X046065Y023291D03*
X046065Y016469D03*
X047050Y016469D03*
X047050Y015642D03*
X047050Y014618D03*
X047050Y013791D03*
X046065Y013791D03*
X046065Y009219D03*
X047050Y009219D03*
X047050Y008392D03*
X047050Y007368D03*
X047050Y006541D03*
X046065Y006541D03*
D14*
X048231Y005223D03*
X048546Y007880D03*
X048231Y010537D03*
X048231Y012473D03*
X048546Y015130D03*
X048231Y017787D03*
X048231Y021973D03*
X048546Y024630D03*
X048231Y027287D03*
D15*
X010138Y037130D03*
X009154Y037130D03*
D16*
X046178Y032849D03*
X046178Y031864D03*
X048146Y030880D03*
X046178Y029896D03*
X046178Y028911D03*
D17*
X022396Y018004D03*
X022396Y017256D03*
X020646Y017293D03*
X020646Y016545D03*
X020646Y015715D03*
X020646Y014967D03*
X019146Y013833D03*
X019146Y013085D03*
X018646Y014967D03*
X018646Y015715D03*
X018646Y016545D03*
X018646Y017293D03*
X019646Y017004D03*
X019646Y016256D03*
X016896Y015004D03*
X016896Y014256D03*
X014191Y012161D03*
X014191Y011413D03*
X014695Y017980D03*
X014695Y018728D03*
X014646Y020506D03*
X014646Y021254D03*
X015646Y021254D03*
X015646Y020506D03*
X016516Y021323D03*
X016516Y022071D03*
X016804Y018951D03*
X016804Y018203D03*
X022646Y015004D03*
X022646Y014256D03*
D18*
X022020Y013380D03*
X021272Y013380D03*
X023772Y011880D03*
X024520Y011880D03*
X024770Y016380D03*
X024022Y016380D03*
X021770Y018880D03*
X021022Y018880D03*
X023522Y019880D03*
X024270Y019880D03*
X024522Y023630D03*
X025270Y023630D03*
X017178Y016612D03*
X016430Y016612D03*
X017522Y013380D03*
X018270Y013380D03*
X018270Y011130D03*
X017522Y011130D03*
X015770Y011380D03*
X015022Y011380D03*
D19*
X002646Y015130D03*
X002646Y006130D03*
D20*
X001646Y006130D03*
X001646Y007130D03*
X001646Y008130D03*
X002646Y008130D03*
X002646Y007130D03*
X002646Y009130D03*
X001646Y009130D03*
X001646Y010130D03*
X002646Y010130D03*
X001646Y015130D03*
X001646Y016130D03*
X002646Y016130D03*
X002646Y017130D03*
X001646Y017130D03*
X001646Y018130D03*
X002646Y018130D03*
X002646Y019130D03*
X001646Y019130D03*
X011896Y004630D03*
X011896Y003630D03*
X012896Y003630D03*
X012896Y004630D03*
X013896Y004630D03*
X013896Y003630D03*
X014896Y003630D03*
X014896Y004630D03*
X015896Y004630D03*
X015896Y003630D03*
X016896Y003630D03*
X016896Y004630D03*
D21*
X002146Y002130D03*
X002146Y037630D03*
X048396Y037630D03*
X048396Y002130D03*
D22*
X044500Y034862D03*
X038792Y034862D03*
D23*
X038792Y037209D03*
X044500Y037209D03*
D24*
X037896Y032880D03*
X037396Y032880D03*
X036896Y032880D03*
X037146Y032380D03*
X037646Y032380D03*
X035146Y031880D03*
X035146Y031380D03*
X034646Y031130D03*
X034146Y031130D03*
X033646Y030880D03*
X033396Y031630D03*
X032896Y031630D03*
X032396Y031630D03*
X032396Y032130D03*
X032396Y032630D03*
X031146Y031880D03*
X031146Y031380D03*
X030646Y031130D03*
X030146Y031130D03*
X029646Y030880D03*
X029146Y031630D03*
X028646Y031630D03*
X028146Y031630D03*
X028146Y032130D03*
X028146Y032630D03*
X026896Y033630D03*
X026396Y033630D03*
X025896Y033630D03*
X025396Y033630D03*
X024896Y033630D03*
X025646Y034630D03*
X026146Y034630D03*
X026646Y034630D03*
X027146Y034630D03*
X027646Y034630D03*
X032146Y035630D03*
X031896Y028880D03*
X033729Y026508D03*
X034201Y026508D03*
X034674Y026508D03*
X038646Y025630D03*
X038646Y023130D03*
X042146Y024130D03*
X044396Y021380D03*
X040896Y016880D03*
X038646Y018130D03*
X038646Y020130D03*
X033126Y019973D03*
X033244Y018949D03*
X033146Y018130D03*
X033244Y017059D03*
X033146Y016130D03*
X028646Y016130D03*
X028646Y017130D03*
X028646Y017880D03*
X028646Y018880D03*
X028646Y019880D03*
X028599Y014539D03*
X028646Y012380D03*
X027396Y011630D03*
X021396Y016130D03*
X019646Y014630D03*
X017896Y016130D03*
X019646Y017630D03*
X017646Y018130D03*
X016804Y019577D03*
X014646Y019880D03*
X014646Y021880D03*
X015646Y021880D03*
X011396Y023380D03*
X008896Y023380D03*
X007896Y022630D03*
X006896Y022880D03*
X008146Y021630D03*
X008396Y020630D03*
X008396Y019880D03*
X009396Y018630D03*
X006396Y019380D03*
X004896Y020130D03*
X003646Y019630D03*
X003646Y021880D03*
X004896Y022130D03*
X002146Y022630D03*
X008396Y027380D03*
X012396Y029380D03*
X012896Y029380D03*
X013396Y029380D03*
X012146Y030880D03*
X011646Y031130D03*
X011646Y031630D03*
X011646Y032130D03*
X011646Y032630D03*
X017146Y030880D03*
X017646Y030880D03*
X018146Y030880D03*
X018646Y030880D03*
X019146Y030880D03*
X014396Y027880D03*
X017146Y034880D03*
X017646Y034880D03*
X018146Y034880D03*
X018646Y034880D03*
X019146Y034880D03*
X020146Y036380D03*
X020646Y036630D03*
X020646Y036130D03*
X020146Y036880D03*
X020646Y037130D03*
X029646Y026380D03*
X042146Y027630D03*
X044396Y028880D03*
X038646Y014880D03*
X040896Y013880D03*
X040896Y011130D03*
X038646Y009130D03*
X040896Y008130D03*
X038646Y006630D03*
X037896Y004380D03*
X035896Y006630D03*
X034646Y004380D03*
X032896Y006630D03*
X031396Y004380D03*
X030146Y006630D03*
X029396Y002630D03*
X027396Y002630D03*
X033087Y012256D03*
X041146Y004380D03*
X044396Y007130D03*
X044646Y013380D03*
X016091Y013673D03*
X010146Y012130D03*
X008896Y013630D03*
X008146Y013630D03*
X006396Y012130D03*
X004396Y011130D03*
X006396Y010130D03*
X005896Y008880D03*
X009146Y006380D03*
X009146Y004380D03*
X008146Y004380D03*
X004396Y013130D03*
X003146Y013880D03*
X004396Y016130D03*
X006396Y016880D03*
X006896Y016130D03*
D25*
X010396Y016630D03*
X011146Y016880D03*
X011146Y018380D03*
X014042Y018752D03*
X014646Y019301D03*
X016170Y018870D03*
X016130Y018398D03*
X017233Y017413D03*
X018646Y017880D03*
X018693Y019118D03*
X018611Y019697D03*
X020107Y019697D03*
X020343Y021193D03*
X019225Y021169D03*
X018896Y021630D03*
X019514Y022130D03*
X019646Y022880D03*
X021485Y021193D03*
X021896Y019630D03*
X022396Y018630D03*
X023138Y018083D03*
X023146Y017380D03*
X022396Y016630D03*
X022396Y015880D03*
X022896Y015630D03*
X021725Y014262D03*
X020646Y014380D03*
X020014Y012945D03*
X020528Y012610D03*
X021506Y012595D03*
X022469Y012571D03*
X022981Y012571D03*
X022587Y013240D03*
X023217Y013791D03*
X024646Y013880D03*
X024634Y012571D03*
X027154Y012925D03*
X026146Y015880D03*
X025514Y016248D03*
X025146Y017020D03*
X024646Y017130D03*
X021764Y017077D03*
X021646Y017880D03*
X020646Y017880D03*
X016896Y015630D03*
X016327Y016036D03*
X016071Y015404D03*
X016260Y014315D03*
X016896Y013630D03*
X016760Y012768D03*
X017646Y012630D03*
X018672Y012595D03*
X016878Y011193D03*
X015396Y012130D03*
X014811Y012264D03*
X014014Y014630D03*
X013396Y014880D03*
X017561Y014264D03*
X018646Y014380D03*
X020396Y010130D03*
X020396Y008630D03*
X019896Y008630D03*
X019396Y008630D03*
X020896Y008630D03*
X026248Y019561D03*
X026396Y020380D03*
X024896Y019880D03*
X023935Y023697D03*
X024646Y025880D03*
X024646Y027380D03*
X024646Y028880D03*
X024646Y030380D03*
X027146Y030380D03*
X027146Y028880D03*
X027146Y027380D03*
X027146Y025880D03*
X035146Y029146D03*
X035658Y029146D03*
X036170Y029146D03*
X036681Y029146D03*
X037154Y029146D03*
X037666Y029146D03*
X038138Y029146D03*
X038650Y029146D03*
X040646Y026130D03*
X040646Y023130D03*
X040646Y014880D03*
X040646Y009130D03*
X017146Y021130D03*
X008965Y025209D03*
X009477Y027728D03*
X010422Y027728D03*
X043138Y032335D03*
X043138Y032689D03*
X043138Y033043D03*
X043138Y033398D03*
M02*
