%
M48
M72
T01C0.0118
T02C0.0197
T03C0.0315
T04C0.0354
T05C0.0374
T06C0.0394
T07C0.0400
T08C0.0433
T09C0.0756
T10C0.0866
T11C0.0906
T12C0.1047
T13C0.1181
%
T01
X14811Y12264
X15396Y12130
X16760Y12768
X16896Y13630
X17561Y14264
X18646Y14380
X16896Y15630
X16327Y16036
X16071Y15404
X16260Y14315
X14014Y14630
X13396Y14880
X11146Y16880
X10396Y16630
X11146Y18380
X14042Y18752
X14646Y19301
X16170Y18870
X16130Y18398
X17233Y17413
X18646Y17880
X18693Y19118
X18611Y19697
X20107Y19697
X20343Y21193
X19225Y21169
X18896Y21630
X19514Y22130
X19646Y22880
X21485Y21193
X21896Y19630
X22396Y18630
X23138Y18083
X23146Y17380
X22396Y16630
X22396Y15880
X22896Y15630
X21725Y14262
X20646Y14380
X20014Y12945
X20528Y12610
X21506Y12595
X22469Y12571
X22981Y12571
X22587Y13240
X23217Y13791
X24646Y13880
X24634Y12571
X27154Y12925
X26146Y15880
X25514Y16248
X25146Y17020
X24646Y17130
X21764Y17077
X21646Y17880
X20646Y17880
X24896Y19880
X26248Y19561
X26396Y20380
X23935Y23697
X24646Y25880
X24646Y27380
X24646Y28880
X24646Y30380
X27146Y30380
X27146Y28880
X27146Y27380
X27146Y25880
X35146Y29146
X35658Y29146
X36170Y29146
X36681Y29146
X37154Y29146
X37666Y29146
X38138Y29146
X38650Y29146
X40646Y26130
X40646Y23130
X40646Y14880
X40646Y9130
X20896Y8630
X20396Y8630
X19896Y8630
X19396Y8630
X20396Y10130
X18672Y12595
X17646Y12630
X16878Y11193
X17146Y21130
X8965Y25209
X9477Y27728
X10422Y27728
X43138Y32335
X43138Y32689
X43138Y33043
X43138Y33398
T02
X37896Y32880
X37396Y32880
X36896Y32880
X37146Y32380
X37646Y32380
X35146Y31880
X35146Y31380
X34646Y31130
X34146Y31130
X33646Y30880
X33396Y31630
X32896Y31630
X32396Y31630
X32396Y32130
X32396Y32630
X31146Y31880
X31146Y31380
X30646Y31130
X30146Y31130
X29646Y30880
X29146Y31630
X28646Y31630
X28146Y31630
X28146Y32130
X28146Y32630
X26896Y33630
X26396Y33630
X25896Y33630
X25396Y33630
X24896Y33630
X25646Y34630
X26146Y34630
X26646Y34630
X27146Y34630
X27646Y34630
X32146Y35630
X31896Y28880
X33729Y26508
X34201Y26508
X34674Y26508
X38646Y25630
X38646Y23130
X42146Y24130
X44396Y21380
X40896Y16880
X38646Y18130
X38646Y20130
X33126Y19973
X33244Y18949
X33146Y18130
X33244Y17059
X33146Y16130
X28646Y16130
X28646Y17130
X28646Y17880
X28646Y18880
X28646Y19880
X28599Y14539
X28646Y12380
X27396Y11630
X21396Y16130
X19646Y14630
X17896Y16130
X19646Y17630
X17646Y18130
X16804Y19577
X14646Y19880
X14646Y21880
X15646Y21880
X11396Y23380
X8896Y23380
X7896Y22630
X6896Y22880
X8146Y21630
X8396Y20630
X8396Y19880
X9396Y18630
X6396Y19380
X4896Y20130
X3646Y19630
X3646Y21880
X4896Y22130
X2146Y22630
X8396Y27380
X12396Y29380
X12896Y29380
X13396Y29380
X12146Y30880
X11646Y31130
X11646Y31630
X11646Y32130
X11646Y32630
X17146Y30880
X17646Y30880
X18146Y30880
X18646Y30880
X19146Y30880
X14396Y27880
X17146Y34880
X17646Y34880
X18146Y34880
X18646Y34880
X19146Y34880
X20146Y36380
X20646Y36630
X20646Y36130
X20146Y36880
X20646Y37130
X29646Y26380
X42146Y27630
X44396Y28880
X38646Y14880
X40896Y13880
X40896Y11130
X38646Y9130
X40896Y8130
X38646Y6630
X37896Y4380
X35896Y6630
X34646Y4380
X32896Y6630
X31396Y4380
X30146Y6630
X29396Y2630
X27396Y2630
X33087Y12256
X41146Y4380
X44396Y7130
X44646Y13380
X16091Y13673
X10146Y12130
X8896Y13630
X8146Y13630
X6396Y12130
X4396Y11130
X6396Y10130
X5896Y8880
X9146Y6380
X9146Y4380
X8146Y4380
X4396Y13130
X3146Y13880
X4396Y16130
X6396Y16880
X6896Y16130
T03
X4256Y35209
X6146Y36390
X9154Y37130
X10138Y37130
T04
X46065Y25969
X47050Y25969
X47050Y25142
X47050Y24118
X47050Y23291
X46065Y23291
X46065Y16469
X47050Y16469
X47050Y15642
X47050Y14618
X47050Y13791
X46065Y13791
X46065Y9219
X47050Y9219
X47050Y8392
X47050Y7368
X47050Y6541
X46065Y6541
T05
X6000Y26388
X5213Y26388
X5213Y27372
X6000Y27372
T06
X6146Y34028
T07
X2646Y19130
X1646Y19130
X1646Y18130
X1646Y17130
X2646Y17130
X2646Y18130
X2646Y16130
X1646Y16130
X1646Y15130
X2646Y15130
X2646Y10130
X1646Y10130
X1646Y9130
X2646Y9130
X2646Y8130
X1646Y8130
X1646Y7130
X2646Y7130
X2646Y6130
X1646Y6130
X11896Y4630
X11896Y3630
X12896Y3630
X12896Y4630
X13896Y4630
X13896Y3630
X14896Y3630
X14896Y4630
X15896Y4630
X15896Y3630
X16896Y3630
X16896Y4630
T08
X46178Y28911
X46178Y29896
X48146Y30880
X46178Y31864
X46178Y32849
T09
X44500Y37209
X38792Y37209
T10
X48231Y27287
X48546Y24630
X48231Y21973
X48231Y17787
X48546Y15130
X48231Y12473
X48231Y10537
X48546Y7880
X48231Y5223
T11
X4146Y24510
X4146Y29250
T12
X38792Y34862
X44500Y34862
T13
X2146Y2130
X2146Y37630
X48396Y37630
X48396Y2130
M30
