G75*
%MOIN*%
%OFA0B0*%
%FSLAX24Y24*%
%IPPOS*%
%LPD*%
%AMOC8*
5,1,8,0,0,1.08239X$1,22.5*
%
%ADD10C,0.0100*%
%ADD11C,0.0020*%
%ADD12C,0.0040*%
%ADD13C,0.0010*%
%ADD14C,0.0039*%
%ADD15C,0.0080*%
%ADD16R,0.0560X0.0980*%
%ADD17C,0.0050*%
%ADD18C,0.0030*%
%ADD19R,0.0295X0.0197*%
%ADD20R,0.0340X0.0300*%
%ADD21C,0.0060*%
%ADD22C,0.0079*%
%ADD23R,0.0118X0.0059*%
%ADD24R,0.0118X0.0118*%
%ADD25C,0.0098*%
%ADD26C,0.0315*%
%ADD27R,0.0260X0.0320*%
D10*
X000150Y024557D02*
X003351Y024557D01*
X004900Y024557D02*
X006351Y024557D01*
X006351Y029203D01*
X004900Y029203D01*
X003351Y029203D02*
X000150Y029203D01*
X000150Y024557D01*
X014260Y029872D02*
X014261Y029985D01*
X014260Y030098D01*
X014260Y030099D02*
X016032Y030099D01*
X016032Y029872D01*
X016032Y028888D02*
X016032Y028661D01*
X014260Y028661D01*
X014260Y028888D01*
X010532Y033411D02*
X008760Y033411D01*
X008760Y033638D01*
X010532Y033638D02*
X010532Y033411D01*
X011626Y034020D02*
X011626Y034720D01*
X011626Y034020D02*
X015666Y034020D01*
X015666Y034720D01*
X010532Y034622D02*
X010532Y034849D01*
X008760Y034849D01*
X008760Y034848D02*
X008761Y034735D01*
X008760Y034622D01*
D11*
X004433Y028390D02*
X003646Y028390D01*
X003646Y028144D01*
X003646Y027849D01*
X003648Y027822D01*
X003653Y027796D01*
X003662Y027771D01*
X003675Y027747D01*
X003690Y027725D01*
X003709Y027705D01*
X003729Y027688D01*
X003752Y027674D01*
X003777Y027663D01*
X003803Y027656D01*
X003830Y027652D01*
X003856Y027652D01*
X003883Y027656D01*
X003909Y027663D01*
X003934Y027674D01*
X003957Y027688D01*
X003977Y027705D01*
X003996Y027725D01*
X004011Y027747D01*
X004024Y027771D01*
X004033Y027796D01*
X004038Y027822D01*
X004040Y027849D01*
X004237Y027849D02*
X004040Y028144D01*
X003843Y027849D01*
X003646Y028144D01*
X004040Y028144D01*
X004433Y028144D01*
X004433Y027849D01*
X004434Y027849D02*
X004432Y027822D01*
X004427Y027796D01*
X004418Y027771D01*
X004405Y027747D01*
X004390Y027725D01*
X004371Y027705D01*
X004351Y027688D01*
X004328Y027674D01*
X004303Y027663D01*
X004277Y027656D01*
X004250Y027652D01*
X004224Y027652D01*
X004197Y027656D01*
X004171Y027663D01*
X004146Y027674D01*
X004123Y027688D01*
X004103Y027705D01*
X004084Y027725D01*
X004069Y027747D01*
X004056Y027771D01*
X004047Y027796D01*
X004042Y027822D01*
X004040Y027849D01*
X004237Y027849D02*
X004433Y028144D01*
X004433Y028390D01*
X004433Y027553D02*
X003646Y027553D01*
X003646Y026864D01*
X003843Y026864D01*
X003843Y027307D01*
X003941Y027307D01*
X003941Y026864D01*
X004138Y026864D01*
X004138Y027307D01*
X004237Y027307D01*
X004237Y026864D01*
X004433Y026864D01*
X004433Y027553D01*
X004433Y026766D02*
X003646Y026766D01*
X003646Y026520D01*
X003941Y026520D01*
X003646Y026323D01*
X003646Y026028D01*
X003941Y026224D01*
X004089Y026372D02*
X004089Y026520D01*
X004237Y026520D01*
X004237Y026372D01*
X004235Y026357D01*
X004231Y026342D01*
X004223Y026329D01*
X004213Y026317D01*
X004200Y026308D01*
X004186Y026302D01*
X004171Y026298D01*
X004155Y026298D01*
X004140Y026302D01*
X004126Y026308D01*
X004113Y026317D01*
X004103Y026329D01*
X004095Y026342D01*
X004091Y026357D01*
X004089Y026372D01*
X003941Y026224D02*
X003943Y026194D01*
X003948Y026165D01*
X003957Y026137D01*
X003969Y026110D01*
X003985Y026084D01*
X004003Y026061D01*
X004024Y026040D01*
X004047Y026022D01*
X004073Y026006D01*
X004100Y025994D01*
X004128Y025985D01*
X004157Y025980D01*
X004187Y025978D01*
X004217Y025980D01*
X004246Y025985D01*
X004274Y025994D01*
X004301Y026006D01*
X004327Y026022D01*
X004350Y026040D01*
X004371Y026061D01*
X004389Y026084D01*
X004405Y026110D01*
X004417Y026137D01*
X004426Y026165D01*
X004431Y026194D01*
X004433Y026224D01*
X004433Y026766D01*
X003646Y025536D02*
X003648Y025476D01*
X003654Y025416D01*
X003664Y025357D01*
X003678Y025298D01*
X003695Y025241D01*
X003695Y025240D02*
X004040Y025240D01*
X004040Y025437D01*
X004237Y025437D02*
X004235Y025464D01*
X004230Y025490D01*
X004221Y025515D01*
X004208Y025539D01*
X004193Y025561D01*
X004174Y025581D01*
X004154Y025598D01*
X004131Y025612D01*
X004106Y025623D01*
X004080Y025630D01*
X004053Y025634D01*
X004027Y025634D01*
X004000Y025630D01*
X003974Y025623D01*
X003949Y025612D01*
X003926Y025598D01*
X003906Y025581D01*
X003887Y025561D01*
X003872Y025539D01*
X003859Y025515D01*
X003850Y025490D01*
X003845Y025464D01*
X003843Y025437D01*
X004040Y025437D01*
X004434Y025536D02*
X004432Y025575D01*
X004426Y025613D01*
X004417Y025650D01*
X004404Y025687D01*
X004387Y025722D01*
X004368Y025755D01*
X004345Y025786D01*
X004319Y025815D01*
X004290Y025841D01*
X004259Y025864D01*
X004226Y025883D01*
X004191Y025900D01*
X004154Y025913D01*
X004117Y025922D01*
X004079Y025928D01*
X004040Y025930D01*
X004001Y025928D01*
X003963Y025922D01*
X003926Y025913D01*
X003889Y025900D01*
X003854Y025883D01*
X003821Y025864D01*
X003790Y025841D01*
X003761Y025815D01*
X003735Y025786D01*
X003712Y025755D01*
X003693Y025722D01*
X003676Y025687D01*
X003663Y025650D01*
X003654Y025613D01*
X003648Y025575D01*
X003646Y025536D01*
X004236Y025437D02*
X004241Y025388D01*
X004243Y025339D01*
X004241Y025290D01*
X004236Y025241D01*
X004237Y025242D02*
X004412Y025242D01*
X004412Y025236D02*
X004423Y025310D01*
X004430Y025385D01*
X004434Y025460D01*
X004433Y025535D01*
D12*
X005916Y024170D02*
X005916Y024016D01*
X005992Y023940D01*
X005916Y024170D02*
X005992Y024247D01*
X006069Y024247D01*
X006376Y023940D01*
X006376Y024247D01*
X006376Y023786D02*
X006376Y023479D01*
X006376Y023633D02*
X005916Y023633D01*
X006069Y023479D01*
X005992Y023326D02*
X005916Y023249D01*
X005916Y023096D01*
X005992Y023019D01*
X006299Y023019D01*
X006376Y023096D01*
X006376Y023249D01*
X006299Y023326D01*
X006666Y021660D02*
X006666Y021277D01*
X006743Y021200D01*
X006896Y021200D01*
X006973Y021277D01*
X006973Y021660D01*
X007126Y021584D02*
X007203Y021660D01*
X007357Y021660D01*
X007433Y021584D01*
X007357Y021430D02*
X007203Y021430D01*
X007126Y021507D01*
X007126Y021584D01*
X007280Y021737D02*
X007280Y021123D01*
X007357Y021200D02*
X007433Y021277D01*
X007433Y021353D01*
X007357Y021430D01*
X007357Y021200D02*
X007203Y021200D01*
X007126Y021277D01*
X007587Y021200D02*
X007894Y021200D01*
X007740Y021200D02*
X007740Y021660D01*
X007587Y021507D01*
X008916Y022150D02*
X008916Y022610D01*
X009146Y022610D01*
X009223Y022534D01*
X009223Y022380D01*
X009146Y022303D01*
X008916Y022303D01*
X009070Y022303D02*
X009223Y022150D01*
X009376Y022227D02*
X009453Y022150D01*
X009607Y022150D01*
X009683Y022227D01*
X009683Y022380D01*
X009607Y022457D01*
X009530Y022457D01*
X009376Y022380D01*
X009376Y022610D01*
X009683Y022610D01*
X009837Y022610D02*
X010144Y022610D01*
X010144Y022534D01*
X009837Y022227D01*
X009837Y022150D01*
X010916Y022727D02*
X010993Y022650D01*
X011146Y022650D01*
X011223Y022727D01*
X011376Y022650D02*
X011683Y022650D01*
X011530Y022650D02*
X011530Y023110D01*
X011376Y022957D01*
X011223Y023034D02*
X011146Y023110D01*
X010993Y023110D01*
X010916Y023034D01*
X010916Y022727D01*
X011837Y022727D02*
X011914Y022650D01*
X012067Y022650D01*
X012144Y022727D01*
X012144Y022803D01*
X012067Y022880D01*
X011990Y022880D01*
X012067Y022880D02*
X012144Y022957D01*
X012144Y023034D01*
X012067Y023110D01*
X011914Y023110D01*
X011837Y023034D01*
X011183Y024150D02*
X010876Y024150D01*
X010723Y024150D02*
X010570Y024303D01*
X010646Y024303D02*
X010416Y024303D01*
X010416Y024150D02*
X010416Y024610D01*
X010646Y024610D01*
X010723Y024534D01*
X010723Y024380D01*
X010646Y024303D01*
X010876Y024457D02*
X011030Y024610D01*
X011030Y024150D01*
X008126Y024846D02*
X008126Y024999D01*
X008049Y025076D01*
X008126Y025229D02*
X008126Y025536D01*
X008126Y025383D02*
X007666Y025383D01*
X007819Y025229D01*
X007742Y025076D02*
X007666Y024999D01*
X007666Y024846D01*
X007742Y024769D01*
X008049Y024769D01*
X008126Y024846D01*
X007896Y025690D02*
X007896Y025997D01*
X008126Y025920D02*
X007666Y025920D01*
X007896Y025690D01*
X008916Y027400D02*
X009070Y027400D01*
X008993Y027400D02*
X008993Y027860D01*
X008916Y027860D02*
X009070Y027860D01*
X009223Y027784D02*
X009223Y027477D01*
X009300Y027400D01*
X009453Y027400D01*
X009530Y027477D01*
X009683Y027400D02*
X009990Y027707D01*
X009990Y027784D01*
X009914Y027860D01*
X009760Y027860D01*
X009683Y027784D01*
X009530Y027784D02*
X009453Y027860D01*
X009300Y027860D01*
X009223Y027784D01*
X009683Y027400D02*
X009990Y027400D01*
X007126Y028479D02*
X006666Y028786D01*
X006819Y028940D02*
X006666Y029093D01*
X007126Y029093D01*
X007126Y028940D02*
X007126Y029247D01*
X007126Y028786D02*
X006666Y028479D01*
X009993Y031900D02*
X010146Y031900D01*
X010223Y031977D01*
X010376Y032130D02*
X010683Y032130D01*
X010607Y031900D02*
X010607Y032360D01*
X010376Y032130D01*
X010223Y032284D02*
X010146Y032360D01*
X009993Y032360D01*
X009916Y032284D01*
X009916Y031977D01*
X009993Y031900D01*
X010312Y036242D02*
X010312Y036549D01*
X010465Y036396D02*
X010158Y036396D01*
X010312Y037719D02*
X010312Y038026D01*
X010158Y037872D02*
X010465Y037872D01*
X011466Y038577D02*
X011543Y038500D01*
X011696Y038500D01*
X011773Y038577D01*
X011773Y038960D01*
X011926Y038884D02*
X012003Y038960D01*
X012157Y038960D01*
X012233Y038884D01*
X012157Y038730D02*
X012003Y038730D01*
X011926Y038807D01*
X011926Y038884D01*
X012080Y039037D02*
X012080Y038423D01*
X012157Y038500D02*
X012233Y038577D01*
X012233Y038653D01*
X012157Y038730D01*
X012387Y038730D02*
X012387Y038960D01*
X012694Y038960D01*
X012617Y038807D02*
X012694Y038730D01*
X012694Y038577D01*
X012617Y038500D01*
X012464Y038500D01*
X012387Y038577D01*
X012387Y038730D02*
X012540Y038807D01*
X012617Y038807D01*
X012157Y038500D02*
X012003Y038500D01*
X011926Y038577D01*
X011466Y038577D02*
X011466Y038960D01*
X008626Y038922D02*
X008166Y038922D01*
X008319Y038768D01*
X008166Y038615D02*
X008166Y038461D01*
X008166Y038538D02*
X008549Y038538D01*
X008626Y038461D01*
X008626Y038385D01*
X008549Y038308D01*
X008626Y038768D02*
X008626Y039075D01*
X016867Y037845D02*
X016867Y035600D01*
X017831Y035600D01*
X018422Y035600D02*
X019426Y035600D01*
X019426Y037845D01*
X019111Y038160D01*
X018451Y038061D02*
X018517Y038042D01*
X018583Y038019D01*
X018647Y037992D01*
X018709Y037962D01*
X018770Y037928D01*
X018828Y037892D01*
X018884Y037851D01*
X018938Y037808D01*
X018990Y037762D01*
X019038Y037712D01*
X019084Y037660D01*
X019127Y037606D01*
X019166Y037549D01*
X019203Y037490D01*
X019236Y037429D01*
X019265Y037367D01*
X019291Y037303D01*
X019313Y037237D01*
X019331Y037170D01*
X019346Y037103D01*
X019356Y037034D01*
X019363Y036965D01*
X019366Y036896D01*
X019365Y036827D01*
X019360Y036758D01*
X019351Y036689D01*
X019338Y036621D01*
X019321Y036554D01*
X019301Y036488D01*
X019277Y036423D01*
X019249Y036360D01*
X019218Y036298D01*
X019183Y036239D01*
X019145Y036181D01*
X019103Y036125D01*
X019059Y036072D01*
X019011Y036022D01*
X018961Y035974D01*
X018908Y035930D01*
X018853Y035888D01*
X018796Y035849D01*
X018736Y035814D01*
X018674Y035783D01*
X018611Y035755D01*
X018547Y035730D01*
X018481Y035709D01*
X017841Y035699D02*
X017775Y035718D01*
X017709Y035741D01*
X017645Y035768D01*
X017583Y035798D01*
X017522Y035832D01*
X017464Y035868D01*
X017408Y035909D01*
X017354Y035952D01*
X017302Y035998D01*
X017254Y036048D01*
X017208Y036100D01*
X017165Y036154D01*
X017126Y036211D01*
X017089Y036270D01*
X017056Y036331D01*
X017027Y036393D01*
X017001Y036457D01*
X016979Y036523D01*
X016961Y036590D01*
X016946Y036657D01*
X016936Y036726D01*
X016929Y036795D01*
X016926Y036864D01*
X016927Y036933D01*
X016932Y037002D01*
X016941Y037071D01*
X016954Y037139D01*
X016971Y037206D01*
X016991Y037272D01*
X017015Y037337D01*
X017043Y037400D01*
X017074Y037462D01*
X017109Y037521D01*
X017147Y037579D01*
X017189Y037635D01*
X017233Y037688D01*
X017281Y037738D01*
X017331Y037786D01*
X017384Y037830D01*
X017439Y037872D01*
X017496Y037911D01*
X017556Y037946D01*
X017618Y037977D01*
X017681Y038005D01*
X017745Y038030D01*
X017811Y038051D01*
X017181Y038160D02*
X016867Y037845D01*
X020666Y035878D02*
X020666Y035571D01*
X020742Y035417D02*
X020666Y035341D01*
X020666Y035187D01*
X020742Y035110D01*
X020819Y035110D01*
X020896Y035187D01*
X020896Y035341D01*
X020973Y035417D01*
X021049Y035417D01*
X021126Y035341D01*
X021126Y035187D01*
X021049Y035110D01*
X021049Y034957D02*
X020666Y034957D01*
X020666Y034650D02*
X021049Y034650D01*
X021126Y034727D01*
X021126Y034880D01*
X021049Y034957D01*
X021203Y035264D02*
X020589Y035264D01*
X021049Y035571D02*
X020742Y035878D01*
X020666Y035878D01*
X021049Y035571D02*
X021126Y035571D01*
X019426Y033845D02*
X019426Y031600D01*
X018422Y031600D01*
X017831Y031600D02*
X016867Y031600D01*
X016867Y033845D01*
X017181Y034160D01*
X017811Y034051D02*
X017745Y034030D01*
X017681Y034005D01*
X017618Y033977D01*
X017556Y033946D01*
X017496Y033911D01*
X017439Y033872D01*
X017384Y033830D01*
X017331Y033786D01*
X017281Y033738D01*
X017233Y033688D01*
X017189Y033635D01*
X017147Y033579D01*
X017109Y033521D01*
X017074Y033462D01*
X017043Y033400D01*
X017015Y033337D01*
X016991Y033272D01*
X016971Y033206D01*
X016954Y033139D01*
X016941Y033071D01*
X016932Y033002D01*
X016927Y032933D01*
X016926Y032864D01*
X016929Y032795D01*
X016936Y032726D01*
X016946Y032657D01*
X016961Y032590D01*
X016979Y032523D01*
X017001Y032457D01*
X017027Y032393D01*
X017056Y032331D01*
X017089Y032270D01*
X017126Y032211D01*
X017165Y032154D01*
X017208Y032100D01*
X017254Y032048D01*
X017302Y031998D01*
X017354Y031952D01*
X017408Y031909D01*
X017464Y031868D01*
X017522Y031832D01*
X017583Y031798D01*
X017645Y031768D01*
X017709Y031741D01*
X017775Y031718D01*
X017841Y031699D01*
X018481Y031709D02*
X018547Y031730D01*
X018611Y031755D01*
X018674Y031783D01*
X018736Y031814D01*
X018796Y031849D01*
X018853Y031888D01*
X018908Y031930D01*
X018961Y031974D01*
X019011Y032022D01*
X019059Y032072D01*
X019103Y032125D01*
X019145Y032181D01*
X019183Y032239D01*
X019218Y032298D01*
X019249Y032360D01*
X019277Y032423D01*
X019301Y032488D01*
X019321Y032554D01*
X019338Y032621D01*
X019351Y032689D01*
X019360Y032758D01*
X019365Y032827D01*
X019366Y032896D01*
X019363Y032965D01*
X019356Y033034D01*
X019346Y033103D01*
X019331Y033170D01*
X019313Y033237D01*
X019291Y033303D01*
X019265Y033367D01*
X019236Y033429D01*
X019203Y033490D01*
X019166Y033549D01*
X019127Y033606D01*
X019084Y033660D01*
X019038Y033712D01*
X018990Y033762D01*
X018938Y033808D01*
X018884Y033851D01*
X018828Y033892D01*
X018770Y033928D01*
X018709Y033962D01*
X018647Y033992D01*
X018583Y034019D01*
X018517Y034042D01*
X018451Y034061D01*
X019111Y034160D02*
X019426Y033845D01*
X016376Y031420D02*
X016376Y031266D01*
X016299Y031190D01*
X016146Y031190D02*
X016069Y031343D01*
X016069Y031420D01*
X016146Y031497D01*
X016299Y031497D01*
X016376Y031420D01*
X016146Y031190D02*
X015916Y031190D01*
X015916Y031497D01*
X015992Y031036D02*
X015916Y030959D01*
X015916Y030806D01*
X015992Y030729D01*
X016299Y030729D01*
X016376Y030806D01*
X016376Y030959D01*
X016299Y031036D01*
X016785Y028860D02*
X017015Y028860D01*
X017092Y028784D01*
X017092Y028630D01*
X017015Y028553D01*
X016785Y028553D01*
X016785Y028400D02*
X016785Y028860D01*
X016938Y028553D02*
X017092Y028400D01*
X017245Y028477D02*
X017322Y028400D01*
X017475Y028400D01*
X017552Y028477D01*
X017552Y028630D01*
X017475Y028707D01*
X017399Y028707D01*
X017245Y028630D01*
X017245Y028860D01*
X017552Y028860D01*
X017706Y028630D02*
X017936Y028630D01*
X018013Y028553D01*
X018013Y028477D01*
X017936Y028400D01*
X017782Y028400D01*
X017706Y028477D01*
X017706Y028630D01*
X017859Y028784D01*
X018013Y028860D01*
X016513Y027284D02*
X016436Y027360D01*
X016206Y027360D01*
X016206Y026900D01*
X016206Y027053D02*
X016436Y027053D01*
X016513Y027130D01*
X016513Y027284D01*
X016359Y027053D02*
X016513Y026900D01*
X016052Y026900D02*
X015745Y026900D01*
X015745Y027360D01*
X016052Y027360D01*
X015899Y027130D02*
X015745Y027130D01*
X015592Y026900D02*
X015438Y027053D01*
X015285Y026900D01*
X015285Y027360D01*
X015131Y027284D02*
X015055Y027360D01*
X014901Y027360D01*
X014824Y027284D01*
X014824Y026977D01*
X014901Y026900D01*
X015055Y026900D01*
X015131Y026977D01*
X015131Y027284D01*
X014671Y027284D02*
X014594Y027360D01*
X014364Y027360D01*
X014364Y026900D01*
X014364Y027053D02*
X014594Y027053D01*
X014671Y027130D01*
X014671Y027284D01*
X015592Y027360D02*
X015592Y026900D01*
X023416Y026803D02*
X023646Y026803D01*
X023723Y026880D01*
X023723Y027034D01*
X023646Y027110D01*
X023416Y027110D01*
X023416Y026650D01*
X023570Y026803D02*
X023723Y026650D01*
X023876Y026650D02*
X024183Y026650D01*
X024030Y026650D02*
X024030Y027110D01*
X023876Y026957D01*
X024337Y026957D02*
X024414Y026880D01*
X024644Y026880D01*
X024644Y026727D02*
X024644Y027034D01*
X024567Y027110D01*
X024414Y027110D01*
X024337Y027034D01*
X024337Y026957D01*
X024337Y026727D02*
X024414Y026650D01*
X024567Y026650D01*
X024644Y026727D01*
X025916Y026803D02*
X026146Y026803D01*
X026223Y026880D01*
X026223Y027034D01*
X026146Y027110D01*
X025916Y027110D01*
X025916Y026650D01*
X026070Y026803D02*
X026223Y026650D01*
X026376Y026650D02*
X026683Y026650D01*
X026530Y026650D02*
X026530Y027110D01*
X026376Y026957D01*
X026837Y026957D02*
X026914Y026880D01*
X027067Y026880D01*
X027144Y026803D01*
X027144Y026727D01*
X027067Y026650D01*
X026914Y026650D01*
X026837Y026727D01*
X026837Y026803D01*
X026914Y026880D01*
X026837Y026957D02*
X026837Y027034D01*
X026914Y027110D01*
X027067Y027110D01*
X027144Y027034D01*
X027144Y026957D01*
X027067Y026880D01*
X026607Y028150D02*
X026607Y028610D01*
X026376Y028380D01*
X026683Y028380D01*
X026223Y028380D02*
X026223Y028534D01*
X026146Y028610D01*
X025916Y028610D01*
X025916Y028150D01*
X025916Y028303D02*
X026146Y028303D01*
X026223Y028380D01*
X026070Y028303D02*
X026223Y028150D01*
X026223Y029650D02*
X026070Y029803D01*
X026146Y029803D02*
X025916Y029803D01*
X025916Y029650D02*
X025916Y030110D01*
X026146Y030110D01*
X026223Y030034D01*
X026223Y029880D01*
X026146Y029803D01*
X026376Y029803D02*
X026453Y029880D01*
X026607Y029880D01*
X026683Y029803D01*
X026683Y029727D01*
X026607Y029650D01*
X026453Y029650D01*
X026376Y029727D01*
X026376Y029803D01*
X026453Y029880D02*
X026376Y029957D01*
X026376Y030034D01*
X026453Y030110D01*
X026607Y030110D01*
X026683Y030034D01*
X026683Y029957D01*
X026607Y029880D01*
X026683Y031150D02*
X026376Y031150D01*
X026223Y031150D02*
X026070Y031303D01*
X026146Y031303D02*
X025916Y031303D01*
X025916Y031150D02*
X025916Y031610D01*
X026146Y031610D01*
X026223Y031534D01*
X026223Y031380D01*
X026146Y031303D01*
X026376Y031457D02*
X026530Y031610D01*
X026530Y031150D01*
X026837Y031227D02*
X026914Y031150D01*
X027067Y031150D01*
X027144Y031227D01*
X027144Y031303D01*
X027067Y031380D01*
X026837Y031380D01*
X026837Y031227D01*
X026837Y031380D02*
X026990Y031534D01*
X027144Y031610D01*
X028867Y031350D02*
X028867Y032354D01*
X028867Y032945D02*
X028867Y033910D01*
X031111Y033910D01*
X031426Y033595D01*
X031549Y033650D02*
X031626Y033727D01*
X031626Y033880D01*
X031549Y033957D01*
X031549Y034110D02*
X031626Y034187D01*
X031626Y034341D01*
X031549Y034417D01*
X031242Y034417D01*
X031166Y034341D01*
X031166Y034187D01*
X031242Y034110D01*
X031319Y034110D01*
X031396Y034187D01*
X031396Y034417D01*
X031242Y033957D02*
X031166Y033880D01*
X031166Y033727D01*
X031242Y033650D01*
X031549Y033650D01*
X030708Y034450D02*
X030615Y034450D01*
X030568Y034497D01*
X030661Y034590D02*
X030708Y034590D01*
X030755Y034543D01*
X030755Y034497D01*
X030708Y034450D01*
X030708Y034590D02*
X030755Y034637D01*
X030755Y034684D01*
X030708Y034730D01*
X030615Y034730D01*
X030568Y034684D01*
X029845Y034680D02*
X029798Y034727D01*
X029705Y034727D01*
X029658Y034680D01*
X029845Y034680D02*
X029845Y034633D01*
X029658Y034446D01*
X029845Y034446D01*
X028994Y034450D02*
X028807Y034450D01*
X028900Y034450D02*
X028900Y034730D01*
X028807Y034637D01*
X027926Y035350D02*
X026922Y035350D01*
X026331Y035350D02*
X025367Y035350D01*
X025367Y037595D01*
X025681Y037910D01*
X026311Y037801D02*
X026245Y037780D01*
X026181Y037755D01*
X026118Y037727D01*
X026056Y037696D01*
X025996Y037661D01*
X025939Y037622D01*
X025884Y037580D01*
X025831Y037536D01*
X025781Y037488D01*
X025733Y037438D01*
X025689Y037385D01*
X025647Y037329D01*
X025609Y037271D01*
X025574Y037212D01*
X025543Y037150D01*
X025515Y037087D01*
X025491Y037022D01*
X025471Y036956D01*
X025454Y036889D01*
X025441Y036821D01*
X025432Y036752D01*
X025427Y036683D01*
X025426Y036614D01*
X025429Y036545D01*
X025436Y036476D01*
X025446Y036407D01*
X025461Y036340D01*
X025479Y036273D01*
X025501Y036207D01*
X025527Y036143D01*
X025556Y036081D01*
X025589Y036020D01*
X025626Y035961D01*
X025665Y035904D01*
X025708Y035850D01*
X025754Y035798D01*
X025802Y035748D01*
X025854Y035702D01*
X025908Y035659D01*
X025964Y035618D01*
X026022Y035582D01*
X026083Y035548D01*
X026145Y035518D01*
X026209Y035491D01*
X026275Y035468D01*
X026341Y035449D01*
X026981Y035459D02*
X027047Y035480D01*
X027111Y035505D01*
X027174Y035533D01*
X027236Y035564D01*
X027296Y035599D01*
X027353Y035638D01*
X027408Y035680D01*
X027461Y035724D01*
X027511Y035772D01*
X027559Y035822D01*
X027603Y035875D01*
X027645Y035931D01*
X027683Y035989D01*
X027718Y036048D01*
X027749Y036110D01*
X027777Y036173D01*
X027801Y036238D01*
X027821Y036304D01*
X027838Y036371D01*
X027851Y036439D01*
X027860Y036508D01*
X027865Y036577D01*
X027866Y036646D01*
X027863Y036715D01*
X027856Y036784D01*
X027846Y036853D01*
X027831Y036920D01*
X027813Y036987D01*
X027791Y037053D01*
X027765Y037117D01*
X027736Y037179D01*
X027703Y037240D01*
X027666Y037299D01*
X027627Y037356D01*
X027584Y037410D01*
X027538Y037462D01*
X027490Y037512D01*
X027438Y037558D01*
X027384Y037601D01*
X027328Y037642D01*
X027270Y037678D01*
X027209Y037712D01*
X027147Y037742D01*
X027083Y037769D01*
X027017Y037792D01*
X026951Y037811D01*
X027611Y037910D02*
X027926Y037595D01*
X027926Y035350D01*
X029166Y036247D02*
X029166Y036630D01*
X029473Y036630D02*
X029473Y036247D01*
X029396Y036170D01*
X029243Y036170D01*
X029166Y036247D01*
X029626Y036247D02*
X029703Y036170D01*
X029857Y036170D01*
X029933Y036247D01*
X029933Y036323D01*
X029857Y036400D01*
X029703Y036400D01*
X029626Y036477D01*
X029626Y036554D01*
X029703Y036630D01*
X029857Y036630D01*
X029933Y036554D01*
X030087Y036554D02*
X030087Y036477D01*
X030164Y036400D01*
X030317Y036400D01*
X030394Y036323D01*
X030394Y036247D01*
X030317Y036170D01*
X030164Y036170D01*
X030087Y036247D01*
X030087Y036323D01*
X030164Y036400D01*
X030317Y036400D02*
X030394Y036477D01*
X030394Y036554D01*
X030317Y036630D01*
X030164Y036630D01*
X030087Y036554D01*
X029780Y036707D02*
X029780Y036093D01*
X030916Y037290D02*
X031103Y037290D01*
X031056Y037150D02*
X031056Y037430D01*
X030916Y037290D01*
X032666Y037266D02*
X032742Y037190D01*
X032819Y037190D01*
X032896Y037266D01*
X032896Y037420D01*
X032973Y037497D01*
X033049Y037497D01*
X033126Y037420D01*
X033126Y037266D01*
X033049Y037190D01*
X032973Y037190D01*
X032896Y037266D01*
X032896Y037420D02*
X032819Y037497D01*
X032742Y037497D01*
X032666Y037420D01*
X032666Y037266D01*
X032742Y037036D02*
X032666Y036959D01*
X032666Y036806D01*
X032742Y036729D01*
X033049Y036729D01*
X033126Y036806D01*
X033126Y036959D01*
X033049Y037036D01*
X033205Y036630D02*
X033205Y036247D01*
X033282Y036170D01*
X033436Y036170D01*
X033512Y036247D01*
X033512Y036630D01*
X033666Y036554D02*
X033743Y036630D01*
X033896Y036630D01*
X033973Y036554D01*
X034126Y036554D02*
X034126Y036477D01*
X034203Y036400D01*
X034433Y036400D01*
X034433Y036247D02*
X034433Y036554D01*
X034356Y036630D01*
X034203Y036630D01*
X034126Y036554D01*
X033896Y036400D02*
X033743Y036400D01*
X033666Y036477D01*
X033666Y036554D01*
X033819Y036707D02*
X033819Y036093D01*
X033743Y036170D02*
X033896Y036170D01*
X033973Y036247D01*
X033973Y036323D01*
X033896Y036400D01*
X033666Y036247D02*
X033743Y036170D01*
X034126Y036247D02*
X034203Y036170D01*
X034356Y036170D01*
X034433Y036247D01*
X035096Y037150D02*
X035096Y037430D01*
X034955Y037290D01*
X035142Y037290D01*
X035666Y035917D02*
X035742Y035764D01*
X035896Y035610D01*
X035896Y035841D01*
X035973Y035917D01*
X036049Y035917D01*
X036126Y035841D01*
X036126Y035687D01*
X036049Y035610D01*
X035896Y035610D01*
X036049Y035457D02*
X036126Y035380D01*
X036126Y035227D01*
X036049Y035150D01*
X035742Y035150D01*
X035666Y035227D01*
X035666Y035380D01*
X035742Y035457D01*
X034794Y034684D02*
X034794Y034637D01*
X034747Y034590D01*
X034794Y034543D01*
X034794Y034497D01*
X034747Y034450D01*
X034654Y034450D01*
X034607Y034497D01*
X034701Y034590D02*
X034747Y034590D01*
X034794Y034684D02*
X034747Y034730D01*
X034654Y034730D01*
X034607Y034684D01*
X033884Y034680D02*
X033837Y034727D01*
X033744Y034727D01*
X033697Y034680D01*
X033884Y034680D02*
X033884Y034633D01*
X033697Y034446D01*
X033884Y034446D01*
X033033Y034450D02*
X032846Y034450D01*
X032940Y034450D02*
X032940Y034730D01*
X032846Y034637D01*
X032945Y033910D02*
X035189Y033910D01*
X035504Y033595D01*
X035396Y032965D02*
X035375Y033031D01*
X035350Y033095D01*
X035322Y033158D01*
X035291Y033220D01*
X035256Y033280D01*
X035217Y033337D01*
X035175Y033392D01*
X035131Y033445D01*
X035083Y033495D01*
X035033Y033543D01*
X034980Y033587D01*
X034924Y033629D01*
X034866Y033667D01*
X034807Y033702D01*
X034745Y033733D01*
X034682Y033761D01*
X034617Y033785D01*
X034551Y033805D01*
X034484Y033822D01*
X034416Y033835D01*
X034347Y033844D01*
X034278Y033849D01*
X034209Y033850D01*
X034140Y033847D01*
X034071Y033840D01*
X034002Y033830D01*
X033935Y033815D01*
X033868Y033797D01*
X033802Y033775D01*
X033738Y033749D01*
X033676Y033720D01*
X033615Y033687D01*
X033556Y033650D01*
X033499Y033611D01*
X033445Y033568D01*
X033393Y033522D01*
X033343Y033474D01*
X033297Y033422D01*
X033254Y033368D01*
X033213Y033312D01*
X033177Y033254D01*
X033143Y033193D01*
X033113Y033131D01*
X033086Y033067D01*
X033063Y033001D01*
X033044Y032935D01*
X032945Y032945D02*
X032945Y033910D01*
X033054Y032295D02*
X033075Y032229D01*
X033100Y032165D01*
X033128Y032102D01*
X033159Y032040D01*
X033194Y031980D01*
X033233Y031923D01*
X033275Y031868D01*
X033319Y031815D01*
X033367Y031765D01*
X033417Y031717D01*
X033470Y031673D01*
X033526Y031631D01*
X033584Y031593D01*
X033643Y031558D01*
X033705Y031527D01*
X033768Y031499D01*
X033833Y031475D01*
X033899Y031455D01*
X033966Y031438D01*
X034034Y031425D01*
X034103Y031416D01*
X034172Y031411D01*
X034241Y031410D01*
X034310Y031413D01*
X034379Y031420D01*
X034448Y031430D01*
X034515Y031445D01*
X034582Y031463D01*
X034648Y031485D01*
X034712Y031511D01*
X034774Y031540D01*
X034835Y031573D01*
X034894Y031610D01*
X034951Y031649D01*
X035005Y031692D01*
X035057Y031738D01*
X035107Y031786D01*
X035153Y031838D01*
X035196Y031892D01*
X035237Y031948D01*
X035273Y032006D01*
X035307Y032067D01*
X035337Y032129D01*
X035364Y032193D01*
X035387Y032259D01*
X035406Y032325D01*
X035504Y031665D02*
X035189Y031350D01*
X032945Y031350D01*
X032945Y032354D01*
X031426Y031665D02*
X031111Y031350D01*
X028867Y031350D01*
X028975Y032295D02*
X028996Y032229D01*
X029021Y032165D01*
X029049Y032102D01*
X029080Y032040D01*
X029115Y031980D01*
X029154Y031923D01*
X029196Y031868D01*
X029240Y031815D01*
X029288Y031765D01*
X029338Y031717D01*
X029391Y031673D01*
X029447Y031631D01*
X029505Y031593D01*
X029564Y031558D01*
X029626Y031527D01*
X029689Y031499D01*
X029754Y031475D01*
X029820Y031455D01*
X029887Y031438D01*
X029955Y031425D01*
X030024Y031416D01*
X030093Y031411D01*
X030162Y031410D01*
X030231Y031413D01*
X030300Y031420D01*
X030369Y031430D01*
X030436Y031445D01*
X030503Y031463D01*
X030569Y031485D01*
X030633Y031511D01*
X030695Y031540D01*
X030756Y031573D01*
X030815Y031610D01*
X030872Y031649D01*
X030926Y031692D01*
X030978Y031738D01*
X031028Y031786D01*
X031074Y031838D01*
X031117Y031892D01*
X031158Y031948D01*
X031194Y032006D01*
X031228Y032067D01*
X031258Y032129D01*
X031285Y032193D01*
X031308Y032259D01*
X031327Y032325D01*
X031317Y032965D02*
X031296Y033031D01*
X031271Y033095D01*
X031243Y033158D01*
X031212Y033220D01*
X031177Y033280D01*
X031138Y033337D01*
X031096Y033392D01*
X031052Y033445D01*
X031004Y033495D01*
X030954Y033543D01*
X030901Y033587D01*
X030845Y033629D01*
X030787Y033667D01*
X030728Y033702D01*
X030666Y033733D01*
X030603Y033761D01*
X030538Y033785D01*
X030472Y033805D01*
X030405Y033822D01*
X030337Y033835D01*
X030268Y033844D01*
X030199Y033849D01*
X030130Y033850D01*
X030061Y033847D01*
X029992Y033840D01*
X029923Y033830D01*
X029856Y033815D01*
X029789Y033797D01*
X029723Y033775D01*
X029659Y033749D01*
X029597Y033720D01*
X029536Y033687D01*
X029477Y033650D01*
X029420Y033611D01*
X029366Y033568D01*
X029314Y033522D01*
X029264Y033474D01*
X029218Y033422D01*
X029175Y033368D01*
X029134Y033312D01*
X029098Y033254D01*
X029064Y033193D01*
X029034Y033131D01*
X029007Y033067D01*
X028984Y033001D01*
X028965Y032935D01*
X024876Y033227D02*
X024876Y033380D01*
X024799Y033457D01*
X024799Y033610D02*
X024876Y033610D01*
X024799Y033610D02*
X024492Y033917D01*
X024416Y033917D01*
X024416Y033610D01*
X024492Y033457D02*
X024416Y033380D01*
X024416Y033227D01*
X024492Y033150D01*
X024799Y033150D01*
X024876Y033227D01*
X024644Y031610D02*
X024337Y031610D01*
X024644Y031610D02*
X024644Y031534D01*
X024337Y031227D01*
X024337Y031150D01*
X024183Y031150D02*
X023876Y031150D01*
X023723Y031150D02*
X023570Y031303D01*
X023646Y031303D02*
X023416Y031303D01*
X023416Y031150D02*
X023416Y031610D01*
X023646Y031610D01*
X023723Y031534D01*
X023723Y031380D01*
X023646Y031303D01*
X023876Y031457D02*
X024030Y031610D01*
X024030Y031150D01*
X024107Y030110D02*
X023953Y030110D01*
X023876Y030034D01*
X023876Y029957D01*
X023953Y029880D01*
X024183Y029880D01*
X024183Y029727D02*
X024183Y030034D01*
X024107Y030110D01*
X024183Y029727D02*
X024107Y029650D01*
X023953Y029650D01*
X023876Y029727D01*
X023723Y029650D02*
X023570Y029803D01*
X023646Y029803D02*
X023416Y029803D01*
X023416Y029650D02*
X023416Y030110D01*
X023646Y030110D01*
X023723Y030034D01*
X023723Y029880D01*
X023646Y029803D01*
X023646Y028610D02*
X023723Y028534D01*
X023723Y028380D01*
X023646Y028303D01*
X023416Y028303D01*
X023416Y028150D02*
X023416Y028610D01*
X023646Y028610D01*
X023876Y028610D02*
X024183Y028610D01*
X024183Y028534D01*
X023876Y028227D01*
X023876Y028150D01*
X023723Y028150D02*
X023570Y028303D01*
X031052Y028110D02*
X031206Y028110D01*
X031129Y028110D02*
X031129Y027650D01*
X031052Y027650D02*
X031206Y027650D01*
X031359Y027727D02*
X031436Y027650D01*
X031589Y027650D01*
X031666Y027727D01*
X031820Y027727D02*
X031896Y027650D01*
X032050Y027650D01*
X032126Y027727D01*
X032126Y027803D01*
X032050Y027880D01*
X031973Y027880D01*
X032050Y027880D02*
X032126Y027957D01*
X032126Y028034D01*
X032050Y028110D01*
X031896Y028110D01*
X031820Y028034D01*
X031666Y028034D02*
X031589Y028110D01*
X031436Y028110D01*
X031359Y028034D01*
X031359Y027727D01*
X038916Y026610D02*
X038916Y026150D01*
X038916Y026303D02*
X039146Y026303D01*
X039223Y026380D01*
X039223Y026534D01*
X039146Y026610D01*
X038916Y026610D01*
X039070Y026303D02*
X039223Y026150D01*
X039376Y026150D02*
X039683Y026150D01*
X039530Y026150D02*
X039530Y026610D01*
X039376Y026457D01*
X039837Y026380D02*
X039837Y026610D01*
X040144Y026610D01*
X040067Y026457D02*
X040144Y026380D01*
X040144Y026227D01*
X040067Y026150D01*
X039914Y026150D01*
X039837Y026227D01*
X039837Y026380D02*
X039990Y026457D01*
X040067Y026457D01*
X041166Y027150D02*
X041166Y027610D01*
X041396Y027610D01*
X041473Y027534D01*
X041473Y027380D01*
X041396Y027303D01*
X041166Y027303D01*
X041320Y027303D02*
X041473Y027150D01*
X041626Y027150D02*
X041933Y027150D01*
X041780Y027150D02*
X041780Y027610D01*
X041626Y027457D01*
X042087Y027534D02*
X042164Y027610D01*
X042317Y027610D01*
X042394Y027534D01*
X042394Y027457D01*
X042317Y027380D01*
X042394Y027303D01*
X042394Y027227D01*
X042317Y027150D01*
X042164Y027150D01*
X042087Y027227D01*
X042240Y027380D02*
X042317Y027380D01*
X042916Y028150D02*
X042916Y028610D01*
X043146Y028610D01*
X043223Y028534D01*
X043223Y028380D01*
X043146Y028303D01*
X042916Y028303D01*
X043070Y028303D02*
X043223Y028150D01*
X043376Y028150D02*
X043683Y028150D01*
X043530Y028150D02*
X043530Y028610D01*
X043376Y028457D01*
X043837Y028457D02*
X043990Y028610D01*
X043990Y028150D01*
X043837Y028150D02*
X044144Y028150D01*
X044416Y027974D02*
X044876Y027974D01*
X044876Y027821D02*
X044876Y028128D01*
X044646Y028281D02*
X044646Y028588D01*
X044876Y028511D02*
X044416Y028511D01*
X044646Y028281D01*
X044416Y027974D02*
X044569Y027821D01*
X044492Y027667D02*
X044416Y027591D01*
X044416Y027437D01*
X044492Y027360D01*
X044569Y027360D01*
X044646Y027437D01*
X044646Y027591D01*
X044723Y027667D01*
X044799Y027667D01*
X044876Y027591D01*
X044876Y027437D01*
X044799Y027360D01*
X044799Y027207D02*
X044416Y027207D01*
X044416Y026900D02*
X044799Y026900D01*
X044876Y026977D01*
X044876Y027130D01*
X044799Y027207D01*
X044953Y027514D02*
X044339Y027514D01*
X043876Y029650D02*
X043416Y029650D01*
X043416Y029880D01*
X043492Y029957D01*
X043646Y029957D01*
X043723Y029880D01*
X043723Y029650D01*
X043723Y029803D02*
X043876Y029957D01*
X043799Y030110D02*
X043646Y030110D01*
X043646Y030341D01*
X043723Y030417D01*
X043799Y030417D01*
X043876Y030341D01*
X043876Y030187D01*
X043799Y030110D01*
X043646Y030110D02*
X043492Y030264D01*
X043416Y030417D01*
X043492Y031519D02*
X043799Y031519D01*
X043876Y031596D01*
X043876Y031749D01*
X043799Y031826D01*
X043876Y031979D02*
X043569Y032286D01*
X043492Y032286D01*
X043416Y032209D01*
X043416Y032056D01*
X043492Y031979D01*
X043492Y031826D02*
X043416Y031749D01*
X043416Y031596D01*
X043492Y031519D01*
X043876Y031979D02*
X043876Y032286D01*
X043876Y032440D02*
X043876Y032747D01*
X043876Y032593D02*
X043416Y032593D01*
X043569Y032440D01*
X046995Y033400D02*
X046995Y033860D01*
X047225Y033860D01*
X047302Y033784D01*
X047302Y033630D01*
X047225Y033553D01*
X046995Y033553D01*
X047149Y033553D02*
X047302Y033400D01*
X047456Y033477D02*
X047532Y033400D01*
X047686Y033400D01*
X047763Y033477D01*
X047763Y033630D01*
X047686Y033707D01*
X047609Y033707D01*
X047456Y033630D01*
X047456Y033860D01*
X047763Y033860D01*
X049166Y032247D02*
X049166Y031940D01*
X049166Y032093D02*
X049626Y032093D01*
X049549Y031786D02*
X049166Y031786D01*
X049166Y031479D02*
X049549Y031479D01*
X049626Y031556D01*
X049626Y031709D01*
X049549Y031786D01*
X049549Y031326D02*
X049242Y031326D01*
X049166Y031249D01*
X049166Y031096D01*
X049242Y031019D01*
X049549Y031019D01*
X049626Y031096D01*
X049626Y031249D01*
X049549Y031326D01*
X049703Y030865D02*
X049703Y030558D01*
X049549Y030405D02*
X049242Y030405D01*
X049166Y030328D01*
X049166Y030175D01*
X049242Y030098D01*
X049549Y030098D01*
X049626Y030175D01*
X049626Y030328D01*
X049549Y030405D01*
X049626Y029945D02*
X049626Y029791D01*
X049626Y029868D02*
X049166Y029868D01*
X049166Y029791D02*
X049166Y029945D01*
X049242Y029638D02*
X049166Y029561D01*
X049166Y029331D01*
X049626Y029331D01*
X049626Y029561D01*
X049549Y029638D01*
X049242Y029638D01*
X049166Y029177D02*
X049549Y029177D01*
X049626Y029101D01*
X049626Y028947D01*
X049549Y028870D01*
X049166Y028870D01*
X049319Y028717D02*
X049626Y028717D01*
X049396Y028717D02*
X049396Y028410D01*
X049319Y028410D02*
X049626Y028410D01*
X049319Y028410D02*
X049166Y028563D01*
X049319Y028717D01*
X044626Y024511D02*
X044549Y024588D01*
X044473Y024588D01*
X044396Y024511D01*
X044396Y024435D01*
X044396Y024511D02*
X044319Y024588D01*
X044242Y024588D01*
X044166Y024511D01*
X044166Y024358D01*
X044242Y024281D01*
X044549Y024281D02*
X044626Y024358D01*
X044626Y024511D01*
X044626Y024128D02*
X044626Y023821D01*
X044758Y023801D02*
X044758Y023648D01*
X044835Y023571D01*
X044703Y023514D02*
X044089Y023514D01*
X044166Y023591D02*
X044242Y023667D01*
X044166Y023591D02*
X044166Y023437D01*
X044242Y023360D01*
X044319Y023360D01*
X044396Y023437D01*
X044396Y023591D01*
X044473Y023667D01*
X044549Y023667D01*
X044626Y023591D01*
X044626Y023437D01*
X044549Y023360D01*
X044549Y023207D02*
X044166Y023207D01*
X044166Y022900D02*
X044549Y022900D01*
X044626Y022977D01*
X044626Y023130D01*
X044549Y023207D01*
X044758Y023187D02*
X044835Y023110D01*
X044912Y023110D01*
X044988Y023187D01*
X044988Y023341D01*
X045065Y023417D01*
X045142Y023417D01*
X045219Y023341D01*
X045219Y023187D01*
X045142Y023110D01*
X044988Y022957D02*
X045065Y022880D01*
X045065Y022650D01*
X045219Y022650D02*
X044758Y022650D01*
X044758Y022880D01*
X044835Y022957D01*
X044988Y022957D01*
X044758Y023187D02*
X044758Y023341D01*
X044835Y023417D01*
X044758Y023801D02*
X044835Y023878D01*
X044912Y023878D01*
X045219Y023571D01*
X045219Y023878D01*
X044626Y023974D02*
X044166Y023974D01*
X044319Y023821D01*
X044067Y024650D02*
X043914Y024650D01*
X043837Y024727D01*
X044144Y025034D01*
X044144Y024727D01*
X044067Y024650D01*
X043837Y024727D02*
X043837Y025034D01*
X043914Y025110D01*
X044067Y025110D01*
X044144Y025034D01*
X043683Y024650D02*
X043376Y024650D01*
X043223Y024650D02*
X043070Y024803D01*
X043146Y024803D02*
X042916Y024803D01*
X042916Y024650D02*
X042916Y025110D01*
X043146Y025110D01*
X043223Y025034D01*
X043223Y024880D01*
X043146Y024803D01*
X043376Y024957D02*
X043530Y025110D01*
X043530Y024650D01*
X042394Y024034D02*
X042317Y024110D01*
X042164Y024110D01*
X042087Y024034D01*
X042394Y024034D02*
X042394Y023957D01*
X042087Y023650D01*
X042394Y023650D01*
X041933Y023650D02*
X041626Y023650D01*
X041473Y023650D02*
X041320Y023803D01*
X041396Y023803D02*
X041166Y023803D01*
X041166Y023650D02*
X041166Y024110D01*
X041396Y024110D01*
X041473Y024034D01*
X041473Y023880D01*
X041396Y023803D01*
X041626Y023957D02*
X041780Y024110D01*
X041780Y023650D01*
X041723Y024650D02*
X041570Y024803D01*
X041646Y024803D02*
X041416Y024803D01*
X041416Y024650D02*
X041416Y025110D01*
X041646Y025110D01*
X041723Y025034D01*
X041723Y024880D01*
X041646Y024803D01*
X041876Y024727D02*
X041953Y024650D01*
X042107Y024650D01*
X042183Y024727D01*
X042183Y024803D01*
X042107Y024880D01*
X042030Y024880D01*
X042107Y024880D02*
X042183Y024957D01*
X042183Y025034D01*
X042107Y025110D01*
X041953Y025110D01*
X041876Y025034D01*
X040567Y024110D02*
X040337Y023880D01*
X040644Y023880D01*
X040567Y023650D02*
X040567Y024110D01*
X040030Y024110D02*
X040030Y023650D01*
X040183Y023650D02*
X039876Y023650D01*
X039723Y023650D02*
X039570Y023803D01*
X039646Y023803D02*
X039416Y023803D01*
X039416Y023650D02*
X039416Y024110D01*
X039646Y024110D01*
X039723Y024034D01*
X039723Y023880D01*
X039646Y023803D01*
X039876Y023957D02*
X040030Y024110D01*
X041416Y021610D02*
X041646Y021610D01*
X041723Y021534D01*
X041723Y021380D01*
X041646Y021303D01*
X041416Y021303D01*
X041416Y021150D02*
X041416Y021610D01*
X041570Y021303D02*
X041723Y021150D01*
X041876Y021150D02*
X042183Y021457D01*
X042183Y021534D01*
X042107Y021610D01*
X041953Y021610D01*
X041876Y021534D01*
X041876Y021150D02*
X042183Y021150D01*
X044785Y019534D02*
X044785Y019227D01*
X044862Y019150D01*
X045015Y019150D01*
X045092Y019227D01*
X045245Y019227D02*
X045322Y019150D01*
X045475Y019150D01*
X045552Y019227D01*
X045552Y019303D01*
X045475Y019380D01*
X045399Y019380D01*
X045475Y019380D02*
X045552Y019457D01*
X045552Y019534D01*
X045475Y019610D01*
X045322Y019610D01*
X045245Y019534D01*
X045092Y019534D02*
X045015Y019610D01*
X044862Y019610D01*
X044785Y019534D01*
X045706Y019534D02*
X045706Y019227D01*
X046013Y019534D01*
X046013Y019227D01*
X045936Y019150D01*
X045782Y019150D01*
X045706Y019227D01*
X045706Y019534D02*
X045782Y019610D01*
X045936Y019610D01*
X046013Y019534D01*
X044626Y018261D02*
X044626Y018108D01*
X044549Y018031D01*
X044242Y018338D01*
X044549Y018338D01*
X044626Y018261D01*
X044549Y018031D02*
X044242Y018031D01*
X044166Y018108D01*
X044166Y018261D01*
X044242Y018338D01*
X044242Y017878D02*
X044166Y017801D01*
X044166Y017648D01*
X044242Y017571D01*
X044242Y017417D02*
X044166Y017341D01*
X044166Y017187D01*
X044242Y017110D01*
X044319Y017110D01*
X044396Y017187D01*
X044396Y017341D01*
X044473Y017417D01*
X044549Y017417D01*
X044626Y017341D01*
X044626Y017187D01*
X044549Y017110D01*
X044549Y016957D02*
X044166Y016957D01*
X044166Y016650D02*
X044549Y016650D01*
X044626Y016727D01*
X044626Y016880D01*
X044549Y016957D01*
X044703Y017264D02*
X044089Y017264D01*
X044626Y017571D02*
X044319Y017878D01*
X044242Y017878D01*
X044626Y017878D02*
X044626Y017571D01*
X044835Y016219D02*
X044758Y016143D01*
X044758Y015989D01*
X044835Y015912D01*
X044835Y015759D02*
X044758Y015682D01*
X044758Y015452D01*
X045219Y015452D01*
X045219Y015682D01*
X045142Y015759D01*
X044835Y015759D01*
X044626Y015685D02*
X044166Y015685D01*
X044319Y015531D01*
X044319Y015378D02*
X044242Y015378D01*
X044166Y015301D01*
X044166Y015148D01*
X044242Y015071D01*
X044242Y014917D02*
X044166Y014841D01*
X044166Y014687D01*
X044242Y014610D01*
X044319Y014610D01*
X044396Y014687D01*
X044396Y014841D01*
X044473Y014917D01*
X044549Y014917D01*
X044626Y014841D01*
X044626Y014687D01*
X044549Y014610D01*
X044549Y014457D02*
X044166Y014457D01*
X044166Y014150D02*
X044549Y014150D01*
X044626Y014227D01*
X044626Y014380D01*
X044549Y014457D01*
X044758Y014531D02*
X044758Y014761D01*
X044835Y014838D01*
X044988Y014838D01*
X045065Y014761D01*
X045065Y014531D01*
X045219Y014531D02*
X044758Y014531D01*
X044758Y014378D02*
X044835Y014378D01*
X044988Y014224D01*
X045219Y014224D01*
X044988Y014224D02*
X044835Y014071D01*
X044758Y014071D01*
X044835Y013917D02*
X044758Y013841D01*
X044758Y013687D01*
X044835Y013610D01*
X045142Y013610D01*
X045219Y013687D01*
X045219Y013841D01*
X045142Y013917D01*
X044835Y013917D01*
X044758Y013457D02*
X044758Y013303D01*
X044758Y013380D02*
X045142Y013380D01*
X045219Y013303D01*
X045219Y013227D01*
X045142Y013150D01*
X044549Y012588D02*
X044626Y012511D01*
X044626Y012358D01*
X044549Y012281D01*
X044473Y012281D01*
X044396Y012358D01*
X044396Y012511D01*
X044473Y012588D01*
X044549Y012588D01*
X044396Y012511D02*
X044319Y012588D01*
X044242Y012588D01*
X044166Y012511D01*
X044166Y012358D01*
X044242Y012281D01*
X044319Y012281D01*
X044396Y012358D01*
X044626Y012128D02*
X044626Y011821D01*
X044626Y011974D02*
X044166Y011974D01*
X044319Y011821D01*
X044242Y011667D02*
X044166Y011591D01*
X044166Y011437D01*
X044242Y011360D01*
X044319Y011360D01*
X044396Y011437D01*
X044396Y011591D01*
X044473Y011667D01*
X044549Y011667D01*
X044626Y011591D01*
X044626Y011437D01*
X044549Y011360D01*
X044549Y011207D02*
X044166Y011207D01*
X044166Y010900D02*
X044549Y010900D01*
X044626Y010977D01*
X044626Y011130D01*
X044549Y011207D01*
X044703Y011514D02*
X044089Y011514D01*
X042263Y011977D02*
X042263Y012053D01*
X042186Y012130D01*
X041956Y012130D01*
X041956Y011977D01*
X042032Y011900D01*
X042186Y011900D01*
X042263Y011977D01*
X042109Y012284D02*
X041956Y012130D01*
X041802Y012053D02*
X041802Y011977D01*
X041725Y011900D01*
X041572Y011900D01*
X041495Y011977D01*
X041342Y011900D02*
X041188Y012053D01*
X041265Y012053D02*
X041035Y012053D01*
X041035Y011900D02*
X041035Y012360D01*
X041265Y012360D01*
X041342Y012284D01*
X041342Y012130D01*
X041265Y012053D01*
X041495Y012284D02*
X041572Y012360D01*
X041725Y012360D01*
X041802Y012284D01*
X041802Y012207D01*
X041725Y012130D01*
X041802Y012053D01*
X041725Y012130D02*
X041649Y012130D01*
X042109Y012284D02*
X042263Y012360D01*
X040513Y011360D02*
X040206Y011360D01*
X040206Y011130D01*
X040359Y011207D01*
X040436Y011207D01*
X040513Y011130D01*
X040513Y010977D01*
X040436Y010900D01*
X040282Y010900D01*
X040206Y010977D01*
X040052Y010977D02*
X039975Y010900D01*
X039822Y010900D01*
X039745Y010977D01*
X039592Y010900D02*
X039438Y011053D01*
X039515Y011053D02*
X039285Y011053D01*
X039285Y010900D02*
X039285Y011360D01*
X039515Y011360D01*
X039592Y011284D01*
X039592Y011130D01*
X039515Y011053D01*
X039745Y011284D02*
X039822Y011360D01*
X039975Y011360D01*
X040052Y011284D01*
X040052Y011207D01*
X039975Y011130D01*
X040052Y011053D01*
X040052Y010977D01*
X039975Y011130D02*
X039899Y011130D01*
X039916Y010610D02*
X040146Y010610D01*
X040223Y010534D01*
X040223Y010380D01*
X040146Y010303D01*
X039916Y010303D01*
X039916Y010150D02*
X039916Y010610D01*
X040070Y010303D02*
X040223Y010150D01*
X040376Y010227D02*
X040453Y010150D01*
X040607Y010150D01*
X040683Y010227D01*
X040683Y010303D01*
X040607Y010380D01*
X040530Y010380D01*
X040607Y010380D02*
X040683Y010457D01*
X040683Y010534D01*
X040607Y010610D01*
X040453Y010610D01*
X040376Y010534D01*
X040837Y010534D02*
X040837Y010457D01*
X040914Y010380D01*
X041144Y010380D01*
X041144Y010227D02*
X041144Y010534D01*
X041067Y010610D01*
X040914Y010610D01*
X040837Y010534D01*
X040837Y010227D02*
X040914Y010150D01*
X041067Y010150D01*
X041144Y010227D01*
X040144Y009650D02*
X039837Y009650D01*
X039990Y009650D02*
X039990Y010110D01*
X039837Y009957D01*
X039683Y009880D02*
X039376Y009880D01*
X039607Y010110D01*
X039607Y009650D01*
X039223Y009650D02*
X039070Y009803D01*
X039146Y009803D02*
X038916Y009803D01*
X038916Y009650D02*
X038916Y010110D01*
X039146Y010110D01*
X039223Y010034D01*
X039223Y009880D01*
X039146Y009803D01*
X039416Y008360D02*
X039646Y008360D01*
X039723Y008284D01*
X039723Y008130D01*
X039646Y008053D01*
X039416Y008053D01*
X039416Y007900D02*
X039416Y008360D01*
X039570Y008053D02*
X039723Y007900D01*
X039876Y007977D02*
X039953Y007900D01*
X040107Y007900D01*
X040183Y007977D01*
X040183Y008053D01*
X040107Y008130D01*
X040030Y008130D01*
X040107Y008130D02*
X040183Y008207D01*
X040183Y008284D01*
X040107Y008360D01*
X039953Y008360D01*
X039876Y008284D01*
X040337Y008130D02*
X040567Y008360D01*
X040567Y007900D01*
X040644Y008130D02*
X040337Y008130D01*
X039990Y007610D02*
X039990Y007150D01*
X039837Y007150D02*
X040144Y007150D01*
X039837Y007457D02*
X039990Y007610D01*
X039683Y007610D02*
X039376Y007610D01*
X039376Y007380D01*
X039530Y007457D01*
X039607Y007457D01*
X039683Y007380D01*
X039683Y007227D01*
X039607Y007150D01*
X039453Y007150D01*
X039376Y007227D01*
X039223Y007150D02*
X039070Y007303D01*
X039146Y007303D02*
X038916Y007303D01*
X038916Y007150D02*
X038916Y007610D01*
X039146Y007610D01*
X039223Y007534D01*
X039223Y007380D01*
X039146Y007303D01*
X037394Y007227D02*
X037317Y007150D01*
X037164Y007150D01*
X037087Y007227D01*
X037394Y007534D01*
X037394Y007227D01*
X037394Y007534D02*
X037317Y007610D01*
X037164Y007610D01*
X037087Y007534D01*
X037087Y007227D01*
X036933Y007227D02*
X036857Y007150D01*
X036703Y007150D01*
X036626Y007227D01*
X036626Y007380D02*
X036780Y007457D01*
X036857Y007457D01*
X036933Y007380D01*
X036933Y007227D01*
X036626Y007380D02*
X036626Y007610D01*
X036933Y007610D01*
X036473Y007534D02*
X036473Y007380D01*
X036396Y007303D01*
X036166Y007303D01*
X036166Y007150D02*
X036166Y007610D01*
X036396Y007610D01*
X036473Y007534D01*
X036320Y007303D02*
X036473Y007150D01*
X034394Y007227D02*
X034394Y007534D01*
X034317Y007610D01*
X034164Y007610D01*
X034087Y007534D01*
X034087Y007457D01*
X034164Y007380D01*
X034394Y007380D01*
X034394Y007227D02*
X034317Y007150D01*
X034164Y007150D01*
X034087Y007227D01*
X033933Y007380D02*
X033626Y007380D01*
X033857Y007610D01*
X033857Y007150D01*
X033473Y007150D02*
X033320Y007303D01*
X033396Y007303D02*
X033166Y007303D01*
X033166Y007150D02*
X033166Y007610D01*
X033396Y007610D01*
X033473Y007534D01*
X033473Y007380D01*
X033396Y007303D01*
X031644Y007303D02*
X031644Y007227D01*
X031567Y007150D01*
X031414Y007150D01*
X031337Y007227D01*
X031337Y007303D01*
X031414Y007380D01*
X031567Y007380D01*
X031644Y007303D01*
X031567Y007380D02*
X031644Y007457D01*
X031644Y007534D01*
X031567Y007610D01*
X031414Y007610D01*
X031337Y007534D01*
X031337Y007457D01*
X031414Y007380D01*
X031183Y007380D02*
X030876Y007380D01*
X031107Y007610D01*
X031107Y007150D01*
X030723Y007150D02*
X030570Y007303D01*
X030646Y007303D02*
X030416Y007303D01*
X030416Y007150D02*
X030416Y007610D01*
X030646Y007610D01*
X030723Y007534D01*
X030723Y007380D01*
X030646Y007303D01*
X032242Y005220D02*
X032319Y005220D01*
X032396Y005143D01*
X032473Y005220D01*
X032549Y005220D01*
X032626Y005143D01*
X032626Y004990D01*
X032549Y004913D01*
X032396Y005067D02*
X032396Y005143D01*
X032242Y005220D02*
X032166Y005143D01*
X032166Y004990D01*
X032242Y004913D01*
X032703Y004760D02*
X032703Y004453D01*
X032626Y004299D02*
X032166Y004299D01*
X032166Y003992D02*
X032626Y004299D01*
X032626Y003992D02*
X032166Y003992D01*
X032242Y003839D02*
X032166Y003762D01*
X032166Y003609D01*
X032242Y003532D01*
X032549Y003532D01*
X032626Y003609D01*
X032626Y003762D01*
X032549Y003839D01*
X032242Y003839D01*
X032166Y003378D02*
X032166Y003071D01*
X032166Y002918D02*
X032166Y002611D01*
X032166Y002458D02*
X032549Y002458D01*
X032626Y002381D01*
X032626Y002227D01*
X032549Y002151D01*
X032166Y002151D01*
X032242Y001997D02*
X032319Y001997D01*
X032396Y001921D01*
X032396Y001690D01*
X032626Y001690D02*
X032166Y001690D01*
X032166Y001921D01*
X032242Y001997D01*
X032396Y001921D02*
X032473Y001997D01*
X032549Y001997D01*
X032626Y001921D01*
X032626Y001690D01*
X032626Y002765D02*
X032166Y002765D01*
X032166Y003225D02*
X032626Y003225D01*
X035416Y003225D02*
X035876Y003225D01*
X035799Y003532D02*
X035876Y003609D01*
X035876Y003762D01*
X035799Y003839D01*
X035492Y003839D01*
X035416Y003762D01*
X035416Y003609D01*
X035492Y003532D01*
X035799Y003532D01*
X035416Y003378D02*
X035416Y003071D01*
X035416Y002918D02*
X035416Y002611D01*
X035416Y002458D02*
X035799Y002458D01*
X035876Y002381D01*
X035876Y002227D01*
X035799Y002151D01*
X035416Y002151D01*
X035492Y001997D02*
X035569Y001997D01*
X035646Y001921D01*
X035646Y001690D01*
X035876Y001690D02*
X035876Y001921D01*
X035799Y001997D01*
X035723Y001997D01*
X035646Y001921D01*
X035492Y001997D02*
X035416Y001921D01*
X035416Y001690D01*
X035876Y001690D01*
X035876Y002765D02*
X035416Y002765D01*
X035416Y003992D02*
X035876Y004299D01*
X035416Y004299D01*
X035416Y003992D02*
X035876Y003992D01*
X035953Y004453D02*
X035953Y004760D01*
X035876Y004913D02*
X035569Y005220D01*
X035492Y005220D01*
X035416Y005143D01*
X035416Y004990D01*
X035492Y004913D01*
X035876Y004913D02*
X035876Y005220D01*
X038666Y005067D02*
X039126Y005067D01*
X039126Y005220D02*
X039126Y004913D01*
X039203Y004760D02*
X039203Y004453D01*
X039126Y004299D02*
X038666Y004299D01*
X038666Y003992D02*
X039126Y004299D01*
X039126Y003992D02*
X038666Y003992D01*
X038742Y003839D02*
X038666Y003762D01*
X038666Y003609D01*
X038742Y003532D01*
X039049Y003532D01*
X039126Y003609D01*
X039126Y003762D01*
X039049Y003839D01*
X038742Y003839D01*
X038666Y003378D02*
X038666Y003071D01*
X038666Y002918D02*
X038666Y002611D01*
X038666Y002458D02*
X039049Y002458D01*
X039126Y002381D01*
X039126Y002227D01*
X039049Y002151D01*
X038666Y002151D01*
X038742Y001997D02*
X038666Y001921D01*
X038666Y001690D01*
X039126Y001690D01*
X039126Y001921D01*
X039049Y001997D01*
X038973Y001997D01*
X038896Y001921D01*
X038896Y001690D01*
X038896Y001921D02*
X038819Y001997D01*
X038742Y001997D01*
X038666Y002765D02*
X039126Y002765D01*
X039126Y003225D02*
X038666Y003225D01*
X038819Y004913D02*
X038666Y005067D01*
X041285Y006150D02*
X041285Y006610D01*
X041515Y006610D01*
X041592Y006534D01*
X041592Y006380D01*
X041515Y006303D01*
X041285Y006303D01*
X041438Y006303D02*
X041592Y006150D01*
X041745Y006227D02*
X041822Y006150D01*
X041975Y006150D01*
X042052Y006227D01*
X042052Y006303D01*
X041975Y006380D01*
X041899Y006380D01*
X041975Y006380D02*
X042052Y006457D01*
X042052Y006534D01*
X041975Y006610D01*
X041822Y006610D01*
X041745Y006534D01*
X042206Y006534D02*
X042206Y006457D01*
X042282Y006380D01*
X042436Y006380D01*
X042513Y006303D01*
X042513Y006227D01*
X042436Y006150D01*
X042282Y006150D01*
X042206Y006227D01*
X042206Y006303D01*
X042282Y006380D01*
X042436Y006380D02*
X042513Y006457D01*
X042513Y006534D01*
X042436Y006610D01*
X042282Y006610D01*
X042206Y006534D01*
X042299Y005220D02*
X041992Y005220D01*
X042299Y004913D01*
X042376Y004990D01*
X042376Y005143D01*
X042299Y005220D01*
X041992Y005220D02*
X041916Y005143D01*
X041916Y004990D01*
X041992Y004913D01*
X042299Y004913D01*
X042453Y004760D02*
X042453Y004453D01*
X042376Y004299D02*
X041916Y004299D01*
X041916Y003992D02*
X042376Y004299D01*
X042376Y003992D02*
X041916Y003992D01*
X041992Y003839D02*
X041916Y003762D01*
X041916Y003609D01*
X041992Y003532D01*
X042299Y003532D01*
X042376Y003609D01*
X042376Y003762D01*
X042299Y003839D01*
X041992Y003839D01*
X041916Y003378D02*
X041916Y003071D01*
X041916Y002918D02*
X041916Y002611D01*
X041916Y002458D02*
X042299Y002458D01*
X042376Y002381D01*
X042376Y002227D01*
X042299Y002151D01*
X041916Y002151D01*
X041992Y001997D02*
X042069Y001997D01*
X042146Y001921D01*
X042146Y001690D01*
X042376Y001690D02*
X041916Y001690D01*
X041916Y001921D01*
X041992Y001997D01*
X042146Y001921D02*
X042223Y001997D01*
X042299Y001997D01*
X042376Y001921D01*
X042376Y001690D01*
X042376Y002765D02*
X041916Y002765D01*
X041916Y003225D02*
X042376Y003225D01*
X045142Y005900D02*
X045219Y005977D01*
X045219Y006053D01*
X045142Y006130D01*
X044758Y006130D01*
X044758Y006053D02*
X044758Y006207D01*
X044835Y006360D02*
X044758Y006437D01*
X044758Y006591D01*
X044835Y006667D01*
X045142Y006667D01*
X045219Y006591D01*
X045219Y006437D01*
X045142Y006360D01*
X044835Y006360D01*
X044835Y006821D02*
X044758Y006821D01*
X044835Y006821D02*
X044988Y006974D01*
X045219Y006974D01*
X044988Y006974D02*
X044835Y007128D01*
X044758Y007128D01*
X044758Y007281D02*
X044758Y007511D01*
X044835Y007588D01*
X044988Y007588D01*
X045065Y007511D01*
X045065Y007281D01*
X045219Y007281D02*
X044758Y007281D01*
X044912Y007742D02*
X044758Y007895D01*
X044912Y008048D01*
X045219Y008048D01*
X045219Y008202D02*
X045219Y008432D01*
X045142Y008509D01*
X044835Y008509D01*
X044758Y008432D01*
X044758Y008202D01*
X045219Y008202D01*
X044988Y008048D02*
X044988Y007742D01*
X044912Y007742D02*
X045219Y007742D01*
X045219Y008662D02*
X045219Y008969D01*
X045219Y008816D02*
X044758Y008816D01*
X044912Y008662D01*
X044626Y008630D02*
X044549Y008707D01*
X044166Y008707D01*
X044242Y008860D02*
X044166Y008937D01*
X044166Y009091D01*
X044242Y009167D01*
X044396Y009091D02*
X044396Y008937D01*
X044319Y008860D01*
X044242Y008860D01*
X044089Y009014D02*
X044703Y009014D01*
X044626Y009091D02*
X044549Y009167D01*
X044473Y009167D01*
X044396Y009091D01*
X044626Y009091D02*
X044626Y008937D01*
X044549Y008860D01*
X044626Y008630D02*
X044626Y008477D01*
X044549Y008400D01*
X044166Y008400D01*
X043817Y008900D02*
X043664Y008900D01*
X043587Y008977D01*
X043894Y009284D01*
X043894Y008977D01*
X043817Y008900D01*
X043587Y008977D02*
X043587Y009284D01*
X043664Y009360D01*
X043817Y009360D01*
X043894Y009284D01*
X044166Y009474D02*
X044626Y009474D01*
X044626Y009321D02*
X044626Y009628D01*
X044549Y009781D02*
X044626Y009858D01*
X044626Y010011D01*
X044549Y010088D01*
X044242Y010088D01*
X044166Y010011D01*
X044166Y009858D01*
X044242Y009781D01*
X044319Y009781D01*
X044396Y009858D01*
X044396Y010088D01*
X044166Y009474D02*
X044319Y009321D01*
X043433Y009130D02*
X043126Y009130D01*
X043357Y009360D01*
X043357Y008900D01*
X042973Y008900D02*
X042820Y009053D01*
X042896Y009053D02*
X042666Y009053D01*
X042666Y008900D02*
X042666Y009360D01*
X042896Y009360D01*
X042973Y009284D01*
X042973Y009130D01*
X042896Y009053D01*
X040513Y013650D02*
X040206Y013650D01*
X040513Y013957D01*
X040513Y014034D01*
X040436Y014110D01*
X040282Y014110D01*
X040206Y014034D01*
X040052Y014034D02*
X040052Y013957D01*
X039975Y013880D01*
X040052Y013803D01*
X040052Y013727D01*
X039975Y013650D01*
X039822Y013650D01*
X039745Y013727D01*
X039592Y013650D02*
X039438Y013803D01*
X039515Y013803D02*
X039285Y013803D01*
X039285Y013650D02*
X039285Y014110D01*
X039515Y014110D01*
X039592Y014034D01*
X039592Y013880D01*
X039515Y013803D01*
X039745Y014034D02*
X039822Y014110D01*
X039975Y014110D01*
X040052Y014034D01*
X039975Y013880D02*
X039899Y013880D01*
X039914Y015400D02*
X039837Y015477D01*
X039914Y015400D02*
X040067Y015400D01*
X040144Y015477D01*
X040144Y015553D01*
X040067Y015630D01*
X039990Y015630D01*
X040067Y015630D02*
X040144Y015707D01*
X040144Y015784D01*
X040067Y015860D01*
X039914Y015860D01*
X039837Y015784D01*
X039785Y015900D02*
X039785Y016360D01*
X040015Y016360D01*
X040092Y016284D01*
X040092Y016130D01*
X040015Y016053D01*
X039785Y016053D01*
X039938Y016053D02*
X040092Y015900D01*
X040245Y015977D02*
X040322Y015900D01*
X040475Y015900D01*
X040552Y015977D01*
X040552Y016053D01*
X040475Y016130D01*
X040399Y016130D01*
X040475Y016130D02*
X040552Y016207D01*
X040552Y016284D01*
X040475Y016360D01*
X040322Y016360D01*
X040245Y016284D01*
X040706Y016360D02*
X041013Y016360D01*
X041013Y016284D01*
X040706Y015977D01*
X040706Y015900D01*
X039683Y015630D02*
X039376Y015630D01*
X039607Y015860D01*
X039607Y015400D01*
X039223Y015400D02*
X039070Y015553D01*
X039146Y015553D02*
X038916Y015553D01*
X038916Y015400D02*
X038916Y015860D01*
X039146Y015860D01*
X039223Y015784D01*
X039223Y015630D01*
X039146Y015553D01*
X041166Y017400D02*
X041166Y017860D01*
X041396Y017860D01*
X041473Y017784D01*
X041473Y017630D01*
X041396Y017553D01*
X041166Y017553D01*
X041320Y017553D02*
X041473Y017400D01*
X041626Y017477D02*
X041703Y017400D01*
X041857Y017400D01*
X041933Y017477D01*
X041933Y017553D01*
X041857Y017630D01*
X041780Y017630D01*
X041857Y017630D02*
X041933Y017707D01*
X041933Y017784D01*
X041857Y017860D01*
X041703Y017860D01*
X041626Y017784D01*
X042087Y017784D02*
X042164Y017860D01*
X042317Y017860D01*
X042394Y017784D01*
X042394Y017707D01*
X042317Y017630D01*
X042394Y017553D01*
X042394Y017477D01*
X042317Y017400D01*
X042164Y017400D01*
X042087Y017477D01*
X042240Y017630D02*
X042317Y017630D01*
X044835Y016219D02*
X044912Y016219D01*
X045219Y015912D01*
X045219Y016219D01*
X044626Y015838D02*
X044626Y015531D01*
X044626Y015378D02*
X044626Y015071D01*
X044319Y015378D01*
X044758Y015145D02*
X044912Y015298D01*
X045219Y015298D01*
X044988Y015298D02*
X044988Y014992D01*
X044912Y014992D02*
X044758Y015145D01*
X044912Y014992D02*
X045219Y014992D01*
X044703Y014764D02*
X044089Y014764D01*
X043894Y014650D02*
X043587Y014650D01*
X043894Y014957D01*
X043894Y015034D01*
X043817Y015110D01*
X043664Y015110D01*
X043587Y015034D01*
X043433Y014880D02*
X043126Y014880D01*
X043357Y015110D01*
X043357Y014650D01*
X042973Y014650D02*
X042820Y014803D01*
X042896Y014803D02*
X042666Y014803D01*
X042666Y014650D02*
X042666Y015110D01*
X042896Y015110D01*
X042973Y015034D01*
X042973Y014880D01*
X042896Y014803D01*
X038126Y018727D02*
X038126Y018880D01*
X038049Y018957D01*
X038049Y019110D02*
X038126Y019187D01*
X038126Y019341D01*
X038049Y019417D01*
X037973Y019417D01*
X037896Y019341D01*
X037896Y019264D01*
X037896Y019341D02*
X037819Y019417D01*
X037742Y019417D01*
X037666Y019341D01*
X037666Y019187D01*
X037742Y019110D01*
X037742Y018957D02*
X037666Y018880D01*
X037666Y018727D01*
X037742Y018650D01*
X038049Y018650D01*
X038126Y018727D01*
X038126Y019571D02*
X038049Y019571D01*
X037742Y019878D01*
X037666Y019878D01*
X037666Y019571D01*
X033376Y019378D02*
X033376Y019071D01*
X033069Y019378D01*
X032992Y019378D01*
X032916Y019301D01*
X032916Y019148D01*
X032992Y019071D01*
X032916Y018917D02*
X032916Y018610D01*
X033146Y018610D01*
X033069Y018764D01*
X033069Y018841D01*
X033146Y018917D01*
X033299Y018917D01*
X033376Y018841D01*
X033376Y018687D01*
X033299Y018610D01*
X033299Y018457D02*
X033376Y018380D01*
X033376Y018227D01*
X033299Y018150D01*
X032992Y018150D01*
X032916Y018227D01*
X032916Y018380D01*
X032992Y018457D01*
X033376Y017378D02*
X033376Y017071D01*
X033376Y017224D02*
X032916Y017224D01*
X033069Y017071D01*
X033146Y016917D02*
X033069Y016841D01*
X033069Y016764D01*
X033146Y016610D01*
X032916Y016610D01*
X032916Y016917D01*
X033146Y016917D02*
X033299Y016917D01*
X033376Y016841D01*
X033376Y016687D01*
X033299Y016610D01*
X033299Y016457D02*
X033376Y016380D01*
X033376Y016227D01*
X033299Y016150D01*
X032992Y016150D01*
X032916Y016227D01*
X032916Y016380D01*
X032992Y016457D01*
X031122Y016362D02*
X030968Y016286D01*
X030815Y016132D01*
X031045Y016132D01*
X031122Y016055D01*
X031122Y015979D01*
X031045Y015902D01*
X030892Y015902D01*
X030815Y015979D01*
X030815Y016132D01*
X030661Y016209D02*
X030661Y016286D01*
X030585Y016362D01*
X030431Y016362D01*
X030355Y016286D01*
X030201Y016286D02*
X030124Y016362D01*
X029971Y016362D01*
X029894Y016286D01*
X029894Y016209D01*
X029971Y016132D01*
X030124Y016132D01*
X030201Y016055D01*
X030201Y015979D01*
X030124Y015902D01*
X029971Y015902D01*
X029894Y015979D01*
X029741Y015979D02*
X029741Y016362D01*
X029434Y016362D02*
X029434Y015979D01*
X029511Y015902D01*
X029664Y015902D01*
X029741Y015979D01*
X030048Y015825D02*
X030048Y016439D01*
X030355Y015902D02*
X030661Y016209D01*
X030661Y015902D02*
X030355Y015902D01*
X033916Y014497D02*
X033916Y014190D01*
X034146Y014190D01*
X034069Y014343D01*
X034069Y014420D01*
X034146Y014497D01*
X034299Y014497D01*
X034376Y014420D01*
X034376Y014266D01*
X034299Y014190D01*
X034299Y014036D02*
X034376Y013959D01*
X034376Y013806D01*
X034299Y013729D01*
X034146Y013729D02*
X034069Y013883D01*
X034069Y013959D01*
X034146Y014036D01*
X034299Y014036D01*
X034146Y013729D02*
X033916Y013729D01*
X033916Y014036D01*
X033992Y013576D02*
X033916Y013499D01*
X033916Y013346D01*
X033992Y013269D01*
X034299Y013269D01*
X034376Y013346D01*
X034376Y013499D01*
X034299Y013576D01*
X028763Y011034D02*
X028763Y010957D01*
X028686Y010880D01*
X028763Y010803D01*
X028763Y010727D01*
X028686Y010650D01*
X028532Y010650D01*
X028456Y010727D01*
X028302Y010727D02*
X028225Y010650D01*
X028072Y010650D01*
X027995Y010727D01*
X027842Y010727D02*
X027765Y010650D01*
X027612Y010650D01*
X027535Y010727D01*
X027535Y011034D01*
X027612Y011110D01*
X027765Y011110D01*
X027842Y011034D01*
X027995Y011110D02*
X027995Y010880D01*
X028149Y010957D01*
X028225Y010957D01*
X028302Y010880D01*
X028302Y010727D01*
X028456Y011034D02*
X028532Y011110D01*
X028686Y011110D01*
X028763Y011034D01*
X028686Y010880D02*
X028609Y010880D01*
X028302Y011110D02*
X027995Y011110D01*
X020126Y015900D02*
X019820Y015900D01*
X019973Y015900D02*
X019973Y016360D01*
X019820Y016207D01*
X019666Y016284D02*
X019589Y016360D01*
X019436Y016360D01*
X019359Y016284D01*
X019359Y015977D01*
X019436Y015900D01*
X019589Y015900D01*
X019666Y015977D01*
X019206Y015900D02*
X019052Y015900D01*
X019129Y015900D02*
X019129Y016360D01*
X019052Y016360D02*
X019206Y016360D01*
X024666Y019900D02*
X024666Y020130D01*
X024742Y020207D01*
X024896Y020207D01*
X024973Y020130D01*
X024973Y019900D01*
X025126Y019900D02*
X024666Y019900D01*
X024973Y020053D02*
X025126Y020207D01*
X025049Y020360D02*
X025126Y020437D01*
X025126Y020591D01*
X025049Y020667D01*
X024896Y020667D01*
X024819Y020591D01*
X024819Y020514D01*
X024896Y020360D01*
X024666Y020360D01*
X024666Y020667D01*
X024742Y020821D02*
X024819Y020821D01*
X024896Y020898D01*
X024896Y021128D01*
X025049Y021128D02*
X024742Y021128D01*
X024666Y021051D01*
X024666Y020898D01*
X024742Y020821D01*
X025049Y020821D02*
X025126Y020898D01*
X025126Y021051D01*
X025049Y021128D01*
X028416Y021227D02*
X028493Y021150D01*
X028646Y021150D01*
X028723Y021227D01*
X028876Y021227D02*
X028953Y021150D01*
X029107Y021150D01*
X029183Y021227D01*
X029183Y021380D01*
X029107Y021457D01*
X029030Y021457D01*
X028876Y021380D01*
X028876Y021610D01*
X029183Y021610D01*
X029337Y021380D02*
X029644Y021380D01*
X029567Y021150D02*
X029567Y021610D01*
X029337Y021380D01*
X028723Y021534D02*
X028646Y021610D01*
X028493Y021610D01*
X028416Y021534D01*
X028416Y021227D01*
X013144Y007110D02*
X012990Y007034D01*
X012837Y006880D01*
X013067Y006880D01*
X013144Y006803D01*
X013144Y006727D01*
X013067Y006650D01*
X012914Y006650D01*
X012837Y006727D01*
X012837Y006880D01*
X012683Y006803D02*
X012683Y006727D01*
X012607Y006650D01*
X012453Y006650D01*
X012376Y006727D01*
X012223Y006727D02*
X012146Y006650D01*
X011993Y006650D01*
X011916Y006727D01*
X011916Y007034D01*
X011993Y007110D01*
X012146Y007110D01*
X012223Y007034D01*
X012376Y007034D02*
X012453Y007110D01*
X012607Y007110D01*
X012683Y007034D01*
X012683Y006957D01*
X012607Y006880D01*
X012683Y006803D01*
X012607Y006880D02*
X012530Y006880D01*
X010126Y005420D02*
X009666Y005420D01*
X009896Y005190D01*
X009896Y005497D01*
X009896Y005036D02*
X009896Y004729D01*
X009666Y004959D01*
X010126Y004959D01*
X010126Y004576D02*
X009973Y004422D01*
X009973Y004499D02*
X009973Y004269D01*
X010126Y004269D02*
X009666Y004269D01*
X009666Y004499D01*
X009742Y004576D01*
X009896Y004576D01*
X009973Y004499D01*
X008299Y006400D02*
X007992Y006400D01*
X007916Y006477D01*
X007916Y006630D01*
X007992Y006707D01*
X007916Y006860D02*
X008146Y006860D01*
X008069Y007014D01*
X008069Y007091D01*
X008146Y007167D01*
X008299Y007167D01*
X008376Y007091D01*
X008376Y006937D01*
X008299Y006860D01*
X008299Y006707D02*
X008376Y006630D01*
X008376Y006477D01*
X008299Y006400D01*
X007916Y006860D02*
X007916Y007167D01*
X007916Y007321D02*
X007916Y007628D01*
X007992Y007628D01*
X008299Y007321D01*
X008376Y007321D01*
X006894Y007034D02*
X006894Y006957D01*
X006817Y006880D01*
X006664Y006880D01*
X006587Y006957D01*
X006587Y007034D01*
X006664Y007110D01*
X006817Y007110D01*
X006894Y007034D01*
X006817Y006880D02*
X006894Y006803D01*
X006894Y006727D01*
X006817Y006650D01*
X006664Y006650D01*
X006587Y006727D01*
X006587Y006803D01*
X006664Y006880D01*
X006433Y006957D02*
X006126Y006650D01*
X006433Y006650D01*
X006433Y006957D02*
X006433Y007034D01*
X006357Y007110D01*
X006203Y007110D01*
X006126Y007034D01*
X005973Y007034D02*
X005973Y006880D01*
X005896Y006803D01*
X005666Y006803D01*
X005666Y006650D02*
X005666Y007110D01*
X005896Y007110D01*
X005973Y007034D01*
X005820Y006803D02*
X005973Y006650D01*
X005896Y007650D02*
X005973Y007727D01*
X005896Y007650D02*
X005743Y007650D01*
X005666Y007727D01*
X005666Y008034D01*
X005743Y008110D01*
X005896Y008110D01*
X005973Y008034D01*
X006126Y008110D02*
X006126Y007880D01*
X006280Y007957D01*
X006357Y007957D01*
X006433Y007880D01*
X006433Y007727D01*
X006357Y007650D01*
X006203Y007650D01*
X006126Y007727D01*
X006126Y008110D02*
X006433Y008110D01*
X006587Y008034D02*
X006587Y007957D01*
X006664Y007880D01*
X006817Y007880D01*
X006894Y007803D01*
X006894Y007727D01*
X006817Y007650D01*
X006664Y007650D01*
X006587Y007727D01*
X006587Y007803D01*
X006664Y007880D01*
X006817Y007880D02*
X006894Y007957D01*
X006894Y008034D01*
X006817Y008110D01*
X006664Y008110D01*
X006587Y008034D01*
X006317Y009400D02*
X006394Y009477D01*
X006394Y009784D01*
X006317Y009860D01*
X006164Y009860D01*
X006087Y009784D01*
X006087Y009707D01*
X006164Y009630D01*
X006394Y009630D01*
X006317Y009400D02*
X006164Y009400D01*
X006087Y009477D01*
X005933Y009400D02*
X005626Y009400D01*
X005933Y009707D01*
X005933Y009784D01*
X005857Y009860D01*
X005703Y009860D01*
X005626Y009784D01*
X005473Y009784D02*
X005473Y009630D01*
X005396Y009553D01*
X005166Y009553D01*
X005166Y009400D02*
X005166Y009860D01*
X005396Y009860D01*
X005473Y009784D01*
X005320Y009553D02*
X005473Y009400D01*
X006666Y010346D02*
X006742Y010269D01*
X007049Y010269D01*
X007126Y010346D01*
X007126Y010499D01*
X007049Y010576D01*
X007049Y010729D02*
X007126Y010806D01*
X007126Y010959D01*
X007049Y011036D01*
X006896Y011036D01*
X006819Y010959D01*
X006819Y010883D01*
X006896Y010729D01*
X006666Y010729D01*
X006666Y011036D01*
X006896Y011190D02*
X006896Y011420D01*
X006973Y011497D01*
X007049Y011497D01*
X007126Y011420D01*
X007126Y011266D01*
X007049Y011190D01*
X006896Y011190D01*
X006742Y011343D01*
X006666Y011497D01*
X007857Y011687D02*
X007933Y011610D01*
X007857Y011687D02*
X007857Y011841D01*
X007933Y011917D01*
X008010Y011917D01*
X008317Y011610D01*
X008317Y011917D01*
X008317Y011457D02*
X008317Y011150D01*
X008317Y011303D02*
X007857Y011303D01*
X008010Y011150D01*
X007933Y010997D02*
X007857Y010920D01*
X007857Y010766D01*
X007933Y010690D01*
X008010Y010690D01*
X008087Y010766D01*
X008087Y010920D01*
X008164Y010997D01*
X008240Y010997D01*
X008317Y010920D01*
X008317Y010766D01*
X008240Y010690D01*
X008240Y010536D02*
X007857Y010536D01*
X007857Y010229D02*
X008240Y010229D01*
X008317Y010306D01*
X008317Y010459D01*
X008240Y010536D01*
X008394Y010843D02*
X007780Y010843D01*
X006742Y010576D02*
X006666Y010499D01*
X006666Y010346D01*
X009166Y010900D02*
X009166Y011130D01*
X009242Y011207D01*
X009396Y011207D01*
X009473Y011130D01*
X009473Y010900D01*
X009626Y010900D02*
X009166Y010900D01*
X009473Y011053D02*
X009626Y011207D01*
X009626Y011360D02*
X009319Y011667D01*
X009242Y011667D01*
X009166Y011591D01*
X009166Y011437D01*
X009242Y011360D01*
X009626Y011360D02*
X009626Y011667D01*
X009626Y011821D02*
X009549Y011821D01*
X009242Y012128D01*
X009166Y012128D01*
X009166Y011821D01*
X003876Y011051D02*
X003876Y010898D01*
X003799Y010821D01*
X003492Y011128D01*
X003799Y011128D01*
X003876Y011051D01*
X003799Y010821D02*
X003492Y010821D01*
X003416Y010898D01*
X003416Y011051D01*
X003492Y011128D01*
X003492Y010667D02*
X003569Y010667D01*
X003646Y010591D01*
X003723Y010667D01*
X003799Y010667D01*
X003876Y010591D01*
X003876Y010437D01*
X003799Y010360D01*
X003876Y010207D02*
X003723Y010053D01*
X003723Y010130D02*
X003723Y009900D01*
X003876Y009900D02*
X003416Y009900D01*
X003416Y010130D01*
X003492Y010207D01*
X003646Y010207D01*
X003723Y010130D01*
X003492Y010360D02*
X003416Y010437D01*
X003416Y010591D01*
X003492Y010667D01*
X003646Y010591D02*
X003646Y010514D01*
X005916Y003685D02*
X006376Y003685D01*
X006376Y003532D02*
X006376Y003839D01*
X006069Y003532D02*
X005916Y003685D01*
X005992Y003378D02*
X005916Y003302D01*
X005916Y003148D01*
X005992Y003071D01*
X006069Y003071D01*
X006146Y003148D01*
X006146Y003302D01*
X006223Y003378D01*
X006299Y003378D01*
X006376Y003302D01*
X006376Y003148D01*
X006299Y003071D01*
X006414Y018150D02*
X006567Y018150D01*
X006644Y018227D01*
X006644Y018303D01*
X006567Y018380D01*
X006337Y018380D01*
X006337Y018227D01*
X006414Y018150D01*
X006183Y018150D02*
X005876Y018150D01*
X006183Y018457D01*
X006183Y018534D01*
X006107Y018610D01*
X005953Y018610D01*
X005876Y018534D01*
X005723Y018534D02*
X005723Y018380D01*
X005646Y018303D01*
X005416Y018303D01*
X005416Y018150D02*
X005416Y018610D01*
X005646Y018610D01*
X005723Y018534D01*
X005570Y018303D02*
X005723Y018150D01*
X006337Y018380D02*
X006490Y018534D01*
X006644Y018610D01*
X007666Y018527D02*
X007743Y018450D01*
X007896Y018450D01*
X007973Y018527D01*
X007973Y018910D01*
X008126Y018834D02*
X008203Y018910D01*
X008357Y018910D01*
X008433Y018834D01*
X008357Y018680D02*
X008203Y018680D01*
X008126Y018757D01*
X008126Y018834D01*
X008280Y018987D02*
X008280Y018373D01*
X008357Y018450D02*
X008433Y018527D01*
X008433Y018603D01*
X008357Y018680D01*
X008357Y018450D02*
X008203Y018450D01*
X008126Y018527D01*
X007666Y018527D02*
X007666Y018910D01*
X008587Y018757D02*
X008740Y018910D01*
X008740Y018450D01*
X008587Y018450D02*
X008894Y018450D01*
X009047Y018527D02*
X009124Y018450D01*
X009277Y018450D01*
X009354Y018527D01*
X009354Y018603D01*
X009277Y018680D01*
X009047Y018680D01*
X009047Y018527D01*
X009047Y018680D02*
X009201Y018834D01*
X009354Y018910D01*
X004376Y020900D02*
X003916Y020900D01*
X003916Y021130D01*
X003992Y021207D01*
X004146Y021207D01*
X004223Y021130D01*
X004223Y020900D01*
X004223Y021053D02*
X004376Y021207D01*
X004299Y021360D02*
X004376Y021437D01*
X004376Y021591D01*
X004299Y021667D01*
X004223Y021667D01*
X004146Y021591D01*
X004146Y021514D01*
X004146Y021591D02*
X004069Y021667D01*
X003992Y021667D01*
X003916Y021591D01*
X003916Y021437D01*
X003992Y021360D01*
X004069Y021821D02*
X003916Y021974D01*
X004376Y021974D01*
X004376Y021821D02*
X004376Y022128D01*
X003644Y022477D02*
X003567Y022400D01*
X003414Y022400D01*
X003337Y022477D01*
X003337Y022553D01*
X003414Y022630D01*
X003567Y022630D01*
X003644Y022553D01*
X003644Y022477D01*
X003567Y022630D02*
X003644Y022707D01*
X003644Y022784D01*
X003567Y022860D01*
X003414Y022860D01*
X003337Y022784D01*
X003337Y022707D01*
X003414Y022630D01*
X003183Y022630D02*
X003183Y022477D01*
X003107Y022400D01*
X002953Y022400D01*
X002876Y022477D01*
X002876Y022630D02*
X003030Y022707D01*
X003107Y022707D01*
X003183Y022630D01*
X003183Y022860D02*
X002876Y022860D01*
X002876Y022630D01*
X002723Y022630D02*
X002646Y022553D01*
X002416Y022553D01*
X002416Y022400D02*
X002416Y022860D01*
X002646Y022860D01*
X002723Y022784D01*
X002723Y022630D01*
X002570Y022553D02*
X002723Y022400D01*
X027535Y002034D02*
X027535Y001727D01*
X027612Y001650D01*
X027765Y001650D01*
X027842Y001727D01*
X027995Y001727D02*
X028072Y001650D01*
X028225Y001650D01*
X028302Y001727D01*
X028302Y001803D01*
X028225Y001880D01*
X028149Y001880D01*
X028225Y001880D02*
X028302Y001957D01*
X028302Y002034D01*
X028225Y002110D01*
X028072Y002110D01*
X027995Y002034D01*
X027842Y002034D02*
X027765Y002110D01*
X027612Y002110D01*
X027535Y002034D01*
X028456Y002110D02*
X028456Y001880D01*
X028609Y001957D01*
X028686Y001957D01*
X028763Y001880D01*
X028763Y001727D01*
X028686Y001650D01*
X028532Y001650D01*
X028456Y001727D01*
X028456Y002110D02*
X028763Y002110D01*
X046416Y002846D02*
X046492Y002769D01*
X046799Y002769D01*
X046876Y002846D01*
X046876Y002999D01*
X046799Y003076D01*
X046876Y003229D02*
X046569Y003536D01*
X046492Y003536D01*
X046416Y003459D01*
X046416Y003306D01*
X046492Y003229D01*
X046492Y003076D02*
X046416Y002999D01*
X046416Y002846D01*
X046876Y003229D02*
X046876Y003536D01*
X046799Y003690D02*
X046876Y003766D01*
X046876Y003920D01*
X046799Y003997D01*
X046492Y003997D01*
X046416Y003920D01*
X046416Y003766D01*
X046492Y003690D01*
X046569Y003690D01*
X046646Y003766D01*
X046646Y003997D01*
X041973Y036306D02*
X041666Y036306D01*
X041973Y036612D01*
X041973Y036689D01*
X041896Y036766D01*
X041743Y036766D01*
X041666Y036689D01*
X041513Y036766D02*
X041359Y036766D01*
X041436Y036766D02*
X041436Y036382D01*
X041359Y036306D01*
X041282Y036306D01*
X041206Y036382D01*
D13*
X003498Y028313D02*
X003498Y028263D01*
X003473Y028238D01*
X003423Y028263D02*
X003423Y028313D01*
X003448Y028338D01*
X003473Y028338D01*
X003498Y028313D01*
X003423Y028263D02*
X003398Y028238D01*
X003373Y028238D01*
X003348Y028263D01*
X003348Y028313D01*
X003373Y028338D01*
X003373Y028043D02*
X003348Y028018D01*
X003348Y027968D01*
X003373Y027943D01*
X003473Y027943D01*
X003498Y027968D01*
X003498Y028018D01*
X003473Y028043D01*
X003498Y027748D02*
X003498Y027697D01*
X003498Y027722D02*
X003348Y027722D01*
X003348Y027697D02*
X003348Y027748D01*
X003348Y027503D02*
X003498Y027503D01*
X003348Y027403D01*
X003498Y027403D01*
X003473Y027208D02*
X003373Y027208D01*
X003348Y027183D01*
X003348Y027133D01*
X003373Y027108D01*
X003473Y027108D01*
X003498Y027133D01*
X003498Y027183D01*
X003473Y027208D01*
X003498Y026914D02*
X003448Y026864D01*
X003448Y026889D02*
X003448Y026814D01*
X003498Y026814D02*
X003348Y026814D01*
X003348Y026889D01*
X003373Y026914D01*
X003423Y026914D01*
X003448Y026889D01*
X003348Y026619D02*
X003348Y026519D01*
X003348Y026569D02*
X003498Y026569D01*
X003473Y026324D02*
X003498Y026299D01*
X003498Y026249D01*
X003473Y026224D01*
X003373Y026224D01*
X003348Y026249D01*
X003348Y026299D01*
X003373Y026324D01*
X003348Y026030D02*
X003348Y025930D01*
X003498Y025930D01*
X003498Y026030D01*
X003423Y025980D02*
X003423Y025930D01*
X003498Y025735D02*
X003498Y025635D01*
X003348Y025635D01*
X003348Y025440D02*
X003348Y025340D01*
X003498Y025340D01*
X003498Y025440D01*
X003423Y025390D02*
X003423Y025340D01*
D14*
X004571Y033929D02*
X004571Y034126D01*
X005221Y034126D01*
X005221Y033929D02*
X004571Y033929D01*
X005071Y034717D02*
X007721Y034717D01*
X007721Y034126D01*
X007071Y034126D01*
X007071Y033929D02*
X007721Y033929D01*
X007721Y034126D01*
X007721Y034717D02*
X007918Y034717D01*
X007918Y039441D01*
X007406Y039441D01*
X007406Y039047D01*
X007406Y038654D02*
X007406Y038260D01*
X007721Y038063D02*
X007721Y034717D01*
X007406Y035898D02*
X006638Y035898D01*
X006343Y035898D01*
X005949Y035898D02*
X005654Y035898D01*
X004886Y035898D01*
X004886Y036291D01*
X004886Y036685D02*
X004886Y037079D01*
X004886Y037473D02*
X004886Y037866D01*
X004886Y038260D02*
X004886Y038654D01*
X004886Y039047D02*
X004886Y039441D01*
X007406Y039441D01*
X006638Y038654D02*
X006636Y038697D01*
X006631Y038739D01*
X006621Y038781D01*
X006608Y038822D01*
X006592Y038862D01*
X006572Y038900D01*
X006549Y038936D01*
X006523Y038970D01*
X006494Y039002D01*
X006462Y039031D01*
X006428Y039057D01*
X006392Y039080D01*
X006354Y039100D01*
X006314Y039116D01*
X006273Y039129D01*
X006231Y039139D01*
X006189Y039144D01*
X006146Y039146D01*
X006103Y039144D01*
X006061Y039139D01*
X006019Y039129D01*
X005978Y039116D01*
X005938Y039100D01*
X005900Y039080D01*
X005864Y039057D01*
X005830Y039031D01*
X005798Y039002D01*
X005769Y038970D01*
X005743Y038936D01*
X005720Y038900D01*
X005700Y038862D01*
X005684Y038822D01*
X005671Y038781D01*
X005661Y038739D01*
X005656Y038697D01*
X005654Y038654D01*
X004886Y039441D02*
X004374Y039441D01*
X004374Y036217D01*
X004374Y038063D02*
X007721Y038063D01*
X007918Y038063D01*
X007406Y037866D02*
X007406Y037473D01*
X007406Y037079D02*
X007406Y036685D01*
X007406Y036291D02*
X007406Y035898D01*
X007949Y012508D02*
X008343Y012508D01*
X009146Y011524D02*
X009146Y010736D01*
X008343Y009752D02*
X007949Y009752D01*
X007146Y010736D02*
X007146Y011524D01*
X006887Y012114D02*
X006885Y012122D01*
X006881Y012128D01*
X006875Y012132D01*
X006867Y012134D01*
X006859Y012132D01*
X006853Y012128D01*
X006849Y012122D01*
X006847Y012114D01*
X006849Y012106D01*
X006853Y012100D01*
X006859Y012096D01*
X006867Y012094D01*
X006875Y012096D01*
X006881Y012100D01*
X006885Y012106D01*
X006887Y012114D01*
X007327Y004811D02*
X004965Y004811D01*
X004965Y002449D01*
X007327Y002449D01*
X007327Y004811D01*
X031215Y004811D02*
X031215Y002449D01*
X033577Y002449D01*
X033577Y004811D01*
X031215Y004811D01*
X034465Y004811D02*
X034465Y002449D01*
X036827Y002449D01*
X036827Y004811D01*
X034465Y004811D01*
X037715Y004811D02*
X037715Y002449D01*
X040077Y002449D01*
X040077Y004811D01*
X037715Y004811D01*
X040965Y004811D02*
X040965Y002449D01*
X043327Y002449D01*
X043327Y004811D01*
X040965Y004811D01*
D15*
X001516Y002130D02*
X001518Y002180D01*
X001524Y002230D01*
X001534Y002279D01*
X001548Y002327D01*
X001565Y002374D01*
X001586Y002419D01*
X001611Y002463D01*
X001639Y002504D01*
X001671Y002543D01*
X001705Y002580D01*
X001742Y002614D01*
X001782Y002644D01*
X001824Y002671D01*
X001868Y002695D01*
X001914Y002716D01*
X001961Y002732D01*
X002009Y002745D01*
X002059Y002754D01*
X002108Y002759D01*
X002159Y002760D01*
X002209Y002757D01*
X002258Y002750D01*
X002307Y002739D01*
X002355Y002724D01*
X002401Y002706D01*
X002446Y002684D01*
X002489Y002658D01*
X002530Y002629D01*
X002569Y002597D01*
X002605Y002562D01*
X002637Y002524D01*
X002667Y002484D01*
X002694Y002441D01*
X002717Y002397D01*
X002736Y002351D01*
X002752Y002303D01*
X002764Y002254D01*
X002772Y002205D01*
X002776Y002155D01*
X002776Y002105D01*
X002772Y002055D01*
X002764Y002006D01*
X002752Y001957D01*
X002736Y001909D01*
X002717Y001863D01*
X002694Y001819D01*
X002667Y001776D01*
X002637Y001736D01*
X002605Y001698D01*
X002569Y001663D01*
X002530Y001631D01*
X002489Y001602D01*
X002446Y001576D01*
X002401Y001554D01*
X002355Y001536D01*
X002307Y001521D01*
X002258Y001510D01*
X002209Y001503D01*
X002159Y001500D01*
X002108Y001501D01*
X002059Y001506D01*
X002009Y001515D01*
X001961Y001528D01*
X001914Y001544D01*
X001868Y001565D01*
X001824Y001589D01*
X001782Y001616D01*
X001742Y001646D01*
X001705Y001680D01*
X001671Y001717D01*
X001639Y001756D01*
X001611Y001797D01*
X001586Y001841D01*
X001565Y001886D01*
X001548Y001933D01*
X001534Y001981D01*
X001524Y002030D01*
X001518Y002080D01*
X001516Y002130D01*
X007648Y016435D02*
X007648Y018325D01*
X007845Y018325D02*
X007845Y016435D01*
X007648Y016435D01*
X007845Y016435D02*
X009144Y016435D01*
X009144Y018325D01*
X007845Y018325D01*
X007845Y019185D02*
X007845Y021075D01*
X009144Y021075D01*
X009144Y019185D01*
X007845Y019185D01*
X007648Y019185D01*
X007648Y021075D01*
X021356Y034780D02*
X021356Y037140D01*
X021356Y034780D02*
X023936Y034780D01*
X023936Y037140D01*
X028856Y036830D02*
X028856Y035430D01*
X031436Y035430D01*
X031436Y036830D01*
X028856Y036830D01*
X032895Y036830D02*
X032895Y035430D01*
X035475Y035430D01*
X035475Y036830D01*
X032895Y036830D01*
X045317Y027583D02*
X045317Y021677D01*
X050357Y021677D01*
X050357Y027583D01*
X045317Y027583D01*
X045317Y018083D02*
X045317Y012177D01*
X050357Y012177D01*
X050357Y018083D01*
X045317Y018083D01*
X045317Y010833D02*
X045317Y004927D01*
X050357Y004927D01*
X050357Y010833D01*
X045317Y010833D01*
X047766Y002130D02*
X047768Y002180D01*
X047774Y002230D01*
X047784Y002279D01*
X047798Y002327D01*
X047815Y002374D01*
X047836Y002419D01*
X047861Y002463D01*
X047889Y002504D01*
X047921Y002543D01*
X047955Y002580D01*
X047992Y002614D01*
X048032Y002644D01*
X048074Y002671D01*
X048118Y002695D01*
X048164Y002716D01*
X048211Y002732D01*
X048259Y002745D01*
X048309Y002754D01*
X048358Y002759D01*
X048409Y002760D01*
X048459Y002757D01*
X048508Y002750D01*
X048557Y002739D01*
X048605Y002724D01*
X048651Y002706D01*
X048696Y002684D01*
X048739Y002658D01*
X048780Y002629D01*
X048819Y002597D01*
X048855Y002562D01*
X048887Y002524D01*
X048917Y002484D01*
X048944Y002441D01*
X048967Y002397D01*
X048986Y002351D01*
X049002Y002303D01*
X049014Y002254D01*
X049022Y002205D01*
X049026Y002155D01*
X049026Y002105D01*
X049022Y002055D01*
X049014Y002006D01*
X049002Y001957D01*
X048986Y001909D01*
X048967Y001863D01*
X048944Y001819D01*
X048917Y001776D01*
X048887Y001736D01*
X048855Y001698D01*
X048819Y001663D01*
X048780Y001631D01*
X048739Y001602D01*
X048696Y001576D01*
X048651Y001554D01*
X048605Y001536D01*
X048557Y001521D01*
X048508Y001510D01*
X048459Y001503D01*
X048409Y001500D01*
X048358Y001501D01*
X048309Y001506D01*
X048259Y001515D01*
X048211Y001528D01*
X048164Y001544D01*
X048118Y001565D01*
X048074Y001589D01*
X048032Y001616D01*
X047992Y001646D01*
X047955Y001680D01*
X047921Y001717D01*
X047889Y001756D01*
X047861Y001797D01*
X047836Y001841D01*
X047815Y001886D01*
X047798Y001933D01*
X047784Y001981D01*
X047774Y002030D01*
X047768Y002080D01*
X047766Y002130D01*
X032134Y012075D02*
X028158Y012075D01*
X028158Y020185D02*
X032134Y020185D01*
X047766Y037630D02*
X047768Y037680D01*
X047774Y037730D01*
X047784Y037779D01*
X047798Y037827D01*
X047815Y037874D01*
X047836Y037919D01*
X047861Y037963D01*
X047889Y038004D01*
X047921Y038043D01*
X047955Y038080D01*
X047992Y038114D01*
X048032Y038144D01*
X048074Y038171D01*
X048118Y038195D01*
X048164Y038216D01*
X048211Y038232D01*
X048259Y038245D01*
X048309Y038254D01*
X048358Y038259D01*
X048409Y038260D01*
X048459Y038257D01*
X048508Y038250D01*
X048557Y038239D01*
X048605Y038224D01*
X048651Y038206D01*
X048696Y038184D01*
X048739Y038158D01*
X048780Y038129D01*
X048819Y038097D01*
X048855Y038062D01*
X048887Y038024D01*
X048917Y037984D01*
X048944Y037941D01*
X048967Y037897D01*
X048986Y037851D01*
X049002Y037803D01*
X049014Y037754D01*
X049022Y037705D01*
X049026Y037655D01*
X049026Y037605D01*
X049022Y037555D01*
X049014Y037506D01*
X049002Y037457D01*
X048986Y037409D01*
X048967Y037363D01*
X048944Y037319D01*
X048917Y037276D01*
X048887Y037236D01*
X048855Y037198D01*
X048819Y037163D01*
X048780Y037131D01*
X048739Y037102D01*
X048696Y037076D01*
X048651Y037054D01*
X048605Y037036D01*
X048557Y037021D01*
X048508Y037010D01*
X048459Y037003D01*
X048409Y037000D01*
X048358Y037001D01*
X048309Y037006D01*
X048259Y037015D01*
X048211Y037028D01*
X048164Y037044D01*
X048118Y037065D01*
X048074Y037089D01*
X048032Y037116D01*
X047992Y037146D01*
X047955Y037180D01*
X047921Y037217D01*
X047889Y037256D01*
X047861Y037297D01*
X047836Y037341D01*
X047815Y037386D01*
X047798Y037433D01*
X047784Y037481D01*
X047774Y037530D01*
X047768Y037580D01*
X047766Y037630D01*
X001516Y037630D02*
X001518Y037680D01*
X001524Y037730D01*
X001534Y037779D01*
X001548Y037827D01*
X001565Y037874D01*
X001586Y037919D01*
X001611Y037963D01*
X001639Y038004D01*
X001671Y038043D01*
X001705Y038080D01*
X001742Y038114D01*
X001782Y038144D01*
X001824Y038171D01*
X001868Y038195D01*
X001914Y038216D01*
X001961Y038232D01*
X002009Y038245D01*
X002059Y038254D01*
X002108Y038259D01*
X002159Y038260D01*
X002209Y038257D01*
X002258Y038250D01*
X002307Y038239D01*
X002355Y038224D01*
X002401Y038206D01*
X002446Y038184D01*
X002489Y038158D01*
X002530Y038129D01*
X002569Y038097D01*
X002605Y038062D01*
X002637Y038024D01*
X002667Y037984D01*
X002694Y037941D01*
X002717Y037897D01*
X002736Y037851D01*
X002752Y037803D01*
X002764Y037754D01*
X002772Y037705D01*
X002776Y037655D01*
X002776Y037605D01*
X002772Y037555D01*
X002764Y037506D01*
X002752Y037457D01*
X002736Y037409D01*
X002717Y037363D01*
X002694Y037319D01*
X002667Y037276D01*
X002637Y037236D01*
X002605Y037198D01*
X002569Y037163D01*
X002530Y037131D01*
X002489Y037102D01*
X002446Y037076D01*
X002401Y037054D01*
X002355Y037036D01*
X002307Y037021D01*
X002258Y037010D01*
X002209Y037003D01*
X002159Y037000D01*
X002108Y037001D01*
X002059Y037006D01*
X002009Y037015D01*
X001961Y037028D01*
X001914Y037044D01*
X001868Y037065D01*
X001824Y037089D01*
X001782Y037116D01*
X001742Y037146D01*
X001705Y037180D01*
X001671Y037217D01*
X001639Y037256D01*
X001611Y037297D01*
X001586Y037341D01*
X001565Y037386D01*
X001548Y037433D01*
X001534Y037481D01*
X001524Y037530D01*
X001518Y037580D01*
X001516Y037630D01*
D16*
X012646Y033470D03*
X013646Y033470D03*
X014646Y033470D03*
D17*
X009844Y034618D02*
X009543Y034618D01*
X009693Y034618D02*
X009693Y035068D01*
X009543Y034918D01*
X009383Y034993D02*
X009308Y035068D01*
X009083Y035068D01*
X009083Y034618D01*
X009308Y034618D01*
X009383Y034693D01*
X009383Y034993D01*
X008406Y037130D02*
X008408Y037200D01*
X008414Y037270D01*
X008424Y037340D01*
X008438Y037408D01*
X008455Y037476D01*
X008477Y037543D01*
X008502Y037609D01*
X008531Y037673D01*
X008563Y037735D01*
X008599Y037795D01*
X008639Y037853D01*
X008681Y037909D01*
X008727Y037962D01*
X008775Y038013D01*
X008827Y038061D01*
X008881Y038106D01*
X008937Y038147D01*
X008996Y038186D01*
X009057Y038221D01*
X009119Y038253D01*
X009184Y038281D01*
X009249Y038305D01*
X009317Y038325D01*
X009385Y038342D01*
X009454Y038355D01*
X009523Y038364D01*
X009593Y038369D01*
X009664Y038370D01*
X009734Y038367D01*
X009804Y038360D01*
X009873Y038349D01*
X009941Y038334D01*
X010009Y038316D01*
X010076Y038293D01*
X010141Y038267D01*
X010204Y038237D01*
X010266Y038204D01*
X010326Y038167D01*
X010383Y038127D01*
X010439Y038084D01*
X010491Y038037D01*
X010541Y037988D01*
X010588Y037936D01*
X010632Y037881D01*
X010673Y037824D01*
X010711Y037765D01*
X010745Y037704D01*
X010776Y037641D01*
X010803Y037576D01*
X010826Y037510D01*
X010846Y037442D01*
X010862Y037374D01*
X010874Y037305D01*
X010882Y037235D01*
X010886Y037165D01*
X010886Y037095D01*
X010882Y037025D01*
X010874Y036955D01*
X010862Y036886D01*
X010846Y036818D01*
X010826Y036750D01*
X010803Y036684D01*
X010776Y036619D01*
X010745Y036556D01*
X010711Y036495D01*
X010673Y036436D01*
X010632Y036379D01*
X010588Y036324D01*
X010541Y036272D01*
X010491Y036223D01*
X010439Y036176D01*
X010383Y036133D01*
X010326Y036093D01*
X010266Y036056D01*
X010204Y036023D01*
X010141Y035993D01*
X010076Y035967D01*
X010009Y035944D01*
X009941Y035926D01*
X009873Y035911D01*
X009804Y035900D01*
X009734Y035893D01*
X009664Y035890D01*
X009593Y035891D01*
X009523Y035896D01*
X009454Y035905D01*
X009385Y035918D01*
X009317Y035935D01*
X009249Y035955D01*
X009184Y035979D01*
X009119Y036007D01*
X009057Y036039D01*
X008996Y036074D01*
X008937Y036113D01*
X008881Y036154D01*
X008827Y036199D01*
X008775Y036247D01*
X008727Y036298D01*
X008681Y036351D01*
X008639Y036407D01*
X008599Y036465D01*
X008563Y036525D01*
X008531Y036587D01*
X008502Y036651D01*
X008477Y036717D01*
X008455Y036784D01*
X008438Y036852D01*
X008424Y036920D01*
X008414Y036990D01*
X008408Y037060D01*
X008406Y037130D01*
X016333Y029568D02*
X016558Y029568D01*
X016633Y029493D01*
X016633Y029193D01*
X016558Y029118D01*
X016333Y029118D01*
X016333Y029568D01*
X016793Y029493D02*
X016868Y029568D01*
X017019Y029568D01*
X017094Y029493D01*
X017094Y029418D01*
X016793Y029118D01*
X017094Y029118D01*
X003839Y021106D02*
X001674Y021106D01*
X001654Y021106D02*
X000532Y021106D01*
X000512Y021106D02*
X000453Y021106D01*
X000453Y019827D01*
X000433Y019827D01*
X000453Y019827D02*
X000453Y013154D01*
X003622Y013154D01*
X003642Y013154D02*
X003839Y013154D01*
X003839Y016618D01*
X003622Y016618D01*
X003622Y017642D01*
X003839Y017642D01*
X003839Y021087D01*
X000796Y015416D02*
X000871Y015341D01*
X000871Y015190D01*
X000796Y015115D01*
X000646Y015190D02*
X000646Y015341D01*
X000721Y015416D01*
X000796Y015416D01*
X000646Y015190D02*
X000571Y015115D01*
X000496Y015115D01*
X000421Y015190D01*
X000421Y015341D01*
X000496Y015416D01*
X000571Y014955D02*
X000421Y014805D01*
X000571Y014655D01*
X000871Y014655D01*
X000646Y014655D02*
X000646Y014955D01*
X000571Y014955D02*
X000871Y014955D01*
X000532Y012106D02*
X001654Y012106D01*
X001674Y012106D02*
X003839Y012106D01*
X003839Y012087D02*
X003839Y008642D01*
X003622Y008642D01*
X003622Y007618D01*
X003839Y007618D01*
X003839Y004154D01*
X003642Y004154D01*
X003622Y004154D02*
X000453Y004154D01*
X000453Y010827D01*
X000453Y012106D01*
X000512Y012106D01*
X000453Y010827D02*
X000433Y010827D01*
X003957Y013213D02*
X003959Y013236D01*
X003965Y013259D01*
X003975Y013280D01*
X003988Y013300D01*
X004004Y013317D01*
X004023Y013331D01*
X004044Y013341D01*
X004066Y013348D01*
X004089Y013351D01*
X004113Y013350D01*
X004135Y013345D01*
X004157Y013336D01*
X004177Y013324D01*
X004195Y013308D01*
X004209Y013290D01*
X004221Y013270D01*
X004229Y013248D01*
X004233Y013225D01*
X004233Y013201D01*
X004229Y013178D01*
X004221Y013156D01*
X004209Y013136D01*
X004195Y013118D01*
X004177Y013102D01*
X004157Y013090D01*
X004135Y013081D01*
X004113Y013076D01*
X004089Y013075D01*
X004066Y013078D01*
X004044Y013085D01*
X004023Y013095D01*
X004004Y013109D01*
X003988Y013126D01*
X003975Y013146D01*
X003965Y013167D01*
X003959Y013190D01*
X003957Y013213D01*
X000796Y007336D02*
X000646Y007336D01*
X000646Y007186D01*
X000496Y007036D02*
X000796Y007036D01*
X000871Y007111D01*
X000871Y007261D01*
X000796Y007336D01*
X000496Y007336D02*
X000421Y007261D01*
X000421Y007111D01*
X000496Y007036D01*
X000571Y006876D02*
X000421Y006726D01*
X000571Y006576D01*
X000871Y006576D01*
X000646Y006576D02*
X000646Y006876D01*
X000571Y006876D02*
X000871Y006876D01*
X000421Y006416D02*
X000421Y006115D01*
X000421Y006266D02*
X000871Y006266D01*
X000796Y005880D02*
X000421Y005880D01*
X000421Y005805D02*
X000421Y005955D01*
X000796Y005880D02*
X000871Y005805D01*
X000871Y005730D01*
X000796Y005655D01*
X003957Y004213D02*
X003959Y004236D01*
X003965Y004259D01*
X003975Y004280D01*
X003988Y004300D01*
X004004Y004317D01*
X004023Y004331D01*
X004044Y004341D01*
X004066Y004348D01*
X004089Y004351D01*
X004113Y004350D01*
X004135Y004345D01*
X004157Y004336D01*
X004177Y004324D01*
X004195Y004308D01*
X004209Y004290D01*
X004221Y004270D01*
X004229Y004248D01*
X004233Y004225D01*
X004233Y004201D01*
X004229Y004178D01*
X004221Y004156D01*
X004209Y004136D01*
X004195Y004118D01*
X004177Y004102D01*
X004157Y004090D01*
X004135Y004081D01*
X004113Y004076D01*
X004089Y004075D01*
X004066Y004078D01*
X004044Y004085D01*
X004023Y004095D01*
X004004Y004109D01*
X003988Y004126D01*
X003975Y004146D01*
X003965Y004167D01*
X003959Y004190D01*
X003957Y004213D01*
X011421Y005230D02*
X011496Y005155D01*
X011646Y005155D01*
X011721Y005230D01*
X011721Y005305D01*
X011646Y005380D01*
X011496Y005380D01*
X011421Y005455D01*
X011421Y005530D01*
X011496Y005605D01*
X011646Y005605D01*
X011721Y005530D01*
X011881Y005605D02*
X011881Y005305D01*
X012032Y005155D01*
X012182Y005305D01*
X012182Y005605D01*
X012342Y005455D02*
X012492Y005605D01*
X012492Y005155D01*
X012342Y005155D02*
X012642Y005155D01*
X012896Y000805D02*
X012896Y000505D01*
X012671Y000730D01*
X013121Y000730D01*
X013671Y000805D02*
X013746Y000655D01*
X013896Y000505D01*
X013896Y000730D01*
X013971Y000805D01*
X014046Y000805D01*
X014121Y000730D01*
X014121Y000580D01*
X014046Y000505D01*
X013896Y000505D01*
X014671Y000580D02*
X014671Y000730D01*
X014746Y000805D01*
X014821Y000805D01*
X014896Y000730D01*
X014896Y000580D01*
X014821Y000505D01*
X014746Y000505D01*
X014671Y000580D01*
X014896Y000580D02*
X014971Y000505D01*
X015046Y000505D01*
X015121Y000580D01*
X015121Y000730D01*
X015046Y000805D01*
X014971Y000805D01*
X014896Y000730D01*
X015671Y000555D02*
X016121Y000555D01*
X016121Y000405D02*
X016121Y000705D01*
X016046Y000865D02*
X015746Y001166D01*
X016046Y001166D01*
X016121Y001091D01*
X016121Y000940D01*
X016046Y000865D01*
X015746Y000865D01*
X015671Y000940D01*
X015671Y001091D01*
X015746Y001166D01*
X015671Y000555D02*
X015821Y000405D01*
X016671Y000555D02*
X017121Y000555D01*
X017121Y000405D02*
X017121Y000705D01*
X017121Y000865D02*
X016821Y001166D01*
X016746Y001166D01*
X016671Y001091D01*
X016671Y000940D01*
X016746Y000865D01*
X016671Y000555D02*
X016821Y000405D01*
X017121Y000865D02*
X017121Y001166D01*
X012121Y000805D02*
X012121Y000505D01*
X011821Y000805D01*
X011746Y000805D01*
X011671Y000730D01*
X011671Y000580D01*
X011746Y000505D01*
D18*
X019572Y032145D02*
X019819Y032145D01*
X019881Y032207D01*
X019881Y032330D01*
X019819Y032392D01*
X019881Y032513D02*
X019881Y032760D01*
X019881Y032637D02*
X019511Y032637D01*
X019634Y032513D01*
X019572Y032392D02*
X019511Y032330D01*
X019511Y032207D01*
X019572Y032145D01*
X016569Y035645D02*
X016631Y035707D01*
X016631Y035830D01*
X016569Y035892D01*
X016569Y036013D02*
X016631Y036075D01*
X016631Y036198D01*
X016569Y036260D01*
X016508Y036260D01*
X016446Y036198D01*
X016446Y036137D01*
X016446Y036198D02*
X016384Y036260D01*
X016322Y036260D01*
X016261Y036198D01*
X016261Y036075D01*
X016322Y036013D01*
X016322Y035892D02*
X016261Y035830D01*
X016261Y035707D01*
X016322Y035645D01*
X016569Y035645D01*
X024761Y036457D02*
X024822Y036395D01*
X025069Y036395D01*
X025131Y036457D01*
X025131Y036580D01*
X025069Y036642D01*
X025131Y036763D02*
X024884Y037010D01*
X024822Y037010D01*
X024761Y036948D01*
X024761Y036825D01*
X024822Y036763D01*
X024822Y036642D02*
X024761Y036580D01*
X024761Y036457D01*
X025131Y036763D02*
X025131Y037010D01*
X028911Y034454D02*
X028911Y034207D01*
X028973Y034145D01*
X029096Y034145D01*
X029158Y034207D01*
X029279Y034145D02*
X029526Y034145D01*
X029403Y034145D02*
X029403Y034515D01*
X029279Y034392D01*
X029158Y034454D02*
X029096Y034515D01*
X028973Y034515D01*
X028911Y034454D01*
X029648Y034454D02*
X029648Y034207D01*
X029895Y034454D01*
X029895Y034207D01*
X029833Y034145D01*
X029709Y034145D01*
X029648Y034207D01*
X029648Y034454D02*
X029709Y034515D01*
X029833Y034515D01*
X029895Y034454D01*
X032990Y034454D02*
X032990Y034207D01*
X033052Y034145D01*
X033175Y034145D01*
X033237Y034207D01*
X033358Y034145D02*
X033605Y034145D01*
X033726Y034145D02*
X033973Y034145D01*
X033850Y034145D02*
X033850Y034515D01*
X033726Y034392D01*
X033482Y034515D02*
X033482Y034145D01*
X033358Y034392D02*
X033482Y034515D01*
X033237Y034454D02*
X033175Y034515D01*
X033052Y034515D01*
X032990Y034454D01*
D19*
X015589Y029971D03*
X015589Y028789D03*
X010089Y033539D03*
X010089Y034721D03*
D20*
X022646Y034590D03*
D21*
X003146Y019380D02*
X003146Y018880D01*
X002896Y018630D01*
X001396Y018630D01*
X001146Y018880D01*
X001146Y019380D01*
X001396Y019630D01*
X002896Y019630D01*
X003146Y019380D01*
X002896Y018630D02*
X003146Y018380D01*
X003146Y017880D01*
X002896Y017630D01*
X001396Y017630D01*
X001146Y017880D01*
X001146Y018380D01*
X001396Y018630D01*
X001396Y017630D02*
X001146Y017380D01*
X001146Y016880D01*
X001396Y016630D01*
X002896Y016630D01*
X003146Y016880D01*
X003146Y017380D01*
X002896Y017630D01*
X002896Y016630D02*
X003146Y016380D01*
X003146Y015880D01*
X002896Y015630D01*
X001396Y015630D01*
X001146Y015880D01*
X001146Y016380D01*
X001396Y016630D01*
X001396Y015630D02*
X001146Y015380D01*
X001146Y014880D01*
X001396Y014630D01*
X002896Y014630D01*
X003146Y014880D01*
X003146Y015380D01*
X002896Y015630D01*
X002896Y010630D02*
X001396Y010630D01*
X001146Y010380D01*
X001146Y009880D01*
X001396Y009630D01*
X002896Y009630D01*
X003146Y009880D01*
X003146Y010380D01*
X002896Y010630D01*
X002896Y009630D02*
X003146Y009380D01*
X003146Y008880D01*
X002896Y008630D01*
X001396Y008630D01*
X001146Y008880D01*
X001146Y009380D01*
X001396Y009630D01*
X001396Y008630D02*
X001146Y008380D01*
X001146Y007880D01*
X001396Y007630D01*
X002896Y007630D01*
X003146Y007880D01*
X003146Y008380D01*
X002896Y008630D01*
X002896Y007630D02*
X003146Y007380D01*
X003146Y006880D01*
X002896Y006630D01*
X001396Y006630D01*
X001146Y006880D01*
X001146Y007380D01*
X001396Y007630D01*
X001396Y006630D02*
X001146Y006380D01*
X001146Y005880D01*
X001396Y005630D01*
X002896Y005630D01*
X003146Y005880D01*
X003146Y006380D01*
X002896Y006630D01*
X000796Y002130D02*
X000798Y002203D01*
X000804Y002276D01*
X000814Y002348D01*
X000828Y002420D01*
X000845Y002491D01*
X000867Y002561D01*
X000892Y002630D01*
X000921Y002697D01*
X000953Y002762D01*
X000989Y002826D01*
X001029Y002888D01*
X001071Y002947D01*
X001117Y003004D01*
X001166Y003058D01*
X001218Y003110D01*
X001272Y003159D01*
X001329Y003205D01*
X001388Y003247D01*
X001450Y003287D01*
X001514Y003323D01*
X001579Y003355D01*
X001646Y003384D01*
X001715Y003409D01*
X001785Y003431D01*
X001856Y003448D01*
X001928Y003462D01*
X002000Y003472D01*
X002073Y003478D01*
X002146Y003480D01*
X002219Y003478D01*
X002292Y003472D01*
X002364Y003462D01*
X002436Y003448D01*
X002507Y003431D01*
X002577Y003409D01*
X002646Y003384D01*
X002713Y003355D01*
X002778Y003323D01*
X002842Y003287D01*
X002904Y003247D01*
X002963Y003205D01*
X003020Y003159D01*
X003074Y003110D01*
X003126Y003058D01*
X003175Y003004D01*
X003221Y002947D01*
X003263Y002888D01*
X003303Y002826D01*
X003339Y002762D01*
X003371Y002697D01*
X003400Y002630D01*
X003425Y002561D01*
X003447Y002491D01*
X003464Y002420D01*
X003478Y002348D01*
X003488Y002276D01*
X003494Y002203D01*
X003496Y002130D01*
X003494Y002057D01*
X003488Y001984D01*
X003478Y001912D01*
X003464Y001840D01*
X003447Y001769D01*
X003425Y001699D01*
X003400Y001630D01*
X003371Y001563D01*
X003339Y001498D01*
X003303Y001434D01*
X003263Y001372D01*
X003221Y001313D01*
X003175Y001256D01*
X003126Y001202D01*
X003074Y001150D01*
X003020Y001101D01*
X002963Y001055D01*
X002904Y001013D01*
X002842Y000973D01*
X002778Y000937D01*
X002713Y000905D01*
X002646Y000876D01*
X002577Y000851D01*
X002507Y000829D01*
X002436Y000812D01*
X002364Y000798D01*
X002292Y000788D01*
X002219Y000782D01*
X002146Y000780D01*
X002073Y000782D01*
X002000Y000788D01*
X001928Y000798D01*
X001856Y000812D01*
X001785Y000829D01*
X001715Y000851D01*
X001646Y000876D01*
X001579Y000905D01*
X001514Y000937D01*
X001450Y000973D01*
X001388Y001013D01*
X001329Y001055D01*
X001272Y001101D01*
X001218Y001150D01*
X001166Y001202D01*
X001117Y001256D01*
X001071Y001313D01*
X001029Y001372D01*
X000989Y001434D01*
X000953Y001498D01*
X000921Y001563D01*
X000892Y001630D01*
X000867Y001699D01*
X000845Y001769D01*
X000828Y001840D01*
X000814Y001912D01*
X000804Y001984D01*
X000798Y002057D01*
X000796Y002130D01*
X011396Y003280D02*
X011396Y000130D01*
X012396Y000130D01*
X013396Y000130D01*
X014396Y000130D01*
X015396Y000130D01*
X016396Y000130D01*
X017396Y000130D01*
X017396Y003280D01*
X017096Y003280D01*
X016696Y003280D02*
X016396Y003280D01*
X016396Y000130D01*
X015396Y000130D02*
X015396Y003280D01*
X015096Y003280D01*
X015396Y003280D02*
X015696Y003280D01*
X016096Y003280D02*
X016396Y003280D01*
X014696Y003280D02*
X014396Y003280D01*
X014396Y000130D01*
X013396Y000130D02*
X013396Y003280D01*
X013696Y003280D01*
X013396Y003280D02*
X013096Y003280D01*
X012696Y003280D02*
X012396Y003280D01*
X012396Y000130D01*
X012396Y003280D02*
X012096Y003280D01*
X011696Y003280D02*
X011396Y003280D01*
X014096Y003280D02*
X014396Y003280D01*
X047046Y002130D02*
X047048Y002203D01*
X047054Y002276D01*
X047064Y002348D01*
X047078Y002420D01*
X047095Y002491D01*
X047117Y002561D01*
X047142Y002630D01*
X047171Y002697D01*
X047203Y002762D01*
X047239Y002826D01*
X047279Y002888D01*
X047321Y002947D01*
X047367Y003004D01*
X047416Y003058D01*
X047468Y003110D01*
X047522Y003159D01*
X047579Y003205D01*
X047638Y003247D01*
X047700Y003287D01*
X047764Y003323D01*
X047829Y003355D01*
X047896Y003384D01*
X047965Y003409D01*
X048035Y003431D01*
X048106Y003448D01*
X048178Y003462D01*
X048250Y003472D01*
X048323Y003478D01*
X048396Y003480D01*
X048469Y003478D01*
X048542Y003472D01*
X048614Y003462D01*
X048686Y003448D01*
X048757Y003431D01*
X048827Y003409D01*
X048896Y003384D01*
X048963Y003355D01*
X049028Y003323D01*
X049092Y003287D01*
X049154Y003247D01*
X049213Y003205D01*
X049270Y003159D01*
X049324Y003110D01*
X049376Y003058D01*
X049425Y003004D01*
X049471Y002947D01*
X049513Y002888D01*
X049553Y002826D01*
X049589Y002762D01*
X049621Y002697D01*
X049650Y002630D01*
X049675Y002561D01*
X049697Y002491D01*
X049714Y002420D01*
X049728Y002348D01*
X049738Y002276D01*
X049744Y002203D01*
X049746Y002130D01*
X049744Y002057D01*
X049738Y001984D01*
X049728Y001912D01*
X049714Y001840D01*
X049697Y001769D01*
X049675Y001699D01*
X049650Y001630D01*
X049621Y001563D01*
X049589Y001498D01*
X049553Y001434D01*
X049513Y001372D01*
X049471Y001313D01*
X049425Y001256D01*
X049376Y001202D01*
X049324Y001150D01*
X049270Y001101D01*
X049213Y001055D01*
X049154Y001013D01*
X049092Y000973D01*
X049028Y000937D01*
X048963Y000905D01*
X048896Y000876D01*
X048827Y000851D01*
X048757Y000829D01*
X048686Y000812D01*
X048614Y000798D01*
X048542Y000788D01*
X048469Y000782D01*
X048396Y000780D01*
X048323Y000782D01*
X048250Y000788D01*
X048178Y000798D01*
X048106Y000812D01*
X048035Y000829D01*
X047965Y000851D01*
X047896Y000876D01*
X047829Y000905D01*
X047764Y000937D01*
X047700Y000973D01*
X047638Y001013D01*
X047579Y001055D01*
X047522Y001101D01*
X047468Y001150D01*
X047416Y001202D01*
X047367Y001256D01*
X047321Y001313D01*
X047279Y001372D01*
X047239Y001434D01*
X047203Y001498D01*
X047171Y001563D01*
X047142Y001630D01*
X047117Y001699D01*
X047095Y001769D01*
X047078Y001840D01*
X047064Y001912D01*
X047054Y001984D01*
X047048Y002057D01*
X047046Y002130D01*
X047046Y037630D02*
X047048Y037703D01*
X047054Y037776D01*
X047064Y037848D01*
X047078Y037920D01*
X047095Y037991D01*
X047117Y038061D01*
X047142Y038130D01*
X047171Y038197D01*
X047203Y038262D01*
X047239Y038326D01*
X047279Y038388D01*
X047321Y038447D01*
X047367Y038504D01*
X047416Y038558D01*
X047468Y038610D01*
X047522Y038659D01*
X047579Y038705D01*
X047638Y038747D01*
X047700Y038787D01*
X047764Y038823D01*
X047829Y038855D01*
X047896Y038884D01*
X047965Y038909D01*
X048035Y038931D01*
X048106Y038948D01*
X048178Y038962D01*
X048250Y038972D01*
X048323Y038978D01*
X048396Y038980D01*
X048469Y038978D01*
X048542Y038972D01*
X048614Y038962D01*
X048686Y038948D01*
X048757Y038931D01*
X048827Y038909D01*
X048896Y038884D01*
X048963Y038855D01*
X049028Y038823D01*
X049092Y038787D01*
X049154Y038747D01*
X049213Y038705D01*
X049270Y038659D01*
X049324Y038610D01*
X049376Y038558D01*
X049425Y038504D01*
X049471Y038447D01*
X049513Y038388D01*
X049553Y038326D01*
X049589Y038262D01*
X049621Y038197D01*
X049650Y038130D01*
X049675Y038061D01*
X049697Y037991D01*
X049714Y037920D01*
X049728Y037848D01*
X049738Y037776D01*
X049744Y037703D01*
X049746Y037630D01*
X049744Y037557D01*
X049738Y037484D01*
X049728Y037412D01*
X049714Y037340D01*
X049697Y037269D01*
X049675Y037199D01*
X049650Y037130D01*
X049621Y037063D01*
X049589Y036998D01*
X049553Y036934D01*
X049513Y036872D01*
X049471Y036813D01*
X049425Y036756D01*
X049376Y036702D01*
X049324Y036650D01*
X049270Y036601D01*
X049213Y036555D01*
X049154Y036513D01*
X049092Y036473D01*
X049028Y036437D01*
X048963Y036405D01*
X048896Y036376D01*
X048827Y036351D01*
X048757Y036329D01*
X048686Y036312D01*
X048614Y036298D01*
X048542Y036288D01*
X048469Y036282D01*
X048396Y036280D01*
X048323Y036282D01*
X048250Y036288D01*
X048178Y036298D01*
X048106Y036312D01*
X048035Y036329D01*
X047965Y036351D01*
X047896Y036376D01*
X047829Y036405D01*
X047764Y036437D01*
X047700Y036473D01*
X047638Y036513D01*
X047579Y036555D01*
X047522Y036601D01*
X047468Y036650D01*
X047416Y036702D01*
X047367Y036756D01*
X047321Y036813D01*
X047279Y036872D01*
X047239Y036934D01*
X047203Y036998D01*
X047171Y037063D01*
X047142Y037130D01*
X047117Y037199D01*
X047095Y037269D01*
X047078Y037340D01*
X047064Y037412D01*
X047054Y037484D01*
X047048Y037557D01*
X047046Y037630D01*
X000796Y037630D02*
X000798Y037703D01*
X000804Y037776D01*
X000814Y037848D01*
X000828Y037920D01*
X000845Y037991D01*
X000867Y038061D01*
X000892Y038130D01*
X000921Y038197D01*
X000953Y038262D01*
X000989Y038326D01*
X001029Y038388D01*
X001071Y038447D01*
X001117Y038504D01*
X001166Y038558D01*
X001218Y038610D01*
X001272Y038659D01*
X001329Y038705D01*
X001388Y038747D01*
X001450Y038787D01*
X001514Y038823D01*
X001579Y038855D01*
X001646Y038884D01*
X001715Y038909D01*
X001785Y038931D01*
X001856Y038948D01*
X001928Y038962D01*
X002000Y038972D01*
X002073Y038978D01*
X002146Y038980D01*
X002219Y038978D01*
X002292Y038972D01*
X002364Y038962D01*
X002436Y038948D01*
X002507Y038931D01*
X002577Y038909D01*
X002646Y038884D01*
X002713Y038855D01*
X002778Y038823D01*
X002842Y038787D01*
X002904Y038747D01*
X002963Y038705D01*
X003020Y038659D01*
X003074Y038610D01*
X003126Y038558D01*
X003175Y038504D01*
X003221Y038447D01*
X003263Y038388D01*
X003303Y038326D01*
X003339Y038262D01*
X003371Y038197D01*
X003400Y038130D01*
X003425Y038061D01*
X003447Y037991D01*
X003464Y037920D01*
X003478Y037848D01*
X003488Y037776D01*
X003494Y037703D01*
X003496Y037630D01*
X003494Y037557D01*
X003488Y037484D01*
X003478Y037412D01*
X003464Y037340D01*
X003447Y037269D01*
X003425Y037199D01*
X003400Y037130D01*
X003371Y037063D01*
X003339Y036998D01*
X003303Y036934D01*
X003263Y036872D01*
X003221Y036813D01*
X003175Y036756D01*
X003126Y036702D01*
X003074Y036650D01*
X003020Y036601D01*
X002963Y036555D01*
X002904Y036513D01*
X002842Y036473D01*
X002778Y036437D01*
X002713Y036405D01*
X002646Y036376D01*
X002577Y036351D01*
X002507Y036329D01*
X002436Y036312D01*
X002364Y036298D01*
X002292Y036288D01*
X002219Y036282D01*
X002146Y036280D01*
X002073Y036282D01*
X002000Y036288D01*
X001928Y036298D01*
X001856Y036312D01*
X001785Y036329D01*
X001715Y036351D01*
X001646Y036376D01*
X001579Y036405D01*
X001514Y036437D01*
X001450Y036473D01*
X001388Y036513D01*
X001329Y036555D01*
X001272Y036601D01*
X001218Y036650D01*
X001166Y036702D01*
X001117Y036756D01*
X001071Y036813D01*
X001029Y036872D01*
X000989Y036934D01*
X000953Y036998D01*
X000921Y037063D01*
X000892Y037130D01*
X000867Y037199D01*
X000845Y037269D01*
X000828Y037340D01*
X000814Y037412D01*
X000804Y037484D01*
X000798Y037557D01*
X000796Y037630D01*
D22*
X030199Y029514D02*
X030780Y029514D01*
X030918Y029415D02*
X030918Y026345D01*
X032374Y026345D01*
X032374Y029415D01*
X030918Y029415D01*
X038890Y035843D02*
X038890Y036433D01*
X038890Y036433D01*
X038890Y035843D01*
X038890Y035843D01*
X038890Y038008D02*
X038890Y039020D01*
X038890Y039020D01*
X044402Y039020D01*
X044402Y038008D01*
X044402Y038008D01*
X044402Y039020D01*
X044402Y039020D01*
X044402Y039020D01*
X038890Y039020D01*
X038890Y039020D01*
X038890Y038008D01*
X038890Y038008D01*
X039874Y033835D02*
X039874Y033835D01*
X039882Y033833D01*
X039888Y033829D01*
X039892Y033823D01*
X039894Y033815D01*
X039892Y033807D01*
X039888Y033801D01*
X039882Y033797D01*
X039874Y033795D01*
X039874Y033795D01*
X039874Y033795D01*
X039866Y033797D01*
X039860Y033801D01*
X039856Y033807D01*
X039854Y033815D01*
X039856Y033823D01*
X039860Y033829D01*
X039866Y033833D01*
X039874Y033835D01*
X039882Y033833D01*
X039888Y033829D01*
X039892Y033823D01*
X039894Y033815D01*
X039892Y033807D01*
X039888Y033801D01*
X039882Y033797D01*
X039874Y033795D01*
X044402Y035843D02*
X044402Y036433D01*
X044402Y035843D01*
X044402Y035843D01*
X044402Y036433D02*
X044402Y036433D01*
X041319Y001228D02*
X041319Y001228D01*
X041317Y001217D01*
X041313Y001207D01*
X041306Y001199D01*
X041296Y001193D01*
X041286Y001189D01*
X041274Y001189D01*
X041264Y001193D01*
X041254Y001199D01*
X041247Y001207D01*
X041243Y001217D01*
X041241Y001228D01*
X041241Y001228D01*
X041243Y001239D01*
X041247Y001249D01*
X041254Y001257D01*
X041264Y001263D01*
X041274Y001267D01*
X041286Y001267D01*
X041296Y001263D01*
X041306Y001257D01*
X041313Y001249D01*
X041317Y001239D01*
X041319Y001228D01*
X038069Y001228D02*
X038069Y001228D01*
X038067Y001217D01*
X038063Y001207D01*
X038056Y001199D01*
X038046Y001193D01*
X038036Y001189D01*
X038024Y001189D01*
X038014Y001193D01*
X038004Y001199D01*
X037997Y001207D01*
X037993Y001217D01*
X037991Y001228D01*
X037991Y001228D01*
X037993Y001239D01*
X037997Y001249D01*
X038004Y001257D01*
X038014Y001263D01*
X038024Y001267D01*
X038036Y001267D01*
X038046Y001263D01*
X038056Y001257D01*
X038063Y001249D01*
X038067Y001239D01*
X038069Y001228D01*
X034819Y001228D02*
X034819Y001228D01*
X034817Y001217D01*
X034813Y001207D01*
X034806Y001199D01*
X034796Y001193D01*
X034786Y001189D01*
X034774Y001189D01*
X034764Y001193D01*
X034754Y001199D01*
X034747Y001207D01*
X034743Y001217D01*
X034741Y001228D01*
X034741Y001228D01*
X034743Y001239D01*
X034747Y001249D01*
X034754Y001257D01*
X034764Y001263D01*
X034774Y001267D01*
X034786Y001267D01*
X034796Y001263D01*
X034806Y001257D01*
X034813Y001249D01*
X034817Y001239D01*
X034819Y001228D01*
X031569Y001228D02*
X031569Y001228D01*
X031567Y001217D01*
X031563Y001207D01*
X031556Y001199D01*
X031546Y001193D01*
X031536Y001189D01*
X031524Y001189D01*
X031514Y001193D01*
X031504Y001199D01*
X031497Y001207D01*
X031493Y001217D01*
X031491Y001228D01*
X031491Y001228D01*
X031493Y001239D01*
X031497Y001249D01*
X031504Y001257D01*
X031514Y001263D01*
X031524Y001267D01*
X031536Y001267D01*
X031546Y001263D01*
X031556Y001257D01*
X031563Y001249D01*
X031567Y001239D01*
X031569Y001228D01*
X005319Y001228D02*
X005319Y001228D01*
X005317Y001217D01*
X005313Y001207D01*
X005306Y001199D01*
X005296Y001193D01*
X005286Y001189D01*
X005274Y001189D01*
X005264Y001193D01*
X005254Y001199D01*
X005247Y001207D01*
X005243Y001217D01*
X005241Y001228D01*
X005241Y001228D01*
X005243Y001239D01*
X005247Y001249D01*
X005254Y001257D01*
X005264Y001263D01*
X005274Y001267D01*
X005286Y001267D01*
X005296Y001263D01*
X005306Y001257D01*
X005313Y001249D01*
X005317Y001239D01*
X005319Y001228D01*
D23*
X015337Y027644D03*
X015337Y028116D03*
D24*
X015337Y027880D03*
D25*
X015178Y019870D02*
X015180Y019883D01*
X015185Y019895D01*
X015194Y019906D01*
X015204Y019914D01*
X015217Y019918D01*
X015230Y019919D01*
X015243Y019916D01*
X015255Y019910D01*
X015265Y019901D01*
X015272Y019890D01*
X015276Y019877D01*
X015276Y019863D01*
X015272Y019850D01*
X015265Y019839D01*
X015255Y019830D01*
X015243Y019824D01*
X015230Y019821D01*
X015217Y019822D01*
X015204Y019826D01*
X015194Y019834D01*
X015185Y019845D01*
X015180Y019857D01*
X015178Y019870D01*
D26*
X028571Y019752D03*
D27*
X016896Y004130D03*
X015896Y004130D03*
X014896Y004130D03*
X013896Y004130D03*
X012896Y004130D03*
X011896Y004130D03*
M02*
