G75*
%MOIN*%
%OFA0B0*%
%FSLAX24Y24*%
%IPPOS*%
%LPD*%
%AMOC8*
5,1,8,0,0,1.08239X$1,22.5*
%
%ADD10R,0.0591X0.0512*%
%ADD11R,0.0512X0.0591*%
D10*
X014191Y011413D03*
X014191Y012161D03*
X016896Y014256D03*
X016896Y015004D03*
X018646Y014967D03*
X018646Y015715D03*
X018646Y016545D03*
X018646Y017293D03*
X019646Y017004D03*
X019646Y016256D03*
X020646Y016545D03*
X020646Y017293D03*
X020646Y015715D03*
X020646Y014967D03*
X019146Y013833D03*
X019146Y013085D03*
X022646Y014256D03*
X022646Y015004D03*
X022396Y017256D03*
X022396Y018004D03*
X016804Y018203D03*
X016804Y018951D03*
X015646Y020506D03*
X015646Y021254D03*
X016516Y021323D03*
X016516Y022071D03*
X014646Y021254D03*
X014646Y020506D03*
X014695Y018728D03*
X014695Y017980D03*
D11*
X016430Y016612D03*
X017178Y016612D03*
X017522Y013380D03*
X018270Y013380D03*
X018270Y011130D03*
X017522Y011130D03*
X015770Y011380D03*
X015022Y011380D03*
X021272Y013380D03*
X022020Y013380D03*
X023772Y011880D03*
X024520Y011880D03*
X024770Y016380D03*
X024022Y016380D03*
X021770Y018880D03*
X021022Y018880D03*
X023522Y019880D03*
X024270Y019880D03*
X024522Y023630D03*
X025270Y023630D03*
M02*
