G75*
%MOIN*%
%OFA0B0*%
%FSLAX24Y24*%
%IPPOS*%
%LPD*%
%AMOC8*
5,1,8,0,0,1.08239X$1,22.5*
%
%ADD10OC8,0.0610*%
%ADD11C,0.1306*%
%ADD12C,0.0860*%
%ADD13OC8,0.0591*%
%ADD14C,0.1266*%
%ADD15R,0.0236X0.0118*%
%ADD16R,0.0118X0.0236*%
%ADD17R,0.1299X0.1299*%
%ADD18R,0.0171X0.0171*%
%ADD19R,0.0820X0.1500*%
%ADD20R,0.4500X0.3500*%
%ADD21R,0.0551X0.0551*%
%ADD22R,0.0394X0.1102*%
%ADD23R,0.0787X0.0787*%
%ADD24R,0.2126X0.2441*%
%ADD25R,0.0394X0.0630*%
%ADD26R,0.0512X0.0591*%
%ADD27R,0.0591X0.0512*%
%ADD28R,0.0480X0.0880*%
%ADD29R,0.1417X0.0866*%
%ADD30R,0.1102X0.0394*%
%ADD31R,0.0709X0.0630*%
%ADD32R,0.0669X0.0669*%
%ADD33R,0.0394X0.0551*%
%ADD34R,0.0787X0.0701*%
%ADD35R,0.0866X0.0236*%
%ADD36R,0.0636X0.0636*%
%ADD37OC8,0.0636*%
%ADD38R,0.0551X0.0827*%
%ADD39C,0.2300*%
%ADD40R,0.0472X0.0472*%
%ADD41R,0.0581X0.0118*%
%ADD42R,0.0118X0.0581*%
%ADD43R,0.2661X0.2270*%
%ADD44R,0.0433X0.0197*%
%ADD45R,0.0110X0.1024*%
%ADD46C,0.1571*%
%ADD47C,0.1134*%
%ADD48R,0.0581X0.0177*%
%ADD49C,0.0500*%
%ADD50C,0.0240*%
%ADD51C,0.0354*%
%ADD52C,0.0120*%
%ADD53C,0.0160*%
%ADD54C,0.0400*%
%ADD55C,0.0100*%
%ADD56C,0.0276*%
D10*
X005213Y026388D03*
X006000Y026388D03*
X006000Y027372D03*
X005213Y027372D03*
D11*
X004146Y029250D03*
X004146Y024510D03*
D12*
X005716Y034028D02*
X006576Y034028D01*
X004256Y034779D02*
X004256Y035639D01*
X005716Y036390D02*
X006576Y036390D01*
D13*
X046065Y025969D03*
X047050Y025969D03*
X047050Y025142D03*
X047050Y024118D03*
X047050Y023291D03*
X046065Y023291D03*
X046065Y016469D03*
X047050Y016469D03*
X047050Y015642D03*
X047050Y014618D03*
X047050Y013791D03*
X046065Y013791D03*
X046065Y009219D03*
X047050Y009219D03*
X047050Y008392D03*
X047050Y007368D03*
X047050Y006541D03*
X046065Y006541D03*
D14*
X048231Y005223D03*
X048546Y007880D03*
X048231Y010537D03*
X048231Y012473D03*
X048546Y015130D03*
X048231Y017787D03*
X048231Y021973D03*
X048546Y024630D03*
X048231Y027287D03*
D15*
X010802Y026721D03*
X010802Y026524D03*
X010802Y026327D03*
X010802Y026130D03*
X010802Y025933D03*
X010802Y025736D03*
X010802Y025539D03*
X008991Y025539D03*
X008991Y025736D03*
X008991Y025933D03*
X008991Y026130D03*
X008991Y026327D03*
X008991Y026524D03*
X008991Y026721D03*
D16*
X009306Y027036D03*
X009502Y027036D03*
X009699Y027036D03*
X009896Y027036D03*
X010093Y027036D03*
X010290Y027036D03*
X010487Y027036D03*
X010487Y025224D03*
X010290Y025224D03*
X010093Y025224D03*
X009896Y025224D03*
X009699Y025224D03*
X009502Y025224D03*
X009306Y025224D03*
D17*
X009896Y026130D03*
D18*
X009068Y026958D03*
D19*
X012646Y032130D03*
X014646Y032130D03*
D20*
X013646Y036630D03*
D21*
X010138Y037130D03*
X009154Y037130D03*
D22*
X018146Y037805D03*
X018146Y035955D03*
X018146Y033805D03*
X018146Y031955D03*
X026646Y035705D03*
X026646Y037555D03*
D23*
X015933Y029380D03*
X014359Y029380D03*
X010433Y034130D03*
X008859Y034130D03*
D24*
X022646Y036614D03*
D25*
X021748Y033740D03*
X023544Y033740D03*
D26*
X023272Y030630D03*
X024020Y030630D03*
X025772Y030630D03*
X026520Y030630D03*
X026520Y029130D03*
X025772Y029130D03*
X024020Y029130D03*
X023272Y029130D03*
X023272Y027630D03*
X024020Y027630D03*
X025772Y027630D03*
X026520Y027630D03*
X026520Y026130D03*
X025772Y026130D03*
X024020Y026130D03*
X023272Y026130D03*
X017770Y027880D03*
X017022Y027880D03*
X010520Y023380D03*
X009772Y023380D03*
X009770Y024380D03*
X009022Y024380D03*
X008772Y021630D03*
X009520Y021630D03*
X006020Y017630D03*
X005272Y017630D03*
X003020Y021880D03*
X002272Y021880D03*
X010022Y032880D03*
X010770Y032880D03*
X028522Y020630D03*
X029270Y020630D03*
X039272Y023130D03*
X040020Y023130D03*
X041522Y023130D03*
X042270Y023130D03*
X042772Y024130D03*
X043520Y024130D03*
X042270Y025630D03*
X041522Y025630D03*
X041522Y026630D03*
X042270Y026630D03*
X042772Y027630D03*
X043520Y027630D03*
X040020Y025630D03*
X039272Y025630D03*
X041522Y022130D03*
X042270Y022130D03*
X045272Y020130D03*
X046020Y020130D03*
X042270Y016880D03*
X041522Y016880D03*
X041522Y015880D03*
X042270Y015880D03*
X042270Y014880D03*
X041522Y014880D03*
X041522Y013880D03*
X042270Y013880D03*
X042270Y012880D03*
X041522Y012880D03*
X041522Y011130D03*
X042270Y011130D03*
X042270Y010130D03*
X041522Y010130D03*
X041522Y009130D03*
X042270Y009130D03*
X042270Y008130D03*
X041522Y008130D03*
X041522Y007130D03*
X042270Y007130D03*
X040020Y006630D03*
X039272Y006630D03*
X037270Y006630D03*
X036522Y006630D03*
X034270Y006630D03*
X033522Y006630D03*
X031520Y006630D03*
X030772Y006630D03*
X028770Y002630D03*
X028022Y002630D03*
X039272Y009130D03*
X040020Y009130D03*
X040020Y014880D03*
X039272Y014880D03*
X028770Y011630D03*
X028022Y011630D03*
X012770Y006130D03*
X012022Y006130D03*
X005270Y006880D03*
X004522Y006880D03*
X004522Y007880D03*
X005270Y007880D03*
X005270Y008880D03*
X004522Y008880D03*
X047272Y034380D03*
X048020Y034380D03*
D27*
X044396Y030254D03*
X044396Y029506D03*
X036646Y035256D03*
X036646Y036004D03*
X032146Y036756D03*
X032146Y037504D03*
X032146Y034504D03*
X032146Y033756D03*
X024646Y034506D03*
X024646Y035254D03*
X016146Y032754D03*
X016146Y032006D03*
X006896Y024254D03*
X006896Y023506D03*
X004896Y021504D03*
X004896Y020756D03*
X006146Y011504D03*
X006146Y010756D03*
X004396Y010504D03*
X004396Y009756D03*
X008146Y005754D03*
X009146Y005754D03*
X009146Y005006D03*
X008146Y005006D03*
X010146Y010756D03*
X010146Y011504D03*
X025646Y019756D03*
X025646Y020504D03*
X033396Y014504D03*
X033396Y013756D03*
X033896Y016256D03*
X033896Y017004D03*
X033896Y018256D03*
X033896Y019004D03*
X038646Y018756D03*
X038646Y019504D03*
X045896Y004004D03*
X045896Y003256D03*
D28*
X035095Y034910D03*
X034185Y034910D03*
X033275Y034910D03*
X031056Y034910D03*
X030146Y034910D03*
X029236Y034910D03*
D29*
X030146Y037350D03*
X034185Y037350D03*
D30*
X033300Y032630D03*
X035150Y032630D03*
X031071Y032630D03*
X029221Y032630D03*
D31*
X044396Y032681D03*
X044396Y031579D03*
X007896Y024431D03*
X007896Y023329D03*
D32*
X046178Y028911D03*
X046178Y029896D03*
X048146Y030880D03*
X046178Y031864D03*
X046178Y032849D03*
D33*
X043896Y026563D03*
X043522Y025697D03*
X044270Y025697D03*
X043896Y023063D03*
X043522Y022197D03*
X044270Y022197D03*
X043646Y016813D03*
X043272Y015947D03*
X044020Y015947D03*
X043646Y014313D03*
X043272Y013447D03*
X044020Y013447D03*
X043646Y011063D03*
X043272Y010197D03*
X044020Y010197D03*
X043646Y008563D03*
X043272Y007697D03*
X044020Y007697D03*
D34*
X008933Y010130D03*
X007359Y010130D03*
X007359Y012130D03*
X008933Y012130D03*
D35*
X009479Y016630D03*
X009479Y017130D03*
X009479Y017630D03*
X009479Y018130D03*
X009479Y019380D03*
X009479Y019880D03*
X009479Y020380D03*
X009479Y020880D03*
X007313Y020880D03*
X007313Y020380D03*
X007313Y019880D03*
X007313Y019380D03*
X007313Y018130D03*
X007313Y017630D03*
X007313Y017130D03*
X007313Y016630D03*
D36*
X002646Y015130D03*
X002646Y006130D03*
D37*
X001646Y006130D03*
X001646Y007130D03*
X001646Y008130D03*
X002646Y008130D03*
X002646Y007130D03*
X002646Y009130D03*
X001646Y009130D03*
X001646Y010130D03*
X002646Y010130D03*
X001646Y015130D03*
X001646Y016130D03*
X002646Y016130D03*
X002646Y017130D03*
X001646Y017130D03*
X001646Y018130D03*
X002646Y018130D03*
X002646Y019130D03*
X001646Y019130D03*
X011896Y004630D03*
X011896Y003630D03*
X012896Y003630D03*
X012896Y004630D03*
X013896Y004630D03*
X013896Y003630D03*
X014896Y003630D03*
X014896Y004630D03*
X015896Y004630D03*
X015896Y003630D03*
X016896Y003630D03*
X016896Y004630D03*
D38*
X007032Y005421D03*
X005260Y005421D03*
X005260Y001839D03*
X007032Y001839D03*
X031510Y001839D03*
X033282Y001839D03*
X034760Y001839D03*
X036532Y001839D03*
X038010Y001839D03*
X039782Y001839D03*
X041260Y001839D03*
X043032Y001839D03*
X043032Y005421D03*
X041260Y005421D03*
X039782Y005421D03*
X038010Y005421D03*
X036532Y005421D03*
X034760Y005421D03*
X033282Y005421D03*
X031510Y005421D03*
D39*
X002146Y002130D03*
X002146Y037630D03*
X048396Y037630D03*
X048396Y002130D03*
D40*
X015809Y027880D03*
X014983Y027880D03*
D41*
X015419Y019575D03*
X015419Y019378D03*
X015419Y019181D03*
X015419Y018984D03*
X015419Y018787D03*
X015419Y018591D03*
X015419Y018394D03*
X015419Y018197D03*
X015419Y018000D03*
X015419Y017803D03*
X015419Y017606D03*
X015419Y017410D03*
X015419Y017213D03*
X015419Y017016D03*
X015419Y016819D03*
X015419Y016622D03*
X015419Y016425D03*
X015419Y016228D03*
X015419Y016032D03*
X015419Y015835D03*
X015419Y015638D03*
X015419Y015441D03*
X015419Y015244D03*
X015419Y015047D03*
X015419Y014850D03*
X015419Y014654D03*
X015419Y014457D03*
X015419Y014260D03*
X015419Y014063D03*
X015419Y013866D03*
X015419Y013669D03*
X015419Y013473D03*
X015419Y013276D03*
X015419Y013079D03*
X015419Y012882D03*
X015419Y012685D03*
X023874Y012685D03*
X023874Y012882D03*
X023874Y013079D03*
X023874Y013276D03*
X023874Y013473D03*
X023874Y013669D03*
X023874Y013866D03*
X023874Y014063D03*
X023874Y014260D03*
X023874Y014457D03*
X023874Y014654D03*
X023874Y014850D03*
X023874Y015047D03*
X023874Y015244D03*
X023874Y015441D03*
X023874Y015638D03*
X023874Y015835D03*
X023874Y016032D03*
X023874Y016228D03*
X023874Y016425D03*
X023874Y016622D03*
X023874Y016819D03*
X023874Y017016D03*
X023874Y017213D03*
X023874Y017410D03*
X023874Y017606D03*
X023874Y017803D03*
X023874Y018000D03*
X023874Y018197D03*
X023874Y018394D03*
X023874Y018591D03*
X023874Y018787D03*
X023874Y018984D03*
X023874Y019181D03*
X023874Y019378D03*
X023874Y019575D03*
D42*
X023091Y020358D03*
X022894Y020358D03*
X022697Y020358D03*
X022500Y020358D03*
X022304Y020358D03*
X022107Y020358D03*
X021910Y020358D03*
X021713Y020358D03*
X021516Y020358D03*
X021319Y020358D03*
X021122Y020358D03*
X020926Y020358D03*
X020729Y020358D03*
X020532Y020358D03*
X020335Y020358D03*
X020138Y020358D03*
X019941Y020358D03*
X019744Y020358D03*
X019548Y020358D03*
X019351Y020358D03*
X019154Y020358D03*
X018957Y020358D03*
X018760Y020358D03*
X018563Y020358D03*
X018367Y020358D03*
X018170Y020358D03*
X017973Y020358D03*
X017776Y020358D03*
X017579Y020358D03*
X017382Y020358D03*
X017185Y020358D03*
X016989Y020358D03*
X016792Y020358D03*
X016595Y020358D03*
X016398Y020358D03*
X016201Y020358D03*
X016201Y011902D03*
X016398Y011902D03*
X016595Y011902D03*
X016792Y011902D03*
X016989Y011902D03*
X017185Y011902D03*
X017382Y011902D03*
X017579Y011902D03*
X017776Y011902D03*
X017973Y011902D03*
X018170Y011902D03*
X018367Y011902D03*
X018563Y011902D03*
X018760Y011902D03*
X018957Y011902D03*
X019154Y011902D03*
X019351Y011902D03*
X019548Y011902D03*
X019744Y011902D03*
X019941Y011902D03*
X020138Y011902D03*
X020335Y011902D03*
X020532Y011902D03*
X020729Y011902D03*
X020926Y011902D03*
X021122Y011902D03*
X021319Y011902D03*
X021516Y011902D03*
X021713Y011902D03*
X021910Y011902D03*
X022107Y011902D03*
X022304Y011902D03*
X022500Y011902D03*
X022697Y011902D03*
X022894Y011902D03*
X023091Y011902D03*
D43*
X019646Y016130D03*
D44*
X027941Y016130D03*
X027941Y015815D03*
X027941Y015500D03*
X027941Y015185D03*
X027941Y014870D03*
X027941Y014555D03*
X027941Y014240D03*
X027941Y013925D03*
X027941Y013610D03*
X027941Y013295D03*
X027941Y012980D03*
X027941Y012665D03*
X027941Y012350D03*
X032351Y012350D03*
X032351Y012665D03*
X032351Y012980D03*
X032351Y013295D03*
X032351Y013610D03*
X032351Y013925D03*
X032351Y014240D03*
X032351Y014555D03*
X032351Y014870D03*
X032351Y015185D03*
X032351Y015500D03*
X032351Y015815D03*
X032351Y016130D03*
X032351Y016445D03*
X032351Y016760D03*
X032351Y017075D03*
X032351Y017390D03*
X032351Y017705D03*
X032351Y018020D03*
X032351Y018335D03*
X032351Y018650D03*
X032351Y018965D03*
X032351Y019280D03*
X032351Y019595D03*
X032351Y019910D03*
X027941Y019910D03*
X027941Y019595D03*
X027941Y019280D03*
X027941Y018965D03*
X027941Y018650D03*
X027941Y018335D03*
X027941Y018020D03*
X027941Y017705D03*
X027941Y017390D03*
X027941Y017075D03*
X027941Y016760D03*
X027941Y016445D03*
D45*
X039874Y034563D03*
X040071Y034563D03*
X040268Y034563D03*
X040465Y034563D03*
X040662Y034563D03*
X040859Y034563D03*
X041056Y034563D03*
X041252Y034563D03*
X041449Y034563D03*
X041646Y034563D03*
X041843Y034563D03*
X042040Y034563D03*
X042237Y034563D03*
X042433Y034563D03*
X042630Y034563D03*
X042827Y034563D03*
X043024Y034563D03*
X043221Y034563D03*
X043418Y034563D03*
D46*
X044500Y034862D03*
X038792Y034862D03*
D47*
X038792Y037209D03*
X044500Y037209D03*
D48*
X032803Y029287D03*
X032803Y029032D03*
X032803Y028776D03*
X032803Y028520D03*
X032803Y028264D03*
X032803Y028008D03*
X032803Y027752D03*
X032803Y027496D03*
X032803Y027240D03*
X032803Y026984D03*
X032803Y026728D03*
X032803Y026473D03*
X030489Y026473D03*
X030489Y026728D03*
X030489Y026984D03*
X030489Y027240D03*
X030489Y027496D03*
X030489Y027752D03*
X030489Y028008D03*
X030489Y028264D03*
X030489Y028520D03*
X030489Y028776D03*
X030489Y029032D03*
X030489Y029287D03*
D49*
X029646Y030880D02*
X029896Y031130D01*
X030146Y031130D01*
X030646Y031130D01*
X030896Y031130D01*
X031146Y031380D01*
X031146Y031880D01*
X031146Y032555D01*
X031071Y032630D01*
X030146Y033555D01*
X030146Y034910D01*
X029236Y034910D02*
X029236Y032645D01*
X029221Y032630D01*
X027896Y033630D02*
X026896Y033630D01*
X026396Y033630D01*
X025896Y033630D01*
X025396Y033630D01*
X024896Y033630D01*
X023654Y033630D01*
X023544Y033740D01*
X022683Y032880D01*
X020396Y032880D01*
X020146Y032880D01*
X019221Y033805D01*
X018146Y033805D01*
X016471Y033805D01*
X013646Y036630D01*
X014821Y037805D01*
X018146Y037805D01*
X020646Y037130D02*
X020646Y036630D01*
X020646Y037130D02*
X020896Y037380D01*
X021880Y037380D01*
X022646Y036614D01*
X023587Y037555D01*
X026646Y037555D01*
X028071Y037555D01*
X028896Y038380D01*
X035146Y038380D01*
X035646Y037880D01*
X035646Y034880D01*
X035616Y034910D01*
X035095Y034910D01*
X034185Y034910D02*
X034185Y033595D01*
X035150Y032630D01*
X035146Y032626D01*
X035146Y031880D01*
X035146Y031380D01*
X034896Y031130D01*
X034646Y031130D01*
X034146Y031130D01*
X033896Y031130D01*
X033646Y030880D01*
X033300Y032630D02*
X033275Y032654D01*
X033275Y034910D01*
X034185Y034910D02*
X034185Y037350D01*
X035646Y034880D02*
X035646Y034630D01*
X035646Y034130D01*
X036896Y032880D01*
X031056Y034910D02*
X031056Y035720D01*
X030646Y036130D01*
X028896Y036130D01*
X028396Y035630D01*
X028396Y034130D01*
X027896Y033630D01*
X021748Y033740D02*
X021036Y033740D01*
X019896Y034880D01*
X019146Y034880D01*
X014646Y033130D02*
X014646Y032130D01*
X014646Y033130D02*
X013646Y034130D01*
X010433Y034130D01*
X010433Y036835D01*
X010138Y037130D01*
X009162Y037138D02*
X006878Y037138D01*
X006130Y036390D01*
X005422Y036390D01*
X004279Y035247D01*
X004241Y035209D01*
X004280Y035209D02*
X004280Y032925D01*
X005067Y032138D01*
X011721Y032138D01*
X008859Y034130D02*
X008756Y034028D01*
X006146Y034028D01*
X019646Y017630D02*
X019646Y016130D01*
X019646Y014630D01*
X019646Y016130D02*
X017896Y016130D01*
X019646Y016130D02*
X021396Y016130D01*
D50*
X011396Y023380D02*
X010520Y023380D01*
X009772Y023380D02*
X008896Y023380D01*
X007896Y023329D02*
X007896Y022630D01*
X006896Y022880D02*
X006896Y023506D01*
X006896Y024254D02*
X007719Y024254D01*
X007896Y024431D01*
X008971Y024431D01*
X017146Y030880D02*
X017146Y031130D01*
X016270Y032006D01*
X016146Y032006D01*
X016146Y032754D02*
X016146Y033480D01*
X016471Y033805D01*
X011646Y032630D02*
X011396Y032880D01*
X010770Y032880D01*
X010022Y032880D02*
X010022Y033719D01*
X010433Y034130D01*
X024646Y033880D02*
X024896Y033630D01*
X024646Y033880D02*
X024646Y034506D01*
X024646Y035254D02*
X025522Y035254D01*
X025646Y035130D01*
X025646Y034630D01*
X031071Y032630D02*
X032146Y033705D01*
X032146Y033756D01*
X032146Y034504D02*
X032146Y034630D01*
X033146Y034630D01*
X032146Y034630D02*
X032146Y035630D01*
X032146Y036756D01*
X032146Y037504D02*
X034031Y037504D01*
X034185Y037350D01*
X036646Y036004D02*
X038770Y036004D01*
X038896Y036130D01*
X036646Y035256D02*
X036646Y034880D01*
X036396Y034630D01*
X035646Y034630D01*
X037146Y032380D02*
X037146Y032130D01*
X034396Y029380D01*
X033146Y029380D01*
X008933Y012130D02*
X007359Y012130D01*
X006396Y012130D01*
X006146Y011880D01*
X006146Y011504D01*
X006146Y010756D02*
X006146Y010380D01*
X006396Y010130D01*
X007359Y010130D01*
X030146Y006630D02*
X030772Y006630D01*
X031520Y006630D02*
X031520Y005431D01*
X031510Y005421D01*
X031510Y004494D01*
X031396Y004380D01*
X032896Y006630D02*
X033522Y006630D01*
X034270Y006630D02*
X034760Y006140D01*
X034760Y005421D01*
X034760Y004494D01*
X034646Y004380D01*
X035896Y006630D02*
X036522Y006630D01*
X037270Y006630D02*
X038010Y005890D01*
X038010Y005421D01*
X038010Y004494D01*
X037896Y004380D01*
X038646Y006630D02*
X039272Y006630D01*
X040020Y006630D02*
X040396Y006630D01*
X041146Y005880D01*
X041146Y005536D01*
X041260Y005421D01*
X041260Y004494D01*
X041146Y004380D01*
D51*
X041146Y004380D03*
X038646Y006630D03*
X037896Y004380D03*
X035896Y006630D03*
X034646Y004380D03*
X032896Y006630D03*
X031396Y004380D03*
X030146Y006630D03*
X029396Y002630D03*
X027396Y002630D03*
X038646Y009130D03*
X040896Y008130D03*
X044396Y007130D03*
X040896Y011130D03*
X040896Y013880D03*
X038646Y014880D03*
X040896Y016880D03*
X038646Y018130D03*
X038646Y020130D03*
X038646Y023130D03*
X038646Y025630D03*
X042146Y024130D03*
X044396Y021380D03*
X042146Y027630D03*
X044396Y028880D03*
X037896Y032880D03*
X037396Y032880D03*
X036896Y032880D03*
X037146Y032380D03*
X037646Y032380D03*
X035146Y031880D03*
X035146Y031380D03*
X034646Y031130D03*
X034146Y031130D03*
X033646Y030880D03*
X033396Y031630D03*
X032896Y031630D03*
X032396Y031630D03*
X032396Y032130D03*
X032396Y032630D03*
X031146Y031880D03*
X031146Y031380D03*
X030646Y031130D03*
X030146Y031130D03*
X029646Y030880D03*
X029146Y031630D03*
X028646Y031630D03*
X028146Y031630D03*
X028146Y032130D03*
X028146Y032630D03*
X026896Y033630D03*
X026396Y033630D03*
X025896Y033630D03*
X025396Y033630D03*
X024896Y033630D03*
X025646Y034630D03*
X026146Y034630D03*
X026646Y034630D03*
X027146Y034630D03*
X027646Y034630D03*
X032146Y035630D03*
X031896Y028880D03*
X033729Y026508D03*
X034201Y026508D03*
X034674Y026508D03*
X029646Y026380D03*
X028646Y019880D03*
X028646Y018880D03*
X028646Y017880D03*
X028646Y017130D03*
X028646Y016130D03*
X028599Y014539D03*
X028646Y012380D03*
X027396Y011630D03*
X021396Y016130D03*
X019646Y014630D03*
X017896Y016130D03*
X019646Y017630D03*
X017646Y018130D03*
X016804Y019577D03*
X014646Y019880D03*
X014646Y021880D03*
X015646Y021880D03*
X011396Y023380D03*
X008896Y023380D03*
X007896Y022630D03*
X006896Y022880D03*
X008146Y021630D03*
X008396Y020630D03*
X008396Y019880D03*
X009396Y018630D03*
X006396Y019380D03*
X004896Y020130D03*
X003646Y019630D03*
X003646Y021880D03*
X004896Y022130D03*
X002146Y022630D03*
X008396Y027380D03*
X012396Y029380D03*
X012896Y029380D03*
X013396Y029380D03*
X012146Y030880D03*
X011646Y031130D03*
X011646Y031630D03*
X011646Y032130D03*
X011646Y032630D03*
X017146Y030880D03*
X017646Y030880D03*
X018146Y030880D03*
X018646Y030880D03*
X019146Y030880D03*
X014396Y027880D03*
X017146Y034880D03*
X017646Y034880D03*
X018146Y034880D03*
X018646Y034880D03*
X019146Y034880D03*
X020146Y036380D03*
X020646Y036630D03*
X020646Y036130D03*
X020146Y036880D03*
X020646Y037130D03*
X033126Y019973D03*
X033244Y018949D03*
X033146Y018130D03*
X033244Y017059D03*
X033146Y016130D03*
X033087Y012256D03*
X044646Y013380D03*
X016091Y013673D03*
X010146Y012130D03*
X008896Y013630D03*
X008146Y013630D03*
X006396Y012130D03*
X004396Y011130D03*
X006396Y010130D03*
X005896Y008880D03*
X009146Y006380D03*
X009146Y004380D03*
X008146Y004380D03*
X004396Y013130D03*
X003146Y013880D03*
X004396Y016130D03*
X006396Y016880D03*
X006896Y016130D03*
D52*
X007313Y016547D01*
X007313Y016630D01*
X008020Y016272D02*
X008178Y016114D01*
X011012Y016114D01*
X011170Y016272D01*
X011170Y016856D01*
X011146Y016880D01*
X010396Y016630D02*
X009479Y016630D01*
X009475Y016626D01*
X008532Y016626D01*
X008296Y016862D01*
X008296Y018043D01*
X007709Y018630D01*
X004396Y018630D01*
X004146Y018880D01*
X003146Y018880D01*
X002896Y019130D01*
X002646Y019130D01*
X002146Y018630D02*
X003896Y018630D01*
X004396Y018130D01*
X007313Y018130D01*
X007855Y018130D01*
X008020Y017965D01*
X008020Y016272D01*
X007313Y017130D02*
X006646Y017130D01*
X006396Y016880D01*
X006020Y017630D02*
X007313Y017630D01*
X008611Y017335D02*
X008611Y018165D01*
X007896Y018880D01*
X004646Y018880D01*
X003896Y019630D01*
X003646Y019630D01*
X002146Y018630D02*
X001646Y018130D01*
X002646Y018130D02*
X003896Y018130D01*
X004396Y017630D01*
X005272Y017630D01*
X005272Y016504D01*
X006146Y015630D01*
X010896Y015630D01*
X011146Y015380D02*
X005896Y015380D01*
X004146Y017130D01*
X003646Y017130D01*
X006396Y019380D02*
X007313Y019380D01*
X009396Y018630D02*
X009479Y018547D01*
X009479Y018130D01*
X009479Y017130D02*
X008815Y017130D01*
X008611Y017335D01*
X011146Y018380D02*
X011329Y018197D01*
X013079Y018197D01*
X017146Y017880D02*
X017146Y017797D01*
X017232Y017711D01*
X017292Y017711D01*
X017401Y017666D01*
X017485Y017582D01*
X017530Y017473D01*
X017530Y017354D01*
X017485Y017245D01*
X017401Y017161D01*
X017292Y017116D01*
X017173Y017116D01*
X017146Y017127D01*
X017146Y015801D01*
X017149Y015799D01*
X017194Y015689D01*
X017194Y015571D01*
X017149Y015461D01*
X017146Y015459D01*
X017146Y014474D01*
X017350Y014474D01*
X017393Y014516D01*
X017502Y014562D01*
X017621Y014562D01*
X017730Y014516D01*
X017814Y014433D01*
X017859Y014323D01*
X017859Y014205D01*
X017814Y014095D01*
X017730Y014011D01*
X017621Y013966D01*
X017560Y013966D01*
X017646Y013880D01*
X021646Y013880D01*
X021730Y013964D01*
X021666Y013964D01*
X021556Y014009D01*
X021472Y014093D01*
X021427Y014203D01*
X021427Y014321D01*
X021472Y014431D01*
X021556Y014514D01*
X021666Y014560D01*
X021784Y014560D01*
X021893Y014514D01*
X021934Y014474D01*
X022146Y014474D01*
X022146Y015709D01*
X022144Y015711D01*
X022098Y015821D01*
X022098Y015939D01*
X022144Y016049D01*
X022146Y016051D01*
X022146Y016459D01*
X022144Y016461D01*
X022098Y016571D01*
X022098Y016689D01*
X022144Y016799D01*
X022146Y016801D01*
X022146Y016849D01*
X021958Y016849D01*
X021933Y016824D01*
X021823Y016779D01*
X021705Y016779D01*
X021595Y016824D01*
X021512Y016908D01*
X021466Y017018D01*
X021466Y017136D01*
X021512Y017246D01*
X021595Y017329D01*
X021705Y017375D01*
X021823Y017375D01*
X021933Y017329D01*
X021993Y017269D01*
X022146Y017269D01*
X022146Y017670D01*
X021857Y017670D01*
X021815Y017628D01*
X021705Y017582D01*
X021587Y017582D01*
X021477Y017628D01*
X021394Y017711D01*
X021348Y017821D01*
X021348Y017939D01*
X021394Y018049D01*
X021477Y018132D01*
X021587Y018178D01*
X021705Y018178D01*
X021815Y018132D01*
X021857Y018090D01*
X021936Y018090D01*
X021646Y018380D01*
X017646Y018380D01*
X017146Y017880D01*
X017171Y017905D02*
X019341Y017905D01*
X019298Y017862D02*
X019414Y017978D01*
X019565Y018040D01*
X019728Y018040D01*
X019878Y017978D01*
X019994Y017862D01*
X020056Y017712D01*
X020056Y017425D01*
X021043Y017425D01*
X021137Y017331D01*
X021137Y016540D01*
X021478Y016540D01*
X021628Y016478D01*
X021744Y016362D01*
X021806Y016212D01*
X021806Y016048D01*
X021744Y015898D01*
X021628Y015782D01*
X021478Y015720D01*
X021137Y015720D01*
X021137Y014929D01*
X021043Y014835D01*
X020056Y014835D01*
X020056Y014548D01*
X019994Y014398D01*
X019878Y014282D01*
X019728Y014220D01*
X019565Y014220D01*
X019414Y014282D01*
X019298Y014398D01*
X019236Y014548D01*
X019236Y014835D01*
X018249Y014835D01*
X018155Y014929D01*
X018155Y015720D01*
X017815Y015720D01*
X017664Y015782D01*
X017548Y015898D01*
X017486Y016048D01*
X017486Y016212D01*
X017548Y016362D01*
X017664Y016478D01*
X017815Y016540D01*
X018155Y016540D01*
X018155Y017331D01*
X018249Y017425D01*
X019236Y017425D01*
X019236Y017712D01*
X019298Y017862D01*
X019267Y017787D02*
X017157Y017787D01*
X017396Y017668D02*
X019236Y017668D01*
X019236Y017550D02*
X017499Y017550D01*
X017530Y017431D02*
X019236Y017431D01*
X019525Y018024D02*
X017290Y018024D01*
X017408Y018142D02*
X021501Y018142D01*
X021383Y018024D02*
X019767Y018024D01*
X019951Y017905D02*
X021348Y017905D01*
X021362Y017787D02*
X020025Y017787D01*
X020056Y017668D02*
X021437Y017668D01*
X021579Y017313D02*
X021137Y017313D01*
X021137Y017194D02*
X021490Y017194D01*
X021466Y017076D02*
X021137Y017076D01*
X021137Y016957D02*
X021491Y016957D01*
X021581Y016839D02*
X021137Y016839D01*
X021137Y016720D02*
X022111Y016720D01*
X022098Y016602D02*
X021137Y016602D01*
X021615Y016483D02*
X022135Y016483D01*
X022146Y016365D02*
X021741Y016365D01*
X021792Y016246D02*
X022146Y016246D01*
X022146Y016128D02*
X021806Y016128D01*
X021790Y016009D02*
X022127Y016009D01*
X022098Y015891D02*
X021736Y015891D01*
X021603Y015772D02*
X022118Y015772D01*
X022146Y015654D02*
X021137Y015654D01*
X021137Y015535D02*
X022146Y015535D01*
X022146Y015417D02*
X021137Y015417D01*
X021137Y015298D02*
X022146Y015298D01*
X022146Y015180D02*
X021137Y015180D01*
X021137Y015061D02*
X022146Y015061D01*
X022146Y014943D02*
X021137Y014943D01*
X021510Y014469D02*
X020023Y014469D01*
X020056Y014587D02*
X022146Y014587D01*
X022146Y014706D02*
X020056Y014706D01*
X020056Y014824D02*
X022146Y014824D01*
X021439Y014350D02*
X019946Y014350D01*
X019755Y014232D02*
X021427Y014232D01*
X021464Y014113D02*
X017821Y014113D01*
X017859Y014232D02*
X019537Y014232D01*
X019346Y014350D02*
X017848Y014350D01*
X017778Y014469D02*
X019269Y014469D01*
X019236Y014587D02*
X017146Y014587D01*
X017146Y014706D02*
X019236Y014706D01*
X019236Y014824D02*
X017146Y014824D01*
X017146Y014943D02*
X018155Y014943D01*
X018155Y015061D02*
X017146Y015061D01*
X017146Y015180D02*
X018155Y015180D01*
X018155Y015298D02*
X017146Y015298D01*
X017146Y015417D02*
X018155Y015417D01*
X018155Y015535D02*
X017179Y015535D01*
X017194Y015654D02*
X018155Y015654D01*
X017689Y015772D02*
X017160Y015772D01*
X017146Y015891D02*
X017556Y015891D01*
X017502Y016009D02*
X017146Y016009D01*
X017146Y016128D02*
X017486Y016128D01*
X017500Y016246D02*
X017146Y016246D01*
X017146Y016365D02*
X017551Y016365D01*
X017677Y016483D02*
X017146Y016483D01*
X017146Y016602D02*
X018155Y016602D01*
X018155Y016720D02*
X017146Y016720D01*
X017146Y016839D02*
X018155Y016839D01*
X018155Y016957D02*
X017146Y016957D01*
X017146Y017076D02*
X018155Y017076D01*
X018155Y017194D02*
X017434Y017194D01*
X017513Y017313D02*
X018155Y017313D01*
X017527Y018261D02*
X021766Y018261D01*
X021792Y018142D02*
X021884Y018142D01*
X021647Y018379D02*
X017645Y018379D01*
X020056Y017550D02*
X022146Y017550D01*
X022146Y017668D02*
X021855Y017668D01*
X021950Y017313D02*
X022146Y017313D01*
X022146Y017431D02*
X020056Y017431D01*
X021947Y016839D02*
X022146Y016839D01*
X021592Y013995D02*
X017689Y013995D01*
X018146Y013880D02*
X018170Y013856D01*
X017646Y012630D02*
X017776Y012500D01*
X016989Y011303D02*
X016878Y011193D01*
X017185Y010669D02*
X015896Y009380D01*
X015896Y004630D01*
X015396Y004130D02*
X015396Y010130D01*
X016396Y009130D02*
X017382Y010116D01*
X017579Y009813D02*
X016896Y009130D01*
X016896Y004630D01*
X016396Y004130D02*
X016396Y009130D01*
X014146Y006380D02*
X014146Y012880D01*
X013896Y012880D02*
X013896Y006130D01*
X014396Y005630D01*
X014396Y004130D01*
X014896Y003630D01*
X015396Y004130D02*
X015896Y003630D01*
X016396Y004130D02*
X016896Y003630D01*
X014896Y004630D02*
X014896Y005630D01*
X014146Y006380D01*
X013646Y005630D02*
X013646Y012880D01*
X013396Y013130D02*
X013396Y003880D01*
X013646Y003630D01*
X013896Y003630D01*
X013896Y004630D02*
X013896Y005380D01*
X013646Y005630D01*
X005270Y006754D02*
X004146Y005630D01*
X001896Y005630D01*
X001646Y005880D01*
X001646Y006130D01*
X002146Y006630D02*
X003272Y006630D01*
X004522Y007880D01*
X005270Y007880D02*
X005270Y006880D01*
X005270Y006754D01*
X004522Y006880D02*
X004146Y006880D01*
X003396Y006130D01*
X002646Y006130D01*
X002146Y006630D02*
X001646Y007130D01*
X019646Y012630D02*
X019646Y013880D01*
X020014Y012945D02*
X020138Y012821D01*
X021122Y013856D02*
X021146Y013880D01*
X021396Y026130D02*
X023272Y026130D01*
X024020Y026130D02*
X024396Y026130D01*
X024646Y025880D01*
X025146Y026130D02*
X024396Y026880D01*
X021646Y026880D01*
X021896Y027630D02*
X023272Y027630D01*
X024020Y027630D02*
X024396Y027630D01*
X024646Y027380D01*
X025146Y027630D02*
X024396Y028380D01*
X022146Y028380D01*
X021896Y029130D02*
X023272Y029130D01*
X024020Y029130D02*
X024396Y029130D01*
X024646Y028880D01*
X025146Y029130D02*
X024396Y029880D01*
X022146Y029880D01*
X022396Y030630D02*
X023272Y030630D01*
X024020Y030630D02*
X024396Y030630D01*
X024646Y030380D01*
X025396Y030630D02*
X024646Y031380D01*
X022646Y031380D01*
X025396Y030630D02*
X025772Y030630D01*
X026520Y030630D02*
X026896Y030630D01*
X027146Y030380D01*
X026896Y029130D02*
X027146Y028880D01*
X026896Y029130D02*
X026520Y029130D01*
X025772Y029130D02*
X025146Y029130D01*
X025146Y027630D02*
X025772Y027630D01*
X026520Y027630D02*
X026896Y027630D01*
X027146Y027380D01*
X028896Y028380D02*
X029012Y028264D01*
X030489Y028264D01*
X030489Y028008D02*
X032146Y028008D01*
X032803Y028008D01*
X032146Y028008D02*
X032146Y026880D01*
X032298Y026728D01*
X032803Y026728D01*
X030489Y026728D02*
X029994Y026728D01*
X029646Y026380D01*
X029146Y025880D02*
X028896Y026130D01*
X028896Y028380D01*
X028896Y029380D01*
X029646Y030130D01*
X032396Y030130D01*
X032803Y029723D01*
X032803Y029287D01*
X033054Y029287D01*
X033146Y029380D01*
X033396Y031380D02*
X032396Y031380D01*
X032146Y031630D01*
X032146Y032630D01*
X032396Y032880D01*
X032597Y032880D01*
X032588Y032848D01*
X032588Y032668D01*
X033261Y032668D01*
X033261Y032592D01*
X032588Y032592D01*
X032588Y032412D01*
X032599Y032371D01*
X032620Y032335D01*
X032650Y032305D01*
X032687Y032284D01*
X032727Y032273D01*
X033261Y032273D01*
X033261Y032592D01*
X033338Y032592D01*
X033338Y032273D01*
X033646Y032273D01*
X033646Y031630D01*
X033396Y031380D01*
X033430Y031414D02*
X032362Y031414D01*
X032243Y031533D02*
X033549Y031533D01*
X033646Y031651D02*
X032146Y031651D01*
X032146Y031770D02*
X033646Y031770D01*
X033646Y031888D02*
X032146Y031888D01*
X032146Y032007D02*
X033646Y032007D01*
X033646Y032125D02*
X032146Y032125D01*
X032146Y032244D02*
X033646Y032244D01*
X033338Y032362D02*
X033261Y032362D01*
X033261Y032481D02*
X033338Y032481D01*
X033261Y032599D02*
X032146Y032599D01*
X032146Y032481D02*
X032588Y032481D01*
X032605Y032362D02*
X032146Y032362D01*
X032234Y032718D02*
X032588Y032718D01*
X032588Y032836D02*
X032352Y032836D01*
X029646Y032273D02*
X029646Y031630D01*
X029396Y031380D01*
X028146Y031380D01*
X027896Y031630D01*
X027896Y032630D01*
X028146Y032880D01*
X028518Y032880D01*
X028510Y032848D01*
X028510Y032668D01*
X029182Y032668D01*
X029182Y032592D01*
X028510Y032592D01*
X028510Y032412D01*
X028521Y032371D01*
X028542Y032335D01*
X028571Y032305D01*
X028608Y032284D01*
X028649Y032273D01*
X029182Y032273D01*
X029182Y032592D01*
X029259Y032592D01*
X029259Y032273D01*
X029646Y032273D01*
X029646Y032244D02*
X027896Y032244D01*
X027896Y032362D02*
X028526Y032362D01*
X028510Y032481D02*
X027896Y032481D01*
X027896Y032599D02*
X029182Y032599D01*
X029182Y032481D02*
X029259Y032481D01*
X029259Y032362D02*
X029182Y032362D01*
X029646Y032125D02*
X027896Y032125D01*
X027896Y032007D02*
X029646Y032007D01*
X029646Y031888D02*
X027896Y031888D01*
X027896Y031770D02*
X029646Y031770D01*
X029646Y031651D02*
X027896Y031651D01*
X027993Y031533D02*
X029549Y031533D01*
X029430Y031414D02*
X028112Y031414D01*
X027984Y032718D02*
X028510Y032718D01*
X028510Y032836D02*
X028102Y032836D01*
X027646Y034380D02*
X025646Y034380D01*
X025396Y034630D01*
X025396Y036130D01*
X026289Y036130D01*
X026289Y035743D01*
X026608Y035743D01*
X026608Y035666D01*
X026684Y035666D01*
X026684Y034994D01*
X026864Y034994D01*
X026905Y035005D01*
X026941Y035026D01*
X026971Y035055D01*
X026992Y035092D01*
X027003Y035133D01*
X027003Y035666D01*
X026684Y035666D01*
X026684Y035743D01*
X027003Y035743D01*
X027003Y036130D01*
X027896Y036130D01*
X027896Y034630D01*
X027646Y034380D01*
X027761Y034495D02*
X025531Y034495D01*
X025412Y034614D02*
X027880Y034614D01*
X027896Y034732D02*
X025396Y034732D01*
X025396Y034851D02*
X027896Y034851D01*
X027896Y034969D02*
X025396Y034969D01*
X025396Y035088D02*
X026303Y035088D01*
X026300Y035092D02*
X026321Y035055D01*
X026351Y035026D01*
X026387Y035005D01*
X026428Y034994D01*
X026608Y034994D01*
X026608Y035666D01*
X026289Y035666D01*
X026289Y035133D01*
X026300Y035092D01*
X026289Y035206D02*
X025396Y035206D01*
X025396Y035325D02*
X026289Y035325D01*
X026289Y035443D02*
X025396Y035443D01*
X025396Y035562D02*
X026289Y035562D01*
X026289Y035799D02*
X025396Y035799D01*
X025396Y035917D02*
X026289Y035917D01*
X026289Y036036D02*
X025396Y036036D01*
X025396Y035680D02*
X026608Y035680D01*
X026684Y035680D02*
X027896Y035680D01*
X027896Y035562D02*
X027003Y035562D01*
X027003Y035443D02*
X027896Y035443D01*
X027896Y035325D02*
X027003Y035325D01*
X027003Y035206D02*
X027896Y035206D01*
X027896Y035088D02*
X026990Y035088D01*
X026684Y035088D02*
X026608Y035088D01*
X026608Y035206D02*
X026684Y035206D01*
X026684Y035325D02*
X026608Y035325D01*
X026608Y035443D02*
X026684Y035443D01*
X026684Y035562D02*
X026608Y035562D01*
X027003Y035799D02*
X027896Y035799D01*
X027896Y035917D02*
X027003Y035917D01*
X027003Y036036D02*
X027896Y036036D01*
X020896Y036130D02*
X020646Y035880D01*
X020396Y035880D01*
X019896Y036380D01*
X019896Y036880D01*
X020396Y037380D01*
X020646Y037380D01*
X020896Y037130D01*
X020896Y036130D01*
X020896Y036154D02*
X020122Y036154D01*
X020240Y036036D02*
X020802Y036036D01*
X020683Y035917D02*
X020359Y035917D01*
X020003Y036273D02*
X020896Y036273D01*
X020896Y036391D02*
X019896Y036391D01*
X019896Y036510D02*
X020896Y036510D01*
X020896Y036628D02*
X019896Y036628D01*
X019896Y036747D02*
X020896Y036747D01*
X020896Y036865D02*
X019896Y036865D01*
X020000Y036984D02*
X020896Y036984D01*
X020896Y037102D02*
X020118Y037102D01*
X020237Y037221D02*
X020805Y037221D01*
X020687Y037339D02*
X020355Y037339D01*
X019396Y036380D02*
X018503Y036380D01*
X018503Y035993D01*
X018184Y035993D01*
X018184Y035916D01*
X018184Y035244D01*
X018364Y035244D01*
X018405Y035255D01*
X018441Y035276D01*
X018471Y035305D01*
X018492Y035342D01*
X018503Y035383D01*
X018503Y035916D01*
X018184Y035916D01*
X018108Y035916D01*
X018108Y035244D01*
X017928Y035244D01*
X017887Y035255D01*
X017851Y035276D01*
X017821Y035305D01*
X017800Y035342D01*
X017789Y035383D01*
X017789Y035916D01*
X018108Y035916D01*
X018108Y035993D01*
X017789Y035993D01*
X017789Y036380D01*
X016896Y036380D01*
X016896Y034748D01*
X019396Y034748D01*
X019396Y036380D01*
X019396Y036273D02*
X018503Y036273D01*
X018503Y036154D02*
X019396Y036154D01*
X019396Y036036D02*
X018503Y036036D01*
X018503Y035799D02*
X019396Y035799D01*
X019396Y035917D02*
X018184Y035917D01*
X018108Y035917D02*
X016896Y035917D01*
X016896Y035799D02*
X017789Y035799D01*
X017789Y035680D02*
X016896Y035680D01*
X016896Y035562D02*
X017789Y035562D01*
X017789Y035443D02*
X016896Y035443D01*
X016896Y035325D02*
X017810Y035325D01*
X018108Y035325D02*
X018184Y035325D01*
X018184Y035443D02*
X018108Y035443D01*
X018108Y035562D02*
X018184Y035562D01*
X018184Y035680D02*
X018108Y035680D01*
X018108Y035799D02*
X018184Y035799D01*
X018503Y035680D02*
X019396Y035680D01*
X019396Y035562D02*
X018503Y035562D01*
X018503Y035443D02*
X019396Y035443D01*
X019396Y035325D02*
X018482Y035325D01*
X019396Y035206D02*
X016896Y035206D01*
X016896Y035088D02*
X019396Y035088D01*
X019396Y034969D02*
X016896Y034969D01*
X016896Y034851D02*
X019396Y034851D01*
X017789Y036036D02*
X016896Y036036D01*
X016896Y036154D02*
X017789Y036154D01*
X017789Y036273D02*
X016896Y036273D01*
X025146Y026130D02*
X025772Y026130D01*
X026520Y026130D02*
X026896Y026130D01*
X027146Y025880D01*
X029146Y025880D02*
X030146Y025880D01*
X030489Y026223D01*
X030489Y026473D01*
X036646Y032630D02*
X037146Y032130D01*
X037646Y032130D01*
X038146Y032630D01*
X038146Y032880D01*
X037896Y033130D01*
X036896Y033130D01*
X036646Y032880D01*
X036646Y032630D01*
X036677Y032599D02*
X038115Y032599D01*
X038146Y032718D02*
X036646Y032718D01*
X036646Y032836D02*
X038146Y032836D01*
X038071Y032955D02*
X036721Y032955D01*
X036839Y033073D02*
X037953Y033073D01*
X037997Y032481D02*
X036795Y032481D01*
X036914Y032362D02*
X037878Y032362D01*
X037760Y032244D02*
X037032Y032244D01*
D53*
X032146Y028630D02*
X031896Y028880D01*
X032146Y028630D02*
X032146Y028008D01*
X038646Y025630D02*
X039272Y025630D01*
X040020Y025630D02*
X040583Y026193D01*
X041020Y026630D01*
X041522Y026630D01*
X042270Y026630D02*
X042896Y026630D01*
X043708Y027442D01*
X043520Y027630D01*
X043708Y027442D02*
X043896Y027254D01*
X043896Y026563D01*
X045471Y026563D01*
X046065Y025969D01*
X046211Y025130D02*
X045146Y025130D01*
X044579Y025697D01*
X044270Y025697D01*
X043522Y025697D02*
X043455Y025630D01*
X042270Y025630D01*
X042146Y024130D02*
X042772Y024130D01*
X043520Y024130D02*
X043708Y023942D01*
X042896Y023130D01*
X042270Y023130D01*
X041522Y023130D02*
X040646Y023130D01*
X040020Y023130D01*
X039272Y023130D02*
X038646Y023130D01*
X038646Y020130D02*
X038646Y019504D01*
X038646Y018756D02*
X038646Y018130D01*
X040896Y016880D02*
X041522Y016880D01*
X042270Y016880D02*
X043579Y016880D01*
X043646Y016813D01*
X045721Y016813D01*
X046065Y016469D01*
X046146Y015630D02*
X044337Y015630D01*
X044020Y015947D01*
X043272Y015947D02*
X043205Y015880D01*
X042270Y015880D01*
X042646Y015130D02*
X046538Y015130D01*
X047050Y015642D01*
X047050Y016469D02*
X046985Y016469D01*
X046146Y015630D01*
X045544Y014313D02*
X046065Y013791D01*
X045544Y014313D02*
X043646Y014313D01*
X043579Y014380D01*
X043146Y014380D01*
X042646Y013880D01*
X042270Y013880D01*
X041522Y013880D02*
X040896Y013880D01*
X040646Y014880D02*
X040020Y014880D01*
X040646Y014880D02*
X041522Y014880D01*
X042270Y014880D02*
X042396Y014880D01*
X042646Y015130D01*
X043272Y013447D02*
X042705Y012880D01*
X042270Y012880D01*
X044020Y013447D02*
X044579Y013447D01*
X044646Y013380D01*
X043579Y011130D02*
X042270Y011130D01*
X041522Y011130D02*
X040896Y011130D01*
X042270Y010130D02*
X043205Y010130D01*
X043272Y010197D01*
X044020Y010197D02*
X045837Y008380D01*
X046146Y008380D01*
X046985Y009219D01*
X047050Y009219D01*
X047050Y008392D02*
X046908Y008392D01*
X046396Y007880D01*
X045396Y007880D01*
X043896Y009380D01*
X042520Y009380D01*
X042270Y009130D01*
X041522Y009130D02*
X040646Y009130D01*
X040020Y009130D01*
X039272Y009130D02*
X038646Y009130D01*
X040896Y008130D02*
X041522Y008130D01*
X042270Y008130D02*
X042646Y008130D01*
X043146Y008630D01*
X043579Y008630D01*
X043646Y008563D01*
X044044Y008563D01*
X046065Y006541D01*
X047050Y006541D02*
X047050Y005158D01*
X045896Y004004D01*
X045896Y003256D02*
X043396Y003256D01*
X043032Y002892D01*
X043032Y001839D01*
X043396Y003256D02*
X040146Y003256D01*
X039782Y002892D01*
X039782Y001839D01*
X040146Y003256D02*
X036646Y003256D01*
X036532Y003142D01*
X036532Y001839D01*
X036646Y003256D02*
X034699Y003256D01*
X033282Y001839D01*
X029396Y002630D02*
X028770Y002630D01*
X028022Y002630D02*
X027396Y002630D01*
X027396Y011630D02*
X028022Y011630D01*
X028770Y011630D02*
X028770Y012256D01*
X028646Y012380D01*
X028617Y012350D01*
X027941Y012350D01*
X027941Y014555D02*
X028599Y014555D01*
X028599Y014539D01*
X028646Y016130D02*
X027941Y016130D01*
X027941Y017075D02*
X028591Y017075D01*
X028646Y017130D01*
X028646Y017880D02*
X028506Y018020D01*
X027941Y018020D01*
X027941Y018965D02*
X028561Y018965D01*
X028646Y018880D01*
X029270Y019504D01*
X029270Y020630D01*
X028617Y020536D02*
X028522Y020630D01*
X028617Y020536D02*
X028617Y019910D01*
X028646Y019880D01*
X028617Y019910D02*
X027941Y019910D01*
X026396Y020380D02*
X026272Y020504D01*
X025646Y020504D01*
X025646Y019756D02*
X025841Y019561D01*
X026248Y019561D01*
X032351Y019910D02*
X033063Y019910D01*
X033126Y019973D01*
X033229Y018965D02*
X032351Y018965D01*
X033229Y018965D02*
X033244Y018949D01*
X033841Y018949D01*
X033896Y019004D01*
X033896Y018256D02*
X033770Y018130D01*
X033146Y018130D01*
X033036Y018020D01*
X032351Y018020D01*
X032351Y017075D02*
X033229Y017075D01*
X033244Y017059D01*
X033841Y017059D01*
X033896Y017004D01*
X033896Y016256D02*
X033770Y016130D01*
X033146Y016130D01*
X033396Y015880D01*
X033396Y014504D01*
X033396Y013756D02*
X033396Y012565D01*
X033087Y012256D01*
X032993Y012350D01*
X032351Y012350D01*
X032351Y016130D02*
X033146Y016130D01*
X038646Y014880D02*
X039272Y014880D01*
X043579Y011130D02*
X043646Y011063D01*
X044221Y011063D01*
X046065Y009219D01*
X044020Y007697D02*
X044020Y007506D01*
X044396Y007130D01*
X043272Y007697D02*
X042705Y007130D01*
X042270Y007130D01*
X045896Y003256D02*
X046264Y003256D01*
X048231Y005223D01*
X046020Y020130D02*
X047050Y021160D01*
X047050Y023291D01*
X046908Y025142D02*
X044896Y023130D01*
X043963Y023130D01*
X043896Y023063D01*
X043896Y023754D01*
X043708Y023942D01*
X043522Y022197D02*
X043455Y022130D01*
X042270Y022130D01*
X044270Y022197D02*
X044270Y021506D01*
X044396Y021380D01*
X044396Y021006D01*
X045272Y020130D01*
X046211Y025130D02*
X047050Y025969D01*
X047050Y025142D02*
X046908Y025142D01*
X042772Y027630D02*
X042146Y027630D01*
X044396Y028880D02*
X044396Y029506D01*
X044396Y030254D02*
X044396Y031579D01*
X044396Y032681D02*
X044563Y032849D01*
X046178Y032849D01*
X046678Y032849D01*
X046896Y032630D01*
X046896Y029130D01*
X046646Y028880D01*
X046209Y028880D01*
X046178Y028911D01*
X048146Y030880D02*
X048146Y034254D01*
X048020Y034380D01*
X047272Y034380D02*
X046178Y033286D01*
X046178Y032849D01*
X019396Y031880D02*
X019396Y030630D01*
X016896Y030630D01*
X016896Y031880D01*
X017396Y032380D01*
X017769Y032380D01*
X017769Y031973D01*
X018128Y031973D01*
X018128Y031936D01*
X018164Y031936D01*
X018164Y031224D01*
X018367Y031224D01*
X018412Y031236D01*
X018453Y031260D01*
X018487Y031293D01*
X018511Y031334D01*
X018523Y031380D01*
X018523Y031936D01*
X018164Y031936D01*
X018164Y031973D01*
X018523Y031973D01*
X018523Y032380D01*
X018896Y032380D01*
X019396Y031880D01*
X019396Y031830D02*
X018523Y031830D01*
X018523Y031672D02*
X019396Y031672D01*
X019396Y031513D02*
X018523Y031513D01*
X018516Y031355D02*
X019396Y031355D01*
X019396Y031196D02*
X016896Y031196D01*
X016896Y031038D02*
X019396Y031038D01*
X019396Y030879D02*
X016896Y030879D01*
X016896Y030721D02*
X019396Y030721D01*
X019288Y031989D02*
X018523Y031989D01*
X018523Y032147D02*
X019129Y032147D01*
X018971Y032306D02*
X018523Y032306D01*
X018128Y031936D02*
X017769Y031936D01*
X017769Y031380D01*
X017781Y031334D01*
X017805Y031293D01*
X017839Y031260D01*
X017880Y031236D01*
X017926Y031224D01*
X018128Y031224D01*
X018128Y031936D01*
X018128Y031830D02*
X018164Y031830D01*
X018164Y031672D02*
X018128Y031672D01*
X018128Y031513D02*
X018164Y031513D01*
X018164Y031355D02*
X018128Y031355D01*
X017776Y031355D02*
X016896Y031355D01*
X016896Y031513D02*
X017769Y031513D01*
X017769Y031672D02*
X016896Y031672D01*
X016896Y031830D02*
X017769Y031830D01*
X017769Y031989D02*
X017005Y031989D01*
X017163Y032147D02*
X017769Y032147D01*
X017769Y032306D02*
X017322Y032306D01*
X017896Y029380D02*
X017896Y027880D01*
X017770Y027880D01*
X017022Y027880D02*
X015809Y027880D01*
X014983Y027880D02*
X014396Y027880D01*
X012896Y030380D02*
X012146Y030380D01*
X011396Y031130D01*
X011396Y032630D01*
X011646Y032880D01*
X012056Y032880D01*
X012056Y032210D01*
X012566Y032210D01*
X012566Y032050D01*
X012056Y032050D01*
X012056Y031356D01*
X012068Y031311D01*
X012092Y031269D01*
X012126Y031236D01*
X012167Y031212D01*
X012212Y031200D01*
X012566Y031200D01*
X012566Y032050D01*
X012726Y032050D01*
X012726Y031200D01*
X012896Y031200D01*
X012896Y030380D01*
X012896Y030404D02*
X012123Y030404D01*
X011964Y030562D02*
X012896Y030562D01*
X012896Y030721D02*
X011806Y030721D01*
X011647Y030879D02*
X012896Y030879D01*
X012896Y031038D02*
X011489Y031038D01*
X011396Y031196D02*
X012896Y031196D01*
X012726Y031355D02*
X012566Y031355D01*
X012566Y031513D02*
X012726Y031513D01*
X012726Y031672D02*
X012566Y031672D01*
X012566Y031830D02*
X012726Y031830D01*
X012726Y031989D02*
X012566Y031989D01*
X012566Y032147D02*
X011396Y032147D01*
X011396Y031989D02*
X012056Y031989D01*
X012056Y031830D02*
X011396Y031830D01*
X011396Y031672D02*
X012056Y031672D01*
X012056Y031513D02*
X011396Y031513D01*
X011396Y031355D02*
X012057Y031355D01*
X012056Y032306D02*
X011396Y032306D01*
X011396Y032464D02*
X012056Y032464D01*
X012056Y032623D02*
X011396Y032623D01*
X011547Y032781D02*
X012056Y032781D01*
X008396Y027380D02*
X008646Y027130D01*
X002146Y022630D02*
X002146Y022006D01*
X002272Y021880D01*
X003020Y021880D02*
X003646Y021880D01*
X004896Y022130D02*
X004896Y021504D01*
X004896Y020756D02*
X004896Y020130D01*
X006396Y020130D02*
X006396Y021380D01*
X006646Y021630D01*
X008146Y021630D01*
X008772Y021630D01*
X008646Y021504D01*
X008646Y021130D01*
X008896Y020880D01*
X009479Y020880D01*
X008396Y020630D02*
X008146Y020880D01*
X007313Y020880D01*
X007313Y020380D02*
X007896Y020380D01*
X008396Y019880D01*
X007313Y019880D02*
X006646Y019880D01*
X006396Y020130D01*
X009479Y018130D02*
X009479Y017630D01*
X010146Y012130D02*
X010146Y011504D01*
X010146Y010756D02*
X010146Y010380D01*
X009896Y010130D01*
X008933Y010130D01*
X005896Y008880D02*
X005270Y008880D01*
X004522Y008880D02*
X004522Y009630D01*
X004396Y009756D01*
X004396Y010504D02*
X004396Y011130D01*
X004522Y008880D02*
X004522Y007880D01*
X005396Y006380D02*
X007896Y006380D01*
X008146Y006130D01*
X008146Y005754D01*
X009146Y005754D01*
X009146Y006380D01*
X007146Y005307D02*
X007032Y005421D01*
X007146Y005307D02*
X007146Y004380D01*
X007146Y001953D01*
X007032Y001839D01*
X007146Y004380D02*
X008146Y004380D01*
X008146Y005006D01*
X009146Y005006D02*
X009146Y004380D01*
X011896Y004630D02*
X011896Y006004D01*
X012022Y006130D01*
X012770Y006130D02*
X012896Y006004D01*
X012896Y004630D01*
X005260Y005421D02*
X005260Y006244D01*
X005396Y006380D01*
X004256Y035209D02*
X004256Y035224D01*
X004279Y035247D01*
D54*
X012396Y029380D02*
X014359Y029380D01*
X015933Y029380D02*
X017896Y029380D01*
X019396Y029380D01*
X020146Y030130D01*
X020146Y032630D01*
X020396Y032880D01*
D55*
X022646Y031380D02*
X016201Y024935D01*
X016201Y020358D01*
X016398Y020358D02*
X016398Y024632D01*
X022396Y030630D01*
X022146Y029880D02*
X016595Y024329D01*
X016595Y020358D01*
X016792Y020358D02*
X016792Y024026D01*
X021896Y029130D01*
X022146Y028380D02*
X017579Y023813D01*
X017579Y020358D01*
X017382Y020358D02*
X017382Y019644D01*
X017896Y019130D01*
X018681Y019130D01*
X018693Y019118D01*
X018611Y019697D02*
X018760Y019847D01*
X018760Y020358D01*
X018563Y020358D02*
X018563Y022297D01*
X021146Y024880D01*
X037146Y024880D01*
X037646Y024380D01*
X037646Y022880D01*
X038396Y022130D01*
X041522Y022130D01*
X040896Y025130D02*
X020896Y025130D01*
X018367Y022600D01*
X018367Y020358D01*
X018170Y020358D02*
X018170Y022904D01*
X021396Y026130D01*
X021646Y026880D02*
X017973Y023207D01*
X017973Y020358D01*
X017776Y020358D02*
X017776Y023510D01*
X021896Y027630D01*
X020896Y023380D02*
X019941Y022425D01*
X019941Y020358D01*
X019744Y020358D02*
X019744Y021900D01*
X019514Y022130D01*
X019146Y022380D02*
X019646Y022880D01*
X019146Y022380D02*
X019146Y021880D01*
X019548Y021478D01*
X019548Y020358D01*
X019351Y020358D02*
X019351Y021043D01*
X019225Y021169D01*
X018886Y020996D02*
X018886Y021620D01*
X018896Y021630D01*
X018886Y020996D02*
X019154Y020728D01*
X019154Y020358D01*
X018957Y020358D02*
X018957Y019819D01*
X019146Y019630D01*
X019146Y018380D01*
X020396Y018380D02*
X020532Y018516D01*
X020532Y020358D01*
X020729Y020358D02*
X020729Y022463D01*
X021396Y023130D01*
X031146Y023130D01*
X031646Y022630D01*
X031646Y019630D01*
X031996Y019280D01*
X032351Y019280D01*
X032351Y019595D02*
X032048Y019595D01*
X031906Y019736D01*
X031906Y020370D01*
X031896Y020380D01*
X031896Y022880D01*
X031396Y023380D01*
X020896Y023380D01*
X021646Y022880D02*
X030896Y022880D01*
X031396Y022380D01*
X031396Y019380D01*
X032126Y018650D01*
X032351Y018650D01*
X032351Y018335D02*
X031941Y018335D01*
X031146Y019130D01*
X031146Y022130D01*
X030646Y022630D01*
X021896Y022630D01*
X021122Y021856D01*
X021122Y020358D01*
X020926Y020358D02*
X020926Y022160D01*
X021646Y022880D01*
X022146Y022380D02*
X021910Y022144D01*
X021910Y020358D01*
X022107Y020358D02*
X022107Y021841D01*
X022396Y022130D01*
X030146Y022130D01*
X030646Y021630D01*
X030646Y018630D01*
X031886Y017390D01*
X032351Y017390D01*
X032351Y017705D02*
X032071Y017705D01*
X030896Y018880D01*
X030896Y021880D01*
X030396Y022380D01*
X022146Y022380D01*
X022646Y021880D02*
X022304Y021537D01*
X022304Y020358D01*
X022500Y020358D02*
X022500Y021354D01*
X022776Y021630D01*
X029646Y021630D01*
X030146Y021130D01*
X030146Y018130D01*
X031831Y016445D01*
X032351Y016445D01*
X032351Y016760D02*
X032016Y016760D01*
X030396Y018380D01*
X030396Y021380D01*
X029896Y021880D01*
X022646Y021880D01*
X022896Y021380D02*
X022697Y021181D01*
X022697Y020358D01*
X022894Y020358D02*
X022894Y020878D01*
X023146Y021130D01*
X026146Y021130D01*
X027646Y019630D01*
X027906Y019630D01*
X027941Y019595D01*
X027918Y019303D02*
X027941Y019280D01*
X027918Y019303D02*
X027579Y019303D01*
X027457Y019181D01*
X023874Y019181D01*
X023874Y018984D02*
X025963Y018984D01*
X026317Y018630D01*
X027922Y018630D01*
X027941Y018650D01*
X027926Y018634D01*
X027896Y018380D02*
X027941Y018335D01*
X027926Y018319D01*
X027896Y018380D02*
X026146Y018380D01*
X025739Y018787D01*
X023874Y018787D01*
X023874Y018591D02*
X025493Y018591D01*
X026355Y017728D01*
X027918Y017728D01*
X027941Y017705D01*
X027926Y017689D01*
X027918Y017413D02*
X027941Y017390D01*
X027931Y017380D01*
X026396Y017380D01*
X025579Y018197D01*
X023874Y018197D01*
X023874Y018394D02*
X023449Y018394D01*
X023138Y018083D01*
X022896Y018380D02*
X022396Y017880D01*
X021646Y017880D01*
X021396Y018380D02*
X021516Y018500D01*
X021516Y020358D01*
X021319Y020358D02*
X021319Y021028D01*
X021485Y021193D01*
X021713Y020358D02*
X021713Y019813D01*
X021896Y019630D01*
X022396Y019130D02*
X022396Y018630D01*
X022396Y019130D02*
X023091Y019825D01*
X023091Y020358D01*
X022896Y021380D02*
X029396Y021380D01*
X029896Y020880D01*
X029896Y017630D01*
X032026Y015500D01*
X032351Y015500D01*
X032351Y015185D02*
X030701Y015185D01*
X030146Y014630D01*
X030146Y011630D01*
X029646Y011130D01*
X023146Y011130D01*
X022894Y011382D01*
X022894Y011902D01*
X022697Y011902D02*
X022697Y012287D01*
X022981Y012571D01*
X022500Y012539D02*
X022500Y011902D01*
X022304Y011902D02*
X022304Y011223D01*
X022646Y010880D01*
X029896Y010880D01*
X030396Y011380D01*
X030396Y014380D01*
X030886Y014870D01*
X032351Y014870D01*
X032351Y014240D02*
X031006Y014240D01*
X030646Y013880D01*
X030646Y011130D01*
X030146Y010630D01*
X022396Y010630D01*
X022107Y010919D01*
X022107Y011902D01*
X021910Y011902D02*
X021910Y010616D01*
X022146Y010380D01*
X030396Y010380D01*
X030896Y010880D01*
X030896Y013630D01*
X031191Y013925D01*
X032351Y013925D01*
X032351Y013610D02*
X031376Y013610D01*
X031146Y013380D01*
X031146Y010630D01*
X030646Y010130D01*
X021896Y010130D01*
X021713Y010313D01*
X021713Y011902D01*
X021516Y011902D02*
X021516Y010010D01*
X021646Y009880D01*
X030896Y009880D01*
X031396Y010380D01*
X031396Y013130D01*
X031561Y013295D01*
X032351Y013295D01*
X032351Y012980D02*
X031746Y012980D01*
X031646Y012880D01*
X031646Y010130D01*
X031146Y009630D01*
X021146Y009630D01*
X020926Y009850D01*
X020926Y011902D01*
X021122Y011902D02*
X021122Y013856D01*
X021725Y014262D02*
X021727Y014264D01*
X022272Y014264D01*
X023457Y013079D01*
X023874Y013079D01*
X023874Y013276D02*
X027922Y013276D01*
X027941Y013295D01*
X027941Y012980D02*
X027209Y012980D01*
X027154Y012925D01*
X027431Y012665D02*
X026646Y011880D01*
X023113Y011880D01*
X023091Y011902D01*
X022500Y012539D02*
X022469Y012571D01*
X022587Y013240D02*
X022902Y013240D01*
X023457Y012685D01*
X023874Y012685D01*
X023874Y012882D02*
X024323Y012882D01*
X024634Y012571D01*
X023874Y013473D02*
X027489Y013473D01*
X027646Y013630D01*
X027922Y013630D01*
X027941Y013610D01*
X027896Y013880D02*
X027892Y013880D01*
X027863Y013910D01*
X027390Y013910D01*
X027036Y014264D01*
X024477Y014264D01*
X024276Y014063D01*
X023874Y014063D01*
X023874Y013866D02*
X024632Y013866D01*
X024646Y013880D01*
X024431Y014500D02*
X024278Y014654D01*
X023874Y014654D01*
X023874Y014850D02*
X023176Y014850D01*
X022896Y015130D01*
X022896Y015630D01*
X023146Y016032D02*
X022548Y016032D01*
X022396Y015880D01*
X022396Y015130D01*
X023069Y014457D01*
X023874Y014457D01*
X023874Y014260D02*
X022766Y014260D01*
X022146Y014880D01*
X023146Y016032D02*
X023343Y016228D01*
X023874Y016228D01*
X023874Y016032D02*
X023146Y016032D01*
X022626Y016272D02*
X022075Y016272D01*
X022626Y016272D02*
X022977Y016622D01*
X023874Y016622D01*
X023874Y016425D02*
X024941Y016425D01*
X025146Y016630D01*
X025146Y017020D01*
X024646Y017130D02*
X024335Y016819D01*
X023874Y016819D01*
X023874Y017016D02*
X024532Y017016D01*
X024646Y017130D01*
X025099Y017606D02*
X026867Y015839D01*
X027918Y015839D01*
X027941Y015815D01*
X027926Y015799D01*
X027918Y015524D02*
X027941Y015500D01*
X027926Y015484D01*
X027918Y015524D02*
X027615Y015524D01*
X027532Y015441D01*
X023874Y015441D01*
X023874Y015244D02*
X027532Y015244D01*
X027646Y015130D01*
X027886Y015130D01*
X027941Y015185D01*
X027926Y015169D01*
X027931Y014880D02*
X027941Y014870D01*
X027931Y014880D02*
X027589Y014880D01*
X027422Y015047D01*
X023874Y015047D01*
X023874Y015638D02*
X025904Y015638D01*
X026146Y015880D01*
X026552Y016469D02*
X027918Y016469D01*
X027941Y016445D01*
X027926Y016429D01*
X027926Y016744D02*
X027941Y016760D01*
X027918Y016784D01*
X027926Y016744D02*
X026670Y016744D01*
X025414Y018000D01*
X023874Y018000D01*
X023874Y017803D02*
X025217Y017803D01*
X026552Y016469D01*
X025514Y016248D02*
X025101Y015835D01*
X023874Y015835D01*
X024431Y014500D02*
X027272Y014500D01*
X027392Y014380D01*
X027396Y014380D01*
X027552Y014224D01*
X027926Y014224D01*
X027941Y014240D01*
X027926Y014539D02*
X027941Y014555D01*
X027941Y013925D02*
X027896Y013880D01*
X027941Y012665D02*
X027431Y012665D01*
X023874Y013669D02*
X023339Y013669D01*
X023217Y013791D01*
X021506Y012595D02*
X021319Y012408D01*
X021319Y011902D01*
X020729Y011902D02*
X020729Y009547D01*
X020896Y009380D01*
X031396Y009380D01*
X031896Y009880D01*
X031896Y012630D01*
X031931Y012665D01*
X032351Y012665D01*
X037146Y015380D02*
X037146Y008630D01*
X036646Y008130D01*
X019396Y008130D01*
X018957Y008569D01*
X018957Y011902D01*
X018760Y011902D02*
X018760Y008266D01*
X019146Y007880D01*
X036896Y007880D01*
X037396Y008380D01*
X037396Y012130D01*
X038146Y012880D01*
X041522Y012880D01*
X041522Y010130D02*
X038146Y010130D01*
X037646Y009630D01*
X037646Y008130D01*
X037146Y007630D01*
X018896Y007630D01*
X018563Y007963D01*
X018563Y011902D01*
X018367Y011902D02*
X018367Y012289D01*
X018672Y012595D01*
X019154Y011902D02*
X019154Y008872D01*
X019396Y008630D01*
X019896Y008630D02*
X019351Y009175D01*
X019351Y011902D01*
X019548Y011902D02*
X019548Y009478D01*
X020396Y008630D01*
X020896Y008630D02*
X019744Y009782D01*
X019744Y011902D01*
X019941Y011902D02*
X019941Y012335D01*
X019646Y012630D01*
X020138Y012821D02*
X020138Y011902D01*
X020335Y011902D02*
X020335Y010191D01*
X020396Y010130D01*
X020532Y011902D02*
X020532Y012606D01*
X020528Y012610D01*
X018170Y011902D02*
X018170Y013856D01*
X017646Y013880D02*
X017146Y013380D01*
X017146Y012630D01*
X016792Y012276D01*
X016792Y011902D01*
X016989Y011902D02*
X016989Y011303D01*
X016595Y011329D02*
X016595Y011902D01*
X016398Y011902D02*
X016398Y012406D01*
X016760Y012768D01*
X016201Y012935D02*
X016896Y013630D01*
X016485Y013476D02*
X016485Y013988D01*
X016760Y014264D01*
X017561Y014264D01*
X017396Y014630D02*
X017372Y014654D01*
X015419Y014654D01*
X015419Y014850D02*
X014235Y014850D01*
X014014Y014630D01*
X013563Y015047D02*
X013396Y014880D01*
X013563Y015047D02*
X015419Y015047D01*
X015419Y015244D02*
X013260Y015244D01*
X011646Y013630D01*
X008896Y013630D01*
X008646Y013130D02*
X008146Y013630D01*
X008646Y013130D02*
X011646Y013130D01*
X012776Y014260D01*
X015419Y014260D01*
X015419Y014457D02*
X016119Y014457D01*
X016260Y014315D01*
X015977Y014063D02*
X015419Y014063D01*
X015419Y013866D02*
X014132Y013866D01*
X013396Y013130D01*
X013646Y012880D02*
X014435Y013669D01*
X015419Y013669D01*
X015419Y013473D02*
X014489Y013473D01*
X013896Y012880D01*
X014146Y012880D02*
X014542Y013276D01*
X015419Y013276D01*
X015419Y013079D02*
X015811Y013079D01*
X016091Y013358D01*
X016091Y013673D01*
X016091Y013949D01*
X015977Y014063D01*
X016485Y013476D02*
X015890Y012882D01*
X015419Y012882D01*
X014945Y012882D01*
X014792Y012728D01*
X014792Y012284D01*
X014811Y012264D01*
X015396Y012130D02*
X015419Y012152D01*
X015419Y012685D01*
X016201Y012935D02*
X016201Y011902D01*
X016595Y011329D02*
X015396Y010130D01*
X017185Y010669D02*
X017185Y011902D01*
X017382Y011902D02*
X017382Y010116D01*
X017579Y009813D02*
X017579Y011902D01*
X017776Y011902D02*
X017776Y012500D01*
X017973Y011902D02*
X017973Y008053D01*
X018646Y007380D01*
X040646Y007380D01*
X040896Y007130D01*
X041522Y007130D01*
X037146Y015380D02*
X037646Y015880D01*
X041522Y015880D01*
X040896Y025130D02*
X041396Y025630D01*
X041522Y025630D01*
X040646Y026130D02*
X040583Y026193D01*
X037172Y025406D02*
X031589Y025406D01*
X031117Y025878D01*
X031117Y026784D01*
X030916Y026984D01*
X030489Y026984D01*
X030489Y027240D02*
X031172Y027240D01*
X031353Y027059D01*
X031353Y026075D01*
X031746Y025681D01*
X036947Y025681D01*
X042827Y031561D01*
X042827Y034563D01*
X042630Y034563D02*
X042630Y031864D01*
X036683Y025917D01*
X031904Y025917D01*
X031628Y026193D01*
X031628Y027217D01*
X031349Y027496D01*
X030489Y027496D01*
X030489Y027752D02*
X030505Y027768D01*
X031550Y027768D01*
X031896Y027421D01*
X031896Y026380D01*
X032146Y026130D01*
X036396Y026130D01*
X042237Y031971D01*
X042237Y034563D01*
X042040Y034563D02*
X042040Y032524D01*
X038656Y029140D01*
X038650Y029146D01*
X038656Y029140D02*
X036500Y026984D01*
X032803Y026984D01*
X032803Y027240D02*
X036256Y027240D01*
X038150Y029134D01*
X038138Y029146D01*
X038150Y029134D02*
X041646Y032630D01*
X041646Y034563D01*
X041449Y034563D02*
X041449Y032933D01*
X037664Y029148D01*
X037666Y029146D01*
X037664Y029148D02*
X036012Y027496D01*
X032803Y027496D01*
X032803Y027752D02*
X035768Y027752D01*
X037158Y029142D01*
X037154Y029146D01*
X037158Y029142D02*
X041056Y033039D01*
X041056Y034563D01*
X041252Y034563D02*
X041252Y035774D01*
X041146Y035880D01*
X040146Y035880D01*
X040133Y035867D01*
X040071Y035929D01*
X038792Y037209D01*
X038842Y037166D02*
X044450Y037166D01*
X044450Y037159D02*
X043784Y037159D01*
X043796Y037069D01*
X043820Y036978D01*
X043856Y036891D01*
X043903Y036810D01*
X043960Y036735D01*
X044027Y036669D01*
X044101Y036611D01*
X044183Y036564D01*
X044269Y036528D01*
X044360Y036504D01*
X044450Y036492D01*
X044450Y037159D01*
X044450Y037259D01*
X043784Y037259D01*
X043796Y037349D01*
X043820Y037440D01*
X043856Y037527D01*
X043903Y037608D01*
X043960Y037682D01*
X044027Y037749D01*
X044101Y037806D01*
X044183Y037853D01*
X044269Y037889D01*
X044360Y037913D01*
X044450Y037925D01*
X044450Y037259D01*
X044550Y037259D01*
X044550Y037925D01*
X044641Y037913D01*
X044731Y037889D01*
X044818Y037853D01*
X044900Y037806D01*
X044974Y037749D01*
X045041Y037682D01*
X045098Y037608D01*
X045145Y037527D01*
X045181Y037440D01*
X045205Y037349D01*
X045217Y037259D01*
X044550Y037259D01*
X044550Y037159D01*
X044550Y036492D01*
X044641Y036504D01*
X044731Y036528D01*
X044818Y036564D01*
X044900Y036611D01*
X044974Y036669D01*
X045041Y036735D01*
X045098Y036810D01*
X045145Y036891D01*
X045181Y036978D01*
X045205Y037069D01*
X045217Y037159D01*
X044550Y037159D01*
X044450Y037159D01*
X044500Y037209D02*
X043172Y035880D01*
X041896Y035880D01*
X041843Y035827D01*
X041843Y034563D01*
X041843Y035145D02*
X041843Y035145D01*
X041843Y035145D01*
X041843Y035225D01*
X041918Y035225D01*
X041922Y035224D01*
X041923Y035225D01*
X042944Y035225D01*
X042945Y035224D01*
X042949Y035225D01*
X043024Y035225D01*
X043024Y035145D01*
X043024Y035145D01*
X043024Y035145D01*
X043024Y035225D01*
X043099Y035225D01*
X043103Y035224D01*
X043104Y035225D01*
X043535Y035225D01*
X043610Y035150D01*
X043635Y035221D01*
X043680Y035315D01*
X043736Y035404D01*
X043802Y035487D01*
X043876Y035561D01*
X043958Y035626D01*
X044047Y035682D01*
X044142Y035728D01*
X044241Y035763D01*
X044343Y035786D01*
X044448Y035798D01*
X044450Y035798D01*
X044450Y034912D01*
X044550Y034912D01*
X044550Y035798D01*
X044553Y035798D01*
X044657Y035786D01*
X044760Y035763D01*
X044859Y035728D01*
X044954Y035682D01*
X045043Y035626D01*
X045125Y035561D01*
X045199Y035487D01*
X045264Y035404D01*
X045320Y035315D01*
X045366Y035221D01*
X045401Y035122D01*
X045424Y035019D01*
X045436Y034915D01*
X045436Y034912D01*
X044550Y034912D01*
X044550Y034812D01*
X044550Y033927D01*
X044553Y033927D01*
X044657Y033939D01*
X044760Y033962D01*
X044859Y033997D01*
X044954Y034042D01*
X045043Y034098D01*
X045125Y034164D01*
X045199Y034238D01*
X045264Y034320D01*
X045320Y034409D01*
X045366Y034504D01*
X045401Y034603D01*
X045424Y034705D01*
X045436Y034810D01*
X045436Y034812D01*
X044550Y034812D01*
X044450Y034812D01*
X044450Y033927D01*
X044448Y033927D01*
X044343Y033939D01*
X044241Y033962D01*
X044142Y033997D01*
X044047Y034042D01*
X043958Y034098D01*
X043876Y034164D01*
X043802Y034238D01*
X043736Y034320D01*
X043680Y034409D01*
X043635Y034504D01*
X043623Y034538D01*
X043623Y034141D01*
X043732Y034032D01*
X043732Y033630D01*
X045646Y033630D01*
X045646Y038880D01*
X037646Y038880D01*
X037646Y033630D01*
X039363Y033630D01*
X039674Y033941D01*
X039674Y033984D01*
X039669Y033989D01*
X039669Y034538D01*
X039657Y034504D01*
X039612Y034409D01*
X039556Y034320D01*
X039490Y034238D01*
X039416Y034164D01*
X039334Y034098D01*
X039245Y034042D01*
X039150Y033997D01*
X039051Y033962D01*
X038949Y033939D01*
X038844Y033927D01*
X038842Y033927D01*
X038842Y034812D01*
X038742Y034812D01*
X038742Y033927D01*
X038739Y033927D01*
X038635Y033939D01*
X038532Y033962D01*
X038433Y033997D01*
X038339Y034042D01*
X038250Y034098D01*
X038167Y034164D01*
X038093Y034238D01*
X038028Y034320D01*
X037972Y034409D01*
X037926Y034504D01*
X037891Y034603D01*
X037868Y034705D01*
X037856Y034810D01*
X037856Y034812D01*
X038742Y034812D01*
X038742Y034912D01*
X037856Y034912D01*
X037856Y034915D01*
X037868Y035019D01*
X037891Y035122D01*
X037926Y035221D01*
X037972Y035315D01*
X038028Y035404D01*
X038093Y035487D01*
X038167Y035561D01*
X038250Y035626D01*
X038339Y035682D01*
X038433Y035728D01*
X038532Y035763D01*
X038635Y035786D01*
X038739Y035798D01*
X038742Y035798D01*
X038742Y034912D01*
X038842Y034912D01*
X038842Y035798D01*
X038844Y035798D01*
X038949Y035786D01*
X039051Y035763D01*
X039150Y035728D01*
X039245Y035682D01*
X039334Y035626D01*
X039416Y035561D01*
X039490Y035487D01*
X039556Y035404D01*
X039612Y035315D01*
X039657Y035221D01*
X039682Y035150D01*
X039757Y035225D01*
X039992Y035225D01*
X039993Y035224D01*
X039996Y035225D01*
X040071Y035225D01*
X040071Y035145D01*
X040071Y035145D01*
X040071Y035145D01*
X040071Y035225D01*
X040146Y035225D01*
X040150Y035224D01*
X040151Y035225D01*
X040582Y035225D01*
X040583Y035224D01*
X040587Y035225D01*
X040662Y035225D01*
X040662Y035145D01*
X040662Y035145D01*
X040662Y035145D01*
X040662Y035225D01*
X040737Y035225D01*
X040740Y035224D01*
X040741Y035225D01*
X041173Y035225D01*
X041174Y035224D01*
X041177Y035225D01*
X041252Y035225D01*
X041252Y035145D01*
X041252Y035145D01*
X041252Y035145D01*
X041252Y035225D01*
X041327Y035225D01*
X041331Y035224D01*
X041332Y035225D01*
X041763Y035225D01*
X041764Y035224D01*
X041768Y035225D01*
X041843Y035225D01*
X041843Y035145D01*
X041843Y035196D02*
X041843Y035196D01*
X041252Y035196D02*
X041252Y035196D01*
X040859Y034563D02*
X040859Y033343D01*
X036672Y029156D01*
X036681Y029146D01*
X036672Y029156D02*
X035780Y028264D01*
X032803Y028264D01*
X032803Y028520D02*
X035536Y028520D01*
X036166Y029150D01*
X036170Y029146D01*
X036166Y029150D02*
X040465Y033449D01*
X040465Y034563D01*
X040662Y034563D02*
X040662Y035339D01*
X040133Y035867D01*
X040071Y035929D02*
X040071Y034563D01*
X039874Y034563D02*
X039874Y033858D01*
X035154Y029138D01*
X035146Y029146D01*
X035154Y029138D02*
X035048Y029032D01*
X032803Y029032D01*
X032803Y028776D02*
X035288Y028776D01*
X035658Y029146D01*
X040268Y033756D01*
X040268Y034563D01*
X040071Y035196D02*
X040071Y035196D01*
X039728Y035196D02*
X039666Y035196D01*
X039622Y035295D02*
X043670Y035295D01*
X043626Y035196D02*
X043564Y035196D01*
X043729Y035393D02*
X039563Y035393D01*
X039485Y035492D02*
X043807Y035492D01*
X043913Y035590D02*
X039379Y035590D01*
X039232Y035689D02*
X044060Y035689D01*
X044354Y035787D02*
X038939Y035787D01*
X038842Y035787D02*
X038742Y035787D01*
X038645Y035787D02*
X037646Y035787D01*
X037646Y035689D02*
X038352Y035689D01*
X038204Y035590D02*
X037646Y035590D01*
X037646Y035492D02*
X038098Y035492D01*
X038020Y035393D02*
X037646Y035393D01*
X037646Y035295D02*
X037962Y035295D01*
X037917Y035196D02*
X037646Y035196D01*
X037646Y035098D02*
X037886Y035098D01*
X037866Y034999D02*
X037646Y034999D01*
X037646Y034901D02*
X038742Y034901D01*
X038742Y034999D02*
X038842Y034999D01*
X038842Y035098D02*
X038742Y035098D01*
X038742Y035196D02*
X038842Y035196D01*
X038842Y035295D02*
X038742Y035295D01*
X038742Y035393D02*
X038842Y035393D01*
X038842Y035492D02*
X038742Y035492D01*
X038742Y035590D02*
X038842Y035590D01*
X038842Y035689D02*
X038742Y035689D01*
X038742Y036492D02*
X038652Y036504D01*
X038561Y036528D01*
X038474Y036564D01*
X038393Y036611D01*
X038318Y036669D01*
X038252Y036735D01*
X038194Y036810D01*
X038147Y036891D01*
X038111Y036978D01*
X038087Y037069D01*
X038075Y037159D01*
X038742Y037159D01*
X038842Y037159D01*
X038842Y037259D01*
X039508Y037259D01*
X039496Y037349D01*
X039472Y037440D01*
X039436Y037527D01*
X039389Y037608D01*
X039332Y037682D01*
X039265Y037749D01*
X039191Y037806D01*
X039110Y037853D01*
X039023Y037889D01*
X038932Y037913D01*
X038842Y037925D01*
X038842Y037259D01*
X038742Y037259D01*
X038742Y037925D01*
X038652Y037913D01*
X038561Y037889D01*
X038474Y037853D01*
X038393Y037806D01*
X038318Y037749D01*
X038252Y037682D01*
X038194Y037608D01*
X038147Y037527D01*
X038111Y037440D01*
X038087Y037349D01*
X038075Y037259D01*
X038742Y037259D01*
X038742Y037159D01*
X038742Y036492D01*
X038742Y036575D02*
X038842Y036575D01*
X038842Y036492D02*
X038932Y036504D01*
X039023Y036528D01*
X039110Y036564D01*
X039191Y036611D01*
X039265Y036669D01*
X039332Y036735D01*
X039389Y036810D01*
X039436Y036891D01*
X039472Y036978D01*
X039496Y037069D01*
X039508Y037159D01*
X038842Y037159D01*
X038842Y036492D01*
X038842Y036674D02*
X038742Y036674D01*
X038742Y036772D02*
X038842Y036772D01*
X038842Y036871D02*
X038742Y036871D01*
X038742Y036969D02*
X038842Y036969D01*
X038842Y037068D02*
X038742Y037068D01*
X038742Y037166D02*
X037646Y037166D01*
X037646Y037068D02*
X038087Y037068D01*
X038115Y036969D02*
X037646Y036969D01*
X037646Y036871D02*
X038159Y036871D01*
X038223Y036772D02*
X037646Y036772D01*
X037646Y036674D02*
X038313Y036674D01*
X038455Y036575D02*
X037646Y036575D01*
X037646Y036477D02*
X045646Y036477D01*
X045646Y036575D02*
X044837Y036575D01*
X044979Y036674D02*
X045646Y036674D01*
X045646Y036772D02*
X045069Y036772D01*
X045133Y036871D02*
X045646Y036871D01*
X045646Y036969D02*
X045177Y036969D01*
X045205Y037068D02*
X045646Y037068D01*
X045646Y037166D02*
X044550Y037166D01*
X044550Y037068D02*
X044450Y037068D01*
X044450Y036969D02*
X044550Y036969D01*
X044550Y036871D02*
X044450Y036871D01*
X044450Y036772D02*
X044550Y036772D01*
X044550Y036674D02*
X044450Y036674D01*
X044450Y036575D02*
X044550Y036575D01*
X044164Y036575D02*
X039128Y036575D01*
X039270Y036674D02*
X044022Y036674D01*
X043932Y036772D02*
X039360Y036772D01*
X039424Y036871D02*
X043868Y036871D01*
X043824Y036969D02*
X039468Y036969D01*
X039496Y037068D02*
X043796Y037068D01*
X043785Y037265D02*
X039507Y037265D01*
X039493Y037363D02*
X043800Y037363D01*
X043829Y037462D02*
X039463Y037462D01*
X039417Y037560D02*
X043875Y037560D01*
X043942Y037659D02*
X039350Y037659D01*
X039255Y037757D02*
X044037Y037757D01*
X044189Y037856D02*
X039104Y037856D01*
X038842Y037856D02*
X038742Y037856D01*
X038742Y037757D02*
X038842Y037757D01*
X038842Y037659D02*
X038742Y037659D01*
X038742Y037560D02*
X038842Y037560D01*
X038842Y037462D02*
X038742Y037462D01*
X038742Y037363D02*
X038842Y037363D01*
X038842Y037265D02*
X038742Y037265D01*
X038329Y037757D02*
X037646Y037757D01*
X037646Y037659D02*
X038233Y037659D01*
X038167Y037560D02*
X037646Y037560D01*
X037646Y037462D02*
X038120Y037462D01*
X038091Y037363D02*
X037646Y037363D01*
X037646Y037265D02*
X038076Y037265D01*
X038480Y037856D02*
X037646Y037856D01*
X037646Y037954D02*
X045646Y037954D01*
X045646Y037856D02*
X044812Y037856D01*
X044963Y037757D02*
X045646Y037757D01*
X045646Y037659D02*
X045059Y037659D01*
X045125Y037560D02*
X045646Y037560D01*
X045646Y037462D02*
X045172Y037462D01*
X045201Y037363D02*
X045646Y037363D01*
X045646Y037265D02*
X045216Y037265D01*
X044550Y037265D02*
X044450Y037265D01*
X044450Y037363D02*
X044550Y037363D01*
X044550Y037462D02*
X044450Y037462D01*
X044450Y037560D02*
X044550Y037560D01*
X044550Y037659D02*
X044450Y037659D01*
X044450Y037757D02*
X044550Y037757D01*
X044550Y037856D02*
X044450Y037856D01*
X045646Y038053D02*
X037646Y038053D01*
X037646Y038151D02*
X045646Y038151D01*
X045646Y038250D02*
X037646Y038250D01*
X037646Y038348D02*
X045646Y038348D01*
X045646Y038447D02*
X037646Y038447D01*
X037646Y038545D02*
X045646Y038545D01*
X045646Y038644D02*
X037646Y038644D01*
X037646Y038742D02*
X045646Y038742D01*
X045646Y038841D02*
X037646Y038841D01*
X037646Y036378D02*
X045646Y036378D01*
X045646Y036280D02*
X037646Y036280D01*
X037646Y036181D02*
X045646Y036181D01*
X045646Y036083D02*
X037646Y036083D01*
X037646Y035984D02*
X045646Y035984D01*
X045646Y035886D02*
X037646Y035886D01*
X037646Y034802D02*
X037857Y034802D01*
X037868Y034704D02*
X037646Y034704D01*
X037646Y034605D02*
X037891Y034605D01*
X037925Y034507D02*
X037646Y034507D01*
X037646Y034408D02*
X037972Y034408D01*
X038036Y034310D02*
X037646Y034310D01*
X037646Y034211D02*
X038120Y034211D01*
X038232Y034113D02*
X037646Y034113D01*
X037646Y034014D02*
X038397Y034014D01*
X038742Y034014D02*
X038842Y034014D01*
X038842Y034113D02*
X038742Y034113D01*
X038742Y034211D02*
X038842Y034211D01*
X038842Y034310D02*
X038742Y034310D01*
X038742Y034408D02*
X038842Y034408D01*
X038842Y034507D02*
X038742Y034507D01*
X038742Y034605D02*
X038842Y034605D01*
X038842Y034704D02*
X038742Y034704D01*
X038742Y034802D02*
X038842Y034802D01*
X039352Y034113D02*
X039669Y034113D01*
X039669Y034211D02*
X039463Y034211D01*
X039547Y034310D02*
X039669Y034310D01*
X039669Y034408D02*
X039611Y034408D01*
X039658Y034507D02*
X039669Y034507D01*
X039669Y034014D02*
X039186Y034014D01*
X039452Y033719D02*
X037646Y033719D01*
X037646Y033817D02*
X039550Y033817D01*
X039649Y033916D02*
X037646Y033916D01*
X040662Y035196D02*
X040662Y035196D01*
X043024Y035196D02*
X043024Y035196D01*
X043024Y035732D02*
X043024Y034563D01*
X043221Y034563D02*
X043221Y033480D01*
X043138Y033398D01*
X043732Y033719D02*
X045646Y033719D01*
X045646Y033817D02*
X043732Y033817D01*
X043732Y033916D02*
X045646Y033916D01*
X045646Y034014D02*
X044895Y034014D01*
X045061Y034113D02*
X045646Y034113D01*
X045646Y034211D02*
X045172Y034211D01*
X045256Y034310D02*
X045646Y034310D01*
X045646Y034408D02*
X045320Y034408D01*
X045367Y034507D02*
X045646Y034507D01*
X045646Y034605D02*
X045401Y034605D01*
X045424Y034704D02*
X045646Y034704D01*
X045646Y034802D02*
X045435Y034802D01*
X045426Y034999D02*
X045646Y034999D01*
X045646Y034901D02*
X044550Y034901D01*
X044550Y034999D02*
X044450Y034999D01*
X044450Y035098D02*
X044550Y035098D01*
X044550Y035196D02*
X044450Y035196D01*
X044450Y035295D02*
X044550Y035295D01*
X044550Y035393D02*
X044450Y035393D01*
X044450Y035492D02*
X044550Y035492D01*
X044550Y035590D02*
X044450Y035590D01*
X044450Y035689D02*
X044550Y035689D01*
X044550Y035787D02*
X044450Y035787D01*
X044647Y035787D02*
X045646Y035787D01*
X045646Y035689D02*
X044941Y035689D01*
X045088Y035590D02*
X045646Y035590D01*
X045646Y035492D02*
X045194Y035492D01*
X045272Y035393D02*
X045646Y035393D01*
X045646Y035295D02*
X045330Y035295D01*
X045375Y035196D02*
X045646Y035196D01*
X045646Y035098D02*
X045406Y035098D01*
X044550Y034802D02*
X044450Y034802D01*
X044450Y034704D02*
X044550Y034704D01*
X044550Y034605D02*
X044450Y034605D01*
X044450Y034507D02*
X044550Y034507D01*
X044550Y034408D02*
X044450Y034408D01*
X044450Y034310D02*
X044550Y034310D01*
X044550Y034211D02*
X044450Y034211D01*
X044450Y034113D02*
X044550Y034113D01*
X044550Y034014D02*
X044450Y034014D01*
X044106Y034014D02*
X043732Y034014D01*
X043651Y034113D02*
X043940Y034113D01*
X043829Y034211D02*
X043623Y034211D01*
X043623Y034310D02*
X043745Y034310D01*
X043681Y034408D02*
X043623Y034408D01*
X043623Y034507D02*
X043634Y034507D01*
X043418Y034563D02*
X043418Y034063D01*
X043532Y033949D01*
X043532Y031766D01*
X037172Y025406D01*
X033729Y026508D02*
X033693Y026473D01*
X032803Y026473D01*
X024896Y019880D02*
X024591Y019575D01*
X023874Y019575D01*
X023874Y019378D02*
X023144Y019378D01*
X022896Y019130D01*
X022896Y018380D01*
X023874Y017606D02*
X025099Y017606D01*
X023874Y017410D02*
X023176Y017410D01*
X023146Y017380D01*
X023449Y017213D02*
X023296Y017059D01*
X021782Y017059D01*
X021764Y017077D01*
X023449Y017213D02*
X023874Y017213D01*
X020138Y019728D02*
X020107Y019697D01*
X020138Y019728D02*
X020138Y020358D01*
X020335Y020358D02*
X020335Y021185D01*
X020343Y021193D01*
X017146Y021130D02*
X016989Y020973D01*
X016989Y020358D01*
X017185Y020358D02*
X017185Y018591D01*
X017646Y018130D01*
X017233Y017413D02*
X016896Y017750D01*
X016896Y018880D01*
X016595Y019181D01*
X015419Y019181D01*
X015419Y018984D02*
X016056Y018984D01*
X016170Y018870D01*
X015855Y018787D02*
X015855Y018398D01*
X016130Y018398D01*
X015855Y018787D02*
X015419Y018787D01*
X015419Y018591D02*
X014203Y018591D01*
X014042Y018752D01*
X013382Y018394D02*
X013146Y018630D01*
X013146Y026880D01*
X011896Y028130D01*
X010146Y028130D01*
X009896Y027880D01*
X009896Y027036D01*
X009699Y027036D02*
X009699Y027506D01*
X009477Y027728D01*
X009396Y027380D02*
X008896Y027380D01*
X008646Y027130D01*
X008818Y026958D01*
X009068Y026958D01*
X008991Y026721D02*
X008806Y026721D01*
X008646Y026880D01*
X008646Y027130D01*
X008646Y026880D02*
X008646Y026630D01*
X008752Y026524D01*
X008991Y026524D01*
X008991Y026327D02*
X008699Y026327D01*
X008646Y026380D01*
X008646Y026630D01*
X008991Y026327D02*
X009699Y026327D01*
X009896Y026130D01*
X010290Y026524D01*
X010290Y027036D01*
X010093Y027036D02*
X010093Y027400D01*
X010422Y027728D01*
X009502Y027274D02*
X009396Y027380D01*
X009502Y027274D02*
X009502Y027036D01*
X008991Y026130D02*
X008646Y026130D01*
X006896Y027880D01*
X005396Y027880D01*
X005213Y027697D01*
X005213Y027372D01*
X006000Y027372D02*
X006258Y027630D01*
X006896Y027630D01*
X008593Y025933D01*
X008991Y025933D01*
X008991Y025736D02*
X008502Y025736D01*
X007896Y025130D01*
X007896Y024431D01*
X008971Y024431D02*
X009022Y024380D01*
X009502Y024648D02*
X009770Y024380D01*
X009502Y024648D02*
X009502Y025224D01*
X009306Y025224D02*
X008981Y025224D01*
X008965Y025209D01*
X008991Y025234D01*
X008991Y025539D01*
X009520Y021630D02*
X009896Y021630D01*
X010646Y020880D01*
X010646Y018380D01*
X011026Y018000D01*
X015419Y018000D01*
X015419Y017803D02*
X010723Y017803D01*
X010396Y018130D01*
X010396Y019630D01*
X010146Y019880D01*
X009479Y019880D01*
X009479Y019380D02*
X009896Y019380D01*
X010146Y019130D01*
X010146Y018130D01*
X010670Y017606D01*
X015419Y017606D01*
X015419Y017410D02*
X010426Y017410D01*
X010146Y017130D01*
X009479Y017130D01*
X010896Y015630D02*
X012479Y017213D01*
X015419Y017213D01*
X015419Y017016D02*
X012782Y017016D01*
X011146Y015380D01*
X011288Y015130D02*
X003847Y015130D01*
X002626Y013910D01*
X002626Y010150D01*
X002646Y010130D01*
X003414Y008634D02*
X002902Y008122D01*
X002654Y008122D01*
X002646Y008130D01*
X003414Y008634D02*
X003414Y013122D01*
X004989Y014697D01*
X011524Y014697D01*
X013056Y016228D01*
X015419Y016228D01*
X015419Y016032D02*
X016323Y016032D01*
X016327Y016036D01*
X017101Y016425D02*
X017146Y016380D01*
X017101Y016425D02*
X015419Y016425D01*
X015419Y016622D02*
X013134Y016622D01*
X011445Y014933D01*
X004199Y014933D01*
X003146Y013880D01*
X004396Y013130D02*
X005396Y014130D01*
X011646Y014130D01*
X013154Y015638D01*
X015419Y015638D01*
X015419Y015835D02*
X013016Y015835D01*
X011642Y014461D01*
X005107Y014461D01*
X003650Y013004D01*
X003650Y007728D01*
X003059Y007138D01*
X002654Y007138D01*
X002646Y007130D01*
X011288Y015130D02*
X012977Y016819D01*
X015419Y016819D01*
X015419Y018197D02*
X013079Y018197D01*
X013382Y018394D02*
X015419Y018394D01*
X015419Y019378D02*
X014723Y019378D01*
X014646Y019301D01*
X014951Y019575D02*
X014646Y019880D01*
X014951Y019575D02*
X015419Y019575D01*
X016723Y019575D01*
X016804Y019577D01*
X016034Y015441D02*
X015419Y015441D01*
X016034Y015441D02*
X016071Y015404D01*
X004396Y016130D02*
X003896Y016630D01*
X002146Y016630D01*
X001646Y017130D01*
X002646Y017130D02*
X003646Y017130D01*
X043024Y035732D02*
X043172Y035880D01*
D56*
X043138Y033398D03*
X043138Y033043D03*
X043138Y032689D03*
X043138Y032335D03*
X038650Y029146D03*
X038138Y029146D03*
X037666Y029146D03*
X037154Y029146D03*
X036681Y029146D03*
X036170Y029146D03*
X035658Y029146D03*
X035146Y029146D03*
X040646Y026130D03*
X040646Y023130D03*
X040646Y014880D03*
X040646Y009130D03*
X027154Y012925D03*
X024634Y012571D03*
X022981Y012571D03*
X022469Y012571D03*
X022587Y013240D03*
X023217Y013791D03*
X024646Y013880D03*
X022896Y015630D03*
X022396Y015880D03*
X022396Y016630D03*
X021764Y017077D03*
X021646Y017880D03*
X020646Y017880D03*
X020107Y019697D03*
X018611Y019697D03*
X018693Y019118D03*
X018646Y017880D03*
X017233Y017413D03*
X016130Y018398D03*
X016170Y018870D03*
X014646Y019301D03*
X014042Y018752D03*
X011146Y018380D03*
X011146Y016880D03*
X010396Y016630D03*
X013396Y014880D03*
X014014Y014630D03*
X016071Y015404D03*
X016327Y016036D03*
X016896Y015630D03*
X016260Y014315D03*
X016896Y013630D03*
X016760Y012768D03*
X017646Y012630D03*
X018672Y012595D03*
X020014Y012945D03*
X020528Y012610D03*
X021506Y012595D03*
X021725Y014262D03*
X020646Y014380D03*
X018646Y014380D03*
X017561Y014264D03*
X015396Y012130D03*
X014811Y012264D03*
X016878Y011193D03*
X019396Y008630D03*
X019896Y008630D03*
X020396Y008630D03*
X020896Y008630D03*
X020396Y010130D03*
X026146Y015880D03*
X025514Y016248D03*
X025146Y017020D03*
X024646Y017130D03*
X023146Y017380D03*
X023138Y018083D03*
X022396Y018630D03*
X021896Y019630D03*
X021485Y021193D03*
X020343Y021193D03*
X019225Y021169D03*
X018896Y021630D03*
X019514Y022130D03*
X019646Y022880D03*
X017146Y021130D03*
X023935Y023697D03*
X024646Y025880D03*
X024646Y027380D03*
X024646Y028880D03*
X024646Y030380D03*
X027146Y030380D03*
X027146Y028880D03*
X027146Y027380D03*
X027146Y025880D03*
X026396Y020380D03*
X026248Y019561D03*
X024896Y019880D03*
X010422Y027728D03*
X009477Y027728D03*
X008965Y025209D03*
M02*
