G75*
%MOIN*%
%OFA0B0*%
%FSLAX24Y24*%
%IPPOS*%
%LPD*%
%AMOC8*
5,1,8,0,0,1.08239X$1,22.5*
%
%ADD10C,0.0610*%
%ADD11C,0.1306*%
%ADD12C,0.0551*%
%ADD13C,0.0630*%
%ADD14C,0.0591*%
%ADD15C,0.1266*%
%ADD16C,0.0669*%
%ADD17C,0.0636*%
%ADD18C,0.1581*%
%ADD19C,0.1447*%
%ADD20C,0.1134*%
%ADD21C,0.0354*%
%ADD22C,0.0276*%
%ADD23C,0.0500*%
%ADD24C,0.0400*%
%ADD25C,0.0240*%
%ADD26C,0.0120*%
%ADD27C,0.0160*%
%ADD28C,0.0100*%
D10*
X005213Y026388D03*
X006000Y026388D03*
X006000Y027372D03*
X005213Y027372D03*
D11*
X004146Y029250D03*
X004146Y024510D03*
D12*
X004256Y035209D03*
X006146Y036390D03*
X009154Y037130D03*
X010138Y037130D03*
D13*
X006146Y034028D03*
D14*
X046065Y025969D03*
X047050Y025969D03*
X047050Y025142D03*
X047050Y024118D03*
X047050Y023291D03*
X046065Y023291D03*
X046065Y016469D03*
X047050Y016469D03*
X047050Y015642D03*
X047050Y014618D03*
X047050Y013791D03*
X046065Y013791D03*
X046065Y009219D03*
X047050Y009219D03*
X047050Y008392D03*
X047050Y007368D03*
X047050Y006541D03*
X046065Y006541D03*
D15*
X048231Y005223D03*
X048546Y007880D03*
X048231Y010537D03*
X048231Y012473D03*
X048546Y015130D03*
X048231Y017787D03*
X048231Y021973D03*
X048546Y024630D03*
X048231Y027287D03*
D16*
X046178Y028911D03*
X046178Y029896D03*
X048146Y030880D03*
X046178Y031864D03*
X046178Y032849D03*
D17*
X016896Y004630D03*
X015896Y004630D03*
X014896Y004630D03*
X013896Y004630D03*
X012896Y004630D03*
X011896Y004630D03*
X011896Y003630D03*
X012896Y003630D03*
X013896Y003630D03*
X014896Y003630D03*
X015896Y003630D03*
X016896Y003630D03*
X002646Y006130D03*
X001646Y006130D03*
X001646Y007130D03*
X001646Y008130D03*
X002646Y008130D03*
X002646Y007130D03*
X002646Y009130D03*
X001646Y009130D03*
X001646Y010130D03*
X002646Y010130D03*
X002646Y015130D03*
X001646Y015130D03*
X001646Y016130D03*
X002646Y016130D03*
X002646Y017130D03*
X001646Y017130D03*
X001646Y018130D03*
X002646Y018130D03*
X002646Y019130D03*
X001646Y019130D03*
D18*
X002146Y002130D03*
X002146Y037630D03*
X048396Y037630D03*
X048396Y002130D03*
D19*
X044500Y034862D03*
X038792Y034862D03*
D20*
X038792Y037209D03*
X044500Y037209D03*
D21*
X037896Y032880D03*
X037396Y032880D03*
X036896Y032880D03*
X037146Y032380D03*
X037646Y032380D03*
X035146Y031880D03*
X035146Y031380D03*
X034646Y031130D03*
X034146Y031130D03*
X033646Y030880D03*
X033396Y031630D03*
X032896Y031630D03*
X032396Y031630D03*
X032396Y032130D03*
X032396Y032630D03*
X031146Y031880D03*
X031146Y031380D03*
X030646Y031130D03*
X030146Y031130D03*
X029646Y030880D03*
X029146Y031630D03*
X028646Y031630D03*
X028146Y031630D03*
X028146Y032130D03*
X028146Y032630D03*
X026896Y033630D03*
X026396Y033630D03*
X025896Y033630D03*
X025396Y033630D03*
X024896Y033630D03*
X025646Y034630D03*
X026146Y034630D03*
X026646Y034630D03*
X027146Y034630D03*
X027646Y034630D03*
X032146Y035630D03*
X031896Y028880D03*
X033729Y026508D03*
X034201Y026508D03*
X034674Y026508D03*
X038646Y025630D03*
X038646Y023130D03*
X042146Y024130D03*
X044396Y021380D03*
X040896Y016880D03*
X038646Y018130D03*
X038646Y020130D03*
X033126Y019973D03*
X033244Y018949D03*
X033146Y018130D03*
X033244Y017059D03*
X033146Y016130D03*
X028646Y016130D03*
X028646Y017130D03*
X028646Y017880D03*
X028646Y018880D03*
X028646Y019880D03*
X028599Y014539D03*
X028646Y012380D03*
X027396Y011630D03*
X021396Y016130D03*
X019646Y014630D03*
X017896Y016130D03*
X019646Y017630D03*
X017646Y018130D03*
X016804Y019577D03*
X014646Y019880D03*
X014646Y021880D03*
X015646Y021880D03*
X011396Y023380D03*
X008896Y023380D03*
X007896Y022630D03*
X006896Y022880D03*
X008146Y021630D03*
X008396Y020630D03*
X008396Y019880D03*
X009396Y018630D03*
X006396Y019380D03*
X004896Y020130D03*
X003646Y019630D03*
X003646Y021880D03*
X004896Y022130D03*
X002146Y022630D03*
X008396Y027380D03*
X012396Y029380D03*
X012896Y029380D03*
X013396Y029380D03*
X012146Y030880D03*
X011646Y031130D03*
X011646Y031630D03*
X011646Y032130D03*
X011646Y032630D03*
X017146Y030880D03*
X017646Y030880D03*
X018146Y030880D03*
X018646Y030880D03*
X019146Y030880D03*
X014396Y027880D03*
X017146Y034880D03*
X017646Y034880D03*
X018146Y034880D03*
X018646Y034880D03*
X019146Y034880D03*
X020146Y036380D03*
X020646Y036630D03*
X020646Y036130D03*
X020146Y036880D03*
X020646Y037130D03*
X029646Y026380D03*
X042146Y027630D03*
X044396Y028880D03*
X038646Y014880D03*
X040896Y013880D03*
X040896Y011130D03*
X038646Y009130D03*
X040896Y008130D03*
X038646Y006630D03*
X037896Y004380D03*
X035896Y006630D03*
X034646Y004380D03*
X032896Y006630D03*
X031396Y004380D03*
X030146Y006630D03*
X029396Y002630D03*
X027396Y002630D03*
X033087Y012256D03*
X041146Y004380D03*
X044396Y007130D03*
X044646Y013380D03*
X016091Y013673D03*
X010146Y012130D03*
X008896Y013630D03*
X008146Y013630D03*
X006396Y012130D03*
X004396Y011130D03*
X006396Y010130D03*
X005896Y008880D03*
X009146Y006380D03*
X009146Y004380D03*
X008146Y004380D03*
X004396Y013130D03*
X003146Y013880D03*
X004396Y016130D03*
X006396Y016880D03*
X006896Y016130D03*
D22*
X010396Y016630D03*
X011146Y016880D03*
X011146Y018380D03*
X014042Y018752D03*
X014646Y019301D03*
X016170Y018870D03*
X016130Y018398D03*
X017233Y017413D03*
X018646Y017880D03*
X018693Y019118D03*
X018611Y019697D03*
X020107Y019697D03*
X020343Y021193D03*
X019225Y021169D03*
X018896Y021630D03*
X019514Y022130D03*
X019646Y022880D03*
X021485Y021193D03*
X021896Y019630D03*
X022396Y018630D03*
X023138Y018083D03*
X023146Y017380D03*
X022396Y016630D03*
X022396Y015880D03*
X022896Y015630D03*
X021725Y014262D03*
X020646Y014380D03*
X020014Y012945D03*
X020528Y012610D03*
X021506Y012595D03*
X022469Y012571D03*
X022981Y012571D03*
X022587Y013240D03*
X023217Y013791D03*
X024646Y013880D03*
X024634Y012571D03*
X027154Y012925D03*
X026146Y015880D03*
X025514Y016248D03*
X025146Y017020D03*
X024646Y017130D03*
X021764Y017077D03*
X021646Y017880D03*
X020646Y017880D03*
X016896Y015630D03*
X016327Y016036D03*
X016071Y015404D03*
X016260Y014315D03*
X016896Y013630D03*
X016760Y012768D03*
X017646Y012630D03*
X018672Y012595D03*
X016878Y011193D03*
X015396Y012130D03*
X014811Y012264D03*
X014014Y014630D03*
X013396Y014880D03*
X017561Y014264D03*
X018646Y014380D03*
X020396Y010130D03*
X020396Y008630D03*
X019896Y008630D03*
X019396Y008630D03*
X020896Y008630D03*
X026248Y019561D03*
X026396Y020380D03*
X024896Y019880D03*
X023935Y023697D03*
X024646Y025880D03*
X024646Y027380D03*
X024646Y028880D03*
X024646Y030380D03*
X027146Y030380D03*
X027146Y028880D03*
X027146Y027380D03*
X027146Y025880D03*
X035146Y029146D03*
X035658Y029146D03*
X036170Y029146D03*
X036681Y029146D03*
X037154Y029146D03*
X037666Y029146D03*
X038138Y029146D03*
X038650Y029146D03*
X040646Y026130D03*
X040646Y023130D03*
X040646Y014880D03*
X040646Y009130D03*
X017146Y021130D03*
X008965Y025209D03*
X009477Y027728D03*
X010422Y027728D03*
X043138Y032335D03*
X043138Y032689D03*
X043138Y033043D03*
X043138Y033398D03*
D23*
X031146Y031880D02*
X031146Y031380D01*
X030896Y031130D01*
X030646Y031130D01*
X030146Y031130D01*
X029896Y031130D01*
X029646Y030880D01*
X021646Y030880D01*
X020896Y030130D01*
X006646Y030130D01*
X000896Y024380D01*
X000896Y007380D01*
X001146Y007130D01*
X001646Y007130D01*
D24*
X008965Y025209D02*
X007786Y026388D01*
X006000Y026388D01*
X008993Y029380D01*
X012396Y029380D01*
X012896Y029380D01*
X013396Y029380D01*
D25*
X008965Y025209D02*
X008965Y023449D01*
X008896Y023380D01*
X025514Y016248D02*
X025896Y016630D01*
X038896Y016630D01*
X040646Y014880D01*
X040646Y009130D02*
X034396Y015380D01*
X026646Y015380D01*
X026146Y015880D01*
X020396Y010130D02*
X021896Y008630D01*
X042646Y008630D01*
X043396Y009380D01*
X043396Y027880D01*
X044396Y028880D01*
D26*
X040646Y026130D02*
X040646Y025380D01*
X039646Y024380D01*
X021146Y024380D01*
X019646Y022880D01*
X019514Y022130D02*
X021451Y024067D01*
X039709Y024067D01*
X040646Y023130D01*
X035400Y026880D02*
X037666Y029146D01*
X038138Y029146D02*
X034872Y025880D01*
X027146Y025880D01*
X027146Y027380D02*
X035388Y027380D01*
X037154Y029146D01*
X036681Y029146D02*
X035166Y027630D01*
X027646Y027630D01*
X026896Y028380D01*
X025146Y028380D01*
X024646Y028880D01*
X025146Y029880D02*
X026896Y029880D01*
X028646Y028130D01*
X034642Y028130D01*
X035658Y029146D01*
X036170Y029146D02*
X034904Y027880D01*
X028146Y027880D01*
X027146Y028880D01*
X027146Y030380D02*
X029146Y028380D01*
X034380Y028380D01*
X035146Y029146D01*
X035400Y026880D02*
X025146Y026880D01*
X024646Y027380D01*
X024646Y025880D02*
X025396Y025130D01*
X034634Y025130D01*
X038650Y029146D01*
X025146Y029880D02*
X024646Y030380D01*
X019225Y021801D02*
X012896Y028130D01*
X009878Y028130D01*
X009477Y027728D01*
X010422Y027728D02*
X010520Y027630D01*
X012896Y027630D01*
X018896Y021630D01*
X019225Y021801D02*
X019225Y021169D01*
X014042Y018752D02*
X013914Y018880D01*
X010896Y018880D01*
X010396Y018380D01*
X010396Y016630D01*
X011146Y016880D02*
X011146Y018380D01*
X003646Y019630D02*
X002396Y019630D01*
X002146Y019380D01*
X002146Y015380D01*
X002396Y015130D01*
X002646Y015130D01*
X020528Y012610D02*
X022457Y014539D01*
X028599Y014539D01*
X027154Y012925D02*
X022823Y012925D01*
X022469Y012571D01*
D27*
X023256Y015130D02*
X019146Y015130D01*
X018896Y014880D01*
X015646Y014880D01*
X015146Y015380D01*
X011896Y015380D01*
X009146Y012630D01*
X003896Y012630D01*
X003646Y012880D01*
X003646Y015880D01*
X003396Y016130D01*
X002646Y016130D01*
X002646Y017130D02*
X004146Y018630D01*
X004146Y021380D01*
X003646Y021880D01*
X004896Y020130D02*
X004896Y016630D01*
X004396Y016130D01*
X004396Y013130D01*
X004396Y011130D02*
X003396Y010130D01*
X002646Y010130D01*
X002646Y008130D02*
X005646Y008130D01*
X005896Y008380D01*
X005896Y008880D01*
X009146Y006380D02*
X010896Y008130D01*
X010896Y011630D01*
X013896Y014630D01*
X014014Y014630D01*
X013396Y014880D02*
X012896Y014880D01*
X010146Y012130D01*
X008896Y013630D02*
X008396Y014130D01*
X008396Y019880D01*
X007896Y020130D02*
X007896Y013880D01*
X008146Y013630D01*
X007896Y020130D02*
X008396Y020630D01*
X023256Y015130D02*
X025146Y017020D01*
X025146Y018459D01*
X026248Y019561D01*
X020896Y008630D02*
X020896Y006380D01*
X021396Y005880D01*
X039646Y005880D01*
X041146Y004380D01*
X037896Y004380D02*
X036896Y005380D01*
X020896Y005380D01*
X020396Y005880D01*
X020396Y008630D01*
X019896Y008630D02*
X019896Y005380D01*
X020396Y004880D01*
X034146Y004880D01*
X034646Y004380D01*
X031396Y004380D02*
X020146Y004380D01*
X019396Y005130D01*
X019396Y008630D01*
D28*
X003146Y013880D02*
X002146Y012880D01*
X002146Y006630D01*
X002646Y006130D01*
M02*
