G75*
%MOIN*%
%OFA0B0*%
%FSLAX24Y24*%
%IPPOS*%
%LPD*%
%AMOC8*
5,1,8,0,0,1.08239X$1,22.5*
%
%ADD10R,0.0220X0.0102*%
%ADD11R,0.0102X0.0220*%
%ADD12R,0.0157X0.0157*%
%ADD13R,0.0820X0.1500*%
%ADD14R,0.4500X0.3500*%
%ADD15R,0.0394X0.1102*%
%ADD16R,0.0787X0.0787*%
%ADD17R,0.2126X0.2441*%
%ADD18R,0.0394X0.0630*%
%ADD19R,0.0512X0.0591*%
%ADD20R,0.0591X0.0512*%
%ADD21R,0.0480X0.0880*%
%ADD22R,0.1417X0.0866*%
%ADD23R,0.1102X0.0394*%
%ADD24R,0.0709X0.0630*%
%ADD25R,0.0394X0.0551*%
%ADD26R,0.0787X0.0701*%
%ADD27R,0.0866X0.0236*%
%ADD28R,0.0551X0.0827*%
%ADD29R,0.0472X0.0472*%
%ADD30R,0.0581X0.0118*%
%ADD31R,0.0118X0.0581*%
%ADD32R,0.2661X0.2270*%
%ADD33R,0.0413X0.0157*%
%ADD34R,0.0110X0.1024*%
%ADD35R,0.0581X0.0177*%
D10*
X008991Y025539D03*
X008991Y025736D03*
X008991Y025933D03*
X008991Y026130D03*
X008991Y026327D03*
X008991Y026524D03*
X008991Y026721D03*
X009502Y026622D03*
X009502Y026425D03*
X009502Y026228D03*
X009502Y026032D03*
X009502Y025835D03*
X009502Y025638D03*
X009896Y025638D03*
X009896Y025835D03*
X009896Y026032D03*
X009896Y026228D03*
X009896Y026425D03*
X009896Y026622D03*
X010290Y026622D03*
X010290Y026425D03*
X010290Y026228D03*
X010290Y026032D03*
X010290Y025835D03*
X010290Y025638D03*
X010802Y025736D03*
X010802Y025539D03*
X010802Y025933D03*
X010802Y026130D03*
X010802Y026327D03*
X010802Y026524D03*
X010802Y026721D03*
D11*
X010487Y027036D03*
X010290Y027036D03*
X010093Y027036D03*
X009896Y027036D03*
X009699Y027036D03*
X009502Y027036D03*
X009306Y027036D03*
X009306Y025224D03*
X009502Y025224D03*
X009699Y025224D03*
X009896Y025224D03*
X010093Y025224D03*
X010290Y025224D03*
X010487Y025224D03*
D12*
X009069Y026957D03*
D13*
X012646Y032130D03*
X014646Y032130D03*
D14*
X013646Y036630D03*
D15*
X018146Y035955D03*
X018146Y037805D03*
X018146Y033805D03*
X018146Y031955D03*
X026646Y035705D03*
X026646Y037555D03*
D16*
X015933Y029380D03*
X014359Y029380D03*
X010433Y034130D03*
X008859Y034130D03*
D17*
X022646Y036614D03*
D18*
X021748Y033740D03*
X023544Y033740D03*
D19*
X023272Y030630D03*
X024020Y030630D03*
X025772Y030630D03*
X026520Y030630D03*
X026520Y029130D03*
X025772Y029130D03*
X024020Y029130D03*
X023272Y029130D03*
X023272Y027630D03*
X024020Y027630D03*
X025772Y027630D03*
X026520Y027630D03*
X026520Y026130D03*
X025772Y026130D03*
X024020Y026130D03*
X023272Y026130D03*
X017770Y027880D03*
X017022Y027880D03*
X010520Y023380D03*
X009772Y023380D03*
X009770Y024380D03*
X009022Y024380D03*
X008772Y021630D03*
X009520Y021630D03*
X006020Y017630D03*
X005272Y017630D03*
X003020Y021880D03*
X002272Y021880D03*
X010022Y032880D03*
X010770Y032880D03*
X028522Y020630D03*
X029270Y020630D03*
X039272Y023130D03*
X040020Y023130D03*
X041522Y023130D03*
X042270Y023130D03*
X042772Y024130D03*
X043520Y024130D03*
X042270Y025630D03*
X041522Y025630D03*
X041522Y026630D03*
X042270Y026630D03*
X042772Y027630D03*
X043520Y027630D03*
X040020Y025630D03*
X039272Y025630D03*
X041522Y022130D03*
X042270Y022130D03*
X045272Y020130D03*
X046020Y020130D03*
X042270Y016880D03*
X041522Y016880D03*
X041522Y015880D03*
X042270Y015880D03*
X042270Y014880D03*
X041522Y014880D03*
X041522Y013880D03*
X042270Y013880D03*
X042270Y012880D03*
X041522Y012880D03*
X041522Y011130D03*
X042270Y011130D03*
X042270Y010130D03*
X041522Y010130D03*
X041522Y009130D03*
X042270Y009130D03*
X042270Y008130D03*
X041522Y008130D03*
X041522Y007130D03*
X042270Y007130D03*
X040020Y006630D03*
X039272Y006630D03*
X037270Y006630D03*
X036522Y006630D03*
X034270Y006630D03*
X033522Y006630D03*
X031520Y006630D03*
X030772Y006630D03*
X028770Y002630D03*
X028022Y002630D03*
X039272Y009130D03*
X040020Y009130D03*
X040020Y014880D03*
X039272Y014880D03*
X028770Y011630D03*
X028022Y011630D03*
X012770Y006130D03*
X012022Y006130D03*
X005270Y006880D03*
X004522Y006880D03*
X004522Y007880D03*
X005270Y007880D03*
X005270Y008880D03*
X004522Y008880D03*
X047272Y034380D03*
X048020Y034380D03*
D20*
X044396Y030254D03*
X044396Y029506D03*
X036646Y035256D03*
X036646Y036004D03*
X032146Y036756D03*
X032146Y037504D03*
X032146Y034504D03*
X032146Y033756D03*
X024646Y034506D03*
X024646Y035254D03*
X016146Y032754D03*
X016146Y032006D03*
X006896Y024254D03*
X006896Y023506D03*
X004896Y021504D03*
X004896Y020756D03*
X006146Y011504D03*
X006146Y010756D03*
X004396Y010504D03*
X004396Y009756D03*
X008146Y005754D03*
X009146Y005754D03*
X009146Y005006D03*
X008146Y005006D03*
X010146Y010756D03*
X010146Y011504D03*
X025646Y019756D03*
X025646Y020504D03*
X033396Y014504D03*
X033396Y013756D03*
X033896Y016256D03*
X033896Y017004D03*
X033896Y018256D03*
X033896Y019004D03*
X038646Y018756D03*
X038646Y019504D03*
X045896Y004004D03*
X045896Y003256D03*
D21*
X035095Y034910D03*
X034185Y034910D03*
X033275Y034910D03*
X031056Y034910D03*
X030146Y034910D03*
X029236Y034910D03*
D22*
X030146Y037350D03*
X034185Y037350D03*
D23*
X033300Y032630D03*
X035150Y032630D03*
X031071Y032630D03*
X029221Y032630D03*
D24*
X044396Y032681D03*
X044396Y031579D03*
X007896Y024431D03*
X007896Y023329D03*
D25*
X043522Y022197D03*
X044270Y022197D03*
X043896Y023063D03*
X043522Y025697D03*
X044270Y025697D03*
X043896Y026563D03*
X043646Y016813D03*
X043272Y015947D03*
X044020Y015947D03*
X043646Y014313D03*
X043272Y013447D03*
X044020Y013447D03*
X043646Y011063D03*
X043272Y010197D03*
X044020Y010197D03*
X043646Y008563D03*
X043272Y007697D03*
X044020Y007697D03*
D26*
X008933Y010130D03*
X007359Y010130D03*
X007359Y012130D03*
X008933Y012130D03*
D27*
X009479Y016630D03*
X009479Y017130D03*
X009479Y017630D03*
X009479Y018130D03*
X009479Y019380D03*
X009479Y019880D03*
X009479Y020380D03*
X009479Y020880D03*
X007313Y020880D03*
X007313Y020380D03*
X007313Y019880D03*
X007313Y019380D03*
X007313Y018130D03*
X007313Y017630D03*
X007313Y017130D03*
X007313Y016630D03*
D28*
X005260Y001839D03*
X007032Y001839D03*
X007032Y005421D03*
X005260Y005421D03*
X031510Y005421D03*
X033282Y005421D03*
X034760Y005421D03*
X036532Y005421D03*
X038010Y005421D03*
X039782Y005421D03*
X041260Y005421D03*
X043032Y005421D03*
X043032Y001839D03*
X041260Y001839D03*
X039782Y001839D03*
X038010Y001839D03*
X036532Y001839D03*
X034760Y001839D03*
X033282Y001839D03*
X031510Y001839D03*
D29*
X015809Y027880D03*
X014983Y027880D03*
D30*
X015419Y019575D03*
X015419Y019378D03*
X015419Y019181D03*
X015419Y018984D03*
X015419Y018787D03*
X015419Y018591D03*
X015419Y018394D03*
X015419Y018197D03*
X015419Y018000D03*
X015419Y017803D03*
X015419Y017606D03*
X015419Y017410D03*
X015419Y017213D03*
X015419Y017016D03*
X015419Y016819D03*
X015419Y016622D03*
X015419Y016425D03*
X015419Y016228D03*
X015419Y016032D03*
X015419Y015835D03*
X015419Y015638D03*
X015419Y015441D03*
X015419Y015244D03*
X015419Y015047D03*
X015419Y014850D03*
X015419Y014654D03*
X015419Y014457D03*
X015419Y014260D03*
X015419Y014063D03*
X015419Y013866D03*
X015419Y013669D03*
X015419Y013473D03*
X015419Y013276D03*
X015419Y013079D03*
X015419Y012882D03*
X015419Y012685D03*
X023874Y012685D03*
X023874Y012882D03*
X023874Y013079D03*
X023874Y013276D03*
X023874Y013473D03*
X023874Y013669D03*
X023874Y013866D03*
X023874Y014063D03*
X023874Y014260D03*
X023874Y014457D03*
X023874Y014654D03*
X023874Y014850D03*
X023874Y015047D03*
X023874Y015244D03*
X023874Y015441D03*
X023874Y015638D03*
X023874Y015835D03*
X023874Y016032D03*
X023874Y016228D03*
X023874Y016425D03*
X023874Y016622D03*
X023874Y016819D03*
X023874Y017016D03*
X023874Y017213D03*
X023874Y017410D03*
X023874Y017606D03*
X023874Y017803D03*
X023874Y018000D03*
X023874Y018197D03*
X023874Y018394D03*
X023874Y018591D03*
X023874Y018787D03*
X023874Y018984D03*
X023874Y019181D03*
X023874Y019378D03*
X023874Y019575D03*
D31*
X023091Y020358D03*
X022894Y020358D03*
X022697Y020358D03*
X022500Y020358D03*
X022304Y020358D03*
X022107Y020358D03*
X021910Y020358D03*
X021713Y020358D03*
X021516Y020358D03*
X021319Y020358D03*
X021122Y020358D03*
X020926Y020358D03*
X020729Y020358D03*
X020532Y020358D03*
X020335Y020358D03*
X020138Y020358D03*
X019941Y020358D03*
X019744Y020358D03*
X019548Y020358D03*
X019351Y020358D03*
X019154Y020358D03*
X018957Y020358D03*
X018760Y020358D03*
X018563Y020358D03*
X018367Y020358D03*
X018170Y020358D03*
X017973Y020358D03*
X017776Y020358D03*
X017579Y020358D03*
X017382Y020358D03*
X017185Y020358D03*
X016989Y020358D03*
X016792Y020358D03*
X016595Y020358D03*
X016398Y020358D03*
X016201Y020358D03*
X016201Y011902D03*
X016398Y011902D03*
X016595Y011902D03*
X016792Y011902D03*
X016989Y011902D03*
X017185Y011902D03*
X017382Y011902D03*
X017579Y011902D03*
X017776Y011902D03*
X017973Y011902D03*
X018170Y011902D03*
X018367Y011902D03*
X018563Y011902D03*
X018760Y011902D03*
X018957Y011902D03*
X019154Y011902D03*
X019351Y011902D03*
X019548Y011902D03*
X019744Y011902D03*
X019941Y011902D03*
X020138Y011902D03*
X020335Y011902D03*
X020532Y011902D03*
X020729Y011902D03*
X020926Y011902D03*
X021122Y011902D03*
X021319Y011902D03*
X021516Y011902D03*
X021713Y011902D03*
X021910Y011902D03*
X022107Y011902D03*
X022304Y011902D03*
X022500Y011902D03*
X022697Y011902D03*
X022894Y011902D03*
X023091Y011902D03*
D32*
X019646Y016130D03*
D33*
X027941Y016130D03*
X027941Y015815D03*
X027941Y015500D03*
X027941Y015185D03*
X027941Y014870D03*
X027941Y014555D03*
X027941Y014240D03*
X027941Y013925D03*
X027941Y013610D03*
X027941Y013295D03*
X027941Y012980D03*
X027941Y012665D03*
X027941Y012350D03*
X032351Y012350D03*
X032351Y012665D03*
X032351Y012980D03*
X032351Y013295D03*
X032351Y013610D03*
X032351Y013925D03*
X032351Y014240D03*
X032351Y014555D03*
X032351Y014870D03*
X032351Y015185D03*
X032351Y015500D03*
X032351Y015815D03*
X032351Y016130D03*
X032351Y016445D03*
X032351Y016760D03*
X032351Y017075D03*
X032351Y017390D03*
X032351Y017705D03*
X032351Y018020D03*
X032351Y018335D03*
X032351Y018650D03*
X032351Y018965D03*
X032351Y019280D03*
X032351Y019595D03*
X032351Y019910D03*
X027941Y019910D03*
X027941Y019595D03*
X027941Y019280D03*
X027941Y018965D03*
X027941Y018650D03*
X027941Y018335D03*
X027941Y018020D03*
X027941Y017705D03*
X027941Y017390D03*
X027941Y017075D03*
X027941Y016760D03*
X027941Y016445D03*
D34*
X039874Y034563D03*
X040071Y034563D03*
X040268Y034563D03*
X040465Y034563D03*
X040662Y034563D03*
X040859Y034563D03*
X041056Y034563D03*
X041252Y034563D03*
X041449Y034563D03*
X041646Y034563D03*
X041843Y034563D03*
X042040Y034563D03*
X042237Y034563D03*
X042433Y034563D03*
X042630Y034563D03*
X042827Y034563D03*
X043024Y034563D03*
X043221Y034563D03*
X043418Y034563D03*
D35*
X032803Y029287D03*
X032803Y029032D03*
X032803Y028776D03*
X032803Y028520D03*
X032803Y028264D03*
X032803Y028008D03*
X032803Y027752D03*
X032803Y027496D03*
X032803Y027240D03*
X032803Y026984D03*
X032803Y026728D03*
X032803Y026473D03*
X030489Y026473D03*
X030489Y026728D03*
X030489Y026984D03*
X030489Y027240D03*
X030489Y027496D03*
X030489Y027752D03*
X030489Y028008D03*
X030489Y028264D03*
X030489Y028520D03*
X030489Y028776D03*
X030489Y029032D03*
X030489Y029287D03*
M02*
